<svg width="141" height="141" viewBox="0 0 141 141" fill="none" xmlns="http://www.w3.org/2000/svg">
<g filter="url(#filter0_d_1156_3200)">
<path d="M106.613 0H34.3872C17.6048 0 4 13.6048 4 30.3872V102.613C4 119.395 17.6048 133 34.3872 133H106.613C123.395 133 137 119.395 137 102.613V30.3872C137 13.6048 123.395 0 106.613 0Z" fill="white"/>
<g clip-path="url(#clip0_1156_3200)">
<path d="M70.1609 64.0843C70.5022 63.9432 70.7235 63.6114 70.7235 63.2377V40.9153C70.7235 40.4081 70.3222 40 69.8233 40C63.859 40 58.2136 42.3264 53.9261 46.5522C53.7535 46.72 53.656 46.9526 53.6523 47.1929C53.6485 47.437 53.7385 47.6696 53.9073 47.8412L69.1818 63.8708C69.3544 64.0538 69.5869 64.1492 69.827 64.1492C69.9395 64.1492 70.0558 64.1263 70.1646 64.0805L70.1609 64.0843ZM68.923 60.9799L55.8354 47.2425C59.474 43.9473 64.0616 42.0557 68.923 41.8497V60.9837V60.9799Z" fill="#2374BB"/>
<path d="M69.752 68.0092C69.7745 67.7461 69.6845 67.4791 69.5044 67.2884L54.2262 51.2589C54.0611 51.0834 53.8361 50.9843 53.596 50.9805C53.3597 50.9805 53.1271 51.0682 52.9583 51.236C48.472 55.66 46 61.5867 46 67.9253C46 72.7689 47.4554 77.4141 50.2125 81.3576C50.3888 81.6093 50.6664 81.7428 50.9477 81.7428C51.1278 81.7428 51.3078 81.6894 51.4654 81.575L69.3731 68.6728C69.5869 68.5203 69.7257 68.2762 69.7482 68.0092H69.752ZM51.1765 79.546C48.9671 76.0793 47.8005 72.0824 47.8005 67.9253C47.8005 62.3876 49.8449 57.197 53.5772 53.2001L67.4826 67.7956L51.1765 79.546Z" fill="#2374BB"/>
<path d="M96.7937 67.1999C96.7449 66.8223 96.6849 66.4448 96.6211 66.071C96.4748 65.251 96.2873 64.4501 96.0697 63.6988C95.976 63.3632 95.8709 63.0314 95.7621 62.7034C95.5258 61.994 95.2482 61.2847 94.9444 60.602C94.8131 60.3007 94.6743 60.007 94.5318 59.7134C94.2167 59.0765 93.8678 58.4434 93.4927 57.8293C93.3277 57.5624 93.1626 57.2954 92.9901 57.0399C92.5625 56.3991 92.0973 55.7737 91.6097 55.1825C91.4146 54.9461 91.2196 54.7134 91.0132 54.4808C90.5631 53.9774 90.083 53.4778 89.5803 53.0048C89.359 52.7951 89.1339 52.5891 88.9051 52.3908C88.3875 51.937 87.8436 51.4984 87.2922 51.0979C87.0408 50.9149 86.7895 50.7318 86.5344 50.564C85.9342 50.1597 85.3266 49.786 84.7301 49.4618C84.4526 49.3092 84.1675 49.1605 83.8824 49.0194C83.1509 48.6571 82.3932 48.3291 81.628 48.0469C81.3129 47.9324 80.9903 47.818 80.6715 47.7151C79.925 47.4786 79.1523 47.2765 78.372 47.1125C78.0119 47.04 77.6518 46.9714 77.2842 46.9142C76.4327 46.7807 75.5437 46.6968 74.6472 46.6586C74.3358 46.6472 74.0245 46.6357 73.7132 46.6357C72.9779 46.6357 72.3778 47.246 72.3778 47.9935V69.6141L55.0364 82.112C54.7476 82.3179 54.5488 82.6383 54.4888 82.9968C54.4325 83.3515 54.5113 83.71 54.7176 84.0036L54.8038 84.1219C55.1827 84.6558 55.5991 85.1897 56.083 85.7618C56.2818 85.9945 56.4806 86.2233 56.6869 86.4483C57.137 86.9403 57.6284 87.4285 58.1461 87.9014C58.3711 88.1073 58.6 88.3094 58.8363 88.5078C59.4777 89.0493 60.0741 89.507 60.6631 89.9151C60.8769 90.0638 61.0982 90.2011 61.3195 90.3384L61.447 90.4185C62.051 90.7999 62.6699 91.1546 63.3001 91.4749C63.5852 91.6199 63.874 91.761 64.1628 91.8945C64.8005 92.1881 65.4795 92.4589 66.241 92.722C66.5636 92.8327 66.8861 92.9394 67.2125 93.0348C68.0227 93.2751 68.7842 93.4619 69.5419 93.603C69.9095 93.6717 70.2809 93.7251 70.6523 93.7747C71.6613 93.912 72.6704 93.9844 73.6306 93.9844C73.6456 93.9844 73.7019 93.9844 73.7169 93.9844C74.137 93.9844 74.5534 93.973 74.9698 93.9501C76.0726 93.8891 77.1829 93.748 78.2745 93.5268C78.8222 93.4162 79.3736 93.2789 79.9625 93.1149C81.6542 92.6343 83.286 91.9669 84.8089 91.1241C86.3356 90.2812 87.7798 89.2515 89.1039 88.0616C89.8467 87.3979 90.5481 86.6848 91.1858 85.9449C92.3561 84.5948 93.3689 83.1265 94.1979 81.578C95.0232 80.0334 95.6796 78.3782 96.156 76.6506C96.3211 76.0442 96.4561 75.4797 96.5611 74.9305C96.7749 73.8283 96.9175 72.6994 96.9775 71.5706C96.9963 71.151 97.0113 70.7277 97.0113 70.3005V70.2357C97.0075 69.2479 96.9362 68.222 96.805 67.1847L96.7937 67.1999ZM95.1732 71.4905C95.117 72.5278 94.9894 73.5728 94.7906 74.5911C94.6931 75.0945 94.5693 75.617 94.4155 76.1777C93.9766 77.768 93.3727 79.2974 92.6112 80.7199C91.8497 82.1463 90.912 83.504 89.8316 84.7511C89.2427 85.4338 88.5938 86.0898 87.9073 86.7038C86.6845 87.8022 85.3528 88.7519 83.9462 89.5299C82.5433 90.3041 81.0391 90.9219 79.4749 91.3643C78.9309 91.5207 78.4208 91.6465 77.9144 91.7457C76.9091 91.9478 75.885 92.0813 74.8647 92.1347C74.4821 92.1538 74.0995 92.169 73.7132 92.169C73.6982 92.169 73.6644 92.169 73.6531 92.169C72.7491 92.169 71.8151 92.1004 70.8811 91.9745C70.5397 91.9288 70.1946 91.8792 69.857 91.8182C69.1593 91.6885 68.4579 91.5131 67.7076 91.2919C67.4076 91.2041 67.1075 91.105 66.8111 91.002C66.1059 90.7579 65.4795 90.51 64.8943 90.2392C64.6242 90.1172 64.3579 89.9837 64.0991 89.8502C63.5252 89.5566 62.9475 89.2248 62.3886 88.8739L62.2573 88.79C62.0585 88.6641 61.8559 88.5383 61.6646 88.4086C61.1245 88.0387 60.573 87.6115 59.9804 87.1119C59.7666 86.9288 59.5527 86.742 59.3427 86.5513C58.8625 86.1127 58.4124 85.6627 57.996 85.2088C57.8047 85.0029 57.6209 84.7855 57.4409 84.5757C57.077 84.1447 56.7507 83.7367 56.4581 83.3324L73.7957 70.8383C74.0357 70.6667 74.1745 70.3883 74.1745 70.0946V48.474C74.3096 48.474 74.4409 48.4854 74.5759 48.4893C75.4087 48.5236 76.2264 48.5999 77.0066 48.7219C77.3442 48.7753 77.6781 48.8363 78.0119 48.905C78.7284 49.0537 79.4411 49.2406 80.1313 49.4618C80.4276 49.5571 80.7202 49.6601 81.0128 49.7669C81.718 50.0262 82.4195 50.3275 83.0909 50.6631C83.3535 50.7928 83.6161 50.9301 83.8749 51.0712C84.4226 51.3725 84.9815 51.7119 85.5404 52.0895C85.7767 52.2459 86.0055 52.4099 86.2381 52.5815C86.7482 52.9553 87.2509 53.3557 87.7273 53.7752C87.9373 53.9621 88.1474 54.149 88.3537 54.3435C88.8189 54.7821 89.2652 55.2436 89.6779 55.7088C89.8654 55.9224 90.0492 56.136 90.2293 56.3534C90.6794 56.9026 91.107 57.4785 91.5046 58.0696C91.6659 58.3099 91.8197 58.554 91.966 58.798C92.3111 59.3625 92.6337 59.9498 92.9226 60.5333C93.0538 60.8003 93.1814 61.0711 93.3052 61.3495C93.5865 61.9826 93.8378 62.6348 94.0591 63.2907C94.1604 63.592 94.2542 63.8971 94.3442 64.2099C94.5468 64.9078 94.7156 65.6439 94.8506 66.399C94.9144 66.7422 94.9669 67.0893 95.0119 67.4402C95.1357 68.4013 95.1995 69.3471 95.2032 70.2548V70.3158C95.2032 70.7124 95.192 71.1015 95.1732 71.4905Z" fill="#2374BB"/>
</g>
</g>
<defs>
<filter id="filter0_d_1156_3200" x="0" y="0" width="141" height="141" filterUnits="userSpaceOnUse" color-interpolation-filters="sRGB">
<feFlood flood-opacity="0" result="BackgroundImageFix"/>
<feColorMatrix in="SourceAlpha" type="matrix" values="0 0 0 0 0 0 0 0 0 0 0 0 0 0 0 0 0 0 127 0" result="hardAlpha"/>
<feOffset dy="4"/>
<feGaussianBlur stdDeviation="2"/>
<feComposite in2="hardAlpha" operator="out"/>
<feColorMatrix type="matrix" values="0 0 0 0 0.780392 0 0 0 0 0.858824 0 0 0 0 0.929412 0 0 0 1 0"/>
<feBlend mode="normal" in2="BackgroundImageFix" result="effect1_dropShadow_1156_3200"/>
<feBlend mode="normal" in="SourceGraphic" in2="effect1_dropShadow_1156_3200" result="shape"/>
</filter>
<clipPath id="clip0_1156_3200">
<rect width="51" height="54" fill="white" transform="translate(46 40)"/>
</clipPath>
</defs>
</svg>
