<svg width="141" height="141" viewBox="0 0 141 141" fill="none" xmlns="http://www.w3.org/2000/svg">
<g filter="url(#filter0_d_1156_3206)">
<path d="M106.613 0H34.3872C17.6048 0 4 13.6048 4 30.3872V102.613C4 119.395 17.6048 133 34.3872 133H106.613C123.395 133 137 119.395 137 102.613V30.3872C137 13.6048 123.395 0 106.613 0Z" fill="white"/>
<g clip-path="url(#clip0_1156_3206)">
<path d="M94.6038 47.835H83.1879V55.0745H94.6038V47.835ZM91.4395 48.8035L88.8976 50.8381L86.3557 48.8035H91.4395ZM93.6406 54.1095H84.1546V48.8035H84.8083L88.8976 52.0749L92.9869 48.8035H93.6406V54.1095Z" fill="#2374BB"/>
<path d="M67.5262 88.5024C67.707 90.3245 68.5242 92.042 69.8247 93.3381C69.9846 93.4983 70.1967 93.5819 70.4123 93.5819C70.4958 93.5819 70.5827 93.568 70.6627 93.5436C70.9583 93.4495 71.1773 93.1987 71.2295 92.8921C71.4451 91.6727 72.4917 90.7878 73.7262 90.7878H77.885C78.9386 90.7878 79.8636 91.4254 80.2461 92.4148C80.3539 92.6935 80.6008 92.8921 80.8963 92.9374C81.1919 92.9827 81.4875 92.8643 81.6753 92.6343C82.9688 91.0073 83.5704 88.9588 83.3652 86.8719C82.9931 83.1163 80.0062 80.1201 76.2576 79.7508C75.976 79.7229 75.7013 79.709 75.444 79.709C73.2011 79.709 71.0487 80.6671 69.543 82.3324C68.0165 84.0221 67.3002 86.2135 67.5262 88.5024ZM75.4474 89.5824C73.7853 89.5824 72.4326 88.2272 72.4326 86.5618C72.4326 84.8965 73.7853 83.5413 75.4474 83.5413C77.1096 83.5413 78.4622 84.8965 78.4622 86.5618C78.4622 88.2272 77.1096 89.5824 75.4474 89.5824ZM70.7809 83.4542C71.9736 82.1338 73.674 81.3778 75.4474 81.3778C75.6526 81.3778 75.8682 81.3882 76.0977 81.4126C79.0569 81.7053 81.4179 84.0674 81.71 87.0357C81.8317 88.269 81.5988 89.4814 81.0493 90.5509C80.3921 89.7914 79.4741 89.2967 78.4588 89.1574C79.0603 88.4571 79.4289 87.5513 79.4289 86.5584C79.4289 84.36 77.6451 82.5728 75.4509 82.5728C73.2567 82.5728 71.4729 84.36 71.4729 86.5584C71.4729 87.614 71.8902 88.5721 72.5578 89.2863C71.5598 89.5789 70.7044 90.2269 70.162 91.1084C69.6265 90.2757 69.2892 89.3246 69.1883 88.3317C69.0075 86.52 69.5778 84.7851 70.7844 83.4507L70.7809 83.4542Z" fill="#2374BB"/>
<path d="M46.7459 72.6299C46.9859 72.8668 47.3405 72.9365 47.6535 72.8076C47.963 72.6787 48.1647 72.3721 48.1647 72.0376V71.3025C48.1647 68.7244 50.0911 66.5644 52.6469 66.2787C52.6573 66.2787 52.6677 66.2787 52.6782 66.2752C52.8729 66.2543 53.0503 66.2439 53.2206 66.2439H60.4673C63.2526 66.2439 65.5198 68.5119 65.5198 71.3025V72.0376C65.5198 72.3756 65.7215 72.6787 66.031 72.8076C66.1353 72.8494 66.2431 72.8703 66.3509 72.8703C66.5665 72.8703 66.7786 72.7867 66.935 72.6299C69.6925 69.8985 71.2121 66.2613 71.2121 62.3941C71.2121 54.4543 64.7652 47.9951 56.8405 47.9951C48.9158 47.9951 42.4654 54.4543 42.4654 62.3941C42.4654 66.2613 43.985 69.8985 46.7459 72.6299ZM57.6055 64.5716H56.0685C53.3806 64.1953 51.3012 61.882 51.3012 59.0844C51.3012 56.0255 53.784 53.538 56.837 53.538C59.8901 53.538 62.3763 56.0255 62.3763 59.0844C62.3763 61.882 60.2969 64.1953 57.609 64.5716H57.6055ZM56.837 49.6639C63.8437 49.6639 69.543 55.3741 69.543 62.3907C69.543 65.1499 68.6667 67.7768 67.0463 69.9577C66.4656 67.0939 64.0628 64.8851 61.1106 64.5995C62.7588 63.3209 63.8229 61.3246 63.8229 59.0775C63.8229 55.2208 60.6898 52.0783 56.837 52.0783C52.9842 52.0783 49.8546 55.2173 49.8546 59.0775C49.8546 61.3246 50.9222 63.3209 52.5669 64.5995C52.546 64.5995 52.5252 64.5995 52.5008 64.6064C52.4661 64.6064 52.4313 64.6134 52.4 64.6169C49.4826 64.9722 47.191 67.1601 46.6277 69.9542C45.0073 67.7733 44.131 65.1464 44.131 62.3837C44.131 55.3636 49.8303 49.6569 56.837 49.6569V49.6639Z" fill="#2374BB"/>
<path d="M88.8976 61.9173C94.8368 61.9173 99.6667 57.0781 99.6667 51.1276C99.6667 45.1771 94.8368 40.3379 88.8976 40.3379C82.9584 40.3379 78.1284 45.1771 78.1284 51.1276C78.1284 57.0781 82.9584 61.9173 88.8976 61.9173ZM88.8976 42.0067C93.9188 42.0067 98.0011 46.0968 98.0011 51.1241C98.0011 56.1514 93.9188 60.245 88.8976 60.245C83.8764 60.245 79.7975 56.1549 79.7975 51.1241C79.7975 46.0933 83.8798 42.0067 88.8976 42.0067Z" fill="#2374BB"/>
<path d="M40 62.3944C40 71.6999 47.5527 79.267 56.8405 79.267C59.3372 79.267 61.8269 78.6956 64.0837 77.6121L67.3767 81.2842C65.7041 83.3885 64.9356 86.0084 65.2034 88.7328C65.6867 93.5928 69.5534 97.467 74.4008 97.9477C74.7416 97.9826 75.0928 98 75.444 98C78.3475 98 81.1259 96.7632 83.0731 94.6102C85.0482 92.4257 85.9767 89.5933 85.6846 86.6424C85.2047 81.7824 81.3345 77.9083 76.4872 77.4275C74.4008 77.2184 72.2762 77.6713 70.4332 78.6956L67.4984 75.4242C71.386 72.226 73.681 67.4217 73.681 62.3909C73.681 61.067 73.5176 59.7327 73.1976 58.4227L77.1896 57.0082C79.4081 61.4328 83.9216 64.2513 88.8976 64.2513C96.1199 64.2513 101.997 58.3635 101.997 51.1239C101.997 43.8843 96.1199 38 88.8976 38C81.6753 38 75.7952 43.8878 75.7952 51.1274C75.7952 51.8102 75.8508 52.5035 75.9656 53.1968L71.7928 54.674C68.9067 49.0893 63.1205 45.5218 56.8405 45.5218C47.5527 45.5218 40 53.0888 40 62.3944ZM56.8405 47.1906C62.7275 47.1906 68.1347 50.671 70.614 56.0571C70.7948 56.4473 71.2434 56.639 71.6468 56.4961L77.193 54.5312C77.5895 54.3918 77.819 53.9772 77.7285 53.5661C77.5512 52.7474 77.4608 51.9287 77.4608 51.1274C77.4608 44.8111 82.5898 39.6688 88.8941 39.6688C95.1984 39.6688 100.327 44.8076 100.327 51.1274C100.327 57.4472 95.1984 62.586 88.8941 62.586C84.325 62.586 80.2009 59.8616 78.3892 55.6425C78.2154 55.2384 77.7598 55.0398 77.346 55.1862L71.9145 57.1093C71.4972 57.2556 71.2677 57.705 71.3929 58.1301C71.8032 59.5341 72.0119 60.9695 72.0119 62.3944C72.0119 67.1987 69.6821 71.7766 65.7841 74.6438C65.5928 74.7832 65.4711 74.9957 65.4468 75.2326C65.4224 75.466 65.4989 75.7029 65.6554 75.8771L69.6473 80.3261C69.922 80.6327 70.3776 80.6919 70.7218 80.4689C72.384 79.3854 74.3695 78.8977 76.3202 79.0893C80.3817 79.4934 83.6225 82.7405 84.0259 86.8097C84.2693 89.2867 83.4939 91.6593 81.8352 93.4918C80.2044 95.2965 77.8711 96.3312 75.4405 96.3312C75.1414 96.3312 74.8459 96.3173 74.5607 96.2894C70.4993 95.8887 67.2584 92.6417 66.8551 88.5725C66.6117 86.0955 67.3871 83.7229 69.011 81.9252C69.0353 81.9043 69.0875 81.8521 69.1084 81.8277C69.3865 81.5106 69.3831 81.0368 69.0979 80.7198L64.8904 76.0269C64.727 75.8458 64.501 75.7517 64.2715 75.7517C64.1393 75.7517 64.0072 75.7831 63.882 75.8493C61.6809 77.0129 59.3094 77.6052 56.8335 77.6052C48.4672 77.6052 41.6621 70.7836 41.6621 62.4013C41.6621 54.019 48.4741 47.1906 56.8405 47.1906Z" fill="#2374BB"/>
</g>
</g>
<defs>
<filter id="filter0_d_1156_3206" x="0" y="0" width="141" height="141" filterUnits="userSpaceOnUse" color-interpolation-filters="sRGB">
<feFlood flood-opacity="0" result="BackgroundImageFix"/>
<feColorMatrix in="SourceAlpha" type="matrix" values="0 0 0 0 0 0 0 0 0 0 0 0 0 0 0 0 0 0 127 0" result="hardAlpha"/>
<feOffset dy="4"/>
<feGaussianBlur stdDeviation="2"/>
<feComposite in2="hardAlpha" operator="out"/>
<feColorMatrix type="matrix" values="0 0 0 0 0.780392 0 0 0 0 0.858824 0 0 0 0 0.929412 0 0 0 1 0"/>
<feBlend mode="normal" in2="BackgroundImageFix" result="effect1_dropShadow_1156_3206"/>
<feBlend mode="normal" in="SourceGraphic" in2="effect1_dropShadow_1156_3206" result="shape"/>
</filter>
<clipPath id="clip0_1156_3206">
<rect width="62" height="60" fill="white" transform="translate(40 38)"/>
</clipPath>
</defs>
</svg>
