<svg width="141" height="141" viewBox="0 0 141 141" fill="none" xmlns="http://www.w3.org/2000/svg">
<g filter="url(#filter0_d_0_1)">
<path d="M106.613 0H34.3872C17.6048 0 4 13.6048 4 30.3872V102.613C4 119.395 17.6048 133 34.3872 133H106.613C123.395 133 137 119.395 137 102.613V30.3872C137 13.6048 123.395 0 106.613 0Z" fill="white"/>
</g>
<path d="M65.0364 94C77.1944 94 87.0728 83.8615 87.0728 71.3835C87.0728 65.4941 84.8718 60.1156 81.2558 56.0818L85.3959 51.8327C85.5531 52.0479 85.7627 52.2093 86.0509 52.2362L94.724 53.2043C94.724 53.2043 94.8026 53.2043 94.8288 53.2043C95.3004 53.2043 95.6935 52.8547 95.7459 52.3706C95.7983 51.8597 95.4315 51.3757 94.9336 51.3219L86.7846 50.4075L89.169 47.9604C89.169 47.9604 89.2476 47.9604 89.3 47.9604L97.9731 48.9285C97.9731 48.9285 98.0517 48.9285 98.0779 48.9285C98.5496 48.9285 98.9426 48.5789 98.995 48.0948C99.0474 47.5839 98.6806 47.0998 98.1827 47.046L90.846 46.2123L95.3004 41.6406C95.6673 41.2641 95.6673 40.6725 95.3004 40.296C94.9336 39.9195 94.3572 39.9195 93.9903 40.296L89.4311 44.9752L87.0204 38.6018C86.837 38.1177 86.3129 37.8756 85.8151 38.0639C85.3434 38.2521 85.1076 38.79 85.291 39.301L87.9637 46.3737C87.9637 46.3737 87.9899 46.4274 87.9899 46.4543L86.0247 48.4712L83.6141 41.8827C83.4307 41.3987 82.9066 41.1566 82.435 41.3179C81.9633 41.5062 81.7275 42.044 81.8847 42.5281L84.5574 49.8427C84.5574 49.8427 84.5836 49.8966 84.6098 49.9235L79.9457 54.7102C76.0153 50.9991 70.801 48.7402 65.0364 48.7402C52.9046 48.7402 43 58.8785 43 71.3566C43 83.8346 52.8784 93.9731 65.0364 93.9731V94ZM65.0364 50.6764C70.2769 50.6764 75.0458 52.7202 78.6356 56.0818L74.2859 60.546C71.8229 58.3139 68.6 56.9693 65.0626 56.9693C57.3328 56.9693 51.0442 63.4233 51.0442 71.3566C51.0442 79.2898 57.3328 85.744 65.0626 85.744C72.7924 85.744 79.081 79.2898 79.081 71.3566C79.081 67.7261 77.7709 64.4185 75.5961 61.8906L79.9457 57.4264C83.221 61.1106 85.2124 66.005 85.2124 71.3835C85.2124 82.8127 76.1725 92.0906 65.0364 92.0906C53.9003 92.0906 44.8604 82.8127 44.8604 71.3835C44.8604 59.9543 53.9265 50.6764 65.0364 50.6764ZM64.3813 72.0558C64.5648 72.244 64.8006 72.3248 65.0364 72.3248C65.2722 72.3248 65.5081 72.244 65.6915 72.0558L68.5476 69.1246C68.9406 69.77 69.1764 70.5498 69.1764 71.3835C69.1764 73.7231 67.316 75.6325 65.0364 75.6325C62.7568 75.6325 60.8964 73.7231 60.8964 71.3835C60.8964 69.0439 62.7568 67.1345 65.0364 67.1345C65.8487 67.1345 66.5824 67.3766 67.2374 67.78L64.3813 70.7112C64.0145 71.0877 64.0145 71.6793 64.3813 72.0558ZM68.5476 66.4354C67.5519 65.6824 66.3465 65.2521 65.0364 65.2521C61.7349 65.2521 59.0622 67.9951 59.0622 71.3835C59.0622 74.7719 61.7349 77.515 65.0364 77.515C68.3379 77.515 71.0106 74.7719 71.0106 71.3835C71.0106 70.0389 70.5652 68.775 69.8577 67.78L74.2597 63.262C76.0939 65.4402 77.1944 68.2909 77.1944 71.3835C77.1944 78.2679 71.7443 83.8885 65.0102 83.8885C58.2761 83.8885 52.826 78.2948 52.826 71.3835C52.826 64.4722 58.2761 58.8787 65.0102 58.8787C68.0235 58.8787 70.801 60.0081 72.9234 61.8906L68.5214 66.4085L68.5476 66.4354Z" fill="#226FB7"/>
<defs>
<filter id="filter0_d_0_1" x="0" y="0" width="141" height="141" filterUnits="userSpaceOnUse" color-interpolation-filters="sRGB">
<feFlood flood-opacity="0" result="BackgroundImageFix"/>
<feColorMatrix in="SourceAlpha" type="matrix" values="0 0 0 0 0 0 0 0 0 0 0 0 0 0 0 0 0 0 127 0" result="hardAlpha"/>
<feOffset dy="4"/>
<feGaussianBlur stdDeviation="2"/>
<feComposite in2="hardAlpha" operator="out"/>
<feColorMatrix type="matrix" values="0 0 0 0 0.780392 0 0 0 0 0.858824 0 0 0 0 0.929412 0 0 0 1 0"/>
<feBlend mode="normal" in2="BackgroundImageFix" result="effect1_dropShadow_0_1"/>
<feBlend mode="normal" in="SourceGraphic" in2="effect1_dropShadow_0_1" result="shape"/>
</filter>
</defs>
</svg>
