<svg width="141" height="141" viewBox="0 0 141 141" fill="none" xmlns="http://www.w3.org/2000/svg">
<g filter="url(#filter0_d_1158_5608)">
<path d="M106.613 0H34.3872C17.6048 0 4 13.6048 4 30.3872V102.613C4 119.395 17.6048 133 34.3872 133H106.613C123.395 133 137 119.395 137 102.613V30.3872C137 13.6048 123.395 0 106.613 0Z" fill="white"/>
<g clip-path="url(#clip0_1158_5608)">
<path d="M85.3463 86H50.6537C47.5356 86 45 83.4582 45 80.3326V59.4646C45 56.3389 47.5356 53.7972 50.6537 53.7972H58.3164L59.9931 50.8573C60.9962 49.094 62.8788 48 64.9025 48H76.8805C78.9043 48 80.7869 49.094 81.79 50.8573L83.4667 53.7972H85.3463C88.4644 53.7972 91 56.3389 91 59.4646V80.3296C91 83.4553 88.4644 85.9971 85.3463 85.9971V86ZM50.6537 55.8613C48.6711 55.8613 47.0591 57.4771 47.0591 59.4646V80.3296C47.0591 82.3171 48.6711 83.933 50.6537 83.933H85.3434C87.326 83.933 88.938 82.3171 88.938 80.3296V59.4646C88.938 57.4771 87.326 55.8613 85.3434 55.8613H82.2665L79.9986 51.8805C79.3603 50.76 78.1631 50.0641 76.8776 50.0641H64.8996C63.6112 50.0641 62.4169 50.76 61.7786 51.8805L59.5107 55.8613H50.6537ZM70.3121 81.3646C64.0054 81.3646 58.8753 76.2221 58.8753 69.9001C58.8753 63.578 64.0054 58.4355 70.3121 58.4355C76.6187 58.4355 81.7488 63.578 81.7488 69.9001C81.7488 76.2221 76.6187 81.3646 70.3121 81.3646ZM70.3121 60.4996C65.1408 60.4996 60.9344 64.7162 60.9344 69.9001C60.9344 75.0839 65.1408 79.3005 70.3121 79.3005C75.4833 79.3005 79.6897 75.0839 79.6897 69.9001C79.6897 64.7162 75.4833 60.4996 70.3121 60.4996ZM52.9657 65.1349C51.1214 65.1349 49.6241 63.6311 49.6241 61.7852C49.6241 59.9393 51.1243 58.4355 52.9657 58.4355C54.8071 58.4355 56.3073 59.9393 56.3073 61.7852C56.3073 63.6311 54.8071 65.1349 52.9657 65.1349ZM52.9657 60.4996C52.2568 60.4996 51.6832 61.0775 51.6832 61.7852C51.6832 62.4929 52.2598 63.0708 52.9657 63.0708C53.6717 63.0708 54.2482 62.4929 54.2482 61.7852C54.2482 61.0775 53.6717 60.4996 52.9657 60.4996Z" fill="#00B382"/>
</g>
</g>
<defs>
<filter id="filter0_d_1158_5608" x="0" y="0" width="141" height="141" filterUnits="userSpaceOnUse" color-interpolation-filters="sRGB">
<feFlood flood-opacity="0" result="BackgroundImageFix"/>
<feColorMatrix in="SourceAlpha" type="matrix" values="0 0 0 0 0 0 0 0 0 0 0 0 0 0 0 0 0 0 127 0" result="hardAlpha"/>
<feOffset dy="4"/>
<feGaussianBlur stdDeviation="2"/>
<feComposite in2="hardAlpha" operator="out"/>
<feColorMatrix type="matrix" values="0 0 0 0 0.780392 0 0 0 0 0.858824 0 0 0 0 0.929412 0 0 0 1 0"/>
<feBlend mode="normal" in2="BackgroundImageFix" result="effect1_dropShadow_1158_5608"/>
<feBlend mode="normal" in="SourceGraphic" in2="effect1_dropShadow_1158_5608" result="shape"/>
</filter>
<clipPath id="clip0_1158_5608">
<rect width="46" height="38" fill="white" transform="translate(45 48)"/>
</clipPath>
</defs>
</svg>
