<svg width="141" height="141" viewBox="0 0 141 141" fill="none" xmlns="http://www.w3.org/2000/svg">
<g filter="url(#filter0_d_1158_5614)">
<path d="M106.613 0H34.3872C17.6048 0 4 13.6048 4 30.3872V102.613C4 119.395 17.6048 133 34.3872 133H106.613C123.395 133 137 119.395 137 102.613V30.3872C137 13.6048 123.395 0 106.613 0Z" fill="white"/>
<g clip-path="url(#clip0_1158_5614)">
<path d="M85.5334 63.0644C85.842 61.807 86 60.517 86 59.2271C86 50.2771 78.5969 43 69.5 43C60.4031 43 53 50.2771 53 59.2271C53 60.517 53.158 61.807 53.4703 63.0644C53.9112 65.6948 54.5174 67.8194 55.2705 69.3767C56.8908 72.7262 63.7134 83.7827 66.8474 88.8196C62.6112 89.3508 60.6456 91.1393 60.6456 92.8303C60.6456 94.8393 63.4158 97 69.5 97C75.5842 97 78.3544 94.8393 78.3544 92.8303C78.3544 91.1429 76.3888 89.3508 72.1526 88.8196C75.2866 83.7827 82.1092 72.7262 83.7295 69.3767C84.4826 67.8194 85.0888 65.6948 85.5297 63.0644H85.5334ZM75.8046 92.8303C75.6319 93.3036 73.501 94.496 69.5 94.496C65.499 94.496 63.3203 93.2784 63.1917 92.8484C63.3056 92.4329 65.0471 91.4103 68.3317 91.2044C68.3684 91.2658 68.4015 91.3128 68.4162 91.338C68.6476 91.7066 69.0591 91.9342 69.5 91.9342C69.9409 91.9342 70.3524 91.7066 70.5838 91.338C70.5985 91.3128 70.6279 91.2658 70.6683 91.2044C73.9125 91.4067 75.6503 92.4039 75.8046 92.8303ZM57.5668 68.3C56.9202 66.9667 56.3691 64.9975 55.9723 62.6127C55.9686 62.5802 55.9613 62.5477 55.9539 62.5152C55.6857 61.4384 55.5461 60.3328 55.5461 59.2271C55.5498 51.661 61.8066 45.5076 69.5 45.5076C77.1934 45.5076 83.4502 51.6646 83.4502 59.2271C83.4502 60.3328 83.3143 61.4384 83.0424 62.5152C83.0351 62.5477 83.0277 62.5802 83.024 62.6127C82.6273 65.0011 82.0762 66.9667 81.4295 68.3C79.7909 71.682 72.3216 83.7466 69.5 88.2812C66.6747 83.7466 59.2054 71.682 57.5705 68.3H57.5668Z" fill="#00B382"/>
<path d="M69.4999 51.5342C64.6171 51.5342 60.6455 55.4401 60.6455 60.2421C60.6455 65.0441 64.6171 68.95 69.4999 68.95C74.3826 68.95 78.3543 65.0441 78.3543 60.2421C78.3543 55.4401 74.3826 51.5342 69.4999 51.5342ZM63.1953 60.2421C63.1953 56.824 66.0243 54.0418 69.4999 54.0418C72.9755 54.0418 75.8045 56.824 75.8045 60.2421C75.8045 63.6602 72.9755 66.4424 69.4999 66.4424C66.0243 66.4424 63.1953 63.6602 63.1953 60.2421Z" fill="#00B382"/>
</g>
</g>
<defs>
<filter id="filter0_d_1158_5614" x="0" y="0" width="141" height="141" filterUnits="userSpaceOnUse" color-interpolation-filters="sRGB">
<feFlood flood-opacity="0" result="BackgroundImageFix"/>
<feColorMatrix in="SourceAlpha" type="matrix" values="0 0 0 0 0 0 0 0 0 0 0 0 0 0 0 0 0 0 127 0" result="hardAlpha"/>
<feOffset dy="4"/>
<feGaussianBlur stdDeviation="2"/>
<feComposite in2="hardAlpha" operator="out"/>
<feColorMatrix type="matrix" values="0 0 0 0 0.780392 0 0 0 0 0.858824 0 0 0 0 0.929412 0 0 0 1 0"/>
<feBlend mode="normal" in2="BackgroundImageFix" result="effect1_dropShadow_1158_5614"/>
<feBlend mode="normal" in="SourceGraphic" in2="effect1_dropShadow_1158_5614" result="shape"/>
</filter>
<clipPath id="clip0_1158_5614">
<rect width="33" height="54" fill="white" transform="translate(53 43)"/>
</clipPath>
</defs>
</svg>
