<svg width="141" height="141" viewBox="0 0 141 141" fill="none" xmlns="http://www.w3.org/2000/svg">
<g filter="url(#filter0_d_0_1)">
<path d="M106.613 0H34.3872C17.6048 0 4 13.6048 4 30.3872V102.613C4 119.395 17.6048 133 34.3872 133H106.613C123.395 133 137 119.395 137 102.613V30.3872C137 13.6048 123.395 0 106.613 0Z" fill="white"/>
</g>
<g clip-path="url(#clip0_0_1)">
<path d="M59.6349 84.0403C59.6349 84.2928 59.7269 84.5374 59.9031 84.72C60.0793 84.8986 60.3207 85.0035 60.5697 85.0035H81.2617C81.7674 84.9996 82.1774 84.5918 82.1965 84.083C82.2004 83.951 82.2348 82.611 81.959 80.77H97.0652C97.5709 80.77 97.9808 80.3622 98 79.8496C98.0115 79.5233 98.2031 71.8409 93.4524 67.4288C93.1153 67.1181 92.6096 67.0987 92.2533 67.3783C92.1958 67.421 86.6713 71.6312 81.5299 67.3822C81.1774 67.0909 80.6717 67.0987 80.3269 67.4016C80.2158 67.4987 78.7064 68.862 77.3923 71.4953C77.0896 71.3632 76.7295 71.3982 76.4536 71.6079C76.2276 71.7827 70.8448 75.8414 65.7264 71.6157C65.4774 71.4098 65.1479 71.3554 64.8568 71.4486C64.194 70.0116 63.2822 68.6056 62.0179 67.4288C61.6846 67.1181 61.1789 67.0987 60.8187 67.3783C60.7651 67.421 55.2368 71.6312 50.0954 67.3822C49.7429 67.0909 49.2333 67.0987 48.8924 67.4016C48.6893 67.5686 44.1149 71.6895 44 79.8068C44 80.0593 44.0919 80.304 44.2682 80.4865C44.4444 80.6691 44.6819 80.7662 44.9348 80.7662H59.9491C59.7728 81.776 59.6502 82.8596 59.6349 84.0403ZM81.028 69.3746C85.9166 72.8313 90.9047 70.4311 92.6939 69.3358C95.4753 72.3614 96.0078 76.9327 96.1036 78.8669H81.5797C81.1046 76.9327 80.2695 74.7577 78.8021 72.9129C79.576 71.1923 80.4763 70.0038 81.028 69.3708V69.3746ZM65.2245 73.6081C70.1169 77.0648 75.1012 74.6645 76.8942 73.5732C79.6756 76.5987 80.2082 81.1701 80.3039 83.1043H61.539C61.8685 78.0125 64.1748 74.816 65.2245 73.6081ZM45.9041 78.8747C46.2336 73.779 48.5399 70.5825 49.5896 69.3785C54.4782 72.8352 59.4663 70.4349 61.2555 69.3397C62.2171 70.3845 62.9029 71.6118 63.4009 72.8546C62.47 74.0198 61.1789 76.0239 60.3705 78.8747H45.9079H45.9041Z" fill="#00B382"/>
<path d="M46.4326 57.9718C46.4326 62.9161 50.4017 66.9359 55.2787 66.9359C57.6387 66.9359 59.857 65.9999 61.5312 64.3065C61.761 64.0735 61.9756 63.8249 62.1786 63.5686C62.8338 67.8642 66.4925 71.1694 70.9136 71.1694C73.2736 71.1694 75.4919 70.2334 77.1661 68.54C78.5606 67.1262 79.4226 65.3241 79.6755 63.3783C81.2922 65.5338 83.8438 66.9398 86.7171 66.9398C89.0771 66.9398 91.2992 66.0038 92.9695 64.3104C94.6438 62.6131 95.5632 60.3643 95.5632 57.9718C95.5632 53.0276 91.5903 49.0039 86.7133 49.0039C84.3533 49.0039 82.1312 49.9399 80.4609 51.6372C79.0663 53.0509 78.2043 54.8531 77.9553 56.7989C76.3385 54.6394 73.787 53.2373 70.9136 53.2373C68.5537 53.2373 66.3316 54.1734 64.6574 55.8668C64.4275 56.1037 64.213 56.3484 64.0099 56.6047C63.3586 52.3052 59.696 49 55.2787 49C52.9187 49 50.6967 49.936 49.0263 51.6333C47.3521 53.3306 46.4326 55.5794 46.4326 57.9718ZM81.7826 52.9694C83.1043 51.6294 84.8552 50.8915 86.7171 50.8915C90.5636 50.8915 93.6936 54.0646 93.6936 57.9641C93.6936 59.8517 92.9657 61.6266 91.6478 62.9666C90.3299 64.3065 88.5791 65.0406 86.7171 65.0406C82.8706 65.0406 79.7406 61.8674 79.7368 57.9718C79.7368 56.0843 80.4647 54.3093 81.7826 52.9694ZM65.9791 57.2028C67.3009 55.8629 69.0517 55.1249 70.9136 55.1249C74.7601 55.1249 77.8902 58.2981 77.8902 62.1975C77.8902 64.0851 77.1622 65.8601 75.8405 67.2C74.5226 68.5361 72.7717 69.274 70.9136 69.274C67.0672 69.274 63.9371 66.1009 63.9333 62.2053C63.9333 60.3177 64.6612 58.5428 65.9791 57.2028ZM55.2826 50.8954C59.1252 50.8954 62.2591 54.0685 62.2591 57.968C62.2591 59.8555 61.5312 61.6305 60.2094 62.9704C58.8915 64.3104 57.1407 65.0444 55.2787 65.0444C51.4323 65.0444 48.3022 61.8713 48.2984 57.9757C48.2984 56.0881 49.0263 54.3132 50.3442 52.9732C51.666 51.6333 53.4168 50.8954 55.2787 50.8954H55.2826Z" fill="#00B382"/>
</g>
<defs>
<filter id="filter0_d_0_1" x="0" y="0" width="141" height="141" filterUnits="userSpaceOnUse" color-interpolation-filters="sRGB">
<feFlood flood-opacity="0" result="BackgroundImageFix"/>
<feColorMatrix in="SourceAlpha" type="matrix" values="0 0 0 0 0 0 0 0 0 0 0 0 0 0 0 0 0 0 127 0" result="hardAlpha"/>
<feOffset dy="4"/>
<feGaussianBlur stdDeviation="2"/>
<feComposite in2="hardAlpha" operator="out"/>
<feColorMatrix type="matrix" values="0 0 0 0 0.780392 0 0 0 0 0.858824 0 0 0 0 0.929412 0 0 0 1 0"/>
<feBlend mode="normal" in2="BackgroundImageFix" result="effect1_dropShadow_0_1"/>
<feBlend mode="normal" in="SourceGraphic" in2="effect1_dropShadow_0_1" result="shape"/>
</filter>
<clipPath id="clip0_0_1">
<rect width="54" height="36" fill="white" transform="translate(44 49)"/>
</clipPath>
</defs>
</svg>
