<svg width="141" height="141" viewBox="0 0 141 141" fill="none" xmlns="http://www.w3.org/2000/svg">
<g filter="url(#filter0_d_1158_5620)">
<path d="M106.613 0H34.3872C17.6048 0 4 13.6048 4 30.3872V102.613C4 119.395 17.6048 133 34.3872 133H106.613C123.395 133 137 119.395 137 102.613V30.3872C137 13.6048 123.395 0 106.613 0Z" fill="white"/>
<g clip-path="url(#clip0_1158_5620)">
<path d="M70.5 43C68.644 43 66.5685 44.5038 66.5685 46.516V51.8252C57.1421 53.6891 50 62.1224 50 72.2184C50 83.6771 59.1966 93 70.5 93C81.8034 93 91 83.6771 91 72.2184C91 62.1224 83.8614 53.6891 74.4315 51.8252V46.516C74.4315 44.5038 72.356 43 70.5 43ZM52.3122 72.2184C52.3122 63.4215 58.4236 56.0472 66.5685 54.2186V58.2923C60.593 60.0291 56.2088 65.6101 56.2088 72.2184C56.2088 80.207 62.6197 86.7059 70.5 86.7059C78.3803 86.7059 84.7912 80.207 84.7912 72.2184C84.7912 65.6137 80.407 60.0291 74.4315 58.2923V54.2186C82.5764 56.0436 88.6878 63.418 88.6878 72.2184C88.6878 82.3851 80.5289 90.656 70.5 90.656C60.4711 90.656 52.3122 82.3851 52.3122 72.2184ZM70.5 45.344C71.2417 45.344 72.1192 45.9794 72.1192 46.516V67.2199C72.1192 67.7564 71.2417 68.3918 70.5 68.3918C69.7583 68.3918 68.8808 67.7564 68.8808 67.2199V46.516C68.8808 45.9794 69.7583 45.344 70.5 45.344ZM70.5 70.7358C72.356 70.7358 74.4315 69.232 74.4315 67.2199V60.7528C79.1116 62.4048 82.4789 66.9198 82.4789 72.222C82.4789 78.9185 77.1058 84.3654 70.5 84.3654C63.8942 84.3654 58.5211 78.9185 58.5211 72.222C58.5211 66.9233 61.8884 62.4048 66.5685 60.7528V67.2199C66.5685 69.232 68.644 70.7358 70.5 70.7358Z" fill="#00B382"/>
</g>
</g>
<defs>
<filter id="filter0_d_1158_5620" x="0" y="0" width="141" height="141" filterUnits="userSpaceOnUse" color-interpolation-filters="sRGB">
<feFlood flood-opacity="0" result="BackgroundImageFix"/>
<feColorMatrix in="SourceAlpha" type="matrix" values="0 0 0 0 0 0 0 0 0 0 0 0 0 0 0 0 0 0 127 0" result="hardAlpha"/>
<feOffset dy="4"/>
<feGaussianBlur stdDeviation="2"/>
<feComposite in2="hardAlpha" operator="out"/>
<feColorMatrix type="matrix" values="0 0 0 0 0.780392 0 0 0 0 0.858824 0 0 0 0 0.929412 0 0 0 1 0"/>
<feBlend mode="normal" in2="BackgroundImageFix" result="effect1_dropShadow_1158_5620"/>
<feBlend mode="normal" in="SourceGraphic" in2="effect1_dropShadow_1158_5620" result="shape"/>
</filter>
<clipPath id="clip0_1158_5620">
<rect width="41" height="50" fill="white" transform="translate(50 43)"/>
</clipPath>
</defs>
</svg>
