<svg width="141" height="141" viewBox="0 0 141 141" fill="none" xmlns="http://www.w3.org/2000/svg">
<g filter="url(#filter0_d_0_1)">
<path d="M106.613 0H34.3872C17.6048 0 4 13.6048 4 30.3872V102.613C4 119.395 17.6048 133 34.3872 133H106.613C123.395 133 137 119.395 137 102.613V30.3872C137 13.6048 123.395 0 106.613 0Z" fill="white"/>
</g>
<g clip-path="url(#clip0_0_1)">
<path d="M78.6435 58.626C83.8029 58.626 87.9959 54.4474 87.9959 49.3109C87.9959 44.1744 83.8029 40 78.6435 40C73.4842 40 69.2912 44.1786 69.2912 49.3109C69.2912 50.4918 69.5234 51.619 69.9257 52.6596L59.6651 59.6954C58.1555 58.6507 56.3265 58.0355 54.3523 58.0355C49.193 58.0355 45 62.2141 45 67.3464C45 72.4788 49.1971 76.6574 54.3523 76.6574C56.5214 76.6574 58.5163 75.91 60.1047 74.6754L69.6354 81.2034C69.4156 81.9921 69.287 82.822 69.287 83.6808C69.287 88.8173 73.4842 92.9917 78.6394 92.9917C83.7946 92.9917 87.9917 88.8132 87.9917 83.6808C87.9917 78.5485 83.7946 74.3658 78.6394 74.3658C76.3791 74.3658 74.3054 75.1668 72.6879 76.5005L63.2941 70.0675C63.5595 69.2045 63.7047 68.292 63.7047 67.3464C63.7047 66.211 63.489 65.1292 63.1157 64.1217L73.4427 57.0404C74.9316 58.0355 76.7191 58.6177 78.6435 58.6177V58.626ZM78.6435 42.2916C82.5338 42.2916 85.6982 45.442 85.6982 49.3151C85.6982 53.1881 82.5338 56.3385 78.6435 56.3385C74.7533 56.3385 71.593 53.1881 71.593 49.3151C71.593 45.442 74.7574 42.2916 78.6435 42.2916ZM54.3523 74.374C50.4621 74.374 47.2976 71.2236 47.2976 67.3547C47.2976 63.4858 50.4621 60.3354 54.3523 60.3354C58.2426 60.3354 61.407 63.4858 61.407 67.3547C61.407 71.2236 58.2426 74.374 54.3523 74.374ZM78.6435 76.6656C82.5338 76.6656 85.6982 79.8161 85.6982 83.6891C85.6982 87.5621 82.5338 90.7084 78.6435 90.7084C74.7533 90.7084 71.593 87.558 71.593 83.6891C71.593 79.8202 74.7574 76.6656 78.6435 76.6656ZM71.1036 78.2016C70.9004 78.4741 70.7137 78.759 70.5437 79.0522L61.7513 73.0321C61.9586 72.7637 62.1494 72.4829 62.3277 72.1939L71.0994 78.2016H71.1036ZM62.054 62.0778C61.8591 61.7971 61.6476 61.5328 61.4236 61.2727L71.0206 54.6952C71.2197 54.9718 71.4312 55.2361 71.6593 55.4921L62.0499 62.0778H62.054Z" fill="#ED1164"/>
</g>
<defs>
<filter id="filter0_d_0_1" x="0" y="0" width="141" height="141" filterUnits="userSpaceOnUse" color-interpolation-filters="sRGB">
<feFlood flood-opacity="0" result="BackgroundImageFix"/>
<feColorMatrix in="SourceAlpha" type="matrix" values="0 0 0 0 0 0 0 0 0 0 0 0 0 0 0 0 0 0 127 0" result="hardAlpha"/>
<feOffset dy="4"/>
<feGaussianBlur stdDeviation="2"/>
<feComposite in2="hardAlpha" operator="out"/>
<feColorMatrix type="matrix" values="0 0 0 0 0.780392 0 0 0 0 0.858824 0 0 0 0 0.929412 0 0 0 1 0"/>
<feBlend mode="normal" in2="BackgroundImageFix" result="effect1_dropShadow_0_1"/>
<feBlend mode="normal" in="SourceGraphic" in2="effect1_dropShadow_0_1" result="shape"/>
</filter>
<clipPath id="clip0_0_1">
<rect width="43" height="53" fill="white" transform="translate(45 40)"/>
</clipPath>
</defs>
</svg>
