<svg width="141" height="141" viewBox="0 0 141 141" fill="none" xmlns="http://www.w3.org/2000/svg">
<g filter="url(#filter0_d_1158_6280)">
<path d="M106.613 0H34.3872C17.6048 0 4 13.6048 4 30.3872V102.613C4 119.395 17.6048 133 34.3872 133H106.613C123.395 133 137 119.395 137 102.613V30.3872C137 13.6048 123.395 0 106.613 0Z" fill="white"/>
<g clip-path="url(#clip0_1158_6280)">
<path d="M56.5658 62.7541L43.6505 73.0759C43.3902 73.2822 43.2378 73.599 43.2378 73.9305V85.9027C43.2378 86.5105 43.736 87.0004 44.3457 87.0004H57.261C57.8744 87.0004 58.3689 86.5068 58.3689 85.9027V63.6124C58.3689 63.1887 58.1235 62.802 57.7369 62.6178C57.354 62.4336 56.893 62.4888 56.5621 62.7541H56.5658ZM56.1531 84.8049H45.4573V74.4573L56.1531 65.911V84.8049Z" fill="#ED1164"/>
<path d="M65.8455 56.0709L62.5144 58.1338C62.191 58.3364 61.9902 58.6863 61.9902 59.0658V85.8981C61.9902 86.5059 62.4884 86.9959 63.1018 86.9959H76.0172C76.6306 86.9959 77.1251 86.5022 77.1251 85.8981V66.9084C77.1251 66.6248 77.0135 66.3522 76.8165 66.1459L67.2322 56.2366C66.8679 55.8609 66.2879 55.7909 65.8418 56.0635L65.8455 56.0709ZM74.9056 84.8004H64.2097V59.6773L66.2582 58.4101L74.9093 67.3542V84.804L74.9056 84.8004Z" fill="#ED1164"/>
<path d="M89.5309 58.4916L81.0656 66.8794C80.9207 67.0231 80.8389 67.222 80.8389 67.4246V86.2301C80.8389 86.6537 81.1883 87 81.6159 87H90.0811C90.5124 87 90.8581 86.6537 90.8581 86.2301V59.0368C90.8581 58.7273 90.6685 58.4437 90.3785 58.3258C90.0885 58.2042 89.7539 58.2705 89.5309 58.4916ZM89.3041 85.4602H82.3929V67.7451L89.3041 60.897V85.4602Z" fill="#ED1164" stroke="#E5005A"/>
<path d="M96.814 46.3796C90.7058 50.8296 84.6013 55.2795 78.4931 59.7258C74.939 56.0421 71.3848 52.3546 67.8344 48.6672C67.4626 48.2804 66.7154 48.1478 66.2544 48.4646C58.3617 53.9018 50.469 59.339 42.58 64.7799C41.2118 65.7229 42.513 67.9663 43.896 67.0122C51.5099 61.7666 59.1201 56.5209 66.734 51.2716C70.2918 54.9664 73.8534 58.6575 77.4112 62.3523C77.7756 62.728 78.5414 62.8828 78.9913 62.5549C85.3709 57.906 91.7467 53.2608 98.1263 48.6156C99.4647 47.6395 98.1635 45.3961 96.8103 46.3833L96.814 46.3796Z" fill="#ED1164"/>
<path d="M97.6986 48.5786H85.7573C85.0397 48.5786 84.4561 48.0003 84.4561 47.2893C84.4561 46.5783 85.0397 46 85.7573 46H97.6986C98.4161 46 98.9998 46.5783 98.9998 47.2893C98.9998 48.0003 98.4161 48.5786 97.6986 48.5786Z" fill="#ED1164"/>
<path d="M94.6429 60.1386C94.5351 60.1386 94.4198 60.1239 94.312 60.0944C93.6168 59.9139 93.2041 59.2067 93.3863 58.5178L96.4311 47.0761C96.6133 46.3872 97.3271 45.9784 98.0223 46.1589C98.7175 46.3394 99.1302 47.0466 98.948 47.7355L95.9032 59.1772C95.7508 59.7555 95.2228 60.1386 94.6466 60.1386H94.6429Z" fill="#ED1164"/>
</g>
</g>
<defs>
<filter id="filter0_d_1158_6280" x="0" y="0" width="141" height="141" filterUnits="userSpaceOnUse" color-interpolation-filters="sRGB">
<feFlood flood-opacity="0" result="BackgroundImageFix"/>
<feColorMatrix in="SourceAlpha" type="matrix" values="0 0 0 0 0 0 0 0 0 0 0 0 0 0 0 0 0 0 127 0" result="hardAlpha"/>
<feOffset dy="4"/>
<feGaussianBlur stdDeviation="2"/>
<feComposite in2="hardAlpha" operator="out"/>
<feColorMatrix type="matrix" values="0 0 0 0 0.780392 0 0 0 0 0.858824 0 0 0 0 0.929412 0 0 0 1 0"/>
<feBlend mode="normal" in2="BackgroundImageFix" result="effect1_dropShadow_1158_6280"/>
<feBlend mode="normal" in="SourceGraphic" in2="effect1_dropShadow_1158_6280" result="shape"/>
</filter>
<clipPath id="clip0_1158_6280">
<rect width="57" height="41" fill="white" transform="translate(42 46)"/>
</clipPath>
</defs>
</svg>
