<svg width="141" height="141" viewBox="0 0 141 141" fill="none" xmlns="http://www.w3.org/2000/svg">
<g filter="url(#filter0_d_1158_6286)">
<path d="M106.613 0H34.3872C17.6048 0 4 13.6048 4 30.3872V102.613C4 119.395 17.6048 133 34.3872 133H106.613C123.395 133 137 119.395 137 102.613V30.3872C137 13.6048 123.395 0 106.613 0Z" fill="white"/>
<g clip-path="url(#clip0_1158_6286)">
<path d="M71.456 44.0065L69.3156 44C69.3156 44 69.3026 44.0098 69.296 44.0163C57.3445 44.6499 48 54.5062 48 66.5016C48 78.4971 57.3478 88.3599 69.296 88.9902L71.456 88.9967C83.5445 88.4905 93 78.6277 93 66.5016C93 54.3756 83.5445 44.516 71.456 44.0065ZM86.2852 53.0202C84.6767 54.2351 82.9376 55.2573 81.1007 56.0575C79.5476 52.243 77.1038 48.7975 73.9846 46.0183C78.7744 46.8282 83.1008 49.2841 86.2852 53.017V53.0202ZM71.3712 46.1163C74.9961 48.9053 77.7923 52.55 79.4856 56.7008C76.8787 57.6349 74.151 58.1378 71.3712 58.1966V46.1163ZM71.3712 59.9406C74.3501 59.8818 77.2768 59.3429 80.0827 58.3338C80.9343 60.917 81.3748 63.6146 81.3878 66.3579L71.3712 66.3645V59.9406ZM71.3712 68.1052L81.3324 68.0986C81.1725 70.7929 80.6048 73.4089 79.6455 75.8877C76.9831 74.9961 74.2032 74.5193 71.3712 74.4638V68.1019V68.1052ZM66.7185 46.0738C63.7265 48.7583 61.3512 52.0666 59.8047 55.7211C58.095 54.9079 56.4734 53.902 54.979 52.7263C58.0656 49.2449 62.193 46.9131 66.7185 46.0771V46.0738ZM53.8795 54.0718C55.5207 55.3651 57.2989 56.4657 59.1717 57.3475C58.1668 60.2345 57.648 63.2685 57.6349 66.3743H49.7423C49.7684 61.9001 51.1975 57.6577 53.8795 54.0751V54.0718ZM54.5353 79.7642C51.7652 76.4331 50.1371 72.4193 49.8043 68.1182H57.6871C57.8568 71.1326 58.5028 74.0588 59.6089 76.8184C57.8079 77.6153 56.1047 78.6048 54.532 79.7609L54.5353 79.7642ZM55.7066 81.064C57.1325 80.0255 58.679 79.1372 60.3071 78.4187C61.8537 81.6551 64.0038 84.5127 66.7119 86.9327C62.5552 86.162 58.6921 84.1078 55.7034 81.064H55.7066ZM69.6288 87.0732C66.3367 84.5977 63.6841 81.3939 61.9287 77.7655C64.3954 76.8674 66.9827 76.3547 69.6288 76.2338V87.0732ZM69.6288 74.4931C66.738 74.6172 63.9125 75.179 61.224 76.1685C60.1995 73.6114 59.5959 70.9073 59.4262 68.115L69.6256 68.1084V74.4899L69.6288 74.4931ZM69.6288 66.371L59.374 66.3775C59.387 63.5167 59.8569 60.7178 60.7737 58.0464C63.5993 59.16 66.5749 59.7936 69.6288 59.9242V66.371ZM69.6288 58.1803C66.7935 58.0496 64.0299 57.4585 61.4002 56.42C63.1425 52.2985 65.9778 48.6865 69.6288 45.9399V58.1803ZM71.3679 86.8935V76.2142C73.9651 76.2665 76.5165 76.7009 78.9603 77.5042C77.2474 81.1489 74.6339 84.3788 71.3679 86.8935ZM73.9846 86.9882C76.8167 84.4735 79.0419 81.4918 80.6048 78.1052C82.3569 78.8171 84.0209 79.7218 85.5544 80.7962C82.4548 84.0686 78.3894 86.2404 73.9814 86.9882H73.9846ZM86.7061 79.4768C85.0258 78.2815 83.2019 77.2822 81.2736 76.4984C82.3047 73.8302 82.9083 71.0085 83.0714 68.1019H91.1924C90.8759 72.2756 89.3294 76.1979 86.7061 79.4735V79.4768ZM91.2577 66.3579H83.1236C83.1106 63.3958 82.6309 60.4827 81.7011 57.6969C83.7077 56.8315 85.6066 55.7211 87.3554 54.3952C89.8808 57.9059 91.2283 62.0307 91.2577 66.3612V66.3579Z" fill="#ED1164"/>
</g>
</g>
<defs>
<filter id="filter0_d_1158_6286" x="0" y="0" width="141" height="141" filterUnits="userSpaceOnUse" color-interpolation-filters="sRGB">
<feFlood flood-opacity="0" result="BackgroundImageFix"/>
<feColorMatrix in="SourceAlpha" type="matrix" values="0 0 0 0 0 0 0 0 0 0 0 0 0 0 0 0 0 0 127 0" result="hardAlpha"/>
<feOffset dy="4"/>
<feGaussianBlur stdDeviation="2"/>
<feComposite in2="hardAlpha" operator="out"/>
<feColorMatrix type="matrix" values="0 0 0 0 0.780392 0 0 0 0 0.858824 0 0 0 0 0.929412 0 0 0 1 0"/>
<feBlend mode="normal" in2="BackgroundImageFix" result="effect1_dropShadow_1158_6286"/>
<feBlend mode="normal" in="SourceGraphic" in2="effect1_dropShadow_1158_6286" result="shape"/>
</filter>
<clipPath id="clip0_1158_6286">
<rect width="45" height="45" fill="white" transform="translate(48 44)"/>
</clipPath>
</defs>
</svg>
