<svg width="141" height="141" viewBox="0 0 141 141" fill="none" xmlns="http://www.w3.org/2000/svg">
<g filter="url(#filter0_d_1158_6292)">
<path d="M106.613 0H34.3872C17.6048 0 4 13.6048 4 30.3872V102.613C4 119.395 17.6048 133 34.3872 133H106.613C123.395 133 137 119.395 137 102.613V30.3872C137 13.6048 123.395 0 106.613 0Z" fill="white"/>
<g clip-path="url(#clip0_1158_6292)">
<path d="M70.6501 50.6986C69.2022 50.6986 67.9688 51.6305 67.5004 52.9285L49.6613 55.1684C48.1311 55.3614 47.0394 56.7759 47.2307 58.3201C47.4055 59.7479 48.6159 60.7963 50.0043 60.7963C50.1198 60.7963 50.2352 60.7896 50.3539 60.773L51.0795 60.6831L45.7367 76.6484C45.7235 76.6883 45.7136 76.7283 45.7037 76.7682H42L42.0792 77.7933C42.3298 81.1314 45.1232 83.7474 48.4345 83.7474H58.1076C61.4221 83.7474 64.2156 81.1348 64.4662 77.7933L64.5421 76.7682H61.0857C61.0792 76.7283 61.066 76.6883 61.0528 76.6484L55.5253 60.124L67.296 58.6463V86.2302H61.1583C59.3081 86.2302 57.8042 87.7478 57.8042 89.615C57.8042 91.4821 59.3081 92.9997 61.1583 92.9997H80.1385C81.9887 92.9997 83.4926 91.4821 83.4926 89.615C83.4926 87.7478 81.9887 86.2302 80.1385 86.2302H74.0042V57.8043L85.4121 56.3698L80.1946 71.959C80.1814 71.9989 80.1715 72.0389 80.1649 72.0788H76.4579L76.5338 73.1039C76.7844 76.442 79.5779 79.058 82.8924 79.058H92.5655C95.8801 79.058 98.6702 76.442 98.9208 73.1039L99 72.0788H95.5437C95.5371 72.0389 95.5239 71.9989 95.5107 71.959L90.0986 55.7807L91.3354 55.6243C92.8656 55.4313 93.9573 54.0168 93.766 52.4725C93.5747 50.9283 92.1731 49.8233 90.6428 50.0197L73.4237 52.183C72.8202 51.2877 71.8011 50.6953 70.6501 50.6953V50.6986ZM62.3819 78.6752C61.7948 80.529 60.0502 81.8403 58.1076 81.8403H48.4345C46.4919 81.8403 44.7473 80.529 44.1602 78.6752H62.3852H62.3819ZM59.3345 76.7682H47.4583L52.9165 60.4535L53.84 60.337L59.3345 76.7682ZM80.1385 87.9209C81.062 87.9209 81.8139 88.6797 81.8139 89.6116C81.8139 90.5435 81.062 91.3023 80.1385 91.3023H61.1583C60.2349 91.3023 59.4829 90.5435 59.4829 89.6116C59.4829 88.6797 60.2349 87.9209 61.1583 87.9209H80.1385ZM96.8398 73.9859C96.2527 75.8396 94.5081 77.1509 92.5655 77.1509H82.8924C80.9465 77.1509 79.2052 75.8396 78.6148 73.9859H96.8398ZM93.7924 72.0788H81.9129L87.2458 56.1369L88.41 55.9904L93.7924 72.0788ZM90.8505 51.6971C90.8967 51.6937 90.9429 51.6871 90.9891 51.6871C91.5464 51.6871 92.0312 52.1064 92.1005 52.6789C92.1368 52.9784 92.0543 53.2713 91.8696 53.5143C91.685 53.7539 91.4211 53.907 91.1243 53.9436L73.9976 56.0969L73.1599 56.2034L72.3222 56.3099V86.2302H68.9681V56.7326L68.1304 56.8391L67.2927 56.9456L50.1429 59.0989C49.8493 59.1355 49.5558 59.0557 49.315 58.866C49.0776 58.6796 48.9259 58.4133 48.8896 58.1171C48.8533 57.8176 48.9325 57.5214 49.1205 57.2818C49.3052 57.0421 49.569 56.889 49.8658 56.8524L67.2927 54.6625L68.1304 54.556L68.9681 54.4495V54.0834C68.9681 53.9103 69.001 53.7439 69.0505 53.5875C69.1725 53.1914 69.4298 52.8553 69.7761 52.6423C70.03 52.4859 70.3269 52.3893 70.6468 52.3893C70.8183 52.3893 70.9799 52.4226 71.1349 52.4725C71.5306 52.5957 71.8637 52.8553 72.0748 53.2081C72.2199 53.451 72.309 53.7306 72.3189 54.0301L73.1467 53.927L73.9877 53.8205L90.8472 51.7004L90.8505 51.6971Z" fill="#ED1164"/>
</g>
</g>
<defs>
<filter id="filter0_d_1158_6292" x="0" y="0" width="141" height="141" filterUnits="userSpaceOnUse" color-interpolation-filters="sRGB">
<feFlood flood-opacity="0" result="BackgroundImageFix"/>
<feColorMatrix in="SourceAlpha" type="matrix" values="0 0 0 0 0 0 0 0 0 0 0 0 0 0 0 0 0 0 127 0" result="hardAlpha"/>
<feOffset dy="4"/>
<feGaussianBlur stdDeviation="2"/>
<feComposite in2="hardAlpha" operator="out"/>
<feColorMatrix type="matrix" values="0 0 0 0 0.780392 0 0 0 0 0.858824 0 0 0 0 0.929412 0 0 0 1 0"/>
<feBlend mode="normal" in2="BackgroundImageFix" result="effect1_dropShadow_1158_6292"/>
<feBlend mode="normal" in="SourceGraphic" in2="effect1_dropShadow_1158_6292" result="shape"/>
</filter>
<clipPath id="clip0_1158_6292">
<rect width="57" height="43" fill="white" transform="translate(42 50)"/>
</clipPath>
</defs>
</svg>
