<svg width="141" height="141" viewBox="0 0 141 141" fill="none" xmlns="http://www.w3.org/2000/svg">
<g filter="url(#filter0_d_0_1)">
<path d="M106.613 0H34.3872C17.6048 0 4 13.6048 4 30.3872V102.613C4 119.395 17.6048 133 34.3872 133H106.613C123.395 133 137 119.395 137 102.613V30.3872C137 13.6048 123.395 0 106.613 0Z" fill="white"/>
</g>
<g clip-path="url(#clip0_0_1)">
<path d="M63.1576 84.2448C67.2487 88.3346 72.6869 90.6924 78.4724 90.8907C78.7243 90.8984 78.98 90.9022 79.2319 90.9022C85.2464 90.9022 91.0777 88.5025 95.3328 84.2448C99.63 79.949 102 74.2378 102 68.1641C102 62.0905 99.6338 56.3754 95.3367 52.0796C90.8449 47.5854 84.8571 45.2353 78.4762 45.4489C77.1978 45.4947 75.9422 45.6359 74.7324 45.88L74.6103 45.9106C73.309 46.3417 72.7594 47.1161 72.5266 47.6922C72.0229 48.9359 72.5533 50.2674 72.935 50.9885L73.0151 51.1258C73.0456 51.1754 73.0762 51.225 73.1029 51.2746L73.1334 51.3547L73.1563 51.3814C74.7057 54.4564 74.1142 58.1418 71.6718 60.5835C69.1377 63.1167 65.1917 63.6356 62.0814 61.8463L60.4938 60.9345V61.3656C60.0092 61.3198 59.5398 61.377 59.0932 61.5411C57.7614 62.0294 57.1355 63.2998 56.979 63.6775L56.9141 63.8912C55.5021 71.3116 57.8339 78.9189 63.1576 84.2372V84.2448ZM58.9711 64.4177C59.078 64.204 59.3642 63.7042 59.826 63.5326C60.158 63.4105 60.5816 63.4753 61.0815 63.7271L61.2914 63.834C61.4441 63.9179 61.6006 63.9942 61.7608 64.0667L63.2072 64.7954L63.1538 64.6008C66.6419 65.65 70.5192 64.7381 73.1716 62.0828C76.1483 59.107 76.9497 54.6739 75.2553 50.874L75.3354 50.7443L74.9309 50.2178C74.8965 50.1568 74.8622 50.0957 74.824 50.0347L74.7821 49.966C74.4691 49.3747 74.3546 48.8062 74.4844 48.4858C74.5722 48.2645 74.8202 48.0814 75.2133 47.944C76.2857 47.7304 77.4077 47.6045 78.5449 47.5663C84.3304 47.3603 89.761 49.5006 93.8368 53.5751C97.7333 57.4704 99.8819 62.6513 99.8819 68.1603C99.8819 73.6693 97.7371 78.8503 93.8368 82.7455C89.7534 86.8238 84.319 88.9717 78.5449 88.7695C73.2975 88.5902 68.363 86.45 64.6536 82.7455C59.8565 77.9499 57.7385 71.1056 58.9711 64.4139V64.4177Z" fill="#FDB714"/>
<path d="M66.6688 76.6909C67.9053 76.359 68.9357 75.5692 69.5768 74.4628C70.2141 73.3565 70.3859 72.067 70.0539 70.8347C69.3707 68.2862 66.7413 66.7678 64.192 67.4507C62.9555 67.7788 61.9251 68.5723 61.2878 69.6787C60.6505 70.7851 60.4788 72.0746 60.8108 73.3107C61.1428 74.5468 61.9328 75.5769 63.0395 76.214C63.776 76.6413 64.5965 76.8587 65.4247 76.8587C65.8407 76.8587 66.2605 76.8015 66.6726 76.6947L66.6688 76.6909ZM63.5661 75.2945C62.7037 74.7986 62.0892 73.9936 61.8297 73.0322C61.5702 72.0708 61.7038 71.0636 62.1999 70.2052C62.696 69.343 63.5013 68.7249 64.463 68.4693C66.4475 67.9352 68.4968 69.1179 69.0273 71.1055C69.2868 72.067 69.1532 73.0703 68.6571 73.9325C68.161 74.7948 67.3557 75.4128 66.394 75.6684C65.4361 75.924 64.4324 75.7943 63.5661 75.2945Z" fill="#FDB714"/>
<path d="M70.7484 84.161C71.3896 85.2674 72.42 86.0609 73.6564 86.389C74.0686 86.4997 74.4884 86.5531 74.9006 86.5531C76.0951 86.5531 77.2552 86.1029 78.1559 85.2598C78.8123 84.6455 79.2855 83.8672 79.5145 83.005C79.9724 81.2959 79.4496 79.4799 78.1559 78.2667C77.5834 77.7325 76.885 77.3472 76.1294 77.145C73.5801 76.4621 70.9507 77.9805 70.2676 80.5252C69.9355 81.7613 70.1073 83.0508 70.7446 84.1572L70.7484 84.161ZM71.2942 80.8037C71.8284 78.8199 73.874 77.6372 75.8584 78.1713C76.4538 78.3315 76.9843 78.6253 77.4346 79.0449C78.4459 79.9911 78.8504 81.4027 78.4955 82.7342C78.3161 83.4056 77.9498 84.0084 77.4346 84.4891C76.4881 85.3742 75.1753 85.7023 73.9312 85.3704C72.9695 85.1148 72.1643 84.4967 71.6681 83.6345C71.1682 82.7723 71.0385 81.7689 71.2942 80.8075V80.8037Z" fill="#FDB714"/>
<path d="M87.9981 74.0508C86.7196 74.0508 85.5175 74.5467 84.613 75.4509C82.7468 77.3165 82.7468 80.3495 84.613 82.2151C85.5175 83.1193 86.7196 83.6153 87.9981 83.6153C89.2765 83.6153 90.4787 83.1193 91.3831 82.2151C92.2876 81.3109 92.7837 80.1092 92.7837 78.8349C92.7837 77.5607 92.2876 76.3551 91.3831 75.4509C90.4787 74.5467 89.2765 74.0508 87.9981 74.0508ZM90.6351 81.4712C89.9329 82.1732 88.9941 82.5623 87.9981 82.5623C87.002 82.5623 86.067 82.177 85.361 81.4712C83.9108 80.0176 83.9108 77.6561 85.361 76.2025C86.0632 75.5005 87.002 75.1114 87.9942 75.1114C88.9865 75.1114 89.9253 75.5005 90.6313 76.2025C91.3335 76.9083 91.7228 77.843 91.7228 78.8387C91.7228 79.8345 91.3335 80.7692 90.6313 81.4712H90.6351Z" fill="#FDB714"/>
<path d="M87.6317 67.5158C88.2042 69.6522 90.1429 71.0638 92.2571 71.0638C92.6654 71.0638 93.0814 71.0104 93.4936 70.8998C94.7262 70.5679 95.7605 69.7781 96.3978 68.6717C97.0351 67.5654 97.2068 66.2758 96.8748 65.0398C96.1917 62.4913 93.5661 60.9728 91.013 61.6557C88.4637 62.3387 86.9448 64.9711 87.6317 67.5158ZM91.2878 62.6782C93.2722 62.1479 95.3216 63.3306 95.852 65.3144C96.1116 66.2758 95.978 67.2792 95.478 68.1414C94.9819 69.0037 94.1767 69.6217 93.215 69.8773C91.2305 70.4076 89.1812 69.2249 88.6507 67.2411C88.1202 65.2572 89.2995 63.2123 91.2839 62.6782H91.2878Z" fill="#FDB714"/>
<path d="M81.5599 61.0414C81.9721 61.152 82.3919 61.2054 82.8079 61.2054C83.636 61.2054 84.4565 60.988 85.1931 60.5645C86.2998 59.9235 87.0936 58.8935 87.4256 57.6574C88.1087 55.1089 86.5898 52.4803 84.0405 51.7973C81.4912 51.1144 78.8618 52.6329 78.1787 55.1814C77.8467 56.4136 78.0184 57.7031 78.6557 58.8095C79.2931 59.9159 80.3273 60.7056 81.5599 61.0376V61.0414ZM79.1976 55.4599C79.7319 53.476 81.7775 52.2933 83.7619 52.8236C85.7464 53.3577 86.9295 55.4026 86.399 57.3865C86.1395 58.3479 85.5251 59.1529 84.6626 59.6527C83.8001 60.1486 82.7964 60.2822 81.8347 60.0227C80.873 59.7633 80.0678 59.1491 79.5678 58.2869C79.0717 57.4246 78.9381 56.4213 79.1976 55.4637V55.4599Z" fill="#FDB714"/>
<path d="M50.3387 42.5112L50.0029 42.9194L49.9876 42.908L50.3082 42.4883L49.6709 42L49.0298 42.4845C48.7779 42.6676 43 47.0894 43 52.7586C43 56.5775 44.3243 58.3592 46.0721 59.1756C46.0034 59.5648 45.9424 59.9463 45.8851 60.3202C45.2402 64.6084 45.0646 69.5184 45.3928 74.1385C46.4843 89.5668 47.3468 93.6223 49.5831 93.8703L50.7585 94V93.4621C52.4759 92.226 53.0712 87.0679 53.8803 74.0164C54.1665 69.4078 54.0062 64.5092 53.4338 60.221L53.2964 59.3015H53.2849C53.2773 59.2558 53.2697 59.2176 53.262 59.1718C54.9946 58.3592 56.3151 56.5775 56.3151 52.7586C56.3151 47.2877 50.9494 42.9919 50.3273 42.5112H50.3387ZM51.7737 73.8829C51.4302 79.3843 50.8158 89.3379 49.732 91.4248C48.5756 89.0365 47.8391 78.6251 47.5109 73.9859C47.1941 69.5146 47.362 64.7686 47.9841 60.6292C48.0261 60.3316 48.0757 60.034 48.1291 59.7288C48.6519 59.7937 49.1824 59.8166 49.7014 59.8166H49.7091C50.2052 59.8166 50.7127 59.7937 51.2165 59.7326C51.2547 59.9844 51.2928 60.2401 51.3272 60.5033L51.4531 61.4189H51.4569C51.9149 65.3523 52.0294 69.7397 51.7737 73.8867V73.8829ZM53.9757 53.6132C54.1169 53.3805 54.1856 53.102 54.2085 52.8006C54.197 56.9285 52.682 57.6916 49.6633 57.6992C46.6484 57.6992 45.118 56.9362 45.118 52.7548C45.118 52.3237 45.1638 51.8964 45.2478 51.4806C45.5607 51.6522 45.9042 51.7476 46.2782 51.7629C47.736 51.8087 48.2131 50.5153 48.5298 49.6569C48.6977 49.1991 48.8886 48.6841 49.0565 48.665C49.3236 48.7985 49.751 49.9354 50.0334 50.687C50.6669 52.3733 51.3768 54.2732 52.7468 54.2732C52.8537 54.2732 52.9644 54.2618 53.0788 54.2351C53.4719 54.1511 53.781 53.9375 53.9795 53.617L53.9757 53.6132ZM52.7125 50.2483C52.972 51.183 53.3613 52.5908 53.075 53.0638C53.0407 53.1172 52.9949 53.1707 52.8651 53.1974C52.1591 53.3423 51.5103 51.595 51.0295 50.3131C50.4647 48.8062 50.0182 47.612 49.1099 47.612H49.0603C48.1444 47.6578 47.8085 48.562 47.5414 49.2869C47.1788 50.2635 46.9422 50.729 46.3164 50.7023C45.8393 50.687 45.4577 50.439 45.1524 49.9393C46.2744 47.0359 48.7855 44.7469 49.6709 44.0029C50.3006 44.5294 51.7393 45.8189 52.9262 47.5701C52.8079 47.6044 52.6934 47.6693 52.598 47.7685C52.1515 48.2148 52.3728 49.0236 52.7125 50.2483Z" fill="#FDB714"/>
</g>
<defs>
<filter id="filter0_d_0_1" x="0" y="0" width="141" height="141" filterUnits="userSpaceOnUse" color-interpolation-filters="sRGB">
<feFlood flood-opacity="0" result="BackgroundImageFix"/>
<feColorMatrix in="SourceAlpha" type="matrix" values="0 0 0 0 0 0 0 0 0 0 0 0 0 0 0 0 0 0 127 0" result="hardAlpha"/>
<feOffset dy="4"/>
<feGaussianBlur stdDeviation="2"/>
<feComposite in2="hardAlpha" operator="out"/>
<feColorMatrix type="matrix" values="0 0 0 0 0.780392 0 0 0 0 0.858824 0 0 0 0 0.929412 0 0 0 1 0"/>
<feBlend mode="normal" in2="BackgroundImageFix" result="effect1_dropShadow_0_1"/>
<feBlend mode="normal" in="SourceGraphic" in2="effect1_dropShadow_0_1" result="shape"/>
</filter>
<clipPath id="clip0_0_1">
<rect width="59" height="52" fill="white" transform="translate(43 42)"/>
</clipPath>
</defs>
</svg>
