<svg width="141" height="141" viewBox="0 0 141 141" fill="none" xmlns="http://www.w3.org/2000/svg">
<g filter="url(#filter0_d_1158_4942)">
<path d="M106.613 0H34.3872C17.6048 0 4 13.6048 4 30.3872V102.613C4 119.395 17.6048 133 34.3872 133H106.613C123.395 133 137 119.395 137 102.613V30.3872C137 13.6048 123.395 0 106.613 0Z" fill="white"/>
<g clip-path="url(#clip0_1158_4942)">
<path d="M85.0055 38.8358C85.1056 38.8106 85.1766 38.7896 85.164 38.7896C85.2725 38.777 85.3894 38.7477 85.4895 38.7057C86.4075 38.3237 87 37.438 87 36.4432C87 35.0958 85.9068 33.9961 84.5673 33.9961C84.3879 33.9961 84.2043 34.0171 83.9748 34.0716C83.4783 34.206 82.9651 34.3655 82.4017 34.5544L81.997 34.6929C81.5714 34.844 81.1541 35.0035 80.7494 35.1714L80.6784 35.2008C80.62 35.2218 80.5658 35.2469 80.5199 35.2679C80.0734 35.461 79.6353 35.6625 79.1721 35.8976L78.855 36.0613C78.5087 36.246 78.1749 36.4306 77.841 36.6279L77.5698 36.7874C77.1776 37.0267 76.7979 37.2785 76.4307 37.5346L76.2221 37.6899C75.9216 37.904 75.6337 38.1264 75.3583 38.3447C75.2707 38.4161 75.1789 38.4874 75.0871 38.563C74.7616 38.8316 74.4403 39.1086 74.119 39.4109L74.0523 39.478C73.7769 39.7383 73.5182 39.9985 73.2637 40.263L73.0467 40.4938C72.8005 40.7583 72.5627 41.0311 72.3457 41.2913L72.2706 41.3795C72.0244 41.6775 71.7949 41.9713 71.5737 42.2736L71.3985 42.5128C71.2232 42.7563 71.0563 42.9997 70.8853 43.2642L70.7768 43.4237C70.5848 43.7175 70.4054 44.0113 70.2135 44.3513C70.1759 44.4143 70.1383 44.4772 70.1175 44.5192C69.984 44.7543 69.8546 44.9851 69.7419 45.2034L69.6209 45.4343C69.4791 45.7155 69.3455 45.9925 69.2162 46.2696L69.1453 46.4291C69.0451 46.6557 68.945 46.8824 68.8573 47.0923L68.7614 47.3273C68.6612 47.5792 68.5653 47.8226 68.4818 48.0619C68.4735 48.0829 68.4651 48.1039 68.4609 48.1249C68.4359 48.2004 68.4067 48.2718 68.3858 48.3431H66.6834C60.2492 48.3473 55 53.6194 55 60.1045V81.2347C55 87.7198 60.2492 92.9961 66.6959 92.9961H73.5432C79.99 92.9961 85.235 87.7156 85.235 81.2347V60.1045C85.235 53.6865 80.1026 48.4565 73.7477 48.3473C77.1818 41.1822 83.6494 39.1842 85.0055 38.8358ZM82.915 81.2389C82.915 86.4396 78.709 90.6707 73.5391 90.6707H66.6917C61.5218 90.6707 57.3158 86.4354 57.3116 81.2347V69.4775H82.915V81.2347V81.2389ZM70.9061 49.0987C70.7726 49.4555 70.8185 49.8584 71.0355 50.1732C71.2524 50.4881 71.6071 50.6769 71.9868 50.6769H73.5349C78.7048 50.6769 82.9108 54.908 82.9108 60.1087V67.1521H57.3158V60.1087C57.3158 54.908 61.526 50.6769 66.6959 50.6769H69.2371C69.7461 50.6769 70.1926 50.3453 70.3428 49.8584C70.4346 49.552 70.5347 49.2372 70.6558 48.9014C70.6558 48.8972 70.6558 48.893 70.6599 48.8888C70.6641 48.8804 70.6683 48.872 70.6683 48.8678C70.7434 48.6537 70.831 48.4355 70.9186 48.2172L71.0063 47.9989C71.0855 47.8017 71.1732 47.6002 71.265 47.3945L71.3276 47.2518C71.4402 47.0041 71.5612 46.7565 71.6906 46.5004L71.7991 46.2948C71.9034 46.0891 72.0202 45.8834 72.1496 45.6483L72.2455 45.4804C72.3957 45.2202 72.5543 44.9642 72.7296 44.6913L72.8255 44.5444C72.9716 44.3219 73.126 44.0995 73.2762 43.8854L73.4347 43.6713C73.6308 43.4069 73.8353 43.1424 74.0439 42.8906L74.119 42.8024C74.3152 42.5632 74.528 42.3281 74.7491 42.0889L74.9494 41.879C75.1706 41.6439 75.4042 41.4131 75.6629 41.1654L75.7255 41.1025C75.9926 40.8506 76.2763 40.6072 76.5684 40.3679C76.6435 40.3049 76.7228 40.242 76.8021 40.179C77.0482 39.9817 77.2986 39.7886 77.5823 39.5872L77.7701 39.4486C78.0914 39.222 78.4336 38.9995 78.7799 38.7854L79.0303 38.6385C79.3223 38.4622 79.6269 38.2943 79.9816 38.1096L80.2278 37.9795C80.6367 37.7738 81.0331 37.5892 81.4504 37.4087L81.6465 37.3289C82.0095 37.1778 82.3892 37.0351 82.7689 36.8966L83.1486 36.7664C83.6661 36.5901 84.1376 36.4474 84.5799 36.3299C84.6425 36.3299 84.6925 36.3845 84.6925 36.4474C84.6925 36.4852 84.6758 36.5104 84.6633 36.5272C84.5673 36.5482 84.4797 36.5734 84.4213 36.5901C82.794 37.0057 74.5029 39.5704 70.9186 49.1029L70.9061 49.0987Z" fill="#FDB714"/>
<path d="M70.1133 52.1924C68.0687 52.1966 66.408 53.8756 66.4038 55.9282V62.8204C66.4038 64.8772 68.0687 66.552 70.1175 66.5562C72.1621 66.5562 73.8311 64.8772 73.8353 62.8204V55.9282C73.8353 53.8882 72.1954 52.226 70.1801 52.1924C70.1592 52.1924 70.1383 52.1924 70.1133 52.1924ZM71.5195 55.9324V62.8162C71.5195 63.5928 70.8894 64.2266 70.1175 64.2266C69.3455 64.2266 68.7196 63.5928 68.7196 62.8162V55.9282C68.7196 55.1642 69.3288 54.5388 70.0841 54.5178C70.0966 54.5178 70.1091 54.5178 70.1216 54.5178C70.8936 54.5178 71.5195 55.1516 71.5236 55.9282L71.5195 55.9324Z" fill="#FDB714"/>
</g>
</g>
<defs>
<filter id="filter0_d_1158_4942" x="0" y="0" width="141" height="141" filterUnits="userSpaceOnUse" color-interpolation-filters="sRGB">
<feFlood flood-opacity="0" result="BackgroundImageFix"/>
<feColorMatrix in="SourceAlpha" type="matrix" values="0 0 0 0 0 0 0 0 0 0 0 0 0 0 0 0 0 0 127 0" result="hardAlpha"/>
<feOffset dy="4"/>
<feGaussianBlur stdDeviation="2"/>
<feComposite in2="hardAlpha" operator="out"/>
<feColorMatrix type="matrix" values="0 0 0 0 0.780392 0 0 0 0 0.858824 0 0 0 0 0.929412 0 0 0 1 0"/>
<feBlend mode="normal" in2="BackgroundImageFix" result="effect1_dropShadow_1158_4942"/>
<feBlend mode="normal" in="SourceGraphic" in2="effect1_dropShadow_1158_4942" result="shape"/>
</filter>
<clipPath id="clip0_1158_4942">
<rect width="32" height="59" fill="white" transform="translate(55 34)"/>
</clipPath>
</defs>
</svg>
