<svg width="141" height="141" viewBox="0 0 141 141" fill="none" xmlns="http://www.w3.org/2000/svg">
<g filter="url(#filter0_d_1158_4936)">
<path d="M106.613 0H34.3872C17.6048 0 4 13.6048 4 30.3872V102.613C4 119.395 17.6048 133 34.3872 133H106.613C123.395 133 137 119.395 137 102.613V30.3872C137 13.6048 123.395 0 106.613 0Z" fill="white"/>
<g clip-path="url(#clip0_1158_4936)">
<path d="M75.4832 71.1614C75.6559 71.2395 75.8426 71.2808 76.0294 71.2808C76.3281 71.2808 76.6269 71.1797 76.865 70.9776L90.5425 59.6147C90.8366 59.3712 91 59.0174 91 58.6406C91 58.2638 90.8319 57.91 90.5425 57.6665L76.865 46.299C76.4822 45.982 75.9407 45.9085 75.4832 46.1198C75.0257 46.3266 74.7363 46.7815 74.7363 47.2731V50.8295H51.2931C50.5788 50.8295 50 51.3992 50 52.1068V65.1744C50 65.8774 50.5788 66.4471 51.2931 66.4471H74.7316V70.0035C74.7316 70.4997 75.0211 70.95 75.4785 71.1614H75.4832ZM52.5908 63.897V53.3796H76.0294C76.7436 53.3796 77.3271 52.8098 77.3271 52.1068V50.0208L87.6996 58.6406L77.3271 67.2604V65.1744C77.3271 64.4714 76.7483 63.9016 76.0294 63.9016H52.5908V63.897Z" fill="#FDB714"/>
<path d="M50.4621 81.3334L64.1397 92.7009C64.3778 92.8984 64.6765 92.9995 64.9753 92.9995C65.162 92.9995 65.3487 92.9628 65.5215 92.8801C65.9789 92.6687 66.2684 92.2184 66.2684 91.7222V88.1704H89.7069C90.4212 88.1704 91 87.6007 91 86.8977V73.8255C91 73.1225 90.4212 72.5527 89.7069 72.5527H66.2684V68.9964C66.2684 68.5002 65.9743 68.0499 65.5215 67.8385C65.064 67.6317 64.5225 67.7007 64.1397 68.0177L50.4621 79.3852C50.1727 79.6287 50 79.9825 50 80.3593C50 80.7361 50.1681 81.0899 50.4621 81.3334ZM63.6776 71.7395V73.8255C63.6776 74.5285 64.2564 75.0983 64.9706 75.0983H88.4092V85.6203H64.9706C64.2564 85.6203 63.6776 86.1901 63.6776 86.8977V88.9837L53.305 80.3639L63.6776 71.7441V71.7395Z" fill="#FDB714"/>
</g>
</g>
<defs>
<filter id="filter0_d_1158_4936" x="0" y="0" width="141" height="141" filterUnits="userSpaceOnUse" color-interpolation-filters="sRGB">
<feFlood flood-opacity="0" result="BackgroundImageFix"/>
<feColorMatrix in="SourceAlpha" type="matrix" values="0 0 0 0 0 0 0 0 0 0 0 0 0 0 0 0 0 0 127 0" result="hardAlpha"/>
<feOffset dy="4"/>
<feGaussianBlur stdDeviation="2"/>
<feComposite in2="hardAlpha" operator="out"/>
<feColorMatrix type="matrix" values="0 0 0 0 0.780392 0 0 0 0 0.858824 0 0 0 0 0.929412 0 0 0 1 0"/>
<feBlend mode="normal" in2="BackgroundImageFix" result="effect1_dropShadow_1158_4936"/>
<feBlend mode="normal" in="SourceGraphic" in2="effect1_dropShadow_1158_4936" result="shape"/>
</filter>
<clipPath id="clip0_1158_4936">
<rect width="41" height="47" fill="white" transform="translate(50 46)"/>
</clipPath>
</defs>
</svg>
