<svg width="133" height="133" viewBox="0 0 133 133" fill="none" xmlns="http://www.w3.org/2000/svg">
<path d="M102.613 0H30.3872C13.6048 0 0 13.6048 0 30.3872V102.613C0 119.395 13.6048 133 30.3872 133H102.613C119.395 133 133 119.395 133 102.613V30.3872C133 13.6048 119.395 0 102.613 0Z" fill="white"/>
<g clip-path="url(#clip0_0_1)">
<path d="M90.6038 47.835H79.1879V55.0745H90.6038V47.835ZM87.4395 48.8035L84.8976 50.8381L82.3557 48.8035H87.4395ZM89.6406 54.1095H80.1546V48.8035H80.8083L84.8976 52.0749L88.9869 48.8035H89.6406V54.1095Z" fill="#2374BB"/>
<path d="M63.5262 88.5024C63.707 90.3245 64.5242 92.042 65.8247 93.3381C65.9846 93.4983 66.1967 93.5819 66.4123 93.5819C66.4958 93.5819 66.5827 93.568 66.6627 93.5436C66.9583 93.4495 67.1773 93.1987 67.2295 92.8921C67.4451 91.6727 68.4917 90.7878 69.7262 90.7878H73.885C74.9386 90.7878 75.8636 91.4254 76.2461 92.4148C76.3539 92.6935 76.6008 92.8921 76.8963 92.9374C77.1919 92.9827 77.4875 92.8643 77.6753 92.6343C78.9688 91.0073 79.5704 88.9588 79.3652 86.8719C78.9931 83.1163 76.0062 80.1201 72.2576 79.7508C71.976 79.7229 71.7013 79.709 71.444 79.709C69.2011 79.709 67.0487 80.6671 65.543 82.3324C64.0165 84.0221 63.3002 86.2135 63.5262 88.5024ZM71.4474 89.5824C69.7853 89.5824 68.4326 88.2272 68.4326 86.5618C68.4326 84.8965 69.7853 83.5413 71.4474 83.5413C73.1096 83.5413 74.4622 84.8965 74.4622 86.5618C74.4622 88.2272 73.1096 89.5824 71.4474 89.5824ZM66.7809 83.4542C67.9736 82.1338 69.674 81.3778 71.4474 81.3778C71.6526 81.3778 71.8682 81.3882 72.0977 81.4126C75.0569 81.7053 77.4179 84.0674 77.71 87.0357C77.8317 88.269 77.5988 89.4814 77.0493 90.5509C76.3921 89.7914 75.4741 89.2967 74.4588 89.1574C75.0603 88.4571 75.4289 87.5513 75.4289 86.5584C75.4289 84.36 73.6451 82.5728 71.4509 82.5728C69.2567 82.5728 67.4729 84.36 67.4729 86.5584C67.4729 87.614 67.8902 88.5721 68.5578 89.2863C67.5598 89.5789 66.7044 90.2269 66.162 91.1084C65.6265 90.2757 65.2892 89.3246 65.1883 88.3317C65.0075 86.52 65.5778 84.7851 66.7844 83.4507L66.7809 83.4542Z" fill="#2374BB"/>
<path d="M42.7459 72.6299C42.9859 72.8668 43.3405 72.9365 43.6535 72.8076C43.963 72.6787 44.1647 72.3721 44.1647 72.0376V71.3025C44.1647 68.7244 46.0911 66.5644 48.6469 66.2787C48.6573 66.2787 48.6677 66.2787 48.6782 66.2752C48.8729 66.2543 49.0503 66.2439 49.2206 66.2439H56.4673C59.2526 66.2439 61.5198 68.5119 61.5198 71.3025V72.0376C61.5198 72.3756 61.7215 72.6787 62.031 72.8076C62.1353 72.8494 62.2431 72.8703 62.3509 72.8703C62.5665 72.8703 62.7786 72.7867 62.935 72.6299C65.6925 69.8985 67.2121 66.2613 67.2121 62.3941C67.2121 54.4543 60.7652 47.9951 52.8405 47.9951C44.9158 47.9951 38.4654 54.4543 38.4654 62.3941C38.4654 66.2613 39.985 69.8985 42.7459 72.6299ZM53.6055 64.5716H52.0685C49.3806 64.1953 47.3012 61.882 47.3012 59.0844C47.3012 56.0255 49.784 53.538 52.837 53.538C55.8901 53.538 58.3763 56.0255 58.3763 59.0844C58.3763 61.882 56.2969 64.1953 53.609 64.5716H53.6055ZM52.837 49.6639C59.8437 49.6639 65.543 55.3741 65.543 62.3907C65.543 65.1499 64.6667 67.7768 63.0463 69.9577C62.4656 67.0939 60.0628 64.8851 57.1106 64.5995C58.7588 63.3209 59.8229 61.3246 59.8229 59.0775C59.8229 55.2208 56.6898 52.0783 52.837 52.0783C48.9842 52.0783 45.8546 55.2173 45.8546 59.0775C45.8546 61.3246 46.9222 63.3209 48.5669 64.5995C48.546 64.5995 48.5252 64.5995 48.5008 64.6064C48.4661 64.6064 48.4313 64.6134 48.4 64.6169C45.4826 64.9722 43.191 67.1601 42.6277 69.9542C41.0073 67.7733 40.131 65.1464 40.131 62.3837C40.131 55.3636 45.8303 49.6569 52.837 49.6569V49.6639Z" fill="#2374BB"/>
<path d="M84.8976 61.9173C90.8368 61.9173 95.6667 57.0781 95.6667 51.1276C95.6667 45.1771 90.8368 40.3379 84.8976 40.3379C78.9584 40.3379 74.1284 45.1771 74.1284 51.1276C74.1284 57.0781 78.9584 61.9173 84.8976 61.9173ZM84.8976 42.0067C89.9188 42.0067 94.0011 46.0968 94.0011 51.1241C94.0011 56.1514 89.9188 60.245 84.8976 60.245C79.8764 60.245 75.7975 56.1549 75.7975 51.1241C75.7975 46.0933 79.8798 42.0067 84.8976 42.0067Z" fill="#2374BB"/>
<path d="M36 62.3944C36 71.6999 43.5527 79.267 52.8405 79.267C55.3372 79.267 57.8269 78.6956 60.0837 77.6121L63.3767 81.2842C61.7041 83.3885 60.9356 86.0084 61.2034 88.7328C61.6867 93.5928 65.5534 97.467 70.4008 97.9477C70.7416 97.9826 71.0928 98 71.444 98C74.3475 98 77.1259 96.7632 79.0731 94.6102C81.0482 92.4257 81.9767 89.5933 81.6846 86.6424C81.2047 81.7824 77.3345 77.9083 72.4872 77.4275C70.4008 77.2184 68.2762 77.6713 66.4332 78.6956L63.4984 75.4242C67.386 72.226 69.681 67.4217 69.681 62.3909C69.681 61.067 69.5176 59.7327 69.1976 58.4227L73.1896 57.0082C75.4081 61.4328 79.9216 64.2513 84.8976 64.2513C92.1199 64.2513 97.9965 58.3635 97.9965 51.1239C97.9965 43.8843 92.1199 38 84.8976 38C77.6753 38 71.7952 43.8878 71.7952 51.1274C71.7952 51.8102 71.8508 52.5035 71.9656 53.1968L67.7928 54.674C64.9067 49.0893 59.1205 45.5218 52.8405 45.5218C43.5527 45.5218 36 53.0888 36 62.3944ZM52.8405 47.1906C58.7275 47.1906 64.1347 50.671 66.614 56.0571C66.7948 56.4473 67.2434 56.639 67.6468 56.4961L73.193 54.5312C73.5895 54.3918 73.819 53.9772 73.7285 53.5661C73.5512 52.7474 73.4608 51.9287 73.4608 51.1274C73.4608 44.8111 78.5898 39.6688 84.8941 39.6688C91.1984 39.6688 96.3274 44.8076 96.3274 51.1274C96.3274 57.4472 91.1984 62.586 84.8941 62.586C80.325 62.586 76.2009 59.8616 74.3892 55.6425C74.2154 55.2384 73.7598 55.0398 73.346 55.1862L67.9145 57.1093C67.4972 57.2556 67.2677 57.705 67.3929 58.1301C67.8032 59.5341 68.0119 60.9695 68.0119 62.3944C68.0119 67.1987 65.6821 71.7766 61.7841 74.6438C61.5928 74.7832 61.4711 74.9957 61.4468 75.2326C61.4224 75.466 61.4989 75.7029 61.6554 75.8771L65.6473 80.3261C65.922 80.6327 66.3776 80.6919 66.7218 80.4689C68.384 79.3854 70.3695 78.8977 72.3202 79.0893C76.3817 79.4934 79.6225 82.7405 80.0259 86.8097C80.2693 89.2867 79.4939 91.6593 77.8352 93.4918C76.2044 95.2965 73.8711 96.3312 71.4405 96.3312C71.1414 96.3312 70.8459 96.3173 70.5607 96.2894C66.4993 95.8887 63.2584 92.6417 62.8551 88.5725C62.6117 86.0955 63.3871 83.7229 65.011 81.9252C65.0353 81.9043 65.0875 81.8521 65.1084 81.8277C65.3865 81.5106 65.3831 81.0368 65.0979 80.7198L60.8904 76.0269C60.727 75.8458 60.501 75.7517 60.2715 75.7517C60.1393 75.7517 60.0072 75.7831 59.882 75.8493C57.6809 77.0129 55.3094 77.6052 52.8335 77.6052C44.4672 77.6052 37.6621 70.7836 37.6621 62.4013C37.6621 54.019 44.4741 47.1906 52.8405 47.1906Z" fill="#2374BB"/>
</g>
<defs>
<clipPath id="clip0_0_1">
<rect width="62" height="60" fill="white" transform="translate(36 38)"/>
</clipPath>
</defs>
</svg>
