<svg width="67" height="67" viewBox="0 0 67 67" fill="none" xmlns="http://www.w3.org/2000/svg">
<g filter="url(#filter0_d_0_1)">
<path d="M49.4933 0.034668H17.4721C10.0317 0.034668 4 6.06636 4 13.5068V45.528C4 52.9685 10.0317 59.0001 17.4721 59.0001H49.4933C56.9337 59.0001 62.9654 52.9685 62.9654 45.528V13.5068C62.9654 6.06636 56.9337 0.034668 49.4933 0.034668Z" fill="white"/>
</g>
<g clip-path="url(#clip0_0_1)">
<path d="M42.9523 29.3845C43.511 29.3845 43.9654 28.9751 43.9654 28.4731C43.9654 23.2486 39.2501 19 33.4516 19C32.8929 19 32.4385 19.4095 32.4385 19.9128C32.4385 20.4162 32.8929 20.8242 33.4516 20.8242C38.1311 20.8242 41.9392 24.2554 41.9392 28.4717C41.9392 28.9751 42.3936 29.383 42.9523 29.383V29.3845ZM33.4516 20.2489C33.2464 20.2489 33.0786 20.0992 33.0786 19.9143C33.0786 19.7294 33.2464 19.5782 33.4516 19.5782C38.895 19.5782 43.3253 23.5685 43.3253 28.4746C43.3253 28.6595 43.1591 28.8107 42.9523 28.8107C42.7454 28.8107 42.5793 28.6595 42.5793 28.4746C42.5793 23.9398 38.4845 20.2504 33.4516 20.2504V20.2489Z" fill="#00B382"/>
<path d="M33.3408 22.0557C32.7822 22.0557 32.3277 22.4651 32.3277 22.9685C32.3277 23.4719 32.7822 23.8813 33.3408 23.8813C36.2124 23.8813 38.5497 25.9873 38.5497 28.5746C38.5497 29.078 39.0041 29.4874 39.5628 29.4874C40.1215 29.4874 40.5759 29.078 40.5759 28.5746C40.5759 24.9805 37.3297 22.0571 33.3408 22.0571V22.0557ZM39.5628 28.9092C39.3576 28.9092 39.1898 28.758 39.1898 28.5731C39.1898 25.6673 36.5658 23.3031 33.3408 23.3031C33.1356 23.3031 32.9678 23.1519 32.9678 22.967C32.9678 22.7821 33.1356 22.631 33.3408 22.631C36.9763 22.631 39.9342 25.2961 39.9342 28.5731C39.9342 28.758 39.7664 28.9092 39.5612 28.9092H39.5628Z" fill="#00B382"/>
<path d="M37.312 38.9793C37.4765 38.9925 37.6393 38.9998 37.8022 38.9998C38.6736 38.9998 39.4962 38.8061 40.1526 38.4422C40.4702 38.2778 40.752 38.0709 40.9946 37.8302L41.6413 37.1859C42.9182 35.9135 42.8075 33.9426 41.397 32.792L40.3057 31.9027C39.6688 31.3846 38.8463 31.0985 37.9895 31.0985C37.0155 31.0985 36.0822 31.4712 35.4291 32.1228L34.7825 32.7671C34.5349 33.0136 34.3362 33.2881 34.1896 33.586C31.6519 32.6159 29.5687 30.8974 28.2689 28.7063C28.7315 28.5302 29.1469 28.2646 29.4873 27.9256L30.1323 27.2828C30.7512 26.6664 31.0672 25.8695 31.02 25.0403C30.9744 24.2097 30.572 23.4466 29.888 22.8889L28.7967 22.001C28.1614 21.483 27.3389 21.1968 26.4805 21.1968C25.5065 21.1968 24.5716 21.5695 23.9185 22.2211L23.2718 22.8654C23.1822 22.9549 23.0976 23.0503 23.0177 23.1516C22.2962 23.7298 21.7261 24.9963 22.06 26.5534C23.4901 33.2602 29.7609 38.3702 37.3087 38.9808L37.312 38.9793ZM23.6758 23.7856C23.6921 23.7724 23.7067 23.7591 23.7214 23.7459L23.7507 23.7166C23.7637 23.7034 23.7768 23.6887 23.7882 23.674C23.8501 23.5933 23.9168 23.517 23.9885 23.4466L24.6335 22.8023C25.1042 22.3327 25.7785 22.0641 26.4822 22.0641C27.1011 22.0641 27.694 22.2696 28.1533 22.6438L29.2446 23.5317C29.7381 23.9338 30.028 24.4856 30.0606 25.0844C30.0948 25.6831 29.8668 26.2584 29.4205 26.7031L28.7739 27.3459C28.4677 27.6497 28.0784 27.8727 27.6467 27.9901L27.4497 28.043C27.3128 28.0797 27.2037 28.1692 27.1467 28.2866C27.0913 28.404 27.0946 28.5375 27.1581 28.652L27.2493 28.8179C28.6859 31.4169 31.1258 33.4348 34.1212 34.4988L34.2906 34.559C34.4127 34.603 34.5495 34.5986 34.6701 34.5487C34.789 34.4988 34.8802 34.4063 34.9225 34.2948L34.9812 34.1392C35.0903 33.8472 35.2629 33.5816 35.4942 33.3497L36.1409 32.7054C36.6132 32.2358 37.2859 31.9658 37.9895 31.9658C38.6068 31.9658 39.2013 32.1712 39.6607 32.5455L40.752 33.4348C41.7699 34.2655 41.8498 35.6875 40.9279 36.6062L40.2812 37.2505C40.107 37.4237 39.9017 37.5734 39.6607 37.6996C39.0482 38.0386 38.2453 38.1868 37.3999 38.1178C30.274 37.5425 24.3566 32.7201 23.0063 26.389C22.7246 25.0741 23.2523 24.1114 23.6758 23.7856Z" fill="#00B382"/>
</g>
<defs>
<filter id="filter0_d_0_1" x="0" y="0.034668" width="66.9654" height="66.9653" filterUnits="userSpaceOnUse" color-interpolation-filters="sRGB">
<feFlood flood-opacity="0" result="BackgroundImageFix"/>
<feColorMatrix in="SourceAlpha" type="matrix" values="0 0 0 0 0 0 0 0 0 0 0 0 0 0 0 0 0 0 127 0" result="hardAlpha"/>
<feOffset dy="4"/>
<feGaussianBlur stdDeviation="2"/>
<feComposite in2="hardAlpha" operator="out"/>
<feColorMatrix type="matrix" values="0 0 0 0 0.133333 0 0 0 0 0.435294 0 0 0 0 0.717647 0 0 0 0.33 0"/>
<feBlend mode="normal" in2="BackgroundImageFix" result="effect1_dropShadow_0_1"/>
<feBlend mode="normal" in="SourceGraphic" in2="effect1_dropShadow_0_1" result="shape"/>
</filter>
<clipPath id="clip0_0_1">
<rect width="22" height="20" fill="white" transform="translate(21.9654 19)"/>
</clipPath>
</defs>
</svg>
