<svg width="53" height="53" viewBox="0 0 53 53" fill="none" xmlns="http://www.w3.org/2000/svg">
<path d="M40.0009 26.5672C40.0009 32.8406 35.3611 38.0549 29.3277 39V30.2172H32.2624L32.8198 26.5672H29.3277C29.1146 23.6831 29.2785 21.744 32.9838 22.2491V19.1532C27.7046 17.7518 24.5076 20.8315 25.3766 26.5672H22.1631V30.2172H25.3766V39C10.4407 37.0284 12.0966 13.6456 27.3439 14.0041C34.3445 14.0041 40.0009 19.6257 40.0009 26.5672Z" fill="white"/>
<path d="M52.7 26.3502C52.7 40.8802 40.8799 52.7002 26.3499 52.7002C11.8199 52.7002 -2.94842e-05 40.8802 -2.8214e-05 26.3502C-2.69437e-05 11.8202 11.82 0.000240567 26.3499 0.000241837C40.8799 0.000243107 52.7 11.8202 52.7 26.3502ZM51.4 26.3502C51.4 12.5402 40.1599 1.30023 26.3499 1.30023C12.5399 1.30023 1.29996 12.5402 1.29996 26.3502C1.29996 40.1602 12.5399 51.4002 26.3499 51.4002C40.1599 51.4002 51.4 40.1602 51.4 26.3502Z" fill="white"/>
</svg>
