<svg width="53" height="53" viewBox="0 0 53 53" fill="none" xmlns="http://www.w3.org/2000/svg">
<path d="M40 26.5672C40 32.8406 35.3602 38.0549 29.3269 39V30.2172H32.2615L32.819 26.5672H29.3269C29.1137 23.6831 29.2776 21.744 32.9829 22.2491V19.1532C27.7037 17.7518 24.5068 20.8315 25.3757 26.5672H22.1623V30.2172H25.3757V39C10.4399 37.0284 12.0957 13.6456 27.343 14.0041C34.3437 14.0041 40 19.6257 40 26.5672Z" fill="#386EB0"/>
<path d="M52.7 26.3502C52.7 40.8802 40.8799 52.7002 26.3499 52.7002C11.8199 52.7002 -2.94842e-05 40.8802 -2.8214e-05 26.3502C-2.69437e-05 11.8202 11.82 0.000240567 26.3499 0.000241837C40.8799 0.000243107 52.7 11.8202 52.7 26.3502ZM51.4 26.3502C51.4 12.5402 40.1599 1.30023 26.3499 1.30023C12.5399 1.30023 1.29996 12.5402 1.29996 26.3502C1.29996 40.1602 12.5399 51.4002 26.3499 51.4002C40.1599 51.4002 51.4 40.1602 51.4 26.3502Z" fill="#226FB7"/>
</svg>
