<svg width="194" height="34" viewBox="0 0 194 34" fill="none" xmlns="http://www.w3.org/2000/svg">
<g filter="url(#filter0_d_0_1)">
<mask id="path-1-inside-1_0_1" fill="white">
<path d="M13.0448 8.97641L17.0314 0.99818L20.9399 9.01498L29.7603 10.3384L23.3426 16.5342L24.8109 25.334L16.9358 21.1458L9.02071 25.2569L10.5701 16.4742L4.21258 10.2183L13.0448 8.97641Z"/>
</mask>
<path d="M13.0448 8.97641L16.7346 35.2183L30.5252 33.2792L36.7501 20.8215L13.0448 8.97641ZM17.0314 0.99818L40.8512 -10.615L17.3235 -58.8725L-6.67398 -10.847L17.0314 0.99818ZM20.9399 9.01498L-2.87993 20.6282L3.22693 33.1539L17.0078 35.2216L20.9399 9.01498ZM29.7603 10.3384L48.1661 29.4034L86.8047 -7.89928L33.6923 -15.8683L29.7603 10.3384ZM23.3426 16.5342L4.93676 -2.53085L-5.08974 7.149L-2.79601 20.8956L23.3426 16.5342ZM24.8109 25.334L12.3677 48.731L59.7895 73.9513L50.9496 20.9726L24.8109 25.334ZM16.9358 21.1458L29.379 -2.25115L17.0816 -8.7913L4.72102 -2.37122L16.9358 21.1458ZM9.02071 25.2569L-17.0763 20.653L-26.4023 73.5171L21.2355 48.7739L9.02071 25.2569ZM10.5701 16.4742L36.6671 21.0781L39.0876 7.35761L29.1569 -2.41442L10.5701 16.4742ZM4.21258 10.2183L0.522735 -16.0236L-52.6409 -8.54826L-14.3742 29.1069L4.21258 10.2183ZM9.35493 -17.2654L8.2509 -17.1102L15.6306 35.3735L16.7346 35.2183L9.35493 -17.2654ZM6.04286 -16.7997L3.83481 -16.4893L11.2145 35.9944L13.4225 35.684L6.04286 -16.7997ZM1.62676 -16.1788L0.522735 -16.0236L7.90243 36.4602L9.00645 36.3049L1.62676 -16.1788ZM-14.3742 29.1069L-13.5795 29.8889L23.5941 -7.88836L22.7994 -8.67035L-14.3742 29.1069ZM-11.9901 31.4529L-10.4008 33.0169L26.7728 -4.76039L25.1835 -6.32437L-11.9901 31.4529ZM-8.81138 34.5809L-8.01669 35.3629L29.1569 -2.41442L28.3622 -3.19641L-8.81138 34.5809ZM-15.5269 11.8703L-15.7206 12.9681L36.4734 22.176L36.6671 21.0781L-15.5269 11.8703ZM-16.1079 15.1638L-16.4953 17.3595L35.6987 26.5673L36.0861 24.3716L-16.1079 15.1638ZM-16.8826 19.5551L-17.0763 20.653L35.1177 29.8608L35.3114 28.763L-16.8826 19.5551ZM21.2355 48.7739L22.2249 48.26L-2.20467 1.226L-3.19406 1.73989L21.2355 48.7739ZM24.2036 47.2322L26.1824 46.2045L1.75287 -0.82955L-0.225903 0.198227L24.2036 47.2322ZM28.1612 45.1767L29.1506 44.6628L4.72102 -2.37122L3.73164 -1.85733L28.1612 45.1767ZM4.49259 44.5427L5.47699 45.0663L30.3634 -1.72762L29.379 -2.25115L4.49259 44.5427ZM7.44577 46.1133L9.41456 47.1604L34.301 0.3665L32.3322 -0.680561L7.44577 46.1133ZM11.3833 48.2074L12.3677 48.731L37.2541 1.93709L36.2698 1.41356L11.3833 48.2074ZM50.9496 20.9726L50.766 19.8726L-1.51123 28.5955L-1.32768 29.6955L50.9496 20.9726ZM50.3989 17.6726L50.0319 15.4727L-2.24539 24.1956L-1.87831 26.3955L50.3989 17.6726ZM49.6648 13.2727L49.4812 12.1727L-2.79601 20.8956L-2.61247 21.9956L49.6648 13.2727ZM41.7485 35.5992L42.5507 34.8247L5.73897 -3.30532L4.93676 -2.53085L41.7485 35.5992ZM44.1551 33.2758L45.7595 31.7268L8.9478 -6.40321L7.34339 -4.85426L44.1551 33.2758ZM47.3639 30.1779L48.1661 29.4034L11.3544 -8.72662L10.5522 -7.95215L47.3639 30.1779ZM33.6923 -15.8683L32.5898 -16.0337L24.7257 36.3796L25.8282 36.545L33.6923 -15.8683ZM30.3847 -16.3645L28.1796 -16.6954L20.3155 35.7179L22.5206 36.0488L30.3847 -16.3645ZM25.9745 -17.0263L24.8719 -17.1917L17.0078 35.2216L18.1104 35.3871L25.9745 -17.0263ZM44.7597 -2.59822L44.2711 -3.60032L-3.36849 19.6261L-2.87993 20.6282L44.7597 -2.59822ZM43.294 -5.60452L42.3169 -7.60872L-5.32276 15.6177L-4.34563 17.6219L43.294 -5.60452ZM41.3397 -9.61291L40.8512 -10.615L-6.78846 12.6114L-6.2999 13.6135L41.3397 -9.61291ZM-6.67398 -10.847L-7.1723 -9.84967L40.2384 13.8406L40.7367 12.8433L-6.67398 -10.847ZM-8.16895 -7.85512L-9.16559 -5.86056L38.2451 17.8297L39.2417 15.8351L-8.16895 -7.85512ZM-10.1622 -3.866L-10.6606 -2.86872L36.7501 20.8215L37.2484 19.8243L-10.1622 -3.866ZM13.0448 8.97641L20.4245 61.4601L48.0057 57.5819L60.4554 32.6667L13.0448 8.97641ZM17.0314 0.99818L64.671 -22.2282L17.6157 -118.743L-30.3793 -22.6921L17.0314 0.99818ZM20.9399 9.01498L-26.6997 32.2414L-14.486 57.2929L13.0758 61.4283L20.9399 9.01498ZM29.7603 10.3384L66.572 48.4684L143.849 -26.137L37.6244 -42.0749L29.7603 10.3384ZM23.3426 16.5342L-13.4691 -21.5959L-33.5221 -2.23616L-28.9346 25.257L23.3426 16.5342ZM24.8109 25.334L-0.0754629 72.1279L94.768 122.569L77.0882 16.6112L24.8109 25.334ZM16.9358 21.1458L41.8222 -25.6481L17.2273 -38.7284L-7.49375 -25.8882L16.9358 21.1458ZM9.02071 25.2569L-43.1733 16.0491L-61.8254 121.777L33.4503 72.2909L9.02071 25.2569ZM10.5701 16.4742L62.7641 25.6821L67.6052 -1.759L47.7437 -21.3031L10.5701 16.4742ZM4.21258 10.2183L-3.16711 -42.2654L-109.494 -27.3148L-32.961 47.9956L4.21258 10.2183ZM5.66508 -43.5073L4.56106 -43.3521L19.3204 61.6154L20.4245 61.4601L5.66508 -43.5073ZM2.35301 -43.0416L0.144963 -42.7311L14.9043 62.2363L17.1124 61.9258L2.35301 -43.0416ZM-2.06309 -42.4206L-3.16711 -42.2654L11.5923 62.702L12.6963 62.5468L-2.06309 -42.4206ZM-32.961 47.9956L-32.1663 48.7776L42.1809 -26.777L41.3862 -27.559L-32.961 47.9956ZM-30.5769 50.3416L-28.9876 51.9055L45.3596 -23.649L43.7702 -25.213L-30.5769 50.3416ZM-27.3982 53.4695L-26.6035 54.2515L47.7437 -21.3031L46.949 -22.0851L-27.3982 53.4695ZM-41.6239 7.2664L-41.8176 8.36423L62.5705 26.7799L62.7641 25.6821L-41.6239 7.2664ZM-42.2049 10.5599L-42.5923 12.7556L61.7958 31.1712L62.1831 28.9756L-42.2049 10.5599ZM-42.9796 14.9512L-43.1733 16.0491L61.2147 34.4647L61.4084 33.3669L-42.9796 14.9512ZM33.4503 72.2909L34.4396 71.777L-14.4194 -22.291L-15.4088 -21.7771L33.4503 72.2909ZM36.4184 70.7492L38.3972 69.7215L-10.4619 -24.3466L-12.4407 -23.3188L36.4184 70.7492ZM40.376 68.6937L41.3653 68.1798L-7.49375 -25.8882L-8.48313 -25.3743L40.376 68.6937ZM-7.95061 67.9397L-6.96622 68.4632L42.8066 -25.1246L41.8222 -25.6481L-7.95061 67.9397ZM-4.99743 69.5102L-3.02864 70.5573L46.7442 -23.0304L44.7754 -24.0775L-4.99743 69.5102ZM-1.05986 71.6044L-0.0754629 72.1279L49.6973 -21.4598L48.713 -21.9834L-1.05986 71.6044ZM77.0882 16.6112L76.9047 15.5112L-27.6499 32.9569L-27.4663 34.0569L77.0882 16.6112ZM76.5376 13.3112L76.1705 11.1112L-28.384 28.557L-28.0169 30.757L76.5376 13.3112ZM75.8034 8.91127L75.6199 7.81129L-28.9346 25.257L-28.7511 26.357L75.8034 8.91127ZM60.1543 54.6642L60.9565 53.8897L-12.6669 -22.3703L-13.4691 -21.5959L60.1543 54.6642ZM62.5609 52.3408L64.1654 50.7918L-9.45805 -25.4682L-11.0625 -23.9193L62.5609 52.3408ZM65.7698 49.2429L66.572 48.4684L-7.05143 -27.7916L-7.85364 -27.0172L65.7698 49.2429ZM37.6244 -42.0749L36.5218 -42.2404L20.7936 62.5863L21.8962 62.7517L37.6244 -42.0749ZM34.3167 -42.5712L32.1116 -42.9021L16.3834 61.9246L18.5885 62.2554L34.3167 -42.5712ZM29.9065 -43.2329L28.804 -43.3983L13.0758 61.4283L14.1783 61.5937L29.9065 -43.2329ZM68.5795 -14.2114L68.091 -15.2135L-27.1883 31.2393L-26.6997 32.2414L68.5795 -14.2114ZM67.1138 -17.2177L66.1367 -19.2219L-29.1426 27.2309L-28.1654 29.2351L67.1138 -17.2177ZM65.1596 -21.2261L64.671 -22.2282L-30.6083 24.2246L-30.1197 25.2267L65.1596 -21.2261ZM-30.3793 -22.6921L-30.8776 -21.6948L63.9437 25.6857L64.442 24.6884L-30.3793 -22.6921ZM-31.8743 -19.7002L-32.8709 -17.7057L61.9504 29.6748L62.9471 27.6803L-31.8743 -19.7002ZM-33.8676 -15.7111L-34.3659 -14.7139L60.4554 32.6667L60.9538 31.6694L-33.8676 -15.7111Z" fill="#386EB0" mask="url(#path-1-inside-1_0_1)"/>
<path d="M13.0448 8.97641L16.7346 35.2183L30.5252 33.2792L36.7501 20.8215L13.0448 8.97641ZM17.0314 0.99818L40.8512 -10.615L17.3235 -58.8725L-6.67398 -10.847L17.0314 0.99818ZM20.9399 9.01498L-2.87993 20.6282L3.22693 33.1539L17.0078 35.2216L20.9399 9.01498ZM29.7603 10.3384L48.1661 29.4034L86.8047 -7.89928L33.6923 -15.8683L29.7603 10.3384ZM23.3426 16.5342L4.93676 -2.53085L-5.08974 7.149L-2.79601 20.8956L23.3426 16.5342ZM24.8109 25.334L12.3677 48.731L59.7895 73.9513L50.9496 20.9726L24.8109 25.334ZM16.9358 21.1458L29.379 -2.25115L17.0816 -8.7913L4.72102 -2.37122L16.9358 21.1458ZM9.02071 25.2569L-17.0763 20.653L-26.4023 73.5171L21.2355 48.7739L9.02071 25.2569ZM10.5701 16.4742L36.6671 21.0781L39.0876 7.35761L29.1569 -2.41442L10.5701 16.4742ZM4.21258 10.2183L0.522735 -16.0236L-52.6409 -8.54826L-14.3742 29.1069L4.21258 10.2183ZM9.35493 -17.2654L8.2509 -17.1102L15.6306 35.3735L16.7346 35.2183L9.35493 -17.2654ZM6.04286 -16.7997L3.83481 -16.4893L11.2145 35.9944L13.4225 35.684L6.04286 -16.7997ZM1.62676 -16.1788L0.522735 -16.0236L7.90243 36.4602L9.00645 36.3049L1.62676 -16.1788ZM-14.3742 29.1069L-13.5795 29.8889L23.5941 -7.88836L22.7994 -8.67035L-14.3742 29.1069ZM-11.9901 31.4529L-10.4008 33.0169L26.7728 -4.76039L25.1835 -6.32437L-11.9901 31.4529ZM-8.81138 34.5809L-8.01669 35.3629L29.1569 -2.41442L28.3622 -3.19641L-8.81138 34.5809ZM-15.5269 11.8703L-15.7206 12.9681L36.4734 22.176L36.6671 21.0781L-15.5269 11.8703ZM-16.1079 15.1638L-16.4953 17.3595L35.6987 26.5673L36.0861 24.3716L-16.1079 15.1638ZM-16.8826 19.5551L-17.0763 20.653L35.1177 29.8608L35.3114 28.763L-16.8826 19.5551ZM21.2355 48.7739L22.2249 48.26L-2.20467 1.226L-3.19406 1.73989L21.2355 48.7739ZM24.2036 47.2322L26.1824 46.2045L1.75287 -0.82955L-0.225903 0.198227L24.2036 47.2322ZM28.1612 45.1767L29.1506 44.6628L4.72102 -2.37122L3.73164 -1.85733L28.1612 45.1767ZM4.49259 44.5427L5.47699 45.0663L30.3634 -1.72762L29.379 -2.25115L4.49259 44.5427ZM7.44577 46.1133L9.41456 47.1604L34.301 0.3665L32.3322 -0.680561L7.44577 46.1133ZM11.3833 48.2074L12.3677 48.731L37.2541 1.93709L36.2698 1.41356L11.3833 48.2074ZM50.9496 20.9726L50.766 19.8726L-1.51123 28.5955L-1.32768 29.6955L50.9496 20.9726ZM50.3989 17.6726L50.0319 15.4727L-2.24539 24.1956L-1.87831 26.3955L50.3989 17.6726ZM49.6648 13.2727L49.4812 12.1727L-2.79601 20.8956L-2.61247 21.9956L49.6648 13.2727ZM41.7485 35.5992L42.5507 34.8247L5.73897 -3.30532L4.93676 -2.53085L41.7485 35.5992ZM44.1551 33.2758L45.7595 31.7268L8.9478 -6.40321L7.34339 -4.85426L44.1551 33.2758ZM47.3639 30.1779L48.1661 29.4034L11.3544 -8.72662L10.5522 -7.95215L47.3639 30.1779ZM33.6923 -15.8683L32.5898 -16.0337L24.7257 36.3796L25.8282 36.545L33.6923 -15.8683ZM30.3847 -16.3645L28.1796 -16.6954L20.3155 35.7179L22.5206 36.0488L30.3847 -16.3645ZM25.9745 -17.0263L24.8719 -17.1917L17.0078 35.2216L18.1104 35.3871L25.9745 -17.0263ZM44.7597 -2.59822L44.2711 -3.60032L-3.36849 19.6261L-2.87993 20.6282L44.7597 -2.59822ZM43.294 -5.60452L42.3169 -7.60872L-5.32276 15.6177L-4.34563 17.6219L43.294 -5.60452ZM41.3397 -9.61291L40.8512 -10.615L-6.78846 12.6114L-6.2999 13.6135L41.3397 -9.61291ZM-6.67398 -10.847L-7.1723 -9.84967L40.2384 13.8406L40.7367 12.8433L-6.67398 -10.847ZM-8.16895 -7.85512L-9.16559 -5.86056L38.2451 17.8297L39.2417 15.8351L-8.16895 -7.85512ZM-10.1622 -3.866L-10.6606 -2.86872L36.7501 20.8215L37.2484 19.8243L-10.1622 -3.866ZM13.0448 8.97641L20.4245 61.4601L48.0057 57.5819L60.4554 32.6667L13.0448 8.97641ZM17.0314 0.99818L64.671 -22.2282L17.6157 -118.743L-30.3793 -22.6921L17.0314 0.99818ZM20.9399 9.01498L-26.6997 32.2414L-14.486 57.2929L13.0758 61.4283L20.9399 9.01498ZM29.7603 10.3384L66.572 48.4684L143.849 -26.137L37.6244 -42.0749L29.7603 10.3384ZM23.3426 16.5342L-13.4691 -21.5959L-33.5221 -2.23616L-28.9346 25.257L23.3426 16.5342ZM24.8109 25.334L-0.0754629 72.1279L94.768 122.569L77.0882 16.6112L24.8109 25.334ZM16.9358 21.1458L41.8222 -25.6481L17.2273 -38.7284L-7.49375 -25.8882L16.9358 21.1458ZM9.02071 25.2569L-43.1733 16.0491L-61.8254 121.777L33.4503 72.2909L9.02071 25.2569ZM10.5701 16.4742L62.7641 25.6821L67.6052 -1.759L47.7437 -21.3031L10.5701 16.4742ZM4.21258 10.2183L-3.16711 -42.2654L-109.494 -27.3148L-32.961 47.9956L4.21258 10.2183ZM5.66508 -43.5073L4.56106 -43.3521L19.3204 61.6154L20.4245 61.4601L5.66508 -43.5073ZM2.35301 -43.0416L0.144963 -42.7311L14.9043 62.2363L17.1124 61.9258L2.35301 -43.0416ZM-2.06309 -42.4206L-3.16711 -42.2654L11.5923 62.702L12.6963 62.5468L-2.06309 -42.4206ZM-32.961 47.9956L-32.1663 48.7776L42.1809 -26.777L41.3862 -27.559L-32.961 47.9956ZM-30.5769 50.3416L-28.9876 51.9055L45.3596 -23.649L43.7702 -25.213L-30.5769 50.3416ZM-27.3982 53.4695L-26.6035 54.2515L47.7437 -21.3031L46.949 -22.0851L-27.3982 53.4695ZM-41.6239 7.2664L-41.8176 8.36423L62.5705 26.7799L62.7641 25.6821L-41.6239 7.2664ZM-42.2049 10.5599L-42.5923 12.7556L61.7958 31.1712L62.1831 28.9756L-42.2049 10.5599ZM-42.9796 14.9512L-43.1733 16.0491L61.2147 34.4647L61.4084 33.3669L-42.9796 14.9512ZM33.4503 72.2909L34.4396 71.777L-14.4194 -22.291L-15.4088 -21.7771L33.4503 72.2909ZM36.4184 70.7492L38.3972 69.7215L-10.4619 -24.3466L-12.4407 -23.3188L36.4184 70.7492ZM40.376 68.6937L41.3653 68.1798L-7.49375 -25.8882L-8.48313 -25.3743L40.376 68.6937ZM-7.95061 67.9397L-6.96622 68.4632L42.8066 -25.1246L41.8222 -25.6481L-7.95061 67.9397ZM-4.99743 69.5102L-3.02864 70.5573L46.7442 -23.0304L44.7754 -24.0775L-4.99743 69.5102ZM-1.05986 71.6044L-0.0754629 72.1279L49.6973 -21.4598L48.713 -21.9834L-1.05986 71.6044ZM77.0882 16.6112L76.9047 15.5112L-27.6499 32.9569L-27.4663 34.0569L77.0882 16.6112ZM76.5376 13.3112L76.1705 11.1112L-28.384 28.557L-28.0169 30.757L76.5376 13.3112ZM75.8034 8.91127L75.6199 7.81129L-28.9346 25.257L-28.7511 26.357L75.8034 8.91127ZM60.1543 54.6642L60.9565 53.8897L-12.6669 -22.3703L-13.4691 -21.5959L60.1543 54.6642ZM62.5609 52.3408L64.1654 50.7918L-9.45805 -25.4682L-11.0625 -23.9193L62.5609 52.3408ZM65.7698 49.2429L66.572 48.4684L-7.05143 -27.7916L-7.85364 -27.0172L65.7698 49.2429ZM37.6244 -42.0749L36.5218 -42.2404L20.7936 62.5863L21.8962 62.7517L37.6244 -42.0749ZM34.3167 -42.5712L32.1116 -42.9021L16.3834 61.9246L18.5885 62.2554L34.3167 -42.5712ZM29.9065 -43.2329L28.804 -43.3983L13.0758 61.4283L14.1783 61.5937L29.9065 -43.2329ZM68.5795 -14.2114L68.091 -15.2135L-27.1883 31.2393L-26.6997 32.2414L68.5795 -14.2114ZM67.1138 -17.2177L66.1367 -19.2219L-29.1426 27.2309L-28.1654 29.2351L67.1138 -17.2177ZM65.1596 -21.2261L64.671 -22.2282L-30.6083 24.2246L-30.1197 25.2267L65.1596 -21.2261ZM-30.3793 -22.6921L-30.8776 -21.6948L63.9437 25.6857L64.442 24.6884L-30.3793 -22.6921ZM-31.8743 -19.7002L-32.8709 -17.7057L61.9504 29.6748L62.9471 27.6803L-31.8743 -19.7002ZM-33.8676 -15.7111L-34.3659 -14.7139L60.4554 32.6667L60.9538 31.6694L-33.8676 -15.7111Z" fill="#226FB7" mask="url(#path-1-inside-1_0_1)"/>
</g>
<g filter="url(#filter1_d_0_1)">
<mask id="path-3-inside-2_0_1" fill="white">
<path d="M53.0448 8.97641L57.0314 0.99818L60.9399 9.01498L69.7603 10.3384L63.3426 16.5342L64.8109 25.334L56.9358 21.1458L49.0207 25.2569L50.5701 16.4742L44.2126 10.2183L53.0448 8.97641Z"/>
</mask>
<path d="M53.0448 8.97641L56.7346 35.2183L70.5252 33.2792L76.7501 20.8215L53.0448 8.97641ZM57.0314 0.99818L80.8512 -10.615L57.3235 -58.8725L33.326 -10.847L57.0314 0.99818ZM60.9399 9.01498L37.1201 20.6282L43.2269 33.1539L57.0078 35.2216L60.9399 9.01498ZM69.7603 10.3384L88.1661 29.4034L126.805 -7.89928L73.6923 -15.8683L69.7603 10.3384ZM63.3426 16.5342L44.9368 -2.53085L34.9103 7.149L37.204 20.8956L63.3426 16.5342ZM64.8109 25.334L52.3677 48.731L99.7895 73.9513L90.9496 20.9726L64.8109 25.334ZM56.9358 21.1458L69.379 -2.25115L57.0816 -8.7913L44.721 -2.37122L56.9358 21.1458ZM49.0207 25.2569L22.9237 20.653L13.5977 73.5171L61.2355 48.7739L49.0207 25.2569ZM50.5701 16.4742L76.6671 21.0781L79.0876 7.35761L69.1569 -2.41442L50.5701 16.4742ZM44.2126 10.2183L40.5227 -16.0236L-12.6409 -8.54826L25.6258 29.1069L44.2126 10.2183ZM49.3549 -17.2654L48.2509 -17.1102L55.6306 35.3735L56.7346 35.2183L49.3549 -17.2654ZM46.0429 -16.7997L43.8348 -16.4893L51.2145 35.9944L53.4225 35.684L46.0429 -16.7997ZM41.6268 -16.1788L40.5227 -16.0236L47.9024 36.4602L49.0065 36.3049L41.6268 -16.1788ZM25.6258 29.1069L26.4205 29.8889L63.5941 -7.88836L62.7994 -8.67035L25.6258 29.1069ZM28.0099 31.4529L29.5992 33.0169L66.7728 -4.76039L65.1835 -6.32437L28.0099 31.4529ZM31.1886 34.5809L31.9833 35.3629L69.1569 -2.41442L68.3622 -3.19641L31.1886 34.5809ZM24.4731 11.8703L24.2794 12.9681L76.4734 22.176L76.6671 21.0781L24.4731 11.8703ZM23.8921 15.1638L23.5047 17.3595L75.6987 26.5673L76.0861 24.3716L23.8921 15.1638ZM23.1174 19.5551L22.9237 20.653L75.1177 29.8608L75.3114 28.763L23.1174 19.5551ZM61.2355 48.7739L62.2249 48.26L37.7953 1.226L36.8059 1.73989L61.2355 48.7739ZM64.2036 47.2322L66.1824 46.2045L41.7529 -0.82955L39.7741 0.198227L64.2036 47.2322ZM68.1612 45.1767L69.1506 44.6628L44.721 -2.37122L43.7316 -1.85733L68.1612 45.1767ZM44.4926 44.5427L45.477 45.0663L70.3634 -1.72762L69.379 -2.25115L44.4926 44.5427ZM47.4458 46.1133L49.4146 47.1604L74.301 0.3665L72.3322 -0.680561L47.4458 46.1133ZM51.3833 48.2074L52.3677 48.731L77.2541 1.93709L76.2698 1.41356L51.3833 48.2074ZM90.9496 20.9726L90.766 19.8726L38.4888 28.5955L38.6723 29.6955L90.9496 20.9726ZM90.3989 17.6726L90.0319 15.4727L37.7546 24.1956L38.1217 26.3955L90.3989 17.6726ZM89.6648 13.2727L89.4812 12.1727L37.204 20.8956L37.3875 21.9956L89.6648 13.2727ZM81.7485 35.5992L82.5507 34.8247L45.739 -3.30532L44.9368 -2.53085L81.7485 35.5992ZM84.1551 33.2758L85.7595 31.7268L48.9478 -6.40321L47.3434 -4.85426L84.1551 33.2758ZM87.3639 30.1779L88.1661 29.4034L51.3544 -8.72662L50.5522 -7.95215L87.3639 30.1779ZM73.6923 -15.8683L72.5898 -16.0337L64.7257 36.3796L65.8282 36.545L73.6923 -15.8683ZM70.3847 -16.3645L68.1796 -16.6954L60.3155 35.7179L62.5206 36.0488L70.3847 -16.3645ZM65.9745 -17.0263L64.8719 -17.1917L57.0078 35.2216L58.1104 35.3871L65.9745 -17.0263ZM84.7597 -2.59822L84.2711 -3.60032L36.6315 19.6261L37.1201 20.6282L84.7597 -2.59822ZM83.294 -5.60452L82.3169 -7.60872L34.6772 15.6177L35.6544 17.6219L83.294 -5.60452ZM81.3397 -9.61291L80.8512 -10.615L33.2115 12.6114L33.7001 13.6135L81.3397 -9.61291ZM33.326 -10.847L32.8277 -9.84967L80.2384 13.8406L80.7367 12.8433L33.326 -10.847ZM31.8311 -7.85512L30.8344 -5.86056L78.2451 17.8297L79.2417 15.8351L31.8311 -7.85512ZM29.8378 -3.866L29.3394 -2.86872L76.7501 20.8215L77.2484 19.8243L29.8378 -3.866ZM53.0448 8.97641L60.4245 61.4601L88.0057 57.5819L100.455 32.6667L53.0448 8.97641ZM57.0314 0.99818L104.671 -22.2282L57.6157 -118.743L9.62069 -22.6921L57.0314 0.99818ZM60.9399 9.01498L13.3003 32.2414L25.514 57.2929L53.0758 61.4283L60.9399 9.01498ZM69.7603 10.3384L106.572 48.4684L183.849 -26.137L77.6244 -42.0749L69.7603 10.3384ZM63.3426 16.5342L26.5309 -21.5959L6.4779 -2.23616L11.0654 25.257L63.3426 16.5342ZM64.8109 25.334L39.9245 72.1279L134.768 122.569L117.088 16.6112L64.8109 25.334ZM56.9358 21.1458L81.8222 -25.6481L57.2273 -38.7284L32.5063 -25.8882L56.9358 21.1458ZM49.0207 25.2569L-3.17331 16.0491L-21.8254 121.777L73.4503 72.2909L49.0207 25.2569ZM50.5701 16.4742L102.764 25.6821L107.605 -1.759L87.7437 -21.3031L50.5701 16.4742ZM44.2126 10.2183L36.8329 -42.2654L-69.4944 -27.3148L7.03898 47.9956L44.2126 10.2183ZM45.6651 -43.5073L44.5611 -43.3521L59.3204 61.6154L60.4245 61.4601L45.6651 -43.5073ZM42.353 -43.0416L40.145 -42.7311L54.9043 62.2363L57.1124 61.9258L42.353 -43.0416ZM37.9369 -42.4206L36.8329 -42.2654L51.5923 62.702L52.6963 62.5468L37.9369 -42.4206ZM7.03898 47.9956L7.83367 48.7776L82.1809 -26.777L81.3862 -27.559L7.03898 47.9956ZM9.42306 50.3416L11.0124 51.9055L85.3596 -23.649L83.7702 -25.213L9.42306 50.3416ZM12.6018 53.4695L13.3965 54.2515L87.7437 -21.3031L86.949 -22.0851L12.6018 53.4695ZM-1.62391 7.2664L-1.81759 8.36423L102.57 26.7799L102.764 25.6821L-1.62391 7.2664ZM-2.20494 10.5599L-2.59229 12.7556L101.796 31.1712L102.183 28.9756L-2.20494 10.5599ZM-2.97964 14.9512L-3.17331 16.0491L101.215 34.4647L101.408 33.3669L-2.97964 14.9512ZM73.4503 72.2909L74.4396 71.777L25.5806 -22.291L24.5912 -21.7771L73.4503 72.2909ZM76.4184 70.7492L78.3972 69.7215L29.5381 -24.3466L27.5593 -23.3188L76.4184 70.7492ZM80.376 68.6937L81.3653 68.1798L32.5063 -25.8882L31.5169 -25.3743L80.376 68.6937ZM32.0494 67.9397L33.0338 68.4632L82.8066 -25.1246L81.8222 -25.6481L32.0494 67.9397ZM35.0026 69.5102L36.9714 70.5573L86.7442 -23.0304L84.7754 -24.0775L35.0026 69.5102ZM38.9401 71.6044L39.9245 72.1279L89.6973 -21.4598L88.713 -21.9834L38.9401 71.6044ZM117.088 16.6112L116.905 15.5112L12.3501 32.9569L12.5337 34.0569L117.088 16.6112ZM116.538 13.3112L116.17 11.1112L11.616 28.557L11.9831 30.757L116.538 13.3112ZM115.803 8.91127L115.62 7.81129L11.0654 25.257L11.2489 26.357L115.803 8.91127ZM100.154 54.6642L100.957 53.8897L27.3331 -22.3703L26.5309 -21.5959L100.154 54.6642ZM102.561 52.3408L104.165 50.7918L30.5419 -25.4682L28.9375 -23.9193L102.561 52.3408ZM105.77 49.2429L106.572 48.4684L32.9486 -27.7916L32.1464 -27.0172L105.77 49.2429ZM77.6244 -42.0749L76.5218 -42.2404L60.7936 62.5863L61.8962 62.7517L77.6244 -42.0749ZM74.3167 -42.5712L72.1116 -42.9021L56.3834 61.9246L58.5885 62.2554L74.3167 -42.5712ZM69.9065 -43.2329L68.804 -43.3983L53.0758 61.4283L54.1783 61.5937L69.9065 -43.2329ZM108.58 -14.2114L108.091 -15.2135L12.8117 31.2393L13.3003 32.2414L108.58 -14.2114ZM107.114 -17.2177L106.137 -19.2219L10.8574 27.2309L11.8346 29.2351L107.114 -17.2177ZM105.16 -21.2261L104.671 -22.2282L9.39172 24.2246L9.88029 25.2267L105.16 -21.2261ZM9.62069 -22.6921L9.12236 -21.6948L103.944 25.6857L104.442 24.6884L9.62069 -22.6921ZM8.12572 -19.7002L7.12907 -17.7057L101.95 29.6748L102.947 27.6803L8.12572 -19.7002ZM6.13243 -15.7111L5.63411 -14.7139L100.455 32.6667L100.954 31.6694L6.13243 -15.7111Z" fill="#386EB0" mask="url(#path-3-inside-2_0_1)"/>
<path d="M53.0448 8.97641L56.7346 35.2183L70.5252 33.2792L76.7501 20.8215L53.0448 8.97641ZM57.0314 0.99818L80.8512 -10.615L57.3235 -58.8725L33.326 -10.847L57.0314 0.99818ZM60.9399 9.01498L37.1201 20.6282L43.2269 33.1539L57.0078 35.2216L60.9399 9.01498ZM69.7603 10.3384L88.1661 29.4034L126.805 -7.89928L73.6923 -15.8683L69.7603 10.3384ZM63.3426 16.5342L44.9368 -2.53085L34.9103 7.149L37.204 20.8956L63.3426 16.5342ZM64.8109 25.334L52.3677 48.731L99.7895 73.9513L90.9496 20.9726L64.8109 25.334ZM56.9358 21.1458L69.379 -2.25115L57.0816 -8.7913L44.721 -2.37122L56.9358 21.1458ZM49.0207 25.2569L22.9237 20.653L13.5977 73.5171L61.2355 48.7739L49.0207 25.2569ZM50.5701 16.4742L76.6671 21.0781L79.0876 7.35761L69.1569 -2.41442L50.5701 16.4742ZM44.2126 10.2183L40.5227 -16.0236L-12.6409 -8.54826L25.6258 29.1069L44.2126 10.2183ZM49.3549 -17.2654L48.2509 -17.1102L55.6306 35.3735L56.7346 35.2183L49.3549 -17.2654ZM46.0429 -16.7997L43.8348 -16.4893L51.2145 35.9944L53.4225 35.684L46.0429 -16.7997ZM41.6268 -16.1788L40.5227 -16.0236L47.9024 36.4602L49.0065 36.3049L41.6268 -16.1788ZM25.6258 29.1069L26.4205 29.8889L63.5941 -7.88836L62.7994 -8.67035L25.6258 29.1069ZM28.0099 31.4529L29.5992 33.0169L66.7728 -4.76039L65.1835 -6.32437L28.0099 31.4529ZM31.1886 34.5809L31.9833 35.3629L69.1569 -2.41442L68.3622 -3.19641L31.1886 34.5809ZM24.4731 11.8703L24.2794 12.9681L76.4734 22.176L76.6671 21.0781L24.4731 11.8703ZM23.8921 15.1638L23.5047 17.3595L75.6987 26.5673L76.0861 24.3716L23.8921 15.1638ZM23.1174 19.5551L22.9237 20.653L75.1177 29.8608L75.3114 28.763L23.1174 19.5551ZM61.2355 48.7739L62.2249 48.26L37.7953 1.226L36.8059 1.73989L61.2355 48.7739ZM64.2036 47.2322L66.1824 46.2045L41.7529 -0.82955L39.7741 0.198227L64.2036 47.2322ZM68.1612 45.1767L69.1506 44.6628L44.721 -2.37122L43.7316 -1.85733L68.1612 45.1767ZM44.4926 44.5427L45.477 45.0663L70.3634 -1.72762L69.379 -2.25115L44.4926 44.5427ZM47.4458 46.1133L49.4146 47.1604L74.301 0.3665L72.3322 -0.680561L47.4458 46.1133ZM51.3833 48.2074L52.3677 48.731L77.2541 1.93709L76.2698 1.41356L51.3833 48.2074ZM90.9496 20.9726L90.766 19.8726L38.4888 28.5955L38.6723 29.6955L90.9496 20.9726ZM90.3989 17.6726L90.0319 15.4727L37.7546 24.1956L38.1217 26.3955L90.3989 17.6726ZM89.6648 13.2727L89.4812 12.1727L37.204 20.8956L37.3875 21.9956L89.6648 13.2727ZM81.7485 35.5992L82.5507 34.8247L45.739 -3.30532L44.9368 -2.53085L81.7485 35.5992ZM84.1551 33.2758L85.7595 31.7268L48.9478 -6.40321L47.3434 -4.85426L84.1551 33.2758ZM87.3639 30.1779L88.1661 29.4034L51.3544 -8.72662L50.5522 -7.95215L87.3639 30.1779ZM73.6923 -15.8683L72.5898 -16.0337L64.7257 36.3796L65.8282 36.545L73.6923 -15.8683ZM70.3847 -16.3645L68.1796 -16.6954L60.3155 35.7179L62.5206 36.0488L70.3847 -16.3645ZM65.9745 -17.0263L64.8719 -17.1917L57.0078 35.2216L58.1104 35.3871L65.9745 -17.0263ZM84.7597 -2.59822L84.2711 -3.60032L36.6315 19.6261L37.1201 20.6282L84.7597 -2.59822ZM83.294 -5.60452L82.3169 -7.60872L34.6772 15.6177L35.6544 17.6219L83.294 -5.60452ZM81.3397 -9.61291L80.8512 -10.615L33.2115 12.6114L33.7001 13.6135L81.3397 -9.61291ZM33.326 -10.847L32.8277 -9.84967L80.2384 13.8406L80.7367 12.8433L33.326 -10.847ZM31.8311 -7.85512L30.8344 -5.86056L78.2451 17.8297L79.2417 15.8351L31.8311 -7.85512ZM29.8378 -3.866L29.3394 -2.86872L76.7501 20.8215L77.2484 19.8243L29.8378 -3.866ZM53.0448 8.97641L60.4245 61.4601L88.0057 57.5819L100.455 32.6667L53.0448 8.97641ZM57.0314 0.99818L104.671 -22.2282L57.6157 -118.743L9.62069 -22.6921L57.0314 0.99818ZM60.9399 9.01498L13.3003 32.2414L25.514 57.2929L53.0758 61.4283L60.9399 9.01498ZM69.7603 10.3384L106.572 48.4684L183.849 -26.137L77.6244 -42.0749L69.7603 10.3384ZM63.3426 16.5342L26.5309 -21.5959L6.4779 -2.23616L11.0654 25.257L63.3426 16.5342ZM64.8109 25.334L39.9245 72.1279L134.768 122.569L117.088 16.6112L64.8109 25.334ZM56.9358 21.1458L81.8222 -25.6481L57.2273 -38.7284L32.5063 -25.8882L56.9358 21.1458ZM49.0207 25.2569L-3.17331 16.0491L-21.8254 121.777L73.4503 72.2909L49.0207 25.2569ZM50.5701 16.4742L102.764 25.6821L107.605 -1.759L87.7437 -21.3031L50.5701 16.4742ZM44.2126 10.2183L36.8329 -42.2654L-69.4944 -27.3148L7.03898 47.9956L44.2126 10.2183ZM45.6651 -43.5073L44.5611 -43.3521L59.3204 61.6154L60.4245 61.4601L45.6651 -43.5073ZM42.353 -43.0416L40.145 -42.7311L54.9043 62.2363L57.1124 61.9258L42.353 -43.0416ZM37.9369 -42.4206L36.8329 -42.2654L51.5923 62.702L52.6963 62.5468L37.9369 -42.4206ZM7.03898 47.9956L7.83367 48.7776L82.1809 -26.777L81.3862 -27.559L7.03898 47.9956ZM9.42306 50.3416L11.0124 51.9055L85.3596 -23.649L83.7702 -25.213L9.42306 50.3416ZM12.6018 53.4695L13.3965 54.2515L87.7437 -21.3031L86.949 -22.0851L12.6018 53.4695ZM-1.62391 7.2664L-1.81759 8.36423L102.57 26.7799L102.764 25.6821L-1.62391 7.2664ZM-2.20494 10.5599L-2.59229 12.7556L101.796 31.1712L102.183 28.9756L-2.20494 10.5599ZM-2.97964 14.9512L-3.17331 16.0491L101.215 34.4647L101.408 33.3669L-2.97964 14.9512ZM73.4503 72.2909L74.4396 71.777L25.5806 -22.291L24.5912 -21.7771L73.4503 72.2909ZM76.4184 70.7492L78.3972 69.7215L29.5381 -24.3466L27.5593 -23.3188L76.4184 70.7492ZM80.376 68.6937L81.3653 68.1798L32.5063 -25.8882L31.5169 -25.3743L80.376 68.6937ZM32.0494 67.9397L33.0338 68.4632L82.8066 -25.1246L81.8222 -25.6481L32.0494 67.9397ZM35.0026 69.5102L36.9714 70.5573L86.7442 -23.0304L84.7754 -24.0775L35.0026 69.5102ZM38.9401 71.6044L39.9245 72.1279L89.6973 -21.4598L88.713 -21.9834L38.9401 71.6044ZM117.088 16.6112L116.905 15.5112L12.3501 32.9569L12.5337 34.0569L117.088 16.6112ZM116.538 13.3112L116.17 11.1112L11.616 28.557L11.9831 30.757L116.538 13.3112ZM115.803 8.91127L115.62 7.81129L11.0654 25.257L11.2489 26.357L115.803 8.91127ZM100.154 54.6642L100.957 53.8897L27.3331 -22.3703L26.5309 -21.5959L100.154 54.6642ZM102.561 52.3408L104.165 50.7918L30.5419 -25.4682L28.9375 -23.9193L102.561 52.3408ZM105.77 49.2429L106.572 48.4684L32.9486 -27.7916L32.1464 -27.0172L105.77 49.2429ZM77.6244 -42.0749L76.5218 -42.2404L60.7936 62.5863L61.8962 62.7517L77.6244 -42.0749ZM74.3167 -42.5712L72.1116 -42.9021L56.3834 61.9246L58.5885 62.2554L74.3167 -42.5712ZM69.9065 -43.2329L68.804 -43.3983L53.0758 61.4283L54.1783 61.5937L69.9065 -43.2329ZM108.58 -14.2114L108.091 -15.2135L12.8117 31.2393L13.3003 32.2414L108.58 -14.2114ZM107.114 -17.2177L106.137 -19.2219L10.8574 27.2309L11.8346 29.2351L107.114 -17.2177ZM105.16 -21.2261L104.671 -22.2282L9.39172 24.2246L9.88029 25.2267L105.16 -21.2261ZM9.62069 -22.6921L9.12236 -21.6948L103.944 25.6857L104.442 24.6884L9.62069 -22.6921ZM8.12572 -19.7002L7.12907 -17.7057L101.95 29.6748L102.947 27.6803L8.12572 -19.7002ZM6.13243 -15.7111L5.63411 -14.7139L100.455 32.6667L100.954 31.6694L6.13243 -15.7111Z" fill="#226FB7" mask="url(#path-3-inside-2_0_1)"/>
</g>
<g filter="url(#filter2_d_0_1)">
<mask id="path-5-inside-3_0_1" fill="white">
<path d="M93.0448 8.97641L97.0314 0.99818L100.94 9.01498L109.76 10.3384L103.343 16.5342L104.811 25.334L96.9358 21.1458L89.0207 25.2569L90.5701 16.4742L84.2126 10.2183L93.0448 8.97641Z"/>
</mask>
<path d="M93.0448 8.97641L96.7346 35.2183L110.525 33.2792L116.75 20.8215L93.0448 8.97641ZM97.0314 0.99818L120.851 -10.615L97.3235 -58.8725L73.326 -10.847L97.0314 0.99818ZM100.94 9.01498L77.1201 20.6282L83.2269 33.1539L97.0078 35.2216L100.94 9.01498ZM109.76 10.3384L128.166 29.4034L166.805 -7.89928L113.692 -15.8683L109.76 10.3384ZM103.343 16.5342L84.9368 -2.53085L74.9103 7.149L77.204 20.8956L103.343 16.5342ZM104.811 25.334L92.3677 48.731L139.789 73.9513L130.95 20.9726L104.811 25.334ZM96.9358 21.1458L109.379 -2.25115L97.0816 -8.7913L84.721 -2.37122L96.9358 21.1458ZM89.0207 25.2569L62.9237 20.653L53.5977 73.5171L101.235 48.7739L89.0207 25.2569ZM90.5701 16.4742L116.667 21.0781L119.088 7.35761L109.157 -2.41442L90.5701 16.4742ZM84.2126 10.2183L80.5227 -16.0236L27.3591 -8.54826L65.6258 29.1069L84.2126 10.2183ZM89.3549 -17.2654L88.2509 -17.1102L95.6306 35.3735L96.7346 35.2183L89.3549 -17.2654ZM86.0429 -16.7997L83.8348 -16.4893L91.2145 35.9944L93.4225 35.684L86.0429 -16.7997ZM81.6268 -16.1788L80.5227 -16.0236L87.9024 36.4602L89.0065 36.3049L81.6268 -16.1788ZM65.6258 29.1069L66.4205 29.8889L103.594 -7.88836L102.799 -8.67035L65.6258 29.1069ZM68.0099 31.4529L69.5992 33.0169L106.773 -4.76039L105.183 -6.32437L68.0099 31.4529ZM71.1886 34.5809L71.9833 35.3629L109.157 -2.41442L108.362 -3.19641L71.1886 34.5809ZM64.4731 11.8703L64.2794 12.9681L116.473 22.176L116.667 21.0781L64.4731 11.8703ZM63.8921 15.1638L63.5047 17.3595L115.699 26.5673L116.086 24.3716L63.8921 15.1638ZM63.1174 19.5551L62.9237 20.653L115.118 29.8608L115.311 28.763L63.1174 19.5551ZM101.235 48.7739L102.225 48.26L77.7953 1.226L76.8059 1.73989L101.235 48.7739ZM104.204 47.2322L106.182 46.2045L81.7529 -0.82955L79.7741 0.198227L104.204 47.2322ZM108.161 45.1767L109.151 44.6628L84.721 -2.37122L83.7316 -1.85733L108.161 45.1767ZM84.4926 44.5427L85.477 45.0663L110.363 -1.72762L109.379 -2.25115L84.4926 44.5427ZM87.4458 46.1133L89.4146 47.1604L114.301 0.3665L112.332 -0.680561L87.4458 46.1133ZM91.3833 48.2074L92.3677 48.731L117.254 1.93709L116.27 1.41356L91.3833 48.2074ZM130.95 20.9726L130.766 19.8726L78.4888 28.5955L78.6723 29.6955L130.95 20.9726ZM130.399 17.6726L130.032 15.4727L77.7546 24.1956L78.1217 26.3955L130.399 17.6726ZM129.665 13.2727L129.481 12.1727L77.204 20.8956L77.3875 21.9956L129.665 13.2727ZM121.748 35.5992L122.551 34.8247L85.739 -3.30532L84.9368 -2.53085L121.748 35.5992ZM124.155 33.2758L125.76 31.7268L88.9478 -6.40321L87.3434 -4.85426L124.155 33.2758ZM127.364 30.1779L128.166 29.4034L91.3544 -8.72662L90.5522 -7.95215L127.364 30.1779ZM113.692 -15.8683L112.59 -16.0337L104.726 36.3796L105.828 36.545L113.692 -15.8683ZM110.385 -16.3645L108.18 -16.6954L100.315 35.7179L102.521 36.0488L110.385 -16.3645ZM105.974 -17.0263L104.872 -17.1917L97.0078 35.2216L98.1104 35.3871L105.974 -17.0263ZM124.76 -2.59822L124.271 -3.60032L76.6315 19.6261L77.1201 20.6282L124.76 -2.59822ZM123.294 -5.60452L122.317 -7.60872L74.6772 15.6177L75.6544 17.6219L123.294 -5.60452ZM121.34 -9.61291L120.851 -10.615L73.2115 12.6114L73.7001 13.6135L121.34 -9.61291ZM73.326 -10.847L72.8277 -9.84967L120.238 13.8406L120.737 12.8433L73.326 -10.847ZM71.8311 -7.85512L70.8344 -5.86056L118.245 17.8297L119.242 15.8351L71.8311 -7.85512ZM69.8378 -3.866L69.3394 -2.86872L116.75 20.8215L117.248 19.8243L69.8378 -3.866ZM93.0448 8.97641L100.424 61.4601L128.006 57.5819L140.455 32.6667L93.0448 8.97641ZM97.0314 0.99818L144.671 -22.2282L97.6157 -118.743L49.6207 -22.6921L97.0314 0.99818ZM100.94 9.01498L53.3003 32.2414L65.514 57.2929L93.0758 61.4283L100.94 9.01498ZM109.76 10.3384L146.572 48.4684L223.849 -26.137L117.624 -42.0749L109.76 10.3384ZM103.343 16.5342L66.5309 -21.5959L46.4779 -2.23616L51.0654 25.257L103.343 16.5342ZM104.811 25.334L79.9245 72.1279L174.768 122.569L157.088 16.6112L104.811 25.334ZM96.9358 21.1458L121.822 -25.6481L97.2273 -38.7284L72.5063 -25.8882L96.9358 21.1458ZM89.0207 25.2569L36.8267 16.0491L18.1746 121.777L113.45 72.2909L89.0207 25.2569ZM90.5701 16.4742L142.764 25.6821L147.605 -1.759L127.744 -21.3031L90.5701 16.4742ZM84.2126 10.2183L76.8329 -42.2654L-29.4944 -27.3148L47.039 47.9956L84.2126 10.2183ZM85.6651 -43.5073L84.5611 -43.3521L99.3204 61.6154L100.424 61.4601L85.6651 -43.5073ZM82.353 -43.0416L80.145 -42.7311L94.9043 62.2363L97.1124 61.9258L82.353 -43.0416ZM77.9369 -42.4206L76.8329 -42.2654L91.5923 62.702L92.6963 62.5468L77.9369 -42.4206ZM47.039 47.9956L47.8337 48.7776L122.181 -26.777L121.386 -27.559L47.039 47.9956ZM49.4231 50.3416L51.0124 51.9055L125.36 -23.649L123.77 -25.213L49.4231 50.3416ZM52.6018 53.4695L53.3965 54.2515L127.744 -21.3031L126.949 -22.0851L52.6018 53.4695ZM38.3761 7.2664L38.1824 8.36423L142.57 26.7799L142.764 25.6821L38.3761 7.2664ZM37.7951 10.5599L37.4077 12.7556L141.796 31.1712L142.183 28.9756L37.7951 10.5599ZM37.0204 14.9512L36.8267 16.0491L141.215 34.4647L141.408 33.3669L37.0204 14.9512ZM113.45 72.2909L114.44 71.777L65.5806 -22.291L64.5912 -21.7771L113.45 72.2909ZM116.418 70.7492L118.397 69.7215L69.5381 -24.3466L67.5593 -23.3188L116.418 70.7492ZM120.376 68.6937L121.365 68.1798L72.5063 -25.8882L71.5169 -25.3743L120.376 68.6937ZM72.0494 67.9397L73.0338 68.4632L122.807 -25.1246L121.822 -25.6481L72.0494 67.9397ZM75.0026 69.5102L76.9714 70.5573L126.744 -23.0304L124.775 -24.0775L75.0026 69.5102ZM78.9401 71.6044L79.9245 72.1279L129.697 -21.4598L128.713 -21.9834L78.9401 71.6044ZM157.088 16.6112L156.905 15.5112L52.3501 32.9569L52.5337 34.0569L157.088 16.6112ZM156.538 13.3112L156.17 11.1112L51.616 28.557L51.9831 30.757L156.538 13.3112ZM155.803 8.91127L155.62 7.81129L51.0654 25.257L51.2489 26.357L155.803 8.91127ZM140.154 54.6642L140.957 53.8897L67.3331 -22.3703L66.5309 -21.5959L140.154 54.6642ZM142.561 52.3408L144.165 50.7918L70.5419 -25.4682L68.9375 -23.9193L142.561 52.3408ZM145.77 49.2429L146.572 48.4684L72.9486 -27.7916L72.1464 -27.0172L145.77 49.2429ZM117.624 -42.0749L116.522 -42.2404L100.794 62.5863L101.896 62.7517L117.624 -42.0749ZM114.317 -42.5712L112.112 -42.9021L96.3834 61.9246L98.5885 62.2554L114.317 -42.5712ZM109.907 -43.2329L108.804 -43.3983L93.0758 61.4283L94.1783 61.5937L109.907 -43.2329ZM148.58 -14.2114L148.091 -15.2135L52.8117 31.2393L53.3003 32.2414L148.58 -14.2114ZM147.114 -17.2177L146.137 -19.2219L50.8574 27.2309L51.8346 29.2351L147.114 -17.2177ZM145.16 -21.2261L144.671 -22.2282L49.3917 24.2246L49.8803 25.2267L145.16 -21.2261ZM49.6207 -22.6921L49.1224 -21.6948L143.944 25.6857L144.442 24.6884L49.6207 -22.6921ZM48.1257 -19.7002L47.1291 -17.7057L141.95 29.6748L142.947 27.6803L48.1257 -19.7002ZM46.1324 -15.7111L45.6341 -14.7139L140.455 32.6667L140.954 31.6694L46.1324 -15.7111Z" fill="#386EB0" mask="url(#path-5-inside-3_0_1)"/>
<path d="M93.0448 8.97641L96.7346 35.2183L110.525 33.2792L116.75 20.8215L93.0448 8.97641ZM97.0314 0.99818L120.851 -10.615L97.3235 -58.8725L73.326 -10.847L97.0314 0.99818ZM100.94 9.01498L77.1201 20.6282L83.2269 33.1539L97.0078 35.2216L100.94 9.01498ZM109.76 10.3384L128.166 29.4034L166.805 -7.89928L113.692 -15.8683L109.76 10.3384ZM103.343 16.5342L84.9368 -2.53085L74.9103 7.149L77.204 20.8956L103.343 16.5342ZM104.811 25.334L92.3677 48.731L139.789 73.9513L130.95 20.9726L104.811 25.334ZM96.9358 21.1458L109.379 -2.25115L97.0816 -8.7913L84.721 -2.37122L96.9358 21.1458ZM89.0207 25.2569L62.9237 20.653L53.5977 73.5171L101.235 48.7739L89.0207 25.2569ZM90.5701 16.4742L116.667 21.0781L119.088 7.35761L109.157 -2.41442L90.5701 16.4742ZM84.2126 10.2183L80.5227 -16.0236L27.3591 -8.54826L65.6258 29.1069L84.2126 10.2183ZM89.3549 -17.2654L88.2509 -17.1102L95.6306 35.3735L96.7346 35.2183L89.3549 -17.2654ZM86.0429 -16.7997L83.8348 -16.4893L91.2145 35.9944L93.4225 35.684L86.0429 -16.7997ZM81.6268 -16.1788L80.5227 -16.0236L87.9024 36.4602L89.0065 36.3049L81.6268 -16.1788ZM65.6258 29.1069L66.4205 29.8889L103.594 -7.88836L102.799 -8.67035L65.6258 29.1069ZM68.0099 31.4529L69.5992 33.0169L106.773 -4.76039L105.183 -6.32437L68.0099 31.4529ZM71.1886 34.5809L71.9833 35.3629L109.157 -2.41442L108.362 -3.19641L71.1886 34.5809ZM64.4731 11.8703L64.2794 12.9681L116.473 22.176L116.667 21.0781L64.4731 11.8703ZM63.8921 15.1638L63.5047 17.3595L115.699 26.5673L116.086 24.3716L63.8921 15.1638ZM63.1174 19.5551L62.9237 20.653L115.118 29.8608L115.311 28.763L63.1174 19.5551ZM101.235 48.7739L102.225 48.26L77.7953 1.226L76.8059 1.73989L101.235 48.7739ZM104.204 47.2322L106.182 46.2045L81.7529 -0.82955L79.7741 0.198227L104.204 47.2322ZM108.161 45.1767L109.151 44.6628L84.721 -2.37122L83.7316 -1.85733L108.161 45.1767ZM84.4926 44.5427L85.477 45.0663L110.363 -1.72762L109.379 -2.25115L84.4926 44.5427ZM87.4458 46.1133L89.4146 47.1604L114.301 0.3665L112.332 -0.680561L87.4458 46.1133ZM91.3833 48.2074L92.3677 48.731L117.254 1.93709L116.27 1.41356L91.3833 48.2074ZM130.95 20.9726L130.766 19.8726L78.4888 28.5955L78.6723 29.6955L130.95 20.9726ZM130.399 17.6726L130.032 15.4727L77.7546 24.1956L78.1217 26.3955L130.399 17.6726ZM129.665 13.2727L129.481 12.1727L77.204 20.8956L77.3875 21.9956L129.665 13.2727ZM121.748 35.5992L122.551 34.8247L85.739 -3.30532L84.9368 -2.53085L121.748 35.5992ZM124.155 33.2758L125.76 31.7268L88.9478 -6.40321L87.3434 -4.85426L124.155 33.2758ZM127.364 30.1779L128.166 29.4034L91.3544 -8.72662L90.5522 -7.95215L127.364 30.1779ZM113.692 -15.8683L112.59 -16.0337L104.726 36.3796L105.828 36.545L113.692 -15.8683ZM110.385 -16.3645L108.18 -16.6954L100.315 35.7179L102.521 36.0488L110.385 -16.3645ZM105.974 -17.0263L104.872 -17.1917L97.0078 35.2216L98.1104 35.3871L105.974 -17.0263ZM124.76 -2.59822L124.271 -3.60032L76.6315 19.6261L77.1201 20.6282L124.76 -2.59822ZM123.294 -5.60452L122.317 -7.60872L74.6772 15.6177L75.6544 17.6219L123.294 -5.60452ZM121.34 -9.61291L120.851 -10.615L73.2115 12.6114L73.7001 13.6135L121.34 -9.61291ZM73.326 -10.847L72.8277 -9.84967L120.238 13.8406L120.737 12.8433L73.326 -10.847ZM71.8311 -7.85512L70.8344 -5.86056L118.245 17.8297L119.242 15.8351L71.8311 -7.85512ZM69.8378 -3.866L69.3394 -2.86872L116.75 20.8215L117.248 19.8243L69.8378 -3.866ZM93.0448 8.97641L100.424 61.4601L128.006 57.5819L140.455 32.6667L93.0448 8.97641ZM97.0314 0.99818L144.671 -22.2282L97.6157 -118.743L49.6207 -22.6921L97.0314 0.99818ZM100.94 9.01498L53.3003 32.2414L65.514 57.2929L93.0758 61.4283L100.94 9.01498ZM109.76 10.3384L146.572 48.4684L223.849 -26.137L117.624 -42.0749L109.76 10.3384ZM103.343 16.5342L66.5309 -21.5959L46.4779 -2.23616L51.0654 25.257L103.343 16.5342ZM104.811 25.334L79.9245 72.1279L174.768 122.569L157.088 16.6112L104.811 25.334ZM96.9358 21.1458L121.822 -25.6481L97.2273 -38.7284L72.5063 -25.8882L96.9358 21.1458ZM89.0207 25.2569L36.8267 16.0491L18.1746 121.777L113.45 72.2909L89.0207 25.2569ZM90.5701 16.4742L142.764 25.6821L147.605 -1.759L127.744 -21.3031L90.5701 16.4742ZM84.2126 10.2183L76.8329 -42.2654L-29.4944 -27.3148L47.039 47.9956L84.2126 10.2183ZM85.6651 -43.5073L84.5611 -43.3521L99.3204 61.6154L100.424 61.4601L85.6651 -43.5073ZM82.353 -43.0416L80.145 -42.7311L94.9043 62.2363L97.1124 61.9258L82.353 -43.0416ZM77.9369 -42.4206L76.8329 -42.2654L91.5923 62.702L92.6963 62.5468L77.9369 -42.4206ZM47.039 47.9956L47.8337 48.7776L122.181 -26.777L121.386 -27.559L47.039 47.9956ZM49.4231 50.3416L51.0124 51.9055L125.36 -23.649L123.77 -25.213L49.4231 50.3416ZM52.6018 53.4695L53.3965 54.2515L127.744 -21.3031L126.949 -22.0851L52.6018 53.4695ZM38.3761 7.2664L38.1824 8.36423L142.57 26.7799L142.764 25.6821L38.3761 7.2664ZM37.7951 10.5599L37.4077 12.7556L141.796 31.1712L142.183 28.9756L37.7951 10.5599ZM37.0204 14.9512L36.8267 16.0491L141.215 34.4647L141.408 33.3669L37.0204 14.9512ZM113.45 72.2909L114.44 71.777L65.5806 -22.291L64.5912 -21.7771L113.45 72.2909ZM116.418 70.7492L118.397 69.7215L69.5381 -24.3466L67.5593 -23.3188L116.418 70.7492ZM120.376 68.6937L121.365 68.1798L72.5063 -25.8882L71.5169 -25.3743L120.376 68.6937ZM72.0494 67.9397L73.0338 68.4632L122.807 -25.1246L121.822 -25.6481L72.0494 67.9397ZM75.0026 69.5102L76.9714 70.5573L126.744 -23.0304L124.775 -24.0775L75.0026 69.5102ZM78.9401 71.6044L79.9245 72.1279L129.697 -21.4598L128.713 -21.9834L78.9401 71.6044ZM157.088 16.6112L156.905 15.5112L52.3501 32.9569L52.5337 34.0569L157.088 16.6112ZM156.538 13.3112L156.17 11.1112L51.616 28.557L51.9831 30.757L156.538 13.3112ZM155.803 8.91127L155.62 7.81129L51.0654 25.257L51.2489 26.357L155.803 8.91127ZM140.154 54.6642L140.957 53.8897L67.3331 -22.3703L66.5309 -21.5959L140.154 54.6642ZM142.561 52.3408L144.165 50.7918L70.5419 -25.4682L68.9375 -23.9193L142.561 52.3408ZM145.77 49.2429L146.572 48.4684L72.9486 -27.7916L72.1464 -27.0172L145.77 49.2429ZM117.624 -42.0749L116.522 -42.2404L100.794 62.5863L101.896 62.7517L117.624 -42.0749ZM114.317 -42.5712L112.112 -42.9021L96.3834 61.9246L98.5885 62.2554L114.317 -42.5712ZM109.907 -43.2329L108.804 -43.3983L93.0758 61.4283L94.1783 61.5937L109.907 -43.2329ZM148.58 -14.2114L148.091 -15.2135L52.8117 31.2393L53.3003 32.2414L148.58 -14.2114ZM147.114 -17.2177L146.137 -19.2219L50.8574 27.2309L51.8346 29.2351L147.114 -17.2177ZM145.16 -21.2261L144.671 -22.2282L49.3917 24.2246L49.8803 25.2267L145.16 -21.2261ZM49.6207 -22.6921L49.1224 -21.6948L143.944 25.6857L144.442 24.6884L49.6207 -22.6921ZM48.1257 -19.7002L47.1291 -17.7057L141.95 29.6748L142.947 27.6803L48.1257 -19.7002ZM46.1324 -15.7111L45.6341 -14.7139L140.455 32.6667L140.954 31.6694L46.1324 -15.7111Z" fill="#226FB7" mask="url(#path-5-inside-3_0_1)"/>
</g>
<g filter="url(#filter3_d_0_1)">
<mask id="path-7-inside-4_0_1" fill="white">
<path d="M133.045 8.97641L137.031 0.99818L140.94 9.01498L149.76 10.3384L143.343 16.5342L144.811 25.334L136.936 21.1458L129.021 25.2569L130.57 16.4742L124.213 10.2183L133.045 8.97641Z"/>
</mask>
<path d="M133.045 8.97641L136.735 35.2183L150.525 33.2792L156.75 20.8215L133.045 8.97641ZM137.031 0.99818L160.851 -10.615L137.324 -58.8725L113.326 -10.847L137.031 0.99818ZM140.94 9.01498L117.12 20.6282L123.227 33.1539L137.008 35.2216L140.94 9.01498ZM149.76 10.3384L168.166 29.4034L206.805 -7.89928L153.692 -15.8683L149.76 10.3384ZM143.343 16.5342L124.937 -2.53085L114.91 7.149L117.204 20.8956L143.343 16.5342ZM144.811 25.334L132.368 48.731L179.789 73.9513L170.95 20.9726L144.811 25.334ZM136.936 21.1458L149.379 -2.25115L137.082 -8.7913L124.721 -2.37122L136.936 21.1458ZM129.021 25.2569L102.924 20.653L93.5977 73.5171L141.235 48.7739L129.021 25.2569ZM130.57 16.4742L156.667 21.0781L159.088 7.35761L149.157 -2.41442L130.57 16.4742ZM124.213 10.2183L120.523 -16.0236L67.3591 -8.54826L105.626 29.1069L124.213 10.2183ZM129.355 -17.2654L128.251 -17.1102L135.631 35.3735L136.735 35.2183L129.355 -17.2654ZM126.043 -16.7997L123.835 -16.4893L131.214 35.9944L133.423 35.684L126.043 -16.7997ZM121.627 -16.1788L120.523 -16.0236L127.902 36.4602L129.006 36.3049L121.627 -16.1788ZM105.626 29.1069L106.42 29.8889L143.594 -7.88836L142.799 -8.67035L105.626 29.1069ZM108.01 31.4529L109.599 33.0169L146.773 -4.76039L145.183 -6.32437L108.01 31.4529ZM111.189 34.5809L111.983 35.3629L149.157 -2.41442L148.362 -3.19641L111.189 34.5809ZM104.473 11.8703L104.279 12.9681L156.473 22.176L156.667 21.0781L104.473 11.8703ZM103.892 15.1638L103.505 17.3595L155.699 26.5673L156.086 24.3716L103.892 15.1638ZM103.117 19.5551L102.924 20.653L155.118 29.8608L155.311 28.763L103.117 19.5551ZM141.235 48.7739L142.225 48.26L117.795 1.226L116.806 1.73989L141.235 48.7739ZM144.204 47.2322L146.182 46.2045L121.753 -0.82955L119.774 0.198227L144.204 47.2322ZM148.161 45.1767L149.151 44.6628L124.721 -2.37122L123.732 -1.85733L148.161 45.1767ZM124.493 44.5427L125.477 45.0663L150.363 -1.72762L149.379 -2.25115L124.493 44.5427ZM127.446 46.1133L129.415 47.1604L154.301 0.3665L152.332 -0.680561L127.446 46.1133ZM131.383 48.2074L132.368 48.731L157.254 1.93709L156.27 1.41356L131.383 48.2074ZM170.95 20.9726L170.766 19.8726L118.489 28.5955L118.672 29.6955L170.95 20.9726ZM170.399 17.6726L170.032 15.4727L117.755 24.1956L118.122 26.3955L170.399 17.6726ZM169.665 13.2727L169.481 12.1727L117.204 20.8956L117.388 21.9956L169.665 13.2727ZM161.748 35.5992L162.551 34.8247L125.739 -3.30532L124.937 -2.53085L161.748 35.5992ZM164.155 33.2758L165.76 31.7268L128.948 -6.40321L127.343 -4.85426L164.155 33.2758ZM167.364 30.1779L168.166 29.4034L131.354 -8.72662L130.552 -7.95215L167.364 30.1779ZM153.692 -15.8683L152.59 -16.0337L144.726 36.3796L145.828 36.545L153.692 -15.8683ZM150.385 -16.3645L148.18 -16.6954L140.315 35.7179L142.521 36.0488L150.385 -16.3645ZM145.974 -17.0263L144.872 -17.1917L137.008 35.2216L138.11 35.3871L145.974 -17.0263ZM164.76 -2.59822L164.271 -3.60032L116.632 19.6261L117.12 20.6282L164.76 -2.59822ZM163.294 -5.60452L162.317 -7.60872L114.677 15.6177L115.654 17.6219L163.294 -5.60452ZM161.34 -9.61291L160.851 -10.615L113.212 12.6114L113.7 13.6135L161.34 -9.61291ZM113.326 -10.847L112.828 -9.84967L160.238 13.8406L160.737 12.8433L113.326 -10.847ZM111.831 -7.85512L110.834 -5.86056L158.245 17.8297L159.242 15.8351L111.831 -7.85512ZM109.838 -3.866L109.339 -2.86872L156.75 20.8215L157.248 19.8243L109.838 -3.866ZM133.045 8.97641L140.424 61.4601L168.006 57.5819L180.455 32.6667L133.045 8.97641ZM137.031 0.99818L184.671 -22.2282L137.616 -118.743L89.6207 -22.6921L137.031 0.99818ZM140.94 9.01498L93.3003 32.2414L105.514 57.2929L133.076 61.4283L140.94 9.01498ZM149.76 10.3384L186.572 48.4684L263.849 -26.137L157.624 -42.0749L149.76 10.3384ZM143.343 16.5342L106.531 -21.5959L86.4779 -2.23616L91.0654 25.257L143.343 16.5342ZM144.811 25.334L119.925 72.1279L214.768 122.569L197.088 16.6112L144.811 25.334ZM136.936 21.1458L161.822 -25.6481L137.227 -38.7284L112.506 -25.8882L136.936 21.1458ZM129.021 25.2569L76.8267 16.0491L58.1746 121.777L153.45 72.2909L129.021 25.2569ZM130.57 16.4742L182.764 25.6821L187.605 -1.759L167.744 -21.3031L130.57 16.4742ZM124.213 10.2183L116.833 -42.2654L10.5056 -27.3148L87.039 47.9956L124.213 10.2183ZM125.665 -43.5073L124.561 -43.3521L139.32 61.6154L140.424 61.4601L125.665 -43.5073ZM122.353 -43.0416L120.145 -42.7311L134.904 62.2363L137.112 61.9258L122.353 -43.0416ZM117.937 -42.4206L116.833 -42.2654L131.592 62.702L132.696 62.5468L117.937 -42.4206ZM87.039 47.9956L87.8337 48.7776L162.181 -26.777L161.386 -27.559L87.039 47.9956ZM89.4231 50.3416L91.0124 51.9055L165.36 -23.649L163.77 -25.213L89.4231 50.3416ZM92.6018 53.4695L93.3965 54.2515L167.744 -21.3031L166.949 -22.0851L92.6018 53.4695ZM78.3761 7.2664L78.1824 8.36423L182.57 26.7799L182.764 25.6821L78.3761 7.2664ZM77.7951 10.5599L77.4077 12.7556L181.796 31.1712L182.183 28.9756L77.7951 10.5599ZM77.0204 14.9512L76.8267 16.0491L181.215 34.4647L181.408 33.3669L77.0204 14.9512ZM153.45 72.2909L154.44 71.777L105.581 -22.291L104.591 -21.7771L153.45 72.2909ZM156.418 70.7492L158.397 69.7215L109.538 -24.3466L107.559 -23.3188L156.418 70.7492ZM160.376 68.6937L161.365 68.1798L112.506 -25.8882L111.517 -25.3743L160.376 68.6937ZM112.049 67.9397L113.034 68.4632L162.807 -25.1246L161.822 -25.6481L112.049 67.9397ZM115.003 69.5102L116.971 70.5573L166.744 -23.0304L164.775 -24.0775L115.003 69.5102ZM118.94 71.6044L119.925 72.1279L169.697 -21.4598L168.713 -21.9834L118.94 71.6044ZM197.088 16.6112L196.905 15.5112L92.3501 32.9569L92.5337 34.0569L197.088 16.6112ZM196.538 13.3112L196.17 11.1112L91.616 28.557L91.9831 30.757L196.538 13.3112ZM195.803 8.91127L195.62 7.81129L91.0654 25.257L91.2489 26.357L195.803 8.91127ZM180.154 54.6642L180.957 53.8897L107.333 -22.3703L106.531 -21.5959L180.154 54.6642ZM182.561 52.3408L184.165 50.7918L110.542 -25.4682L108.938 -23.9193L182.561 52.3408ZM185.77 49.2429L186.572 48.4684L112.949 -27.7916L112.146 -27.0172L185.77 49.2429ZM157.624 -42.0749L156.522 -42.2404L140.794 62.5863L141.896 62.7517L157.624 -42.0749ZM154.317 -42.5712L152.112 -42.9021L136.383 61.9246L138.589 62.2554L154.317 -42.5712ZM149.907 -43.2329L148.804 -43.3983L133.076 61.4283L134.178 61.5937L149.907 -43.2329ZM188.58 -14.2114L188.091 -15.2135L92.8117 31.2393L93.3003 32.2414L188.58 -14.2114ZM187.114 -17.2177L186.137 -19.2219L90.8574 27.2309L91.8346 29.2351L187.114 -17.2177ZM185.16 -21.2261L184.671 -22.2282L89.3917 24.2246L89.8803 25.2267L185.16 -21.2261ZM89.6207 -22.6921L89.1224 -21.6948L183.944 25.6857L184.442 24.6884L89.6207 -22.6921ZM88.1257 -19.7002L87.1291 -17.7057L181.95 29.6748L182.947 27.6803L88.1257 -19.7002ZM86.1324 -15.7111L85.6341 -14.7139L180.455 32.6667L180.954 31.6694L86.1324 -15.7111Z" fill="#386EB0" mask="url(#path-7-inside-4_0_1)"/>
<path d="M133.045 8.97641L136.735 35.2183L150.525 33.2792L156.75 20.8215L133.045 8.97641ZM137.031 0.99818L160.851 -10.615L137.324 -58.8725L113.326 -10.847L137.031 0.99818ZM140.94 9.01498L117.12 20.6282L123.227 33.1539L137.008 35.2216L140.94 9.01498ZM149.76 10.3384L168.166 29.4034L206.805 -7.89928L153.692 -15.8683L149.76 10.3384ZM143.343 16.5342L124.937 -2.53085L114.91 7.149L117.204 20.8956L143.343 16.5342ZM144.811 25.334L132.368 48.731L179.789 73.9513L170.95 20.9726L144.811 25.334ZM136.936 21.1458L149.379 -2.25115L137.082 -8.7913L124.721 -2.37122L136.936 21.1458ZM129.021 25.2569L102.924 20.653L93.5977 73.5171L141.235 48.7739L129.021 25.2569ZM130.57 16.4742L156.667 21.0781L159.088 7.35761L149.157 -2.41442L130.57 16.4742ZM124.213 10.2183L120.523 -16.0236L67.3591 -8.54826L105.626 29.1069L124.213 10.2183ZM129.355 -17.2654L128.251 -17.1102L135.631 35.3735L136.735 35.2183L129.355 -17.2654ZM126.043 -16.7997L123.835 -16.4893L131.214 35.9944L133.423 35.684L126.043 -16.7997ZM121.627 -16.1788L120.523 -16.0236L127.902 36.4602L129.006 36.3049L121.627 -16.1788ZM105.626 29.1069L106.42 29.8889L143.594 -7.88836L142.799 -8.67035L105.626 29.1069ZM108.01 31.4529L109.599 33.0169L146.773 -4.76039L145.183 -6.32437L108.01 31.4529ZM111.189 34.5809L111.983 35.3629L149.157 -2.41442L148.362 -3.19641L111.189 34.5809ZM104.473 11.8703L104.279 12.9681L156.473 22.176L156.667 21.0781L104.473 11.8703ZM103.892 15.1638L103.505 17.3595L155.699 26.5673L156.086 24.3716L103.892 15.1638ZM103.117 19.5551L102.924 20.653L155.118 29.8608L155.311 28.763L103.117 19.5551ZM141.235 48.7739L142.225 48.26L117.795 1.226L116.806 1.73989L141.235 48.7739ZM144.204 47.2322L146.182 46.2045L121.753 -0.82955L119.774 0.198227L144.204 47.2322ZM148.161 45.1767L149.151 44.6628L124.721 -2.37122L123.732 -1.85733L148.161 45.1767ZM124.493 44.5427L125.477 45.0663L150.363 -1.72762L149.379 -2.25115L124.493 44.5427ZM127.446 46.1133L129.415 47.1604L154.301 0.3665L152.332 -0.680561L127.446 46.1133ZM131.383 48.2074L132.368 48.731L157.254 1.93709L156.27 1.41356L131.383 48.2074ZM170.95 20.9726L170.766 19.8726L118.489 28.5955L118.672 29.6955L170.95 20.9726ZM170.399 17.6726L170.032 15.4727L117.755 24.1956L118.122 26.3955L170.399 17.6726ZM169.665 13.2727L169.481 12.1727L117.204 20.8956L117.388 21.9956L169.665 13.2727ZM161.748 35.5992L162.551 34.8247L125.739 -3.30532L124.937 -2.53085L161.748 35.5992ZM164.155 33.2758L165.76 31.7268L128.948 -6.40321L127.343 -4.85426L164.155 33.2758ZM167.364 30.1779L168.166 29.4034L131.354 -8.72662L130.552 -7.95215L167.364 30.1779ZM153.692 -15.8683L152.59 -16.0337L144.726 36.3796L145.828 36.545L153.692 -15.8683ZM150.385 -16.3645L148.18 -16.6954L140.315 35.7179L142.521 36.0488L150.385 -16.3645ZM145.974 -17.0263L144.872 -17.1917L137.008 35.2216L138.11 35.3871L145.974 -17.0263ZM164.76 -2.59822L164.271 -3.60032L116.632 19.6261L117.12 20.6282L164.76 -2.59822ZM163.294 -5.60452L162.317 -7.60872L114.677 15.6177L115.654 17.6219L163.294 -5.60452ZM161.34 -9.61291L160.851 -10.615L113.212 12.6114L113.7 13.6135L161.34 -9.61291ZM113.326 -10.847L112.828 -9.84967L160.238 13.8406L160.737 12.8433L113.326 -10.847ZM111.831 -7.85512L110.834 -5.86056L158.245 17.8297L159.242 15.8351L111.831 -7.85512ZM109.838 -3.866L109.339 -2.86872L156.75 20.8215L157.248 19.8243L109.838 -3.866ZM133.045 8.97641L140.424 61.4601L168.006 57.5819L180.455 32.6667L133.045 8.97641ZM137.031 0.99818L184.671 -22.2282L137.616 -118.743L89.6207 -22.6921L137.031 0.99818ZM140.94 9.01498L93.3003 32.2414L105.514 57.2929L133.076 61.4283L140.94 9.01498ZM149.76 10.3384L186.572 48.4684L263.849 -26.137L157.624 -42.0749L149.76 10.3384ZM143.343 16.5342L106.531 -21.5959L86.4779 -2.23616L91.0654 25.257L143.343 16.5342ZM144.811 25.334L119.925 72.1279L214.768 122.569L197.088 16.6112L144.811 25.334ZM136.936 21.1458L161.822 -25.6481L137.227 -38.7284L112.506 -25.8882L136.936 21.1458ZM129.021 25.2569L76.8267 16.0491L58.1746 121.777L153.45 72.2909L129.021 25.2569ZM130.57 16.4742L182.764 25.6821L187.605 -1.759L167.744 -21.3031L130.57 16.4742ZM124.213 10.2183L116.833 -42.2654L10.5056 -27.3148L87.039 47.9956L124.213 10.2183ZM125.665 -43.5073L124.561 -43.3521L139.32 61.6154L140.424 61.4601L125.665 -43.5073ZM122.353 -43.0416L120.145 -42.7311L134.904 62.2363L137.112 61.9258L122.353 -43.0416ZM117.937 -42.4206L116.833 -42.2654L131.592 62.702L132.696 62.5468L117.937 -42.4206ZM87.039 47.9956L87.8337 48.7776L162.181 -26.777L161.386 -27.559L87.039 47.9956ZM89.4231 50.3416L91.0124 51.9055L165.36 -23.649L163.77 -25.213L89.4231 50.3416ZM92.6018 53.4695L93.3965 54.2515L167.744 -21.3031L166.949 -22.0851L92.6018 53.4695ZM78.3761 7.2664L78.1824 8.36423L182.57 26.7799L182.764 25.6821L78.3761 7.2664ZM77.7951 10.5599L77.4077 12.7556L181.796 31.1712L182.183 28.9756L77.7951 10.5599ZM77.0204 14.9512L76.8267 16.0491L181.215 34.4647L181.408 33.3669L77.0204 14.9512ZM153.45 72.2909L154.44 71.777L105.581 -22.291L104.591 -21.7771L153.45 72.2909ZM156.418 70.7492L158.397 69.7215L109.538 -24.3466L107.559 -23.3188L156.418 70.7492ZM160.376 68.6937L161.365 68.1798L112.506 -25.8882L111.517 -25.3743L160.376 68.6937ZM112.049 67.9397L113.034 68.4632L162.807 -25.1246L161.822 -25.6481L112.049 67.9397ZM115.003 69.5102L116.971 70.5573L166.744 -23.0304L164.775 -24.0775L115.003 69.5102ZM118.94 71.6044L119.925 72.1279L169.697 -21.4598L168.713 -21.9834L118.94 71.6044ZM197.088 16.6112L196.905 15.5112L92.3501 32.9569L92.5337 34.0569L197.088 16.6112ZM196.538 13.3112L196.17 11.1112L91.616 28.557L91.9831 30.757L196.538 13.3112ZM195.803 8.91127L195.62 7.81129L91.0654 25.257L91.2489 26.357L195.803 8.91127ZM180.154 54.6642L180.957 53.8897L107.333 -22.3703L106.531 -21.5959L180.154 54.6642ZM182.561 52.3408L184.165 50.7918L110.542 -25.4682L108.938 -23.9193L182.561 52.3408ZM185.77 49.2429L186.572 48.4684L112.949 -27.7916L112.146 -27.0172L185.77 49.2429ZM157.624 -42.0749L156.522 -42.2404L140.794 62.5863L141.896 62.7517L157.624 -42.0749ZM154.317 -42.5712L152.112 -42.9021L136.383 61.9246L138.589 62.2554L154.317 -42.5712ZM149.907 -43.2329L148.804 -43.3983L133.076 61.4283L134.178 61.5937L149.907 -43.2329ZM188.58 -14.2114L188.091 -15.2135L92.8117 31.2393L93.3003 32.2414L188.58 -14.2114ZM187.114 -17.2177L186.137 -19.2219L90.8574 27.2309L91.8346 29.2351L187.114 -17.2177ZM185.16 -21.2261L184.671 -22.2282L89.3917 24.2246L89.8803 25.2267L185.16 -21.2261ZM89.6207 -22.6921L89.1224 -21.6948L183.944 25.6857L184.442 24.6884L89.6207 -22.6921ZM88.1257 -19.7002L87.1291 -17.7057L181.95 29.6748L182.947 27.6803L88.1257 -19.7002ZM86.1324 -15.7111L85.6341 -14.7139L180.455 32.6667L180.954 31.6694L86.1324 -15.7111Z" fill="#226FB7" mask="url(#path-7-inside-4_0_1)"/>
</g>
<g filter="url(#filter4_d_0_1)">
<mask id="path-9-inside-5_0_1" fill="white">
<path d="M173.045 8.97641L177.031 0.99818L180.94 9.01498L189.76 10.3384L183.343 16.5342L184.811 25.334L176.936 21.1458L169.021 25.2569L170.57 16.4742L164.213 10.2183L173.045 8.97641Z"/>
</mask>
<path d="M173.045 8.97641L178.684 49.0819L199.76 46.1184L209.274 27.0793L173.045 8.97641ZM177.031 0.99818L213.435 -16.7503L177.478 -90.5023L140.802 -17.1048L177.031 0.99818ZM180.94 9.01498L144.536 26.7634L153.869 45.9066L174.931 49.0667L180.94 9.01498ZM189.76 10.3384L217.89 39.4755L276.941 -17.5343L195.77 -29.7133L189.76 10.3384ZM183.343 16.5342L155.213 -12.6029L139.889 2.1908L143.395 23.1998L183.343 16.5342ZM184.811 25.334L165.794 61.0916L238.269 99.6359L224.759 18.6684L184.811 25.334ZM176.936 21.1458L195.953 -14.6118L177.159 -24.6071L158.268 -14.7953L176.936 21.1458ZM169.021 25.2569L129.137 18.2207L114.884 99.013L187.689 61.198L169.021 25.2569ZM170.57 16.4742L210.454 23.5104L214.153 2.54129L198.976 -12.3933L170.57 16.4742ZM164.213 10.2183L158.573 -29.8872L77.3232 -18.4627L135.806 39.0859L164.213 10.2183ZM167.406 -31.1291L166.302 -30.9738L177.58 49.2371L178.684 49.0819L167.406 -31.1291ZM164.094 -30.6634L161.885 -30.3529L173.164 49.8581L175.372 49.5476L164.094 -30.6634ZM159.677 -30.0424L158.573 -29.8872L169.852 50.3238L170.956 50.1685L159.677 -30.0424ZM135.806 39.0859L136.601 39.8678L193.414 -17.8673L192.619 -18.6493L135.806 39.0859ZM138.19 41.4318L139.78 42.9958L196.592 -14.7393L195.003 -16.3033L138.19 41.4318ZM141.369 44.5598L142.164 45.3418L198.976 -12.3933L198.182 -13.1753L141.369 44.5598ZM130.686 9.43806L130.492 10.5359L210.261 24.6082L210.454 23.5104L130.686 9.43806ZM130.105 12.7316L129.718 14.9272L209.486 28.9996L209.873 26.8039L130.105 12.7316ZM129.33 17.1229L129.137 18.2207L208.905 32.2931L209.098 31.1952L129.33 17.1229ZM187.689 61.198L188.678 60.6841L151.342 -11.1981L150.353 -10.6842L187.689 61.198ZM190.657 59.6563L192.635 58.6285L155.3 -13.2536L153.321 -12.2258L190.657 59.6563ZM194.614 57.6008L195.604 57.0869L158.268 -14.7953L157.279 -14.2814L194.614 57.6008ZM157.919 56.9034L158.903 57.4269L196.937 -14.0883L195.953 -14.6118L157.919 56.9034ZM160.872 58.474L162.841 59.521L200.875 -11.9941L198.906 -13.0412L160.872 58.474ZM164.81 60.5681L165.794 61.0916L203.828 -10.4236L202.844 -10.9471L164.81 60.5681ZM224.759 18.6684L224.575 17.5685L144.68 30.8996L144.863 31.9996L224.759 18.6684ZM224.208 15.3685L223.841 13.1685L143.946 26.4997L144.313 28.6997L224.208 15.3685ZM223.474 10.9686L223.29 9.86857L143.395 23.1998L143.578 24.2997L223.474 10.9686ZM211.472 45.6713L212.275 44.8968L156.015 -13.3774L155.213 -12.6029L211.472 45.6713ZM213.879 43.3478L215.483 41.7989L159.224 -16.4753L157.62 -14.9263L213.879 43.3478ZM217.088 40.2499L217.89 39.4755L161.631 -18.7987L160.828 -18.0242L217.088 40.2499ZM195.77 -29.7133L194.667 -29.8787L182.648 50.2246L183.751 50.3901L195.77 -29.7133ZM192.462 -30.2096L190.257 -30.5404L178.238 49.5629L180.443 49.8938L192.462 -30.2096ZM188.052 -30.8713L186.949 -31.0367L174.931 49.0667L176.033 49.2321L188.052 -30.8713ZM217.344 -8.73349L216.855 -9.73559L144.047 25.7613L144.536 26.7634L217.344 -8.73349ZM215.878 -11.7398L214.901 -13.744L142.093 21.7529L143.07 23.7571L215.878 -11.7398ZM213.924 -15.7482L213.435 -16.7503L140.627 18.7466L141.116 19.7487L213.924 -15.7482ZM140.802 -17.1048L140.304 -16.1075L212.762 20.0984L213.26 19.1011L140.802 -17.1048ZM139.307 -14.1129L138.311 -12.1184L210.769 24.0875L211.765 22.093L139.307 -14.1129ZM137.314 -10.1238L136.816 -9.12653L209.274 27.0793L209.772 26.0821L137.314 -10.1238ZM173.045 8.97641L184.323 89.1874L226.476 83.2603L245.503 45.1823L173.045 8.97641ZM177.031 0.99818L249.839 -34.4988L177.924 -182.003L104.574 -35.2077L177.031 0.99818ZM180.94 9.01498L108.132 44.5119L126.798 82.7982L168.921 89.1183L180.94 9.01498ZM189.76 10.3384L246.02 68.6126L364.122 -45.4069L201.779 -69.765L189.76 10.3384ZM183.343 16.5342L127.083 -41.74L96.4362 -12.1526L103.447 29.8653L183.343 16.5342ZM184.811 25.334L146.777 96.8492L291.726 173.938L264.706 12.0028L184.811 25.334ZM176.936 21.1458L214.97 -50.3694L177.381 -70.36L139.6 -50.7364L176.936 21.1458ZM169.021 25.2569L89.2525 11.1845L60.7465 172.769L206.356 97.139L169.021 25.2569ZM170.57 16.4742L250.338 30.5466L257.737 -11.3917L227.383 -41.2609L170.57 16.4742ZM164.213 10.2183L152.934 -69.9927L-9.5661 -47.1436L107.4 67.9534L164.213 10.2183ZM161.766 -71.2345L160.662 -71.0793L183.219 89.3426L184.323 89.1874L161.766 -71.2345ZM158.454 -70.7688L156.246 -70.4584L178.803 89.9635L181.011 89.6531L158.454 -70.7688ZM154.038 -70.1479L152.934 -69.9927L175.491 90.4293L176.595 90.274L154.038 -70.1479ZM107.4 67.9534L108.195 68.7354L221.82 -46.7348L221.025 -47.5168L107.4 67.9534ZM109.784 70.2994L111.374 71.8634L224.999 -43.6068L223.409 -45.1708L109.784 70.2994ZM112.963 73.4273L113.758 74.2093L227.383 -41.2609L226.588 -42.0429L112.963 73.4273ZM90.8019 2.40188L90.6082 3.49972L250.145 31.6444L250.338 30.5466L90.8019 2.40188ZM90.2209 5.69538L89.8335 7.89105L249.37 36.0357L249.757 33.8401L90.2209 5.69538ZM89.4462 10.0867L89.2525 11.1845L248.789 39.3292L248.983 38.2314L89.4462 10.0867ZM206.356 97.139L207.346 96.6252L132.674 -47.1392L131.685 -46.6253L206.356 97.139ZM209.325 95.5974L211.303 94.5696L136.632 -49.1947L134.653 -48.1669L209.325 95.5974ZM213.282 93.5418L214.272 93.0279L139.6 -50.7364L138.611 -50.2225L213.282 93.5418ZM138.902 92.661L139.886 93.1845L215.954 -49.8459L214.97 -50.3694L138.902 92.661ZM141.855 94.2315L143.824 95.2786L219.892 -47.7517L217.923 -48.7988L141.855 94.2315ZM145.793 96.3257L146.777 96.8492L222.845 -46.1811L221.86 -46.7047L145.793 96.3257ZM264.706 12.0028L264.523 10.9029L104.732 37.5652L104.916 38.6652L264.706 12.0028ZM264.156 8.70289L263.789 6.50293L103.998 33.1653L104.365 35.3653L264.156 8.70289ZM263.422 4.30296L263.238 3.20298L103.447 29.8653L103.631 30.9653L263.422 4.30296ZM239.602 74.8083L240.404 74.0339L127.885 -42.5145L127.083 -41.74L239.602 74.8083ZM242.009 72.4849L243.613 70.936L131.094 -45.6124L129.49 -44.0634L242.009 72.4849ZM245.217 69.387L246.02 68.6126L133.501 -47.9358L132.699 -47.1613L245.217 69.387ZM201.779 -69.765L200.676 -69.9304L176.639 90.2763L177.742 90.4418L201.779 -69.765ZM198.471 -70.2613L196.266 -70.5921L172.229 89.6146L174.434 89.9455L198.471 -70.2613ZM194.061 -70.923L192.959 -71.0884L168.921 89.1183L170.024 89.2838L194.061 -70.923ZM253.748 -26.482L253.259 -27.4841L107.644 43.5098L108.132 44.5119L253.748 -26.482ZM252.282 -29.4883L251.305 -31.4925L105.689 39.5014L106.666 41.5056L252.282 -29.4883ZM250.328 -33.4967L249.839 -34.4988L104.224 36.4951L104.712 37.4972L250.328 -33.4967ZM104.574 -35.2077L104.075 -34.2104L248.991 38.2013L249.489 37.2041L104.574 -35.2077ZM103.079 -32.2159L102.082 -30.2213L246.998 42.1904L247.994 40.1959L103.079 -32.2159ZM101.085 -28.2267L100.587 -27.2295L245.503 45.1823L246.001 44.185L101.085 -28.2267Z" fill="#226FB7" mask="url(#path-9-inside-5_0_1)"/>
</g>
<defs>
<filter id="filter0_d_0_1" x="0.212585" y="0.998047" width="33.5477" height="32.3359" filterUnits="userSpaceOnUse" color-interpolation-filters="sRGB">
<feFlood flood-opacity="0" result="BackgroundImageFix"/>
<feColorMatrix in="SourceAlpha" type="matrix" values="0 0 0 0 0 0 0 0 0 0 0 0 0 0 0 0 0 0 127 0" result="hardAlpha"/>
<feOffset dy="4"/>
<feGaussianBlur stdDeviation="2"/>
<feComposite in2="hardAlpha" operator="out"/>
<feColorMatrix type="matrix" values="0 0 0 0 0 0 0 0 0 0 0 0 0 0 0 0 0 0 0.25 0"/>
<feBlend mode="normal" in2="BackgroundImageFix" result="effect1_dropShadow_0_1"/>
<feBlend mode="normal" in="SourceGraphic" in2="effect1_dropShadow_0_1" result="shape"/>
</filter>
<filter id="filter1_d_0_1" x="40.2126" y="0.998047" width="33.5477" height="32.3359" filterUnits="userSpaceOnUse" color-interpolation-filters="sRGB">
<feFlood flood-opacity="0" result="BackgroundImageFix"/>
<feColorMatrix in="SourceAlpha" type="matrix" values="0 0 0 0 0 0 0 0 0 0 0 0 0 0 0 0 0 0 127 0" result="hardAlpha"/>
<feOffset dy="4"/>
<feGaussianBlur stdDeviation="2"/>
<feComposite in2="hardAlpha" operator="out"/>
<feColorMatrix type="matrix" values="0 0 0 0 0 0 0 0 0 0 0 0 0 0 0 0 0 0 0.25 0"/>
<feBlend mode="normal" in2="BackgroundImageFix" result="effect1_dropShadow_0_1"/>
<feBlend mode="normal" in="SourceGraphic" in2="effect1_dropShadow_0_1" result="shape"/>
</filter>
<filter id="filter2_d_0_1" x="80.2126" y="0.998047" width="33.5477" height="32.3359" filterUnits="userSpaceOnUse" color-interpolation-filters="sRGB">
<feFlood flood-opacity="0" result="BackgroundImageFix"/>
<feColorMatrix in="SourceAlpha" type="matrix" values="0 0 0 0 0 0 0 0 0 0 0 0 0 0 0 0 0 0 127 0" result="hardAlpha"/>
<feOffset dy="4"/>
<feGaussianBlur stdDeviation="2"/>
<feComposite in2="hardAlpha" operator="out"/>
<feColorMatrix type="matrix" values="0 0 0 0 0 0 0 0 0 0 0 0 0 0 0 0 0 0 0.25 0"/>
<feBlend mode="normal" in2="BackgroundImageFix" result="effect1_dropShadow_0_1"/>
<feBlend mode="normal" in="SourceGraphic" in2="effect1_dropShadow_0_1" result="shape"/>
</filter>
<filter id="filter3_d_0_1" x="120.213" y="0.998047" width="33.5477" height="32.3359" filterUnits="userSpaceOnUse" color-interpolation-filters="sRGB">
<feFlood flood-opacity="0" result="BackgroundImageFix"/>
<feColorMatrix in="SourceAlpha" type="matrix" values="0 0 0 0 0 0 0 0 0 0 0 0 0 0 0 0 0 0 127 0" result="hardAlpha"/>
<feOffset dy="4"/>
<feGaussianBlur stdDeviation="2"/>
<feComposite in2="hardAlpha" operator="out"/>
<feColorMatrix type="matrix" values="0 0 0 0 0 0 0 0 0 0 0 0 0 0 0 0 0 0 0.25 0"/>
<feBlend mode="normal" in2="BackgroundImageFix" result="effect1_dropShadow_0_1"/>
<feBlend mode="normal" in="SourceGraphic" in2="effect1_dropShadow_0_1" result="shape"/>
</filter>
<filter id="filter4_d_0_1" x="160.213" y="0.998047" width="33.5477" height="32.3359" filterUnits="userSpaceOnUse" color-interpolation-filters="sRGB">
<feFlood flood-opacity="0" result="BackgroundImageFix"/>
<feColorMatrix in="SourceAlpha" type="matrix" values="0 0 0 0 0 0 0 0 0 0 0 0 0 0 0 0 0 0 127 0" result="hardAlpha"/>
<feOffset dy="4"/>
<feGaussianBlur stdDeviation="2"/>
<feComposite in2="hardAlpha" operator="out"/>
<feColorMatrix type="matrix" values="0 0 0 0 0 0 0 0 0 0 0 0 0 0 0 0 0 0 0.25 0"/>
<feBlend mode="normal" in2="BackgroundImageFix" result="effect1_dropShadow_0_1"/>
<feBlend mode="normal" in="SourceGraphic" in2="effect1_dropShadow_0_1" result="shape"/>
</filter>
</defs>
</svg>
