<svg width="133" height="133" viewBox="0 0 133 133" fill="none" xmlns="http://www.w3.org/2000/svg">
<path d="M102.613 0H30.3872C13.6048 0 0 13.6048 0 30.3872V102.613C0 119.395 13.6048 133 30.3872 133H102.613C119.395 133 133 119.395 133 102.613V30.3872C133 13.6048 119.395 0 102.613 0Z" fill="white"/>
<path d="M45.2188 86H87.7812C88.4553 86 89 85.456 89 84.7825V56.1208C89 55.4474 88.4553 54.9034 87.7812 54.9034H68.0044L63.9262 48.5606C63.7004 48.2123 63.3151 48 62.9 48H45.2188C44.5446 48 44 48.544 44 49.2175V84.7825C44 85.456 44.5446 86 45.2188 86ZM46.4376 50.4349H62.2358L65.3675 55.3048H46.4376V50.4349ZM46.4376 61.339V57.3814H67.3402C67.4498 57.3814 67.5461 57.3648 67.6391 57.3383H86.5657V83.5651H46.4376V61.339Z" fill="#2374BB"/>
</svg>
