<svg width="739" height="227" viewBox="0 0 739 227" fill="none" xmlns="http://www.w3.org/2000/svg">
<rect y="38" width="739" height="189" rx="32" fill="#F3F4F5" fill-opacity="0.53"/>
<g filter="url(#filter0_d_0_1)">
<path d="M151.613 0H79.3872C62.6048 0 49 13.6048 49 30.3872V102.613C49 119.395 62.6048 133 79.3872 133H151.613C168.395 133 182 119.395 182 102.613V30.3872C182 13.6048 168.395 0 151.613 0Z" fill="white"/>
</g>
<g clip-path="url(#clip0_0_1)">
<path d="M108.158 84.2448C112.249 88.3346 117.687 90.6924 123.472 90.8907C123.724 90.8984 123.98 90.9022 124.232 90.9022C130.246 90.9022 136.078 88.5025 140.333 84.2448C144.63 79.949 147 74.2378 147 68.1641C147 62.0905 144.634 56.3754 140.337 52.0796C135.845 47.5854 129.857 45.2353 123.476 45.4489C122.198 45.4947 120.942 45.6359 119.732 45.88L119.61 45.9106C118.309 46.3417 117.759 47.1161 117.527 47.6922C117.023 48.9359 117.553 50.2674 117.935 50.9885L118.015 51.1258C118.046 51.1754 118.076 51.225 118.103 51.2746L118.133 51.3547L118.156 51.3814C119.706 54.4564 119.114 58.1418 116.672 60.5835C114.138 63.1167 110.192 63.6356 107.081 61.8463L105.494 60.9345V61.3656C105.009 61.3198 104.54 61.377 104.093 61.5411C102.761 62.0294 102.135 63.2998 101.979 63.6775L101.914 63.8912C100.502 71.3116 102.834 78.9189 108.158 84.2372V84.2448ZM103.971 64.4177C104.078 64.204 104.364 63.7042 104.826 63.5326C105.158 63.4105 105.582 63.4753 106.082 63.7271L106.291 63.834C106.444 63.9179 106.601 63.9942 106.761 64.0667L108.207 64.7954L108.154 64.6008C111.642 65.65 115.519 64.7381 118.172 62.0828C121.148 59.107 121.95 54.6739 120.255 50.874L120.335 50.7443L119.931 50.2178C119.897 50.1568 119.862 50.0957 119.824 50.0347L119.782 49.966C119.469 49.3747 119.355 48.8062 119.484 48.4858C119.572 48.2645 119.82 48.0814 120.213 47.944C121.286 47.7304 122.408 47.6045 123.545 47.5663C129.33 47.3603 134.761 49.5006 138.837 53.5751C142.733 57.4704 144.882 62.6513 144.882 68.1603C144.882 73.6693 142.737 78.8503 138.837 82.7455C134.753 86.8238 129.319 88.9717 123.545 88.7695C118.298 88.5902 113.363 86.45 109.654 82.7455C104.857 77.9499 102.738 71.1056 103.971 64.4139V64.4177Z" fill="#FDB714"/>
<path d="M111.669 76.6909C112.905 76.359 113.936 75.5692 114.577 74.4628C115.214 73.3565 115.386 72.067 115.054 70.8347C114.371 68.2862 111.741 66.7678 109.192 67.4507C107.956 67.7788 106.925 68.5723 106.288 69.6787C105.65 70.7851 105.479 72.0746 105.811 73.3107C106.143 74.5468 106.933 75.5769 108.039 76.214C108.776 76.6413 109.597 76.8587 110.425 76.8587C110.841 76.8587 111.26 76.8015 111.673 76.6947L111.669 76.6909ZM108.566 75.2945C107.704 74.7986 107.089 73.9936 106.83 73.0322C106.57 72.0708 106.704 71.0636 107.2 70.2052C107.696 69.343 108.501 68.7249 109.463 68.4693C111.447 67.9352 113.497 69.1179 114.027 71.1055C114.287 72.067 114.153 73.0703 113.657 73.9325C113.161 74.7948 112.356 75.4128 111.394 75.6684C110.436 75.924 109.432 75.7943 108.566 75.2945Z" fill="#FDB714"/>
<path d="M115.748 84.161C116.39 85.2674 117.42 86.0609 118.656 86.389C119.069 86.4997 119.488 86.5531 119.901 86.5531C121.095 86.5531 122.255 86.1029 123.156 85.2598C123.812 84.6455 124.285 83.8672 124.514 83.005C124.972 81.2959 124.45 79.4799 123.156 78.2667C122.583 77.7325 121.885 77.3472 121.129 77.145C118.58 76.4621 115.951 77.9805 115.268 80.5252C114.936 81.7613 115.107 83.0508 115.745 84.1572L115.748 84.161ZM116.294 80.8037C116.828 78.8199 118.874 77.6372 120.858 78.1713C121.454 78.3315 121.984 78.6253 122.435 79.0449C123.446 79.9911 123.85 81.4027 123.496 82.7342C123.316 83.4056 122.95 84.0084 122.435 84.4891C121.488 85.3742 120.175 85.7023 118.931 85.3704C117.97 85.1148 117.164 84.4967 116.668 83.6345C116.168 82.7723 116.038 81.7689 116.294 80.8075V80.8037Z" fill="#FDB714"/>
<path d="M132.998 74.0508C131.72 74.0508 130.517 74.5467 129.613 75.4509C127.747 77.3165 127.747 80.3495 129.613 82.2151C130.517 83.1193 131.72 83.6153 132.998 83.6153C134.277 83.6153 135.479 83.1193 136.383 82.2151C137.288 81.3109 137.784 80.1092 137.784 78.8349C137.784 77.5607 137.288 76.3551 136.383 75.4509C135.479 74.5467 134.277 74.0508 132.998 74.0508ZM135.635 81.4712C134.933 82.1732 133.994 82.5623 132.998 82.5623C132.002 82.5623 131.067 82.177 130.361 81.4712C128.911 80.0176 128.911 77.6561 130.361 76.2025C131.063 75.5005 132.002 75.1114 132.994 75.1114C133.986 75.1114 134.925 75.5005 135.631 76.2025C136.334 76.9083 136.723 77.843 136.723 78.8387C136.723 79.8345 136.334 80.7692 135.631 81.4712H135.635Z" fill="#FDB714"/>
<path d="M132.632 67.5158C133.204 69.6522 135.143 71.0638 137.257 71.0638C137.665 71.0638 138.081 71.0104 138.494 70.8998C139.726 70.5679 140.76 69.7781 141.398 68.6717C142.035 67.5654 142.207 66.2758 141.875 65.0398C141.192 62.4913 138.566 60.9728 136.013 61.6557C133.464 62.3387 131.945 64.9711 132.632 67.5158ZM136.288 62.6782C138.272 62.1479 140.322 63.3306 140.852 65.3144C141.112 66.2758 140.978 67.2792 140.478 68.1414C139.982 69.0037 139.177 69.6217 138.215 69.8773C136.231 70.4076 134.181 69.2249 133.651 67.2411C133.12 65.2572 134.299 63.2123 136.284 62.6782H136.288Z" fill="#FDB714"/>
<path d="M126.56 61.0414C126.972 61.152 127.392 61.2054 127.808 61.2054C128.636 61.2054 129.457 60.988 130.193 60.5645C131.3 59.9235 132.094 58.8935 132.426 57.6574C133.109 55.1089 131.59 52.4803 129.041 51.7973C126.491 51.1144 123.862 52.6329 123.179 55.1814C122.847 56.4136 123.018 57.7031 123.656 58.8095C124.293 59.9159 125.327 60.7056 126.56 61.0376V61.0414ZM124.198 55.4599C124.732 53.476 126.777 52.2933 128.762 52.8236C130.746 53.3577 131.929 55.4026 131.399 57.3865C131.14 58.3479 130.525 59.1529 129.663 59.6527C128.8 60.1486 127.796 60.2822 126.835 60.0227C125.873 59.7633 125.068 59.1491 124.568 58.2869C124.072 57.4246 123.938 56.4213 124.198 55.4637V55.4599Z" fill="#FDB714"/>
<path d="M95.3387 42.5112L95.0029 42.9194L94.9876 42.908L95.3082 42.4883L94.6709 42L94.0298 42.4845C93.7779 42.6676 88 47.0894 88 52.7586C88 56.5775 89.3243 58.3592 91.0721 59.1756C91.0034 59.5648 90.9424 59.9463 90.8851 60.3202C90.2402 64.6084 90.0646 69.5184 90.3928 74.1385C91.4843 89.5668 92.3468 93.6223 94.5831 93.8703L95.7585 94V93.4621C97.4759 92.226 98.0712 87.0679 98.8803 74.0164C99.1665 69.4078 99.0062 64.5092 98.4338 60.221L98.2964 59.3015H98.2849C98.2773 59.2558 98.2697 59.2176 98.262 59.1718C99.9946 58.3592 101.315 56.5775 101.315 52.7586C101.315 47.2877 95.9494 42.9919 95.3273 42.5112H95.3387ZM96.7737 73.8829C96.4302 79.3843 95.8158 89.3379 94.732 91.4248C93.5756 89.0365 92.8391 78.6251 92.5109 73.9859C92.1941 69.5146 92.362 64.7686 92.9841 60.6292C93.0261 60.3316 93.0757 60.034 93.1291 59.7288C93.6519 59.7937 94.1824 59.8166 94.7014 59.8166H94.7091C95.2052 59.8166 95.7127 59.7937 96.2165 59.7326C96.2547 59.9844 96.2928 60.2401 96.3272 60.5033L96.4531 61.4189H96.4569C96.9149 65.3523 97.0294 69.7397 96.7737 73.8867V73.8829ZM98.9757 53.6132C99.1169 53.3805 99.1856 53.102 99.2085 52.8006C99.197 56.9285 97.682 57.6916 94.6633 57.6992C91.6484 57.6992 90.118 56.9362 90.118 52.7548C90.118 52.3237 90.1638 51.8964 90.2478 51.4806C90.5607 51.6522 90.9042 51.7476 91.2782 51.7629C92.736 51.8087 93.2131 50.5153 93.5298 49.6569C93.6977 49.1991 93.8886 48.6841 94.0565 48.665C94.3236 48.7985 94.751 49.9354 95.0334 50.687C95.6669 52.3733 96.3768 54.2732 97.7468 54.2732C97.8537 54.2732 97.9644 54.2618 98.0788 54.2351C98.4719 54.1511 98.781 53.9375 98.9795 53.617L98.9757 53.6132ZM97.7125 50.2483C97.972 51.183 98.3613 52.5908 98.075 53.0638C98.0407 53.1172 97.9949 53.1707 97.8651 53.1974C97.1591 53.3423 96.5103 51.595 96.0295 50.3131C95.4647 48.8062 95.0182 47.612 94.1099 47.612H94.0603C93.1444 47.6578 92.8085 48.562 92.5414 49.2869C92.1788 50.2635 91.9422 50.729 91.3164 50.7023C90.8393 50.687 90.4577 50.439 90.1524 49.9393C91.2744 47.0359 93.7855 44.7469 94.6709 44.0029C95.3006 44.5294 96.7393 45.8189 97.9262 47.5701C97.8079 47.6044 97.6934 47.6693 97.598 47.7685C97.1515 48.2148 97.3728 49.0236 97.7125 50.2483Z" fill="#FDB714"/>
</g>
<path d="M665.936 92.4C665.936 87.8133 666.643 84.2533 668.056 81.72C669.469 79.1867 672.003 77.92 675.656 77.92C679.309 77.92 681.843 79.1867 683.256 81.72C684.669 84.2533 685.376 87.8133 685.376 92.4C685.376 97.0667 684.669 100.68 683.256 103.24C681.843 105.8 679.309 107.08 675.656 107.08C671.976 107.08 669.429 105.8 668.016 103.24C666.629 100.68 665.936 97.0667 665.936 92.4ZM682.616 92.4C682.616 89.92 682.443 87.8267 682.096 86.12C681.749 84.4133 681.069 83.04 680.056 82C679.043 80.96 677.576 80.44 675.656 80.44C673.736 80.44 672.269 80.96 671.256 82C670.243 83.04 669.563 84.4133 669.216 86.12C668.869 87.8267 668.696 89.92 668.696 92.4C668.696 94.96 668.869 97.1067 669.216 98.84C669.563 100.547 670.243 101.92 671.256 102.96C672.269 104 673.736 104.52 675.656 104.52C677.576 104.52 679.043 104 680.056 102.96C681.069 101.92 681.749 100.547 682.096 98.84C682.443 97.1067 682.616 94.96 682.616 92.4ZM689.224 80.84V78.32H696.024V107H693.184V80.84H689.224Z" fill="#F2BA44" fill-opacity="0.3"/>
<defs>
<filter id="filter0_d_0_1" x="45" y="0" width="141" height="141" filterUnits="userSpaceOnUse" color-interpolation-filters="sRGB">
<feFlood flood-opacity="0" result="BackgroundImageFix"/>
<feColorMatrix in="SourceAlpha" type="matrix" values="0 0 0 0 0 0 0 0 0 0 0 0 0 0 0 0 0 0 127 0" result="hardAlpha"/>
<feOffset dy="4"/>
<feGaussianBlur stdDeviation="2"/>
<feComposite in2="hardAlpha" operator="out"/>
<feColorMatrix type="matrix" values="0 0 0 0 0.780392 0 0 0 0 0.858824 0 0 0 0 0.929412 0 0 0 1 0"/>
<feBlend mode="normal" in2="BackgroundImageFix" result="effect1_dropShadow_0_1"/>
<feBlend mode="normal" in="SourceGraphic" in2="effect1_dropShadow_0_1" result="shape"/>
</filter>
<clipPath id="clip0_0_1">
<rect width="59" height="52" fill="white" transform="translate(88 42)"/>
</clipPath>
</defs>
</svg>
