<svg width="739" height="227" viewBox="0 0 739 227" fill="none" xmlns="http://www.w3.org/2000/svg">
<rect y="38" width="739" height="189" rx="32" fill="#F3F4F5" fill-opacity="0.53"/>
<g filter="url(#filter0_d_0_1)">
<path d="M151.613 0H79.3872C62.6048 0 49 13.6048 49 30.3872V102.613C49 119.395 62.6048 133 79.3872 133H151.613C168.395 133 182 119.395 182 102.613V30.3872C182 13.6048 168.395 0 151.613 0Z" fill="white"/>
<g clip-path="url(#clip0_0_1)">
<path d="M98 72.3933C98 75.3381 100.413 77.7344 103.379 77.7344H106.293L98.1781 91.3868C97.9818 91.7152 97.9782 92.1267 98.1708 92.4587C98.3598 92.7907 98.716 92.9964 99.1048 92.9964H134.892C135.277 92.9964 135.633 92.7907 135.826 92.4587C136.015 92.1267 136.015 91.7152 135.818 91.3868L127.707 77.7344H130.621C133.587 77.7344 135.996 75.3381 135.996 72.3933V45.3411C135.996 42.3963 133.583 40 130.621 40H103.379C100.413 40 98 42.3963 98 45.3411V72.3969V72.3933ZM133.013 90.8599H100.987L117 63.9197L133.013 90.8599ZM100.151 45.3411C100.151 43.5728 101.598 42.1365 103.379 42.1365H130.625C132.402 42.1365 133.852 43.5728 133.852 45.3411V72.3969C133.852 74.1653 132.406 75.6016 130.625 75.6016H126.438L117.927 61.278C117.734 60.9532 117.382 60.7547 117 60.7547C116.618 60.7547 116.266 60.9532 116.073 61.278L107.562 75.6016H103.379C101.602 75.6016 100.151 74.1653 100.151 72.3969V45.3411Z" fill="#FDB714"/>
</g>
</g>
<path d="M659.51 92.4C659.51 87.8133 660.217 84.2533 661.63 81.72C663.043 79.1867 665.577 77.92 669.23 77.92C672.883 77.92 675.417 79.1867 676.83 81.72C678.243 84.2533 678.95 87.8133 678.95 92.4C678.95 97.0667 678.243 100.68 676.83 103.24C675.417 105.8 672.883 107.08 669.23 107.08C665.55 107.08 663.003 105.8 661.59 103.24C660.203 100.68 659.51 97.0667 659.51 92.4ZM676.19 92.4C676.19 89.92 676.017 87.8267 675.67 86.12C675.323 84.4133 674.643 83.04 673.63 82C672.617 80.96 671.15 80.44 669.23 80.44C667.31 80.44 665.843 80.96 664.83 82C663.817 83.04 663.137 84.4133 662.79 86.12C662.443 87.8267 662.27 89.92 662.27 92.4C662.27 94.96 662.443 97.1067 662.79 98.84C663.137 100.547 663.817 101.92 664.83 102.96C665.843 104 667.31 104.52 669.23 104.52C671.15 104.52 672.617 104 673.63 102.96C674.643 101.92 675.323 100.547 675.67 98.84C676.017 97.1067 676.19 94.96 676.19 92.4ZM682.919 100.2V98.08L697.479 78.48H700.799V97.76H705.079V100.2H700.799V107H698.039V100.2H682.919ZM698.159 81.56L686.159 97.76H698.159V81.56Z" fill="#F2BA44" fill-opacity="0.3"/>
<defs>
<filter id="filter0_d_0_1" x="45" y="0" width="141" height="141" filterUnits="userSpaceOnUse" color-interpolation-filters="sRGB">
<feFlood flood-opacity="0" result="BackgroundImageFix"/>
<feColorMatrix in="SourceAlpha" type="matrix" values="0 0 0 0 0 0 0 0 0 0 0 0 0 0 0 0 0 0 127 0" result="hardAlpha"/>
<feOffset dy="4"/>
<feGaussianBlur stdDeviation="2"/>
<feComposite in2="hardAlpha" operator="out"/>
<feColorMatrix type="matrix" values="0 0 0 0 0.780392 0 0 0 0 0.858824 0 0 0 0 0.929412 0 0 0 1 0"/>
<feBlend mode="normal" in2="BackgroundImageFix" result="effect1_dropShadow_0_1"/>
<feBlend mode="normal" in="SourceGraphic" in2="effect1_dropShadow_0_1" result="shape"/>
</filter>
<clipPath id="clip0_0_1">
<rect width="38" height="53" fill="white" transform="translate(98 40)"/>
</clipPath>
</defs>
</svg>
