<svg width="53" height="53" viewBox="0 0 53 53" fill="none" xmlns="http://www.w3.org/2000/svg">
<path d="M29.3037 26.66C29.3037 28.1282 28.1291 29.3029 26.6608 29.3029C25.1925 29.3029 23.9852 28.1282 23.9852 26.66C23.9852 25.1917 25.2088 23.9844 26.6608 23.9844C28.1128 23.9844 29.3037 25.208 29.3037 26.66Z" fill="white"/>
<path d="M26.6608 14C19.662 14 14.0009 19.6611 14.0009 26.66C14.0009 33.6588 19.662 39.2709 26.6608 39.2709C33.6597 39.2709 39.2718 33.6099 39.2718 26.66C39.2718 19.71 33.6107 14 26.6608 14ZM34.5407 29.9228C34.4917 30.7549 34.3775 31.3422 34.1654 31.8479C34.0022 32.3863 33.7086 32.8104 33.2844 33.2673C32.8276 33.6914 32.3545 33.9851 31.8651 34.1972C31.3594 34.3603 30.772 34.4908 29.94 34.5398C29.108 34.5887 28.8143 34.6214 26.6771 34.6214C24.54 34.6214 24.2463 34.5724 23.3653 34.5398C22.5332 34.4908 21.9459 34.3766 21.4402 34.1972C20.9345 33.9851 20.4777 33.6914 20.0535 33.2673C19.5967 32.8104 19.3357 32.3863 19.1236 31.8479C18.9115 31.3422 18.781 30.7549 18.7484 29.9228C18.6994 29.0908 18.6994 28.7971 18.6994 26.66C18.6994 24.5228 18.6994 24.2291 18.7484 23.3481C18.7973 22.5161 18.9115 21.9288 19.1236 21.4231C19.3357 20.9173 19.5804 20.4605 20.0535 20.0363C20.4777 19.5795 20.9345 19.3185 21.4402 19.1064C21.9459 18.8943 22.5332 18.7638 23.3653 18.7312C24.2463 18.6822 24.491 18.6822 26.6771 18.6822C28.8633 18.6822 29.108 18.6822 29.94 18.7312C30.772 18.7801 31.3594 18.8943 31.8651 19.1064C32.3708 19.3185 32.8276 19.5632 33.2844 20.0363C33.7086 20.4605 34.0022 20.9173 34.1654 21.4231C34.3775 21.9288 34.508 22.5161 34.5407 23.3481C34.5896 24.2291 34.5896 24.4738 34.5896 26.66C34.5896 28.8461 34.5896 29.0908 34.5407 29.9228ZM32.8602 21.9614C32.6971 21.5862 32.5176 21.3251 32.224 21.0315C31.9792 20.7378 31.6856 20.5747 31.343 20.4442C31.0494 20.3137 30.6252 20.1995 29.8421 20.1505C29.0101 20.1016 28.749 20.1016 26.6608 20.1016C24.5726 20.1016 24.2789 20.1016 23.4306 20.1505C22.6312 20.1995 22.207 20.3137 21.9623 20.4442C21.587 20.5747 21.2934 20.7378 21.0323 21.0315C20.7387 21.3251 20.5756 21.5699 20.445 21.9614C20.3145 22.2061 20.2003 22.6303 20.1514 23.4297C20.1025 24.2617 20.1024 24.5228 20.1024 26.66C20.1024 28.7971 20.1025 29.0092 20.1514 29.8412C20.2003 30.6406 20.3145 31.0485 20.445 31.3422C20.5756 31.7174 20.7387 31.9784 21.0323 32.2232C21.2771 32.5168 21.5707 32.6799 21.9623 32.8594C22.207 32.941 22.6312 33.0715 23.4306 33.1041C24.2626 33.153 24.5236 33.153 26.6608 33.153C28.798 33.153 29.0101 33.153 29.8421 33.1041C30.6415 33.0552 31.0657 32.941 31.343 32.8594C31.6856 32.6962 31.9792 32.5168 32.224 32.2232C32.5176 31.9784 32.6808 31.7174 32.8602 31.3422C32.9418 31.0485 33.0724 30.6243 33.105 29.8412C33.1539 29.0092 33.1539 28.7482 33.1539 26.66C33.1539 24.5717 33.1539 24.278 33.105 23.4297C33.0561 22.6303 32.9418 22.2061 32.8602 21.9614ZM26.6608 30.7222C24.3931 30.7222 22.5496 28.9113 22.5496 26.66C22.5496 24.4086 24.3931 22.5487 26.6608 22.5487C28.9285 22.5487 30.7231 24.3923 30.7231 26.66C30.7231 28.9277 28.8796 30.7222 26.6608 30.7222ZM30.9025 23.3481C30.3641 23.3481 29.94 22.924 29.94 22.3856C29.94 21.8799 30.3641 21.4557 30.9025 21.4557C31.4082 21.4557 31.8651 21.8799 31.8651 22.3856C31.8651 22.924 31.4082 23.3481 30.9025 23.3481Z" fill="white"/>
<path d="M52.6997 26.3502C52.6997 40.8802 40.8797 52.7002 26.3497 52.7002C11.8197 52.7002 -0.000273625 40.8802 -0.000272355 26.3502C-0.000271084 11.8202 11.8197 0.000240567 26.3497 0.000241837C40.8797 0.000243107 52.6997 11.8202 52.6997 26.3502ZM51.3997 26.3502C51.3997 12.5402 40.1597 1.30023 26.3497 1.30023C12.5397 1.30023 1.29972 12.5402 1.29972 26.3502C1.29971 40.1602 12.5397 51.4002 26.3497 51.4002C40.1597 51.4002 51.3997 40.1602 51.3997 26.3502Z" fill="white"/>
</svg>
