<svg width="53" height="53" viewBox="0 0 53 53" fill="none" xmlns="http://www.w3.org/2000/svg">
<path d="M29.3029 26.66C29.3029 28.1282 28.1282 29.3029 26.66 29.3029C25.1917 29.3029 23.9844 28.1282 23.9844 26.66C23.9844 25.1917 25.208 23.9844 26.66 23.9844C28.1119 23.9844 29.3029 25.208 29.3029 26.66Z" fill="#D12A5D"/>
<path d="M26.66 14C19.6611 14 14 19.6611 14 26.66C14 33.6588 19.6611 39.2709 26.66 39.2709C33.6588 39.2709 39.2709 33.6099 39.2709 26.66C39.2709 19.71 33.6099 14 26.66 14ZM34.5398 29.9228C34.4909 30.7549 34.3766 31.3422 34.1645 31.8479C34.0014 32.3863 33.7078 32.8104 33.2836 33.2673C32.8268 33.6914 32.3537 33.9851 31.8642 34.1972C31.3585 34.3603 30.7712 34.4908 29.9392 34.5398C29.1071 34.5887 28.8135 34.6214 26.6763 34.6214C24.5391 34.6214 24.2454 34.5724 23.3644 34.5398C22.5324 34.4908 21.9451 34.3766 21.4393 34.1972C20.9336 33.9851 20.4768 33.6914 20.0527 33.2673C19.5959 32.8104 19.3348 32.3863 19.1227 31.8479C18.9106 31.3422 18.7802 30.7549 18.7475 29.9228C18.6986 29.0908 18.6985 28.7971 18.6985 26.66C18.6985 24.5228 18.6986 24.2291 18.7475 23.3481C18.7965 22.5161 18.9106 21.9288 19.1227 21.4231C19.3348 20.9173 19.5795 20.4605 20.0527 20.0363C20.4768 19.5795 20.9336 19.3185 21.4393 19.1064C21.9451 18.8943 22.5324 18.7638 23.3644 18.7312C24.2454 18.6822 24.4902 18.6822 26.6763 18.6822C28.8624 18.6822 29.1071 18.6822 29.9392 18.7312C30.7712 18.7801 31.3585 18.8943 31.8642 19.1064C32.37 19.3185 32.8268 19.5632 33.2836 20.0363C33.7078 20.4605 34.0014 20.9173 34.1645 21.4231C34.3766 21.9288 34.5072 22.5161 34.5398 23.3481C34.5888 24.2291 34.5887 24.4738 34.5887 26.66C34.5887 28.8461 34.5888 29.0908 34.5398 29.9228ZM32.8594 21.9614C32.6962 21.5862 32.5168 21.3251 32.2231 21.0315C31.9784 20.7378 31.6848 20.5747 31.3422 20.4442C31.0485 20.3137 30.6244 20.1995 29.8413 20.1505C29.0092 20.1016 28.7482 20.1016 26.66 20.1016C24.5717 20.1016 24.2781 20.1016 23.4297 20.1505C22.6303 20.1995 22.2061 20.3137 21.9614 20.4442C21.5862 20.5747 21.2925 20.7378 21.0315 21.0315C20.7378 21.3251 20.5747 21.5699 20.4442 21.9614C20.3137 22.2061 20.1995 22.6303 20.1505 23.4297C20.1016 24.2617 20.1016 24.5228 20.1016 26.66C20.1016 28.7971 20.1016 29.0092 20.1505 29.8412C20.1995 30.6406 20.3137 31.0485 20.4442 31.3422C20.5747 31.7174 20.7378 31.9784 21.0315 32.2232C21.2762 32.5168 21.5699 32.6799 21.9614 32.8594C22.2061 32.941 22.6303 33.0715 23.4297 33.1041C24.2618 33.153 24.5228 33.153 26.66 33.153C28.7971 33.153 29.0092 33.153 29.8413 33.1041C30.6407 33.0552 31.0648 32.941 31.3422 32.8594C31.6848 32.6962 31.9784 32.5168 32.2231 32.2232C32.5168 31.9784 32.6799 31.7174 32.8594 31.3422C32.941 31.0485 33.0715 30.6243 33.1041 29.8412C33.1531 29.0092 33.153 28.7482 33.153 26.66C33.153 24.5717 33.1531 24.278 33.1041 23.4297C33.0552 22.6303 32.941 22.2061 32.8594 21.9614ZM26.66 30.7222C24.3923 30.7222 22.5487 28.9113 22.5487 26.66C22.5487 24.4086 24.3923 22.5487 26.66 22.5487C28.9277 22.5487 30.7222 24.3923 30.7222 26.66C30.7222 28.9277 28.8787 30.7222 26.66 30.7222ZM30.9016 23.3481C30.3633 23.3481 29.9392 22.924 29.9392 22.3856C29.9392 21.8799 30.3633 21.4557 30.9016 21.4557C31.4074 21.4557 31.8642 21.8799 31.8642 22.3856C31.8642 22.924 31.4074 23.3481 30.9016 23.3481Z" fill="#D12A5D"/>
<path d="M52.7 26.3502C52.7 40.8802 40.8799 52.7002 26.3499 52.7002C11.8199 52.7002 -2.94842e-05 40.8802 -2.8214e-05 26.3502C-2.69437e-05 11.8202 11.82 0.000240567 26.3499 0.000241837C40.8799 0.000243107 52.7 11.8202 52.7 26.3502ZM51.4 26.3502C51.4 12.5402 40.1599 1.30023 26.3499 1.30023C12.5399 1.30023 1.29996 12.5402 1.29996 26.3502C1.29996 40.1602 12.5399 51.4002 26.3499 51.4002C40.1599 51.4002 51.4 40.1602 51.4 26.3502Z" fill="#E5005A"/>
</svg>
