<svg width="67" height="67" viewBox="0 0 67 67" fill="none" xmlns="http://www.w3.org/2000/svg">
<g filter="url(#filter0_d_0_1)">
<path d="M49.4933 0.034668H17.4721C10.0317 0.034668 4 6.06636 4 13.5068V45.528C4 52.9685 10.0317 59.0001 17.4721 59.0001H49.4933C56.9337 59.0001 62.9654 52.9685 62.9654 45.528V13.5068C62.9654 6.06636 56.9337 0.034668 49.4933 0.034668Z" fill="white"/>
</g>
<g clip-path="url(#clip0_0_1)">
<path d="M21.4491 21C21.4491 21 21.4442 21 21.4426 21C21.4345 21 21.4247 21.0017 21.4166 21.0034C21.397 21.0034 21.3759 21.0068 21.3564 21.0102C21.3547 21.0102 21.3531 21.0102 21.3515 21.0102C21.3482 21.0102 21.3433 21.0137 21.3401 21.0137C21.332 21.0154 21.3238 21.0188 21.3157 21.0222C21.2766 21.0341 21.2392 21.0512 21.205 21.0734C21.2034 21.0734 21.2018 21.0768 21.2002 21.0785C21.166 21.1024 21.1367 21.1314 21.109 21.1622C21.1058 21.1656 21.1025 21.1673 21.1009 21.1707C21.0993 21.1707 21.0993 21.1758 21.0976 21.1758C21.0928 21.1809 21.0895 21.1861 21.0846 21.1929C21.0846 21.1946 21.083 21.1963 21.0814 21.1997C21.0667 21.2219 21.0537 21.2441 21.0423 21.268C21.0423 21.2714 21.0407 21.2748 21.0391 21.2765C21.0391 21.28 21.0374 21.2817 21.0358 21.2851C21.0325 21.2919 21.0309 21.3004 21.0277 21.3073C21.0228 21.3209 21.0163 21.3363 21.013 21.3499C21.013 21.3499 21.013 21.3499 21.013 21.3516C21.013 21.3568 21.013 21.3619 21.0114 21.367C21.0065 21.3875 21.0016 21.408 21 21.4302C21 21.4319 21 21.4353 21 21.4387C21 21.4472 21 21.4541 21 21.4626C21 21.4848 21 21.507 21.0016 21.5292C21.0016 21.5343 21.0033 21.5377 21.0049 21.5428C21.0049 21.5497 21.0065 21.5548 21.0081 21.5616C21.0081 21.5701 21.0114 21.577 21.013 21.5855C21.0146 21.5958 21.0179 21.606 21.0195 21.6162C21.0195 21.6179 21.0195 21.6197 21.0212 21.6214C21.0293 21.647 21.0391 21.6726 21.0504 21.6948C21.0504 21.6965 21.0521 21.6982 21.0537 21.6999C21.0537 21.6999 21.0537 21.7016 21.0553 21.7033C21.0553 21.705 21.057 21.7084 21.0586 21.7101L29.3754 36.7627C29.4486 36.8959 29.5804 36.9846 29.7269 36.9983C29.7399 36.9983 29.7529 36.9983 29.7659 36.9983C29.8977 36.9983 30.0247 36.9368 30.1109 36.831L34.9161 30.853L40.164 32.9441C40.164 32.9441 40.1868 32.9526 40.19 32.9543C40.2421 32.9748 40.2958 32.9851 40.3495 32.9851C40.4829 32.9851 40.6131 32.9219 40.701 32.8092C40.7986 32.6812 40.823 32.5139 40.7742 32.3637L40.2795 25.0559L46.7315 22.0379C46.9251 21.9474 47.0342 21.7255 46.9886 21.507C46.9447 21.2885 46.7624 21.1314 46.5493 21.1314L21.4524 21H21.4491ZM35.5329 30.0865L35.925 29.6L37.1324 28.0978L39.2381 31.5614L35.5345 30.0865H35.5329ZM44.4517 22.0686L39.749 24.269L26.941 21.9764L44.4517 22.0686ZM39.3813 25.1634L39.7523 30.6498L37.5604 27.0446C37.5523 27.0309 37.5409 27.0207 37.5327 27.0087C37.523 26.9951 37.5132 26.9814 37.5018 26.9695C37.4921 26.9592 37.4823 26.9507 37.4709 26.9422C37.4628 26.9353 37.4546 26.9285 37.4465 26.9217C37.4367 26.9149 37.4286 26.9063 37.4188 26.9012C37.4009 26.8893 37.3814 26.8807 37.3635 26.8722C37.3521 26.8671 37.3423 26.8602 37.331 26.8551L26.5847 22.8743L39.3829 25.1652L39.3813 25.1634ZM36.4148 27.5192L29.8343 35.7061L22.4548 22.3486L36.4164 27.5209L36.4148 27.5192Z" fill="#FDB714"/>
</g>
<defs>
<filter id="filter0_d_0_1" x="0" y="0.034668" width="66.9654" height="66.9653" filterUnits="userSpaceOnUse" color-interpolation-filters="sRGB">
<feFlood flood-opacity="0" result="BackgroundImageFix"/>
<feColorMatrix in="SourceAlpha" type="matrix" values="0 0 0 0 0 0 0 0 0 0 0 0 0 0 0 0 0 0 127 0" result="hardAlpha"/>
<feOffset dy="4"/>
<feGaussianBlur stdDeviation="2"/>
<feComposite in2="hardAlpha" operator="out"/>
<feColorMatrix type="matrix" values="0 0 0 0 0.133333 0 0 0 0 0.435294 0 0 0 0 0.717647 0 0 0 0.33 0"/>
<feBlend mode="normal" in2="BackgroundImageFix" result="effect1_dropShadow_0_1"/>
<feBlend mode="normal" in="SourceGraphic" in2="effect1_dropShadow_0_1" result="shape"/>
</filter>
<clipPath id="clip0_0_1">
<rect width="26" height="16" fill="white" transform="translate(21 21)"/>
</clipPath>
</defs>
</svg>
