<svg width="739" height="227" viewBox="0 0 739 227" fill="none" xmlns="http://www.w3.org/2000/svg">
<rect y="38" width="739" height="189" rx="32" fill="#F3F4F5" fill-opacity="0.53"/>
<g filter="url(#filter0_d_0_1)">
<path d="M151.613 0H79.3872C62.6048 0 49 13.6048 49 30.3872V102.613C49 119.395 62.6048 133 79.3872 133H151.613C168.395 133 182 119.395 182 102.613V30.3872C182 13.6048 168.395 0 151.613 0Z" fill="white"/>
</g>
<path d="M110.036 94C122.194 94 132.073 83.8615 132.073 71.3835C132.073 65.4941 129.872 60.1156 126.256 56.0818L130.396 51.8327C130.553 52.0479 130.763 52.2093 131.051 52.2362L139.724 53.2043C139.724 53.2043 139.803 53.2043 139.829 53.2043C140.3 53.2043 140.693 52.8547 140.746 52.3706C140.798 51.8597 140.431 51.3757 139.934 51.3219L131.785 50.4075L134.169 47.9604C134.169 47.9604 134.248 47.9604 134.3 47.9604L142.973 48.9285C142.973 48.9285 143.052 48.9285 143.078 48.9285C143.55 48.9285 143.943 48.5789 143.995 48.0948C144.047 47.5839 143.681 47.0998 143.183 47.046L135.846 46.2123L140.3 41.6406C140.667 41.2641 140.667 40.6725 140.3 40.296C139.934 39.9195 139.357 39.9195 138.99 40.296L134.431 44.9752L132.02 38.6018C131.837 38.1177 131.313 37.8756 130.815 38.0639C130.343 38.2521 130.108 38.79 130.291 39.301L132.964 46.3737C132.964 46.3737 132.99 46.4274 132.99 46.4543L131.025 48.4712L128.614 41.8827C128.431 41.3987 127.907 41.1566 127.435 41.3179C126.963 41.5062 126.727 42.044 126.885 42.5281L129.557 49.8427C129.557 49.8427 129.584 49.8966 129.61 49.9235L124.946 54.7102C121.015 50.9991 115.801 48.7402 110.036 48.7402C97.9046 48.7402 88 58.8785 88 71.3566C88 83.8346 97.8784 93.9731 110.036 93.9731V94ZM110.036 50.6764C115.277 50.6764 120.046 52.7202 123.636 56.0818L119.286 60.546C116.823 58.3139 113.6 56.9693 110.063 56.9693C102.333 56.9693 96.0442 63.4233 96.0442 71.3566C96.0442 79.2898 102.333 85.744 110.063 85.744C117.792 85.744 124.081 79.2898 124.081 71.3566C124.081 67.7261 122.771 64.4185 120.596 61.8906L124.946 57.4264C128.221 61.1106 130.212 66.005 130.212 71.3835C130.212 82.8127 121.173 92.0906 110.036 92.0906C98.9003 92.0906 89.8604 82.8127 89.8604 71.3835C89.8604 59.9543 98.9265 50.6764 110.036 50.6764ZM109.381 72.0558C109.565 72.244 109.801 72.3248 110.036 72.3248C110.272 72.3248 110.508 72.244 110.691 72.0558L113.548 69.1246C113.941 69.77 114.176 70.5498 114.176 71.3835C114.176 73.7231 112.316 75.6325 110.036 75.6325C107.757 75.6325 105.896 73.7231 105.896 71.3835C105.896 69.0439 107.757 67.1345 110.036 67.1345C110.849 67.1345 111.582 67.3766 112.237 67.78L109.381 70.7112C109.015 71.0877 109.015 71.6793 109.381 72.0558ZM113.548 66.4354C112.552 65.6824 111.347 65.2521 110.036 65.2521C106.735 65.2521 104.062 67.9951 104.062 71.3835C104.062 74.7719 106.735 77.515 110.036 77.515C113.338 77.515 116.011 74.7719 116.011 71.3835C116.011 70.0389 115.565 68.775 114.858 67.78L119.26 63.262C121.094 65.4402 122.194 68.2909 122.194 71.3835C122.194 78.2679 116.744 83.8885 110.01 83.8885C103.276 83.8885 97.826 78.2948 97.826 71.3835C97.826 64.4722 103.276 58.8787 110.01 58.8787C113.024 58.8787 115.801 60.0081 117.923 61.8906L113.521 66.4085L113.548 66.4354Z" fill="#226FB7"/>
<path d="M665.936 92.4C665.936 87.8133 666.643 84.2533 668.056 81.72C669.469 79.1867 672.003 77.92 675.656 77.92C679.309 77.92 681.843 79.1867 683.256 81.72C684.669 84.2533 685.376 87.8133 685.376 92.4C685.376 97.0667 684.669 100.68 683.256 103.24C681.843 105.8 679.309 107.08 675.656 107.08C671.976 107.08 669.429 105.8 668.016 103.24C666.629 100.68 665.936 97.0667 665.936 92.4ZM682.616 92.4C682.616 89.92 682.443 87.8267 682.096 86.12C681.749 84.4133 681.069 83.04 680.056 82C679.043 80.96 677.576 80.44 675.656 80.44C673.736 80.44 672.269 80.96 671.256 82C670.243 83.04 669.563 84.4133 669.216 86.12C668.869 87.8267 668.696 89.92 668.696 92.4C668.696 94.96 668.869 97.1067 669.216 98.84C669.563 100.547 670.243 101.92 671.256 102.96C672.269 104 673.736 104.52 675.656 104.52C677.576 104.52 679.043 104 680.056 102.96C681.069 101.92 681.749 100.547 682.096 98.84C682.443 97.1067 682.616 94.96 682.616 92.4ZM689.224 80.84V78.32H696.024V107H693.184V80.84H689.224Z" fill="#226FB7" fill-opacity="0.3"/>
<defs>
<filter id="filter0_d_0_1" x="45" y="0" width="141" height="141" filterUnits="userSpaceOnUse" color-interpolation-filters="sRGB">
<feFlood flood-opacity="0" result="BackgroundImageFix"/>
<feColorMatrix in="SourceAlpha" type="matrix" values="0 0 0 0 0 0 0 0 0 0 0 0 0 0 0 0 0 0 127 0" result="hardAlpha"/>
<feOffset dy="4"/>
<feGaussianBlur stdDeviation="2"/>
<feComposite in2="hardAlpha" operator="out"/>
<feColorMatrix type="matrix" values="0 0 0 0 0.780392 0 0 0 0 0.858824 0 0 0 0 0.929412 0 0 0 1 0"/>
<feBlend mode="normal" in2="BackgroundImageFix" result="effect1_dropShadow_0_1"/>
<feBlend mode="normal" in="SourceGraphic" in2="effect1_dropShadow_0_1" result="shape"/>
</filter>
</defs>
</svg>
