<svg width="195" height="36" viewBox="0 0 195 36" fill="none" xmlns="http://www.w3.org/2000/svg">
<g filter="url(#filter0_d_0_1)">
<mask id="path-1-inside-1_0_1" fill="white">
<path d="M13.0448 9.97641L17.0314 1.99818L20.9399 10.015L29.7603 11.3384L23.3426 17.5342L24.8109 26.334L16.9358 22.1458L9.02071 26.2569L10.5701 17.4742L4.21258 11.2183L13.0448 9.97641Z"/>
</mask>
<path d="M13.0448 9.97641L16.7346 36.2183L30.5252 34.2792L36.7501 21.8215L13.0448 9.97641ZM17.0314 1.99818L40.8512 -9.61501L17.3235 -57.8725L-6.67398 -9.84695L17.0314 1.99818ZM20.9399 10.015L-2.87993 21.6282L3.22693 34.1539L17.0078 36.2216L20.9399 10.015ZM29.7603 11.3384L48.1661 30.4034L86.8047 -6.89928L33.6923 -14.8683L29.7603 11.3384ZM23.3426 17.5342L4.93676 -1.53085L-5.08974 8.149L-2.79601 21.8956L23.3426 17.5342ZM24.8109 26.334L12.3677 49.731L59.7895 74.9513L50.9496 21.9726L24.8109 26.334ZM16.9358 22.1458L29.379 -1.25115L17.0816 -7.7913L4.72102 -1.37122L16.9358 22.1458ZM9.02071 26.2569L-17.0763 21.653L-26.4023 74.5171L21.2355 49.7739L9.02071 26.2569ZM10.5701 17.4742L36.6671 22.0781L39.0876 8.35761L29.1569 -1.41442L10.5701 17.4742ZM4.21258 11.2183L0.522735 -15.0236L-52.6409 -7.54826L-14.3742 30.1069L4.21258 11.2183ZM9.35493 -16.2654L8.2509 -16.1102L15.6306 36.3735L16.7346 36.2183L9.35493 -16.2654ZM6.04286 -15.7997L3.83481 -15.4893L11.2145 36.9944L13.4225 36.684L6.04286 -15.7997ZM1.62676 -15.1788L0.522735 -15.0236L7.90243 37.4602L9.00645 37.3049L1.62676 -15.1788ZM-14.3742 30.1069L-13.5795 30.8889L23.5941 -6.88836L22.7994 -7.67035L-14.3742 30.1069ZM-11.9901 32.4529L-10.4008 34.0169L26.7728 -3.76039L25.1835 -5.32437L-11.9901 32.4529ZM-8.81138 35.5809L-8.01669 36.3629L29.1569 -1.41442L28.3622 -2.19641L-8.81138 35.5809ZM-15.5269 12.8703L-15.7206 13.9681L36.4734 23.176L36.6671 22.0781L-15.5269 12.8703ZM-16.1079 16.1638L-16.4953 18.3595L35.6987 27.5673L36.0861 25.3716L-16.1079 16.1638ZM-16.8826 20.5551L-17.0763 21.653L35.1177 30.8608L35.3114 29.763L-16.8826 20.5551ZM21.2355 49.7739L22.2249 49.26L-2.20467 2.226L-3.19406 2.73989L21.2355 49.7739ZM24.2036 48.2322L26.1824 47.2045L1.75287 0.17045L-0.225903 1.19823L24.2036 48.2322ZM28.1612 46.1767L29.1506 45.6628L4.72102 -1.37122L3.73164 -0.857327L28.1612 46.1767ZM4.49259 45.5427L5.47699 46.0663L30.3634 -0.727621L29.379 -1.25115L4.49259 45.5427ZM7.44577 47.1133L9.41456 48.1604L34.301 1.3665L32.3322 0.319439L7.44577 47.1133ZM11.3833 49.2074L12.3677 49.731L37.2541 2.93709L36.2698 2.41356L11.3833 49.2074ZM50.9496 21.9726L50.766 20.8726L-1.51123 29.5955L-1.32768 30.6955L50.9496 21.9726ZM50.3989 18.6726L50.0319 16.4727L-2.24539 25.1956L-1.87831 27.3955L50.3989 18.6726ZM49.6648 14.2727L49.4812 13.1727L-2.79601 21.8956L-2.61247 22.9956L49.6648 14.2727ZM41.7485 36.5992L42.5507 35.8247L5.73897 -2.30532L4.93676 -1.53085L41.7485 36.5992ZM44.1551 34.2758L45.7595 32.7268L8.9478 -5.40321L7.34339 -3.85426L44.1551 34.2758ZM47.3639 31.1779L48.1661 30.4034L11.3544 -7.72662L10.5522 -6.95215L47.3639 31.1779ZM33.6923 -14.8683L32.5898 -15.0337L24.7257 37.3796L25.8282 37.545L33.6923 -14.8683ZM30.3847 -15.3645L28.1796 -15.6954L20.3155 36.7179L22.5206 37.0488L30.3847 -15.3645ZM25.9745 -16.0263L24.8719 -16.1917L17.0078 36.2216L18.1104 36.3871L25.9745 -16.0263ZM44.7597 -1.59822L44.2711 -2.60032L-3.36849 20.6261L-2.87993 21.6282L44.7597 -1.59822ZM43.294 -4.60452L42.3169 -6.60872L-5.32276 16.6177L-4.34563 18.6219L43.294 -4.60452ZM41.3397 -8.61291L40.8512 -9.61501L-6.78846 13.6114L-6.2999 14.6135L41.3397 -8.61291ZM-6.67398 -9.84695L-7.1723 -8.84967L40.2384 14.8406L40.7367 13.8433L-6.67398 -9.84695ZM-8.16895 -6.85512L-9.16559 -4.86056L38.2451 18.8297L39.2417 16.8351L-8.16895 -6.85512ZM-10.1622 -2.866L-10.6606 -1.86872L36.7501 21.8215L37.2484 20.8243L-10.1622 -2.866ZM13.0448 9.97641L20.4245 62.4601L48.0057 58.5819L60.4554 33.6667L13.0448 9.97641ZM17.0314 1.99818L64.671 -21.2282L17.6157 -117.743L-30.3793 -21.6921L17.0314 1.99818ZM20.9399 10.015L-26.6997 33.2414L-14.486 58.2929L13.0758 62.4283L20.9399 10.015ZM29.7603 11.3384L66.572 49.4684L143.849 -25.137L37.6244 -41.0749L29.7603 11.3384ZM23.3426 17.5342L-13.4691 -20.5959L-33.5221 -1.23616L-28.9346 26.257L23.3426 17.5342ZM24.8109 26.334L-0.0754629 73.1279L94.768 123.569L77.0882 17.6112L24.8109 26.334ZM16.9358 22.1458L41.8222 -24.6481L17.2273 -37.7284L-7.49375 -24.8882L16.9358 22.1458ZM9.02071 26.2569L-43.1733 17.0491L-61.8254 122.777L33.4503 73.2909L9.02071 26.2569ZM10.5701 17.4742L62.7641 26.6821L67.6052 -0.759002L47.7437 -20.3031L10.5701 17.4742ZM4.21258 11.2183L-3.16711 -41.2654L-109.494 -26.3148L-32.961 48.9956L4.21258 11.2183ZM5.66508 -42.5073L4.56106 -42.3521L19.3204 62.6154L20.4245 62.4601L5.66508 -42.5073ZM2.35301 -42.0416L0.144963 -41.7311L14.9043 63.2363L17.1124 62.9258L2.35301 -42.0416ZM-2.06309 -41.4206L-3.16711 -41.2654L11.5923 63.702L12.6963 63.5468L-2.06309 -41.4206ZM-32.961 48.9956L-32.1663 49.7776L42.1809 -25.777L41.3862 -26.559L-32.961 48.9956ZM-30.5769 51.3416L-28.9876 52.9055L45.3596 -22.649L43.7702 -24.213L-30.5769 51.3416ZM-27.3982 54.4695L-26.6035 55.2515L47.7437 -20.3031L46.949 -21.0851L-27.3982 54.4695ZM-41.6239 8.2664L-41.8176 9.36423L62.5705 27.7799L62.7641 26.6821L-41.6239 8.2664ZM-42.2049 11.5599L-42.5923 13.7556L61.7958 32.1712L62.1831 29.9756L-42.2049 11.5599ZM-42.9796 15.9512L-43.1733 17.0491L61.2147 35.4647L61.4084 34.3669L-42.9796 15.9512ZM33.4503 73.2909L34.4396 72.777L-14.4194 -21.291L-15.4088 -20.7771L33.4503 73.2909ZM36.4184 71.7492L38.3972 70.7215L-10.4619 -23.3466L-12.4407 -22.3188L36.4184 71.7492ZM40.376 69.6937L41.3653 69.1798L-7.49375 -24.8882L-8.48313 -24.3743L40.376 69.6937ZM-7.95061 68.9397L-6.96622 69.4632L42.8066 -24.1246L41.8222 -24.6481L-7.95061 68.9397ZM-4.99743 70.5102L-3.02864 71.5573L46.7442 -22.0304L44.7754 -23.0775L-4.99743 70.5102ZM-1.05986 72.6044L-0.0754629 73.1279L49.6973 -20.4598L48.713 -20.9834L-1.05986 72.6044ZM77.0882 17.6112L76.9047 16.5112L-27.6499 33.9569L-27.4663 35.0569L77.0882 17.6112ZM76.5376 14.3112L76.1705 12.1112L-28.384 29.557L-28.0169 31.757L76.5376 14.3112ZM75.8034 9.91127L75.6199 8.81129L-28.9346 26.257L-28.7511 27.357L75.8034 9.91127ZM60.1543 55.6642L60.9565 54.8897L-12.6669 -21.3703L-13.4691 -20.5959L60.1543 55.6642ZM62.5609 53.3408L64.1654 51.7918L-9.45805 -24.4682L-11.0625 -22.9193L62.5609 53.3408ZM65.7698 50.2429L66.572 49.4684L-7.05143 -26.7916L-7.85364 -26.0172L65.7698 50.2429ZM37.6244 -41.0749L36.5218 -41.2404L20.7936 63.5863L21.8962 63.7517L37.6244 -41.0749ZM34.3167 -41.5712L32.1116 -41.9021L16.3834 62.9246L18.5885 63.2554L34.3167 -41.5712ZM29.9065 -42.2329L28.804 -42.3983L13.0758 62.4283L14.1783 62.5937L29.9065 -42.2329ZM68.5795 -13.2114L68.091 -14.2135L-27.1883 32.2393L-26.6997 33.2414L68.5795 -13.2114ZM67.1138 -16.2177L66.1367 -18.2219L-29.1426 28.2309L-28.1654 30.2351L67.1138 -16.2177ZM65.1596 -20.2261L64.671 -21.2282L-30.6083 25.2246L-30.1197 26.2267L65.1596 -20.2261ZM-30.3793 -21.6921L-30.8776 -20.6948L63.9437 26.6857L64.442 25.6884L-30.3793 -21.6921ZM-31.8743 -18.7002L-32.8709 -16.7057L61.9504 30.6748L62.9471 28.6803L-31.8743 -18.7002ZM-33.8676 -14.7111L-34.3659 -13.7139L60.4554 33.6667L60.9538 32.6694L-33.8676 -14.7111Z" fill="#386EB0" mask="url(#path-1-inside-1_0_1)"/>
<path d="M13.0448 9.97641L16.7346 36.2183L30.5252 34.2792L36.7501 21.8215L13.0448 9.97641ZM17.0314 1.99818L40.8512 -9.61501L17.3235 -57.8725L-6.67398 -9.84695L17.0314 1.99818ZM20.9399 10.015L-2.87993 21.6282L3.22693 34.1539L17.0078 36.2216L20.9399 10.015ZM29.7603 11.3384L48.1661 30.4034L86.8047 -6.89928L33.6923 -14.8683L29.7603 11.3384ZM23.3426 17.5342L4.93676 -1.53085L-5.08974 8.149L-2.79601 21.8956L23.3426 17.5342ZM24.8109 26.334L12.3677 49.731L59.7895 74.9513L50.9496 21.9726L24.8109 26.334ZM16.9358 22.1458L29.379 -1.25115L17.0816 -7.7913L4.72102 -1.37122L16.9358 22.1458ZM9.02071 26.2569L-17.0763 21.653L-26.4023 74.5171L21.2355 49.7739L9.02071 26.2569ZM10.5701 17.4742L36.6671 22.0781L39.0876 8.35761L29.1569 -1.41442L10.5701 17.4742ZM4.21258 11.2183L0.522735 -15.0236L-52.6409 -7.54826L-14.3742 30.1069L4.21258 11.2183ZM9.35493 -16.2654L8.2509 -16.1102L15.6306 36.3735L16.7346 36.2183L9.35493 -16.2654ZM6.04286 -15.7997L3.83481 -15.4893L11.2145 36.9944L13.4225 36.684L6.04286 -15.7997ZM1.62676 -15.1788L0.522735 -15.0236L7.90243 37.4602L9.00645 37.3049L1.62676 -15.1788ZM-14.3742 30.1069L-13.5795 30.8889L23.5941 -6.88836L22.7994 -7.67035L-14.3742 30.1069ZM-11.9901 32.4529L-10.4008 34.0169L26.7728 -3.76039L25.1835 -5.32437L-11.9901 32.4529ZM-8.81138 35.5809L-8.01669 36.3629L29.1569 -1.41442L28.3622 -2.19641L-8.81138 35.5809ZM-15.5269 12.8703L-15.7206 13.9681L36.4734 23.176L36.6671 22.0781L-15.5269 12.8703ZM-16.1079 16.1638L-16.4953 18.3595L35.6987 27.5673L36.0861 25.3716L-16.1079 16.1638ZM-16.8826 20.5551L-17.0763 21.653L35.1177 30.8608L35.3114 29.763L-16.8826 20.5551ZM21.2355 49.7739L22.2249 49.26L-2.20467 2.226L-3.19406 2.73989L21.2355 49.7739ZM24.2036 48.2322L26.1824 47.2045L1.75287 0.17045L-0.225903 1.19823L24.2036 48.2322ZM28.1612 46.1767L29.1506 45.6628L4.72102 -1.37122L3.73164 -0.857327L28.1612 46.1767ZM4.49259 45.5427L5.47699 46.0663L30.3634 -0.727621L29.379 -1.25115L4.49259 45.5427ZM7.44577 47.1133L9.41456 48.1604L34.301 1.3665L32.3322 0.319439L7.44577 47.1133ZM11.3833 49.2074L12.3677 49.731L37.2541 2.93709L36.2698 2.41356L11.3833 49.2074ZM50.9496 21.9726L50.766 20.8726L-1.51123 29.5955L-1.32768 30.6955L50.9496 21.9726ZM50.3989 18.6726L50.0319 16.4727L-2.24539 25.1956L-1.87831 27.3955L50.3989 18.6726ZM49.6648 14.2727L49.4812 13.1727L-2.79601 21.8956L-2.61247 22.9956L49.6648 14.2727ZM41.7485 36.5992L42.5507 35.8247L5.73897 -2.30532L4.93676 -1.53085L41.7485 36.5992ZM44.1551 34.2758L45.7595 32.7268L8.9478 -5.40321L7.34339 -3.85426L44.1551 34.2758ZM47.3639 31.1779L48.1661 30.4034L11.3544 -7.72662L10.5522 -6.95215L47.3639 31.1779ZM33.6923 -14.8683L32.5898 -15.0337L24.7257 37.3796L25.8282 37.545L33.6923 -14.8683ZM30.3847 -15.3645L28.1796 -15.6954L20.3155 36.7179L22.5206 37.0488L30.3847 -15.3645ZM25.9745 -16.0263L24.8719 -16.1917L17.0078 36.2216L18.1104 36.3871L25.9745 -16.0263ZM44.7597 -1.59822L44.2711 -2.60032L-3.36849 20.6261L-2.87993 21.6282L44.7597 -1.59822ZM43.294 -4.60452L42.3169 -6.60872L-5.32276 16.6177L-4.34563 18.6219L43.294 -4.60452ZM41.3397 -8.61291L40.8512 -9.61501L-6.78846 13.6114L-6.2999 14.6135L41.3397 -8.61291ZM-6.67398 -9.84695L-7.1723 -8.84967L40.2384 14.8406L40.7367 13.8433L-6.67398 -9.84695ZM-8.16895 -6.85512L-9.16559 -4.86056L38.2451 18.8297L39.2417 16.8351L-8.16895 -6.85512ZM-10.1622 -2.866L-10.6606 -1.86872L36.7501 21.8215L37.2484 20.8243L-10.1622 -2.866ZM13.0448 9.97641L20.4245 62.4601L48.0057 58.5819L60.4554 33.6667L13.0448 9.97641ZM17.0314 1.99818L64.671 -21.2282L17.6157 -117.743L-30.3793 -21.6921L17.0314 1.99818ZM20.9399 10.015L-26.6997 33.2414L-14.486 58.2929L13.0758 62.4283L20.9399 10.015ZM29.7603 11.3384L66.572 49.4684L143.849 -25.137L37.6244 -41.0749L29.7603 11.3384ZM23.3426 17.5342L-13.4691 -20.5959L-33.5221 -1.23616L-28.9346 26.257L23.3426 17.5342ZM24.8109 26.334L-0.0754629 73.1279L94.768 123.569L77.0882 17.6112L24.8109 26.334ZM16.9358 22.1458L41.8222 -24.6481L17.2273 -37.7284L-7.49375 -24.8882L16.9358 22.1458ZM9.02071 26.2569L-43.1733 17.0491L-61.8254 122.777L33.4503 73.2909L9.02071 26.2569ZM10.5701 17.4742L62.7641 26.6821L67.6052 -0.759002L47.7437 -20.3031L10.5701 17.4742ZM4.21258 11.2183L-3.16711 -41.2654L-109.494 -26.3148L-32.961 48.9956L4.21258 11.2183ZM5.66508 -42.5073L4.56106 -42.3521L19.3204 62.6154L20.4245 62.4601L5.66508 -42.5073ZM2.35301 -42.0416L0.144963 -41.7311L14.9043 63.2363L17.1124 62.9258L2.35301 -42.0416ZM-2.06309 -41.4206L-3.16711 -41.2654L11.5923 63.702L12.6963 63.5468L-2.06309 -41.4206ZM-32.961 48.9956L-32.1663 49.7776L42.1809 -25.777L41.3862 -26.559L-32.961 48.9956ZM-30.5769 51.3416L-28.9876 52.9055L45.3596 -22.649L43.7702 -24.213L-30.5769 51.3416ZM-27.3982 54.4695L-26.6035 55.2515L47.7437 -20.3031L46.949 -21.0851L-27.3982 54.4695ZM-41.6239 8.2664L-41.8176 9.36423L62.5705 27.7799L62.7641 26.6821L-41.6239 8.2664ZM-42.2049 11.5599L-42.5923 13.7556L61.7958 32.1712L62.1831 29.9756L-42.2049 11.5599ZM-42.9796 15.9512L-43.1733 17.0491L61.2147 35.4647L61.4084 34.3669L-42.9796 15.9512ZM33.4503 73.2909L34.4396 72.777L-14.4194 -21.291L-15.4088 -20.7771L33.4503 73.2909ZM36.4184 71.7492L38.3972 70.7215L-10.4619 -23.3466L-12.4407 -22.3188L36.4184 71.7492ZM40.376 69.6937L41.3653 69.1798L-7.49375 -24.8882L-8.48313 -24.3743L40.376 69.6937ZM-7.95061 68.9397L-6.96622 69.4632L42.8066 -24.1246L41.8222 -24.6481L-7.95061 68.9397ZM-4.99743 70.5102L-3.02864 71.5573L46.7442 -22.0304L44.7754 -23.0775L-4.99743 70.5102ZM-1.05986 72.6044L-0.0754629 73.1279L49.6973 -20.4598L48.713 -20.9834L-1.05986 72.6044ZM77.0882 17.6112L76.9047 16.5112L-27.6499 33.9569L-27.4663 35.0569L77.0882 17.6112ZM76.5376 14.3112L76.1705 12.1112L-28.384 29.557L-28.0169 31.757L76.5376 14.3112ZM75.8034 9.91127L75.6199 8.81129L-28.9346 26.257L-28.7511 27.357L75.8034 9.91127ZM60.1543 55.6642L60.9565 54.8897L-12.6669 -21.3703L-13.4691 -20.5959L60.1543 55.6642ZM62.5609 53.3408L64.1654 51.7918L-9.45805 -24.4682L-11.0625 -22.9193L62.5609 53.3408ZM65.7698 50.2429L66.572 49.4684L-7.05143 -26.7916L-7.85364 -26.0172L65.7698 50.2429ZM37.6244 -41.0749L36.5218 -41.2404L20.7936 63.5863L21.8962 63.7517L37.6244 -41.0749ZM34.3167 -41.5712L32.1116 -41.9021L16.3834 62.9246L18.5885 63.2554L34.3167 -41.5712ZM29.9065 -42.2329L28.804 -42.3983L13.0758 62.4283L14.1783 62.5937L29.9065 -42.2329ZM68.5795 -13.2114L68.091 -14.2135L-27.1883 32.2393L-26.6997 33.2414L68.5795 -13.2114ZM67.1138 -16.2177L66.1367 -18.2219L-29.1426 28.2309L-28.1654 30.2351L67.1138 -16.2177ZM65.1596 -20.2261L64.671 -21.2282L-30.6083 25.2246L-30.1197 26.2267L65.1596 -20.2261ZM-30.3793 -21.6921L-30.8776 -20.6948L63.9437 26.6857L64.442 25.6884L-30.3793 -21.6921ZM-31.8743 -18.7002L-32.8709 -16.7057L61.9504 30.6748L62.9471 28.6803L-31.8743 -18.7002ZM-33.8676 -14.7111L-34.3659 -13.7139L60.4554 33.6667L60.9538 32.6694L-33.8676 -14.7111Z" fill="#226FB7" mask="url(#path-1-inside-1_0_1)"/>
</g>
<g filter="url(#filter1_d_0_1)">
<path d="M173.045 9.97641L177.031 1.99818L180.94 10.015L189.76 11.3384L183.343 17.5342L184.811 26.334L176.936 22.1458L169.021 26.2569L170.57 17.4742L164.213 11.2183L173.045 9.97641Z" stroke="#386EB0" stroke-miterlimit="10" stroke-dasharray="2 2" shape-rendering="crispEdges"/>
</g>
<g filter="url(#filter2_d_0_1)">
<path d="M133.045 9.97641L137.031 1.99818L140.94 10.015L149.76 11.3384L143.343 17.5342L144.811 26.334L136.936 22.1458L129.021 26.2569L130.57 17.4742L124.213 11.2183L133.045 9.97641Z" stroke="#386EB0" stroke-miterlimit="10" stroke-dasharray="2 2" shape-rendering="crispEdges"/>
</g>
<g filter="url(#filter3_d_0_1)">
<path d="M93.0448 9.97641L97.0314 1.99818L100.94 10.015L109.76 11.3384L103.343 17.5342L104.811 26.334L96.9358 22.1458L89.0207 26.2569L90.5701 17.4742L84.2126 11.2183L93.0448 9.97641Z" stroke="#386EB0" stroke-miterlimit="10" stroke-dasharray="2 2" shape-rendering="crispEdges"/>
</g>
<g filter="url(#filter4_d_0_1)">
<path d="M53.0448 9.97641L57.0314 1.99818L60.9399 10.015L69.7603 11.3384L63.3426 17.5342L64.8109 26.334L56.9358 22.1458L49.0207 26.2569L50.5701 17.4742L44.2126 11.2183L53.0448 9.97641Z" stroke="#386EB0" stroke-miterlimit="10" stroke-dasharray="2 2" shape-rendering="crispEdges"/>
</g>
<defs>
<filter id="filter0_d_0_1" x="0.212585" y="1.99805" width="33.5477" height="32.3359" filterUnits="userSpaceOnUse" color-interpolation-filters="sRGB">
<feFlood flood-opacity="0" result="BackgroundImageFix"/>
<feColorMatrix in="SourceAlpha" type="matrix" values="0 0 0 0 0 0 0 0 0 0 0 0 0 0 0 0 0 0 127 0" result="hardAlpha"/>
<feOffset dy="4"/>
<feGaussianBlur stdDeviation="2"/>
<feComposite in2="hardAlpha" operator="out"/>
<feColorMatrix type="matrix" values="0 0 0 0 0 0 0 0 0 0 0 0 0 0 0 0 0 0 0.25 0"/>
<feBlend mode="normal" in2="BackgroundImageFix" result="effect1_dropShadow_0_1"/>
<feBlend mode="normal" in="SourceGraphic" in2="effect1_dropShadow_0_1" result="shape"/>
</filter>
<filter id="filter1_d_0_1" x="159.14" y="0.868652" width="35.6967" height="34.3828" filterUnits="userSpaceOnUse" color-interpolation-filters="sRGB">
<feFlood flood-opacity="0" result="BackgroundImageFix"/>
<feColorMatrix in="SourceAlpha" type="matrix" values="0 0 0 0 0 0 0 0 0 0 0 0 0 0 0 0 0 0 127 0" result="hardAlpha"/>
<feOffset dy="4"/>
<feGaussianBlur stdDeviation="2"/>
<feComposite in2="hardAlpha" operator="out"/>
<feColorMatrix type="matrix" values="0 0 0 0 0 0 0 0 0 0 0 0 0 0 0 0 0 0 0.25 0"/>
<feBlend mode="normal" in2="BackgroundImageFix" result="effect1_dropShadow_0_1"/>
<feBlend mode="normal" in="SourceGraphic" in2="effect1_dropShadow_0_1" result="shape"/>
</filter>
<filter id="filter2_d_0_1" x="119.14" y="0.868652" width="35.6967" height="34.3828" filterUnits="userSpaceOnUse" color-interpolation-filters="sRGB">
<feFlood flood-opacity="0" result="BackgroundImageFix"/>
<feColorMatrix in="SourceAlpha" type="matrix" values="0 0 0 0 0 0 0 0 0 0 0 0 0 0 0 0 0 0 127 0" result="hardAlpha"/>
<feOffset dy="4"/>
<feGaussianBlur stdDeviation="2"/>
<feComposite in2="hardAlpha" operator="out"/>
<feColorMatrix type="matrix" values="0 0 0 0 0 0 0 0 0 0 0 0 0 0 0 0 0 0 0.25 0"/>
<feBlend mode="normal" in2="BackgroundImageFix" result="effect1_dropShadow_0_1"/>
<feBlend mode="normal" in="SourceGraphic" in2="effect1_dropShadow_0_1" result="shape"/>
</filter>
<filter id="filter3_d_0_1" x="79.1399" y="0.868652" width="35.6967" height="34.3828" filterUnits="userSpaceOnUse" color-interpolation-filters="sRGB">
<feFlood flood-opacity="0" result="BackgroundImageFix"/>
<feColorMatrix in="SourceAlpha" type="matrix" values="0 0 0 0 0 0 0 0 0 0 0 0 0 0 0 0 0 0 127 0" result="hardAlpha"/>
<feOffset dy="4"/>
<feGaussianBlur stdDeviation="2"/>
<feComposite in2="hardAlpha" operator="out"/>
<feColorMatrix type="matrix" values="0 0 0 0 0 0 0 0 0 0 0 0 0 0 0 0 0 0 0.25 0"/>
<feBlend mode="normal" in2="BackgroundImageFix" result="effect1_dropShadow_0_1"/>
<feBlend mode="normal" in="SourceGraphic" in2="effect1_dropShadow_0_1" result="shape"/>
</filter>
<filter id="filter4_d_0_1" x="39.1399" y="0.868652" width="35.6967" height="34.3828" filterUnits="userSpaceOnUse" color-interpolation-filters="sRGB">
<feFlood flood-opacity="0" result="BackgroundImageFix"/>
<feColorMatrix in="SourceAlpha" type="matrix" values="0 0 0 0 0 0 0 0 0 0 0 0 0 0 0 0 0 0 127 0" result="hardAlpha"/>
<feOffset dy="4"/>
<feGaussianBlur stdDeviation="2"/>
<feComposite in2="hardAlpha" operator="out"/>
<feColorMatrix type="matrix" values="0 0 0 0 0 0 0 0 0 0 0 0 0 0 0 0 0 0 0.25 0"/>
<feBlend mode="normal" in2="BackgroundImageFix" result="effect1_dropShadow_0_1"/>
<feBlend mode="normal" in="SourceGraphic" in2="effect1_dropShadow_0_1" result="shape"/>
</filter>
</defs>
</svg>
