<svg width="739" height="227" viewBox="0 0 739 227" fill="none" xmlns="http://www.w3.org/2000/svg">
<rect y="38" width="739" height="189" rx="32" fill="#F3F4F5" fill-opacity="0.53"/>
<path d="M151.613 0H79.3872C62.6048 0 49 13.6048 49 30.3872V102.613C49 119.395 62.6048 133 79.3872 133H151.613C168.395 133 182 119.395 182 102.613V30.3872C182 13.6048 168.395 0 151.613 0Z" fill="white"/>
<g clip-path="url(#clip0_0_1)">
<path d="M130.533 63.0644C130.842 61.807 131 60.517 131 59.2271C131 50.2771 123.597 43 114.5 43C105.403 43 98 50.2771 98 59.2271C98 60.517 98.158 61.807 98.4703 63.0644C98.9112 65.6948 99.5174 67.8194 100.271 69.3767C101.891 72.7262 108.713 83.7827 111.847 88.8196C107.611 89.3508 105.646 91.1393 105.646 92.8303C105.646 94.8393 108.416 97 114.5 97C120.584 97 123.354 94.8393 123.354 92.8303C123.354 91.1429 121.389 89.3508 117.153 88.8196C120.287 83.7827 127.109 72.7262 128.729 69.3767C129.483 67.8194 130.089 65.6948 130.53 63.0644H130.533ZM120.805 92.8303C120.632 93.3036 118.501 94.496 114.5 94.496C110.499 94.496 108.32 93.2784 108.192 92.8484C108.306 92.4329 110.047 91.4103 113.332 91.2044C113.368 91.2658 113.401 91.3128 113.416 91.338C113.648 91.7066 114.059 91.9342 114.5 91.9342C114.941 91.9342 115.352 91.7066 115.584 91.338C115.599 91.3128 115.628 91.2658 115.668 91.2044C118.912 91.4067 120.65 92.4039 120.805 92.8303ZM102.567 68.3C101.92 66.9667 101.369 64.9975 100.972 62.6127C100.969 62.5802 100.961 62.5477 100.954 62.5152C100.686 61.4384 100.546 60.3328 100.546 59.2271C100.55 51.661 106.807 45.5076 114.5 45.5076C122.193 45.5076 128.45 51.6646 128.45 59.2271C128.45 60.3328 128.314 61.4384 128.042 62.5152C128.035 62.5477 128.028 62.5802 128.024 62.6127C127.627 65.0011 127.076 66.9667 126.43 68.3C124.791 71.682 117.322 83.7466 114.5 88.2812C111.675 83.7466 104.205 71.682 102.57 68.3H102.567Z" fill="#00B382"/>
<path d="M114.5 51.5342C109.617 51.5342 105.646 55.4401 105.646 60.2421C105.646 65.0441 109.617 68.95 114.5 68.95C119.383 68.95 123.354 65.0441 123.354 60.2421C123.354 55.4401 119.383 51.5342 114.5 51.5342ZM108.195 60.2421C108.195 56.824 111.024 54.0418 114.5 54.0418C117.976 54.0418 120.804 56.824 120.804 60.2421C120.804 63.6602 117.976 66.4424 114.5 66.4424C111.024 66.4424 108.195 63.6602 108.195 60.2421Z" fill="#00B382"/>
</g>
<path d="M660.077 92.4C660.077 87.8133 660.783 84.2533 662.197 81.72C663.61 79.1867 666.143 77.92 669.797 77.92C673.45 77.92 675.983 79.1867 677.397 81.72C678.81 84.2533 679.517 87.8133 679.517 92.4C679.517 97.0667 678.81 100.68 677.397 103.24C675.983 105.8 673.45 107.08 669.797 107.08C666.117 107.08 663.57 105.8 662.157 103.24C660.77 100.68 660.077 97.0667 660.077 92.4ZM676.757 92.4C676.757 89.92 676.583 87.8267 676.237 86.12C675.89 84.4133 675.21 83.04 674.197 82C673.183 80.96 671.717 80.44 669.797 80.44C667.877 80.44 666.41 80.96 665.397 82C664.383 83.04 663.703 84.4133 663.357 86.12C663.01 87.8267 662.837 89.92 662.837 92.4C662.837 94.96 663.01 97.1067 663.357 98.84C663.703 100.547 664.383 101.92 665.397 102.96C666.41 104 667.877 104.52 669.797 104.52C671.717 104.52 673.183 104 674.197 102.96C675.21 101.92 675.89 100.547 676.237 98.84C676.583 97.1067 676.757 94.96 676.757 92.4ZM684.605 85.64C684.792 83.2133 685.725 81.3067 687.405 79.92C689.112 78.5067 691.312 77.8 694.005 77.8C695.792 77.8 697.325 78.12 698.605 78.76C699.885 79.4 700.845 80.28 701.485 81.4C702.152 82.4933 702.485 83.7333 702.485 85.12C702.485 86.8 701.992 88.2533 701.005 89.48C700.018 90.7067 698.618 91.4667 696.805 91.76V91.96C698.698 92.3333 700.205 93.16 701.325 94.44C702.445 95.6933 703.005 97.3467 703.005 99.4C703.005 101.693 702.232 103.573 700.685 105.04C699.165 106.48 696.952 107.2 694.045 107.2C691.272 107.2 688.992 106.48 687.205 105.04C685.418 103.573 684.392 101.507 684.125 98.84H686.845C687.085 100.627 687.832 102.08 689.085 103.2C690.338 104.293 691.992 104.84 694.045 104.84C696.072 104.84 697.618 104.307 698.685 103.24C699.778 102.173 700.325 100.813 700.325 99.16C700.325 95.1067 697.405 93.08 691.565 93.08H690.685V90.72H691.605C697.045 90.72 699.765 88.9467 699.765 85.4C699.765 83.8533 699.258 82.6133 698.245 81.68C697.232 80.72 695.792 80.24 693.925 80.24C692.112 80.24 690.605 80.72 689.405 81.68C688.232 82.6133 687.538 83.9333 687.325 85.64H684.605Z" fill="#49B085" fill-opacity="0.3"/>
<defs>
<clipPath id="clip0_0_1">
<rect width="33" height="54" fill="white" transform="translate(98 43)"/>
</clipPath>
</defs>
</svg>
