<svg width="739" height="227" viewBox="0 0 739 227" fill="none" xmlns="http://www.w3.org/2000/svg">
<rect y="38" width="739" height="189" rx="32" fill="#F3F4F5" fill-opacity="0.53"/>
<g filter="url(#filter0_d_0_1)">
<path d="M151.613 0H79.3872C62.6048 0 49 13.6048 49 30.3872V102.613C49 119.395 62.6048 133 79.3872 133H151.613C168.395 133 182 119.395 182 102.613V30.3872C182 13.6048 168.395 0 151.613 0Z" fill="white"/>
<g clip-path="url(#clip0_0_1)">
<path d="M130.346 86H95.6537C92.5356 86 90 83.4582 90 80.3326V59.4646C90 56.3389 92.5356 53.7972 95.6537 53.7972H103.316L104.993 50.8573C105.996 49.094 107.879 48 109.903 48H121.881C123.904 48 125.787 49.094 126.79 50.8573L128.467 53.7972H130.346C133.464 53.7972 136 56.3389 136 59.4646V80.3296C136 83.4553 133.464 85.9971 130.346 85.9971V86ZM95.6537 55.8613C93.6711 55.8613 92.0591 57.4771 92.0591 59.4646V80.3296C92.0591 82.3171 93.6711 83.933 95.6537 83.933H130.343C132.326 83.933 133.938 82.3171 133.938 80.3296V59.4646C133.938 57.4771 132.326 55.8613 130.343 55.8613H127.267L124.999 51.8805C124.36 50.76 123.163 50.0641 121.878 50.0641H109.9C108.611 50.0641 107.417 50.76 106.779 51.8805L104.511 55.8613H95.6537ZM115.312 81.3646C109.005 81.3646 103.875 76.2221 103.875 69.9001C103.875 63.578 109.005 58.4355 115.312 58.4355C121.619 58.4355 126.749 63.578 126.749 69.9001C126.749 76.2221 121.619 81.3646 115.312 81.3646ZM115.312 60.4996C110.141 60.4996 105.934 64.7162 105.934 69.9001C105.934 75.0839 110.141 79.3005 115.312 79.3005C120.483 79.3005 124.69 75.0839 124.69 69.9001C124.69 64.7162 120.483 60.4996 115.312 60.4996ZM97.9657 65.1349C96.1214 65.1349 94.6241 63.6311 94.6241 61.7852C94.6241 59.9393 96.1243 58.4355 97.9657 58.4355C99.8071 58.4355 101.307 59.9393 101.307 61.7852C101.307 63.6311 99.8071 65.1349 97.9657 65.1349ZM97.9657 60.4996C97.2568 60.4996 96.6832 61.0775 96.6832 61.7852C96.6832 62.4929 97.2598 63.0708 97.9657 63.0708C98.6717 63.0708 99.2482 62.4929 99.2482 61.7852C99.2482 61.0775 98.6717 60.4996 97.9657 60.4996Z" fill="#00B382"/>
</g>
</g>
<path d="M660.33 92.4C660.33 87.8133 661.037 84.2533 662.45 81.72C663.864 79.1867 666.397 77.92 670.05 77.92C673.704 77.92 676.237 79.1867 677.65 81.72C679.064 84.2533 679.77 87.8133 679.77 92.4C679.77 97.0667 679.064 100.68 677.65 103.24C676.237 105.8 673.704 107.08 670.05 107.08C666.37 107.08 663.824 105.8 662.41 103.24C661.024 100.68 660.33 97.0667 660.33 92.4ZM677.01 92.4C677.01 89.92 676.837 87.8267 676.49 86.12C676.144 84.4133 675.464 83.04 674.45 82C673.437 80.96 671.97 80.44 670.05 80.44C668.13 80.44 666.664 80.96 665.65 82C664.637 83.04 663.957 84.4133 663.61 86.12C663.264 87.8267 663.09 89.92 663.09 92.4C663.09 94.96 663.264 97.1067 663.61 98.84C663.957 100.547 664.637 101.92 665.65 102.96C666.664 104 668.13 104.52 670.05 104.52C671.97 104.52 673.437 104 674.45 102.96C675.464 101.92 676.144 100.547 676.49 98.84C676.837 97.1067 677.01 94.96 677.01 92.4ZM684.419 104.8C689.326 101.12 693.112 97.8267 695.779 94.92C698.472 91.9867 699.819 89.12 699.819 86.32C699.819 84.48 699.352 83.0133 698.419 81.92C697.512 80.8 696.019 80.24 693.939 80.24C691.912 80.24 690.339 80.88 689.219 82.16C688.126 83.4133 687.512 85.0933 687.379 87.2H684.659C684.819 84.24 685.726 81.9467 687.379 80.32C689.059 78.6667 691.246 77.84 693.939 77.84C696.526 77.84 698.619 78.5733 700.219 80.04C701.819 81.48 702.619 83.5333 702.619 86.2C702.619 89.4267 701.272 92.56 698.579 95.6C695.912 98.6133 692.619 101.56 688.699 104.44H703.499V106.8H684.419V104.8Z" fill="#49B085" fill-opacity="0.3"/>
<defs>
<filter id="filter0_d_0_1" x="45" y="0" width="141" height="141" filterUnits="userSpaceOnUse" color-interpolation-filters="sRGB">
<feFlood flood-opacity="0" result="BackgroundImageFix"/>
<feColorMatrix in="SourceAlpha" type="matrix" values="0 0 0 0 0 0 0 0 0 0 0 0 0 0 0 0 0 0 127 0" result="hardAlpha"/>
<feOffset dy="4"/>
<feGaussianBlur stdDeviation="2"/>
<feComposite in2="hardAlpha" operator="out"/>
<feColorMatrix type="matrix" values="0 0 0 0 0.780392 0 0 0 0 0.858824 0 0 0 0 0.929412 0 0 0 1 0"/>
<feBlend mode="normal" in2="BackgroundImageFix" result="effect1_dropShadow_0_1"/>
<feBlend mode="normal" in="SourceGraphic" in2="effect1_dropShadow_0_1" result="shape"/>
</filter>
<clipPath id="clip0_0_1">
<rect width="46" height="38" fill="white" transform="translate(90 48)"/>
</clipPath>
</defs>
</svg>
