<svg width="739" height="227" viewBox="0 0 739 227" fill="none" xmlns="http://www.w3.org/2000/svg">
<rect y="38" width="739" height="189" rx="32" fill="#F3F4F5" fill-opacity="0.53"/>
<g filter="url(#filter0_d_0_1)">
<path d="M151.613 0H79.3872C62.6048 0 49 13.6048 49 30.3872V102.613C49 119.395 62.6048 133 79.3872 133H151.613C168.395 133 182 119.395 182 102.613V30.3872C182 13.6048 168.395 0 151.613 0Z" fill="white"/>
<g clip-path="url(#clip0_0_1)">
<path d="M115.5 43C113.644 43 111.569 44.5038 111.569 46.516V51.8252C102.142 53.6891 95 62.1224 95 72.2184C95 83.6771 104.197 93 115.5 93C126.803 93 136 83.6771 136 72.2184C136 62.1224 128.861 53.6891 119.431 51.8252V46.516C119.431 44.5038 117.356 43 115.5 43ZM97.3122 72.2184C97.3122 63.4215 103.424 56.0472 111.569 54.2186V58.2923C105.593 60.0291 101.209 65.6101 101.209 72.2184C101.209 80.207 107.62 86.7059 115.5 86.7059C123.38 86.7059 129.791 80.207 129.791 72.2184C129.791 65.6137 125.407 60.0291 119.431 58.2923V54.2186C127.576 56.0436 133.688 63.418 133.688 72.2184C133.688 82.3851 125.529 90.656 115.5 90.656C105.471 90.656 97.3122 82.3851 97.3122 72.2184ZM115.5 45.344C116.242 45.344 117.119 45.9794 117.119 46.516V67.2199C117.119 67.7564 116.242 68.3918 115.5 68.3918C114.758 68.3918 113.881 67.7564 113.881 67.2199V46.516C113.881 45.9794 114.758 45.344 115.5 45.344ZM115.5 70.7358C117.356 70.7358 119.431 69.232 119.431 67.2199V60.7528C124.112 62.4048 127.479 66.9198 127.479 72.222C127.479 78.9185 122.106 84.3654 115.5 84.3654C108.894 84.3654 103.521 78.9185 103.521 72.222C103.521 66.9233 106.888 62.4048 111.569 60.7528V67.2199C111.569 69.232 113.644 70.7358 115.5 70.7358Z" fill="#00B382"/>
</g>
</g>
<path d="M659.51 92.4C659.51 87.8133 660.217 84.2533 661.63 81.72C663.043 79.1867 665.577 77.92 669.23 77.92C672.883 77.92 675.417 79.1867 676.83 81.72C678.243 84.2533 678.95 87.8133 678.95 92.4C678.95 97.0667 678.243 100.68 676.83 103.24C675.417 105.8 672.883 107.08 669.23 107.08C665.55 107.08 663.003 105.8 661.59 103.24C660.203 100.68 659.51 97.0667 659.51 92.4ZM676.19 92.4C676.19 89.92 676.017 87.8267 675.67 86.12C675.323 84.4133 674.643 83.04 673.63 82C672.617 80.96 671.15 80.44 669.23 80.44C667.31 80.44 665.843 80.96 664.83 82C663.817 83.04 663.137 84.4133 662.79 86.12C662.443 87.8267 662.27 89.92 662.27 92.4C662.27 94.96 662.443 97.1067 662.79 98.84C663.137 100.547 663.817 101.92 664.83 102.96C665.843 104 667.31 104.52 669.23 104.52C671.15 104.52 672.617 104 673.63 102.96C674.643 101.92 675.323 100.547 675.67 98.84C676.017 97.1067 676.19 94.96 676.19 92.4ZM682.919 100.2V98.08L697.479 78.48H700.799V97.76H705.079V100.2H700.799V107H698.039V100.2H682.919ZM698.159 81.56L686.159 97.76H698.159V81.56Z" fill="#49B085" fill-opacity="0.3"/>
<defs>
<filter id="filter0_d_0_1" x="45" y="0" width="141" height="141" filterUnits="userSpaceOnUse" color-interpolation-filters="sRGB">
<feFlood flood-opacity="0" result="BackgroundImageFix"/>
<feColorMatrix in="SourceAlpha" type="matrix" values="0 0 0 0 0 0 0 0 0 0 0 0 0 0 0 0 0 0 127 0" result="hardAlpha"/>
<feOffset dy="4"/>
<feGaussianBlur stdDeviation="2"/>
<feComposite in2="hardAlpha" operator="out"/>
<feColorMatrix type="matrix" values="0 0 0 0 0.780392 0 0 0 0 0.858824 0 0 0 0 0.929412 0 0 0 1 0"/>
<feBlend mode="normal" in2="BackgroundImageFix" result="effect1_dropShadow_0_1"/>
<feBlend mode="normal" in="SourceGraphic" in2="effect1_dropShadow_0_1" result="shape"/>
</filter>
<clipPath id="clip0_0_1">
<rect width="41" height="50" fill="white" transform="translate(95 43)"/>
</clipPath>
</defs>
</svg>
