<svg width="739" height="227" viewBox="0 0 739 227" fill="none" xmlns="http://www.w3.org/2000/svg">
<rect y="38" width="739" height="189" rx="32" fill="#F3F4F5" fill-opacity="0.53"/>
<g filter="url(#filter0_d_0_1)">
<path d="M151.613 0H79.3872C62.6048 0 49 13.6048 49 30.3872V102.613C49 119.395 62.6048 133 79.3872 133H151.613C168.395 133 182 119.395 182 102.613V30.3872C182 13.6048 168.395 0 151.613 0Z" fill="white"/>
</g>
<g clip-path="url(#clip0_0_1)">
<path d="M104.635 84.0403C104.635 84.2928 104.727 84.5374 104.903 84.72C105.079 84.8986 105.321 85.0035 105.57 85.0035H126.262C126.767 84.9996 127.177 84.5918 127.197 84.083C127.2 83.951 127.235 82.611 126.959 80.77H142.065C142.571 80.77 142.981 80.3622 143 79.8496C143.011 79.5233 143.203 71.8409 138.452 67.4288C138.115 67.1181 137.61 67.0987 137.253 67.3783C137.196 67.421 131.671 71.6312 126.53 67.3822C126.177 67.0909 125.672 67.0987 125.327 67.4016C125.216 67.4987 123.706 68.862 122.392 71.4953C122.09 71.3632 121.729 71.3982 121.454 71.6079C121.228 71.7827 115.845 75.8414 110.726 71.6157C110.477 71.4098 110.148 71.3554 109.857 71.4486C109.194 70.0116 108.282 68.6056 107.018 67.4288C106.685 67.1181 106.179 67.0987 105.819 67.3783C105.765 67.421 100.237 71.6312 95.0954 67.3822C94.7429 67.0909 94.2333 67.0987 93.8924 67.4016C93.6893 67.5686 89.1149 71.6895 89 79.8068C89 80.0593 89.0919 80.304 89.2682 80.4865C89.4444 80.6691 89.6819 80.7662 89.9348 80.7662H104.949C104.773 81.776 104.65 82.8596 104.635 84.0403ZM126.028 69.3746C130.917 72.8313 135.905 70.4311 137.694 69.3358C140.475 72.3614 141.008 76.9327 141.104 78.8669H126.58C126.105 76.9327 125.269 74.7577 123.802 72.9129C124.576 71.1923 125.476 70.0038 126.028 69.3708V69.3746ZM110.225 73.6081C115.117 77.0648 120.101 74.6645 121.894 73.5732C124.676 76.5987 125.208 81.1701 125.304 83.1043H106.539C106.868 78.0125 109.175 74.816 110.225 73.6081ZM90.9041 78.8747C91.2336 73.779 93.5399 70.5825 94.5896 69.3785C99.4782 72.8352 104.466 70.4349 106.255 69.3397C107.217 70.3845 107.903 71.6118 108.401 72.8546C107.47 74.0198 106.179 76.0239 105.37 78.8747H90.9079H90.9041Z" fill="#00B382"/>
<path d="M91.4326 57.9718C91.4326 62.9161 95.4017 66.9359 100.279 66.9359C102.639 66.9359 104.857 65.9999 106.531 64.3065C106.761 64.0735 106.976 63.8249 107.179 63.5686C107.834 67.8642 111.492 71.1694 115.914 71.1694C118.274 71.1694 120.492 70.2334 122.166 68.54C123.561 67.1262 124.423 65.3241 124.675 63.3783C126.292 65.5338 128.844 66.9398 131.717 66.9398C134.077 66.9398 136.299 66.0038 137.97 64.3104C139.644 62.6131 140.563 60.3643 140.563 57.9718C140.563 53.0276 136.59 49.0039 131.713 49.0039C129.353 49.0039 127.131 49.9399 125.461 51.6372C124.066 53.0509 123.204 54.8531 122.955 56.7989C121.339 54.6394 118.787 53.2373 115.914 53.2373C113.554 53.2373 111.332 54.1734 109.657 55.8668C109.428 56.1037 109.213 56.3484 109.01 56.6047C108.359 52.3052 104.696 49 100.279 49C97.9187 49 95.6967 49.936 94.0263 51.6333C92.3521 53.3306 91.4326 55.5794 91.4326 57.9718ZM126.783 52.9694C128.104 51.6294 129.855 50.8915 131.717 50.8915C135.564 50.8915 138.694 54.0646 138.694 57.9641C138.694 59.8517 137.966 61.6266 136.648 62.9666C135.33 64.3065 133.579 65.0406 131.717 65.0406C127.871 65.0406 124.741 61.8674 124.737 57.9718C124.737 56.0843 125.465 54.3093 126.783 52.9694ZM110.979 57.2028C112.301 55.8629 114.052 55.1249 115.914 55.1249C119.76 55.1249 122.89 58.2981 122.89 62.1975C122.89 64.0851 122.162 65.8601 120.84 67.2C119.523 68.5361 117.772 69.274 115.914 69.274C112.067 69.274 108.937 66.1009 108.933 62.2053C108.933 60.3177 109.661 58.5428 110.979 57.2028ZM100.283 50.8954C104.125 50.8954 107.259 54.0685 107.259 57.968C107.259 59.8555 106.531 61.6305 105.209 62.9704C103.892 64.3104 102.141 65.0444 100.279 65.0444C96.4323 65.0444 93.3022 61.8713 93.2984 57.9757C93.2984 56.0881 94.0263 54.3132 95.3442 52.9732C96.666 51.6333 98.4168 50.8954 100.279 50.8954H100.283Z" fill="#00B382"/>
</g>
<path d="M665.936 92.4C665.936 87.8133 666.643 84.2533 668.056 81.72C669.469 79.1867 672.003 77.92 675.656 77.92C679.309 77.92 681.843 79.1867 683.256 81.72C684.669 84.2533 685.376 87.8133 685.376 92.4C685.376 97.0667 684.669 100.68 683.256 103.24C681.843 105.8 679.309 107.08 675.656 107.08C671.976 107.08 669.429 105.8 668.016 103.24C666.629 100.68 665.936 97.0667 665.936 92.4ZM682.616 92.4C682.616 89.92 682.443 87.8267 682.096 86.12C681.749 84.4133 681.069 83.04 680.056 82C679.043 80.96 677.576 80.44 675.656 80.44C673.736 80.44 672.269 80.96 671.256 82C670.243 83.04 669.563 84.4133 669.216 86.12C668.869 87.8267 668.696 89.92 668.696 92.4C668.696 94.96 668.869 97.1067 669.216 98.84C669.563 100.547 670.243 101.92 671.256 102.96C672.269 104 673.736 104.52 675.656 104.52C677.576 104.52 679.043 104 680.056 102.96C681.069 101.92 681.749 100.547 682.096 98.84C682.443 97.1067 682.616 94.96 682.616 92.4ZM689.224 80.84V78.32H696.024V107H693.184V80.84H689.224Z" fill="#49B085" fill-opacity="0.3"/>
<defs>
<filter id="filter0_d_0_1" x="45" y="0" width="141" height="141" filterUnits="userSpaceOnUse" color-interpolation-filters="sRGB">
<feFlood flood-opacity="0" result="BackgroundImageFix"/>
<feColorMatrix in="SourceAlpha" type="matrix" values="0 0 0 0 0 0 0 0 0 0 0 0 0 0 0 0 0 0 127 0" result="hardAlpha"/>
<feOffset dy="4"/>
<feGaussianBlur stdDeviation="2"/>
<feComposite in2="hardAlpha" operator="out"/>
<feColorMatrix type="matrix" values="0 0 0 0 0.780392 0 0 0 0 0.858824 0 0 0 0 0.929412 0 0 0 1 0"/>
<feBlend mode="normal" in2="BackgroundImageFix" result="effect1_dropShadow_0_1"/>
<feBlend mode="normal" in="SourceGraphic" in2="effect1_dropShadow_0_1" result="shape"/>
</filter>
<clipPath id="clip0_0_1">
<rect width="54" height="36" fill="white" transform="translate(89 49)"/>
</clipPath>
</defs>
</svg>
