<svg width="133" height="133" viewBox="0 0 133 133" fill="none" xmlns="http://www.w3.org/2000/svg">
<path d="M102.613 0H30.3872C13.6048 0 0 13.6048 0 30.3872V102.613C0 119.395 13.6048 133 30.3872 133H102.613C119.395 133 133 119.395 133 102.613V30.3872C133 13.6048 119.395 0 102.613 0Z" fill="white"/>
<g clip-path="url(#clip0_0_1)">
<path d="M66.1609 64.0843C66.5022 63.9432 66.7235 63.6114 66.7235 63.2377V40.9153C66.7235 40.4081 66.3222 40 65.8233 40C59.859 40 54.2136 42.3264 49.9261 46.5522C49.7535 46.72 49.656 46.9526 49.6523 47.1929C49.6485 47.437 49.7385 47.6696 49.9073 47.8412L65.1818 63.8708C65.3544 64.0538 65.5869 64.1492 65.827 64.1492C65.9395 64.1492 66.0558 64.1263 66.1646 64.0805L66.1609 64.0843ZM64.923 60.9799L51.8354 47.2425C55.474 43.9473 60.0616 42.0557 64.923 41.8497V60.9837V60.9799Z" fill="#2374BB"/>
<path d="M65.752 68.0092C65.7745 67.7461 65.6845 67.4791 65.5044 67.2884L50.2262 51.2589C50.0611 51.0834 49.8361 50.9843 49.596 50.9805C49.3597 50.9805 49.1271 51.0682 48.9583 51.236C44.472 55.66 42 61.5867 42 67.9253C42 72.7689 43.4554 77.4141 46.2125 81.3576C46.3888 81.6093 46.6664 81.7428 46.9477 81.7428C47.1278 81.7428 47.3078 81.6894 47.4654 81.575L65.3731 68.6728C65.5869 68.5203 65.7257 68.2762 65.7482 68.0092H65.752ZM47.1765 79.546C44.9671 76.0793 43.8005 72.0824 43.8005 67.9253C43.8005 62.3876 45.8449 57.197 49.5772 53.2001L63.4826 67.7956L47.1765 79.546Z" fill="#2374BB"/>
<path d="M92.7937 67.1999C92.7449 66.8223 92.6849 66.4448 92.6211 66.071C92.4748 65.251 92.2873 64.4501 92.0697 63.6988C91.976 63.3632 91.8709 63.0314 91.7621 62.7034C91.5258 61.994 91.2482 61.2847 90.9444 60.602C90.8131 60.3007 90.6743 60.007 90.5318 59.7134C90.2167 59.0765 89.8678 58.4434 89.4927 57.8293C89.3277 57.5624 89.1626 57.2954 88.9901 57.0399C88.5625 56.3991 88.0973 55.7737 87.6097 55.1825C87.4146 54.9461 87.2196 54.7134 87.0132 54.4808C86.5631 53.9774 86.083 53.4778 85.5803 53.0048C85.359 52.7951 85.1339 52.5891 84.9051 52.3908C84.3875 51.937 83.8436 51.4984 83.2922 51.0979C83.0408 50.9149 82.7895 50.7318 82.5344 50.564C81.9342 50.1597 81.3266 49.786 80.7301 49.4618C80.4526 49.3092 80.1675 49.1605 79.8824 49.0194C79.1509 48.6571 78.3932 48.3291 77.628 48.0469C77.3129 47.9324 76.9903 47.818 76.6715 47.7151C75.925 47.4786 75.1523 47.2765 74.372 47.1125C74.0119 47.04 73.6518 46.9714 73.2842 46.9142C72.4327 46.7807 71.5437 46.6968 70.6472 46.6586C70.3358 46.6472 70.0245 46.6357 69.7132 46.6357C68.9779 46.6357 68.3778 47.246 68.3778 47.9935V69.6141L51.0364 82.112C50.7476 82.3179 50.5488 82.6383 50.4888 82.9968C50.4325 83.3515 50.5113 83.71 50.7176 84.0036L50.8038 84.1219C51.1827 84.6558 51.5991 85.1897 52.083 85.7618C52.2818 85.9945 52.4806 86.2233 52.6869 86.4483C53.137 86.9403 53.6284 87.4285 54.1461 87.9014C54.3711 88.1073 54.6 88.3094 54.8363 88.5078C55.4777 89.0493 56.0741 89.507 56.6631 89.9151C56.8769 90.0638 57.0982 90.2011 57.3195 90.3384L57.447 90.4185C58.051 90.7999 58.6699 91.1546 59.3001 91.4749C59.5852 91.6199 59.874 91.761 60.1628 91.8945C60.8005 92.1881 61.4795 92.4589 62.241 92.722C62.5636 92.8327 62.8861 92.9394 63.2125 93.0348C64.0227 93.2751 64.7842 93.4619 65.5419 93.603C65.9095 93.6717 66.2809 93.7251 66.6523 93.7747C67.6613 93.912 68.6704 93.9844 69.6306 93.9844C69.6456 93.9844 69.7019 93.9844 69.7169 93.9844C70.137 93.9844 70.5534 93.973 70.9698 93.9501C72.0726 93.8891 73.1829 93.748 74.2745 93.5268C74.8222 93.4162 75.3736 93.2789 75.9625 93.1149C77.6542 92.6343 79.286 91.9669 80.8089 91.1241C82.3356 90.2812 83.7798 89.2515 85.1039 88.0616C85.8467 87.3979 86.5481 86.6848 87.1858 85.9449C88.3561 84.5948 89.3689 83.1265 90.1979 81.578C91.0232 80.0334 91.6796 78.3782 92.156 76.6506C92.3211 76.0442 92.4561 75.4797 92.5611 74.9305C92.7749 73.8283 92.9175 72.6994 92.9775 71.5706C92.9963 71.151 93.0113 70.7277 93.0113 70.3005V70.2357C93.0075 69.2479 92.9362 68.222 92.805 67.1847L92.7937 67.1999ZM91.1732 71.4905C91.117 72.5278 90.9894 73.5728 90.7906 74.5911C90.6931 75.0945 90.5693 75.617 90.4155 76.1777C89.9766 77.768 89.3727 79.2974 88.6112 80.7199C87.8497 82.1463 86.912 83.504 85.8316 84.7511C85.2427 85.4338 84.5938 86.0898 83.9073 86.7038C82.6845 87.8022 81.3528 88.7519 79.9462 89.5299C78.5433 90.3041 77.0391 90.9219 75.4749 91.3643C74.9309 91.5207 74.4208 91.6465 73.9144 91.7457C72.9091 91.9478 71.885 92.0813 70.8647 92.1347C70.4821 92.1538 70.0995 92.169 69.7132 92.169C69.6982 92.169 69.6644 92.169 69.6531 92.169C68.7491 92.169 67.8151 92.1004 66.8811 91.9745C66.5397 91.9288 66.1946 91.8792 65.857 91.8182C65.1593 91.6885 64.4579 91.5131 63.7076 91.2919C63.4076 91.2041 63.1075 91.105 62.8111 91.002C62.1059 90.7579 61.4795 90.51 60.8943 90.2392C60.6242 90.1172 60.3579 89.9837 60.0991 89.8502C59.5252 89.5566 58.9475 89.2248 58.3886 88.8739L58.2573 88.79C58.0585 88.6641 57.8559 88.5383 57.6646 88.4086C57.1245 88.0387 56.573 87.6115 55.9804 87.1119C55.7666 86.9288 55.5527 86.742 55.3427 86.5513C54.8625 86.1127 54.4124 85.6627 53.996 85.2088C53.8047 85.0029 53.6209 84.7855 53.4409 84.5757C53.077 84.1447 52.7507 83.7367 52.4581 83.3324L69.7957 70.8383C70.0357 70.6667 70.1745 70.3883 70.1745 70.0946V48.474C70.3096 48.474 70.4409 48.4854 70.5759 48.4893C71.4087 48.5236 72.2264 48.5999 73.0066 48.7219C73.3442 48.7753 73.6781 48.8363 74.0119 48.905C74.7284 49.0537 75.4411 49.2406 76.1313 49.4618C76.4276 49.5571 76.7202 49.6601 77.0128 49.7669C77.718 50.0262 78.4195 50.3275 79.0909 50.6631C79.3535 50.7928 79.6161 50.9301 79.8749 51.0712C80.4226 51.3725 80.9815 51.7119 81.5404 52.0895C81.7767 52.2459 82.0055 52.4099 82.2381 52.5815C82.7482 52.9553 83.2509 53.3557 83.7273 53.7752C83.9373 53.9621 84.1474 54.149 84.3537 54.3435C84.8189 54.7821 85.2652 55.2436 85.6779 55.7088C85.8654 55.9224 86.0492 56.136 86.2293 56.3534C86.6794 56.9026 87.107 57.4785 87.5046 58.0696C87.6659 58.3099 87.8197 58.554 87.966 58.798C88.3111 59.3625 88.6337 59.9498 88.9226 60.5333C89.0538 60.8003 89.1814 61.0711 89.3052 61.3495C89.5865 61.9826 89.8378 62.6348 90.0591 63.2907C90.1604 63.592 90.2542 63.8971 90.3442 64.2099C90.5468 64.9078 90.7156 65.6439 90.8506 66.399C90.9144 66.7422 90.9669 67.0893 91.0119 67.4402C91.1357 68.4013 91.1995 69.3471 91.2032 70.2548V70.3158C91.2032 70.7124 91.192 71.1015 91.1732 71.4905Z" fill="#2374BB"/>
</g>
<defs>
<clipPath id="clip0_0_1">
<rect width="51" height="54" fill="white" transform="translate(42 40)"/>
</clipPath>
</defs>
</svg>
