<svg width="133" height="133" viewBox="0 0 133 133" fill="none" xmlns="http://www.w3.org/2000/svg">
<path d="M102.613 0H30.3872C13.6048 0 0 13.6048 0 30.3872V102.613C0 119.395 13.6048 133 30.3872 133H102.613C119.395 133 133 119.395 133 102.613V30.3872C133 13.6048 119.395 0 102.613 0Z" fill="white"/>
<path d="M61.0364 94C73.1944 94 83.0728 83.8615 83.0728 71.3835C83.0728 65.4941 80.8718 60.1156 77.2558 56.0818L81.3959 51.8327C81.5531 52.0479 81.7627 52.2093 82.0509 52.2362L90.724 53.2043C90.724 53.2043 90.8026 53.2043 90.8288 53.2043C91.3004 53.2043 91.6935 52.8547 91.7459 52.3706C91.7983 51.8597 91.4315 51.3757 90.9336 51.3219L82.7846 50.4075L85.169 47.9604C85.169 47.9604 85.2476 47.9604 85.3 47.9604L93.9731 48.9285C93.9731 48.9285 94.0517 48.9285 94.0779 48.9285C94.5496 48.9285 94.9426 48.5789 94.995 48.0948C95.0474 47.5839 94.6806 47.0998 94.1827 47.046L86.846 46.2123L91.3004 41.6406C91.6673 41.2641 91.6673 40.6725 91.3004 40.296C90.9336 39.9195 90.3572 39.9195 89.9903 40.296L85.4311 44.9752L83.0204 38.6018C82.837 38.1177 82.3129 37.8756 81.8151 38.0639C81.3434 38.2521 81.1076 38.79 81.291 39.301L83.9637 46.3737C83.9637 46.3737 83.9899 46.4274 83.9899 46.4543L82.0247 48.4712L79.6141 41.8827C79.4307 41.3987 78.9066 41.1566 78.435 41.3179C77.9633 41.5062 77.7275 42.044 77.8847 42.5281L80.5574 49.8427C80.5574 49.8427 80.5836 49.8966 80.6098 49.9235L75.9457 54.7102C72.0153 50.9991 66.801 48.7402 61.0364 48.7402C48.9046 48.7402 39 58.8785 39 71.3566C39 83.8346 48.8784 93.9731 61.0364 93.9731V94ZM61.0364 50.6764C66.2769 50.6764 71.0458 52.7202 74.6356 56.0818L70.2859 60.546C67.8229 58.3139 64.6 56.9693 61.0626 56.9693C53.3328 56.9693 47.0442 63.4233 47.0442 71.3566C47.0442 79.2898 53.3328 85.744 61.0626 85.744C68.7924 85.744 75.081 79.2898 75.081 71.3566C75.081 67.7261 73.7709 64.4185 71.5961 61.8906L75.9457 57.4264C79.221 61.1106 81.2124 66.005 81.2124 71.3835C81.2124 82.8127 72.1725 92.0906 61.0364 92.0906C49.9003 92.0906 40.8604 82.8127 40.8604 71.3835C40.8604 59.9543 49.9265 50.6764 61.0364 50.6764ZM60.3813 72.0558C60.5648 72.244 60.8006 72.3248 61.0364 72.3248C61.2722 72.3248 61.5081 72.244 61.6915 72.0558L64.5476 69.1246C64.9406 69.77 65.1764 70.5498 65.1764 71.3835C65.1764 73.7231 63.316 75.6325 61.0364 75.6325C58.7568 75.6325 56.8964 73.7231 56.8964 71.3835C56.8964 69.0439 58.7568 67.1345 61.0364 67.1345C61.8487 67.1345 62.5824 67.3766 63.2374 67.78L60.3813 70.7112C60.0145 71.0877 60.0145 71.6793 60.3813 72.0558ZM64.5476 66.4354C63.5519 65.6824 62.3465 65.2521 61.0364 65.2521C57.7349 65.2521 55.0622 67.9951 55.0622 71.3835C55.0622 74.7719 57.7349 77.515 61.0364 77.515C64.3379 77.515 67.0106 74.7719 67.0106 71.3835C67.0106 70.0389 66.5652 68.775 65.8577 67.78L70.2597 63.262C72.0939 65.4402 73.1944 68.2909 73.1944 71.3835C73.1944 78.2679 67.7443 83.8885 61.0102 83.8885C54.2761 83.8885 48.826 78.2948 48.826 71.3835C48.826 64.4722 54.2761 58.8787 61.0102 58.8787C64.0235 58.8787 66.801 60.0081 68.9234 61.8906L64.5214 66.4085L64.5476 66.4354Z" fill="#226FB7"/>
</svg>
