<svg width="739" height="227" viewBox="0 0 739 227" fill="none" xmlns="http://www.w3.org/2000/svg">
<rect y="38" width="739" height="189" rx="32" fill="#F3F4F5" fill-opacity="0.53"/>
<path d="M660.077 92.4C660.077 87.8133 660.783 84.2533 662.197 81.72C663.61 79.1867 666.143 77.92 669.797 77.92C673.45 77.92 675.983 79.1867 677.397 81.72C678.81 84.2533 679.517 87.8133 679.517 92.4C679.517 97.0667 678.81 100.68 677.397 103.24C675.983 105.8 673.45 107.08 669.797 107.08C666.117 107.08 663.57 105.8 662.157 103.24C660.77 100.68 660.077 97.0667 660.077 92.4ZM676.757 92.4C676.757 89.92 676.583 87.8267 676.237 86.12C675.89 84.4133 675.21 83.04 674.197 82C673.183 80.96 671.717 80.44 669.797 80.44C667.877 80.44 666.41 80.96 665.397 82C664.383 83.04 663.703 84.4133 663.357 86.12C663.01 87.8267 662.837 89.92 662.837 92.4C662.837 94.96 663.01 97.1067 663.357 98.84C663.703 100.547 664.383 101.92 665.397 102.96C666.41 104 667.877 104.52 669.797 104.52C671.717 104.52 673.183 104 674.197 102.96C675.21 101.92 675.89 100.547 676.237 98.84C676.583 97.1067 676.757 94.96 676.757 92.4ZM684.605 85.64C684.792 83.2133 685.725 81.3067 687.405 79.92C689.112 78.5067 691.312 77.8 694.005 77.8C695.792 77.8 697.325 78.12 698.605 78.76C699.885 79.4 700.845 80.28 701.485 81.4C702.152 82.4933 702.485 83.7333 702.485 85.12C702.485 86.8 701.992 88.2533 701.005 89.48C700.018 90.7067 698.618 91.4667 696.805 91.76V91.96C698.698 92.3333 700.205 93.16 701.325 94.44C702.445 95.6933 703.005 97.3467 703.005 99.4C703.005 101.693 702.232 103.573 700.685 105.04C699.165 106.48 696.952 107.2 694.045 107.2C691.272 107.2 688.992 106.48 687.205 105.04C685.418 103.573 684.392 101.507 684.125 98.84H686.845C687.085 100.627 687.832 102.08 689.085 103.2C690.338 104.293 691.992 104.84 694.045 104.84C696.072 104.84 697.618 104.307 698.685 103.24C699.778 102.173 700.325 100.813 700.325 99.16C700.325 95.1067 697.405 93.08 691.565 93.08H690.685V90.72H691.605C697.045 90.72 699.765 88.9467 699.765 85.4C699.765 83.8533 699.258 82.6133 698.245 81.68C697.232 80.72 695.792 80.24 693.925 80.24C692.112 80.24 690.605 80.72 689.405 81.68C688.232 82.6133 687.538 83.9333 687.325 85.64H684.605Z" fill="#226FB7" fill-opacity="0.3"/>
<g filter="url(#filter0_d_0_1)">
<path d="M151.613 0H79.3872C62.6048 0 49 13.6048 49 30.3872V102.613C49 119.395 62.6048 133 79.3872 133H151.613C168.395 133 182 119.395 182 102.613V30.3872C182 13.6048 168.395 0 151.613 0Z" fill="white"/>
<g clip-path="url(#clip0_0_1)">
<path d="M139.604 47.835H128.188V55.0745H139.604V47.835ZM136.439 48.8035L133.898 50.8381L131.356 48.8035H136.439ZM138.641 54.1095H129.155V48.8035H129.808L133.898 52.0749L137.987 48.8035H138.641V54.1095Z" fill="#2374BB"/>
<path d="M112.526 88.5024C112.707 90.3245 113.524 92.042 114.825 93.3381C114.985 93.4983 115.197 93.5819 115.412 93.5819C115.496 93.5819 115.583 93.568 115.663 93.5436C115.958 93.4495 116.177 93.1987 116.229 92.8921C116.445 91.6727 117.492 90.7878 118.726 90.7878H122.885C123.939 90.7878 124.864 91.4254 125.246 92.4148C125.354 92.6935 125.601 92.8921 125.896 92.9374C126.192 92.9827 126.487 92.8643 126.675 92.6343C127.969 91.0073 128.57 88.9588 128.365 86.8719C127.993 83.1163 125.006 80.1201 121.258 79.7508C120.976 79.7229 120.701 79.709 120.444 79.709C118.201 79.709 116.049 80.6671 114.543 82.3324C113.016 84.0221 112.3 86.2135 112.526 88.5024ZM120.447 89.5824C118.785 89.5824 117.433 88.2272 117.433 86.5618C117.433 84.8965 118.785 83.5413 120.447 83.5413C122.11 83.5413 123.462 84.8965 123.462 86.5618C123.462 88.2272 122.11 89.5824 120.447 89.5824ZM115.781 83.4542C116.974 82.1338 118.674 81.3778 120.447 81.3778C120.653 81.3778 120.868 81.3882 121.098 81.4126C124.057 81.7053 126.418 84.0674 126.71 87.0357C126.832 88.269 126.599 89.4814 126.049 90.5509C125.392 89.7914 124.474 89.2967 123.459 89.1574C124.06 88.4571 124.429 87.5513 124.429 86.5584C124.429 84.36 122.645 82.5728 120.451 82.5728C118.257 82.5728 116.473 84.36 116.473 86.5584C116.473 87.614 116.89 88.5721 117.558 89.2863C116.56 89.5789 115.704 90.2269 115.162 91.1084C114.626 90.2757 114.289 89.3246 114.188 88.3317C114.008 86.52 114.578 84.7851 115.784 83.4507L115.781 83.4542Z" fill="#2374BB"/>
<path d="M91.7459 72.6299C91.9859 72.8668 92.3405 72.9365 92.6535 72.8076C92.963 72.6787 93.1647 72.3721 93.1647 72.0376V71.3025C93.1647 68.7244 95.0911 66.5644 97.6469 66.2787C97.6573 66.2787 97.6677 66.2787 97.6782 66.2752C97.8729 66.2543 98.0503 66.2439 98.2206 66.2439H105.467C108.253 66.2439 110.52 68.5119 110.52 71.3025V72.0376C110.52 72.3756 110.721 72.6787 111.031 72.8076C111.135 72.8494 111.243 72.8703 111.351 72.8703C111.566 72.8703 111.779 72.7867 111.935 72.6299C114.693 69.8985 116.212 66.2613 116.212 62.3941C116.212 54.4543 109.765 47.9951 101.84 47.9951C93.9158 47.9951 87.4654 54.4543 87.4654 62.3941C87.4654 66.2613 88.985 69.8985 91.7459 72.6299ZM102.605 64.5716H101.069C98.3806 64.1953 96.3012 61.882 96.3012 59.0844C96.3012 56.0255 98.784 53.538 101.837 53.538C104.89 53.538 107.376 56.0255 107.376 59.0844C107.376 61.882 105.297 64.1953 102.609 64.5716H102.605ZM101.837 49.6639C108.844 49.6639 114.543 55.3741 114.543 62.3907C114.543 65.1499 113.667 67.7768 112.046 69.9577C111.466 67.0939 109.063 64.8851 106.111 64.5995C107.759 63.3209 108.823 61.3246 108.823 59.0775C108.823 55.2208 105.69 52.0783 101.837 52.0783C97.9842 52.0783 94.8546 55.2173 94.8546 59.0775C94.8546 61.3246 95.9222 63.3209 97.5669 64.5995C97.546 64.5995 97.5252 64.5995 97.5008 64.6064C97.4661 64.6064 97.4313 64.6134 97.4 64.6169C94.4826 64.9722 92.191 67.1601 91.6277 69.9542C90.0073 67.7733 89.131 65.1464 89.131 62.3837C89.131 55.3636 94.8303 49.6569 101.837 49.6569V49.6639Z" fill="#2374BB"/>
<path d="M133.898 61.9173C139.837 61.9173 144.667 57.0781 144.667 51.1276C144.667 45.1771 139.837 40.3379 133.898 40.3379C127.958 40.3379 123.128 45.1771 123.128 51.1276C123.128 57.0781 127.958 61.9173 133.898 61.9173ZM133.898 42.0067C138.919 42.0067 143.001 46.0968 143.001 51.1241C143.001 56.1514 138.919 60.245 133.898 60.245C128.876 60.245 124.798 56.1549 124.798 51.1241C124.798 46.0933 128.88 42.0067 133.898 42.0067Z" fill="#2374BB"/>
<path d="M85 62.3944C85 71.6999 92.5527 79.267 101.84 79.267C104.337 79.267 106.827 78.6956 109.084 77.6121L112.377 81.2842C110.704 83.3885 109.936 86.0084 110.203 88.7328C110.687 93.5928 114.553 97.467 119.401 97.9477C119.742 97.9826 120.093 98 120.444 98C123.347 98 126.126 96.7632 128.073 94.6102C130.048 92.4257 130.977 89.5933 130.685 86.6424C130.205 81.7824 126.334 77.9083 121.487 77.4275C119.401 77.2184 117.276 77.6713 115.433 78.6956L112.498 75.4242C116.386 72.226 118.681 67.4217 118.681 62.3909C118.681 61.067 118.518 59.7327 118.198 58.4227L122.19 57.0082C124.408 61.4328 128.922 64.2513 133.898 64.2513C141.12 64.2513 146.997 58.3635 146.997 51.1239C146.997 43.8843 141.12 38 133.898 38C126.675 38 120.795 43.8878 120.795 51.1274C120.795 51.8102 120.851 52.5035 120.966 53.1968L116.793 54.674C113.907 49.0893 108.12 45.5218 101.84 45.5218C92.5527 45.5218 85 53.0888 85 62.3944ZM101.84 47.1906C107.728 47.1906 113.135 50.671 115.614 56.0571C115.795 56.4473 116.243 56.639 116.647 56.4961L122.193 54.5312C122.589 54.3918 122.819 53.9772 122.729 53.5661C122.551 52.7474 122.461 51.9287 122.461 51.1274C122.461 44.8111 127.59 39.6688 133.894 39.6688C140.198 39.6688 145.327 44.8076 145.327 51.1274C145.327 57.4472 140.198 62.586 133.894 62.586C129.325 62.586 125.201 59.8616 123.389 55.6425C123.215 55.2384 122.76 55.0398 122.346 55.1862L116.915 57.1093C116.497 57.2556 116.268 57.705 116.393 58.1301C116.803 59.5341 117.012 60.9695 117.012 62.3944C117.012 67.1987 114.682 71.7766 110.784 74.6438C110.593 74.7832 110.471 74.9957 110.447 75.2326C110.422 75.466 110.499 75.7029 110.655 75.8771L114.647 80.3261C114.922 80.6327 115.378 80.6919 115.722 80.4689C117.384 79.3854 119.369 78.8977 121.32 79.0893C125.382 79.4934 128.623 82.7405 129.026 86.8097C129.269 89.2867 128.494 91.6593 126.835 93.4918C125.204 95.2965 122.871 96.3312 120.44 96.3312C120.141 96.3312 119.846 96.3173 119.561 96.2894C115.499 95.8887 112.258 92.6417 111.855 88.5725C111.612 86.0955 112.387 83.7229 114.011 81.9252C114.035 81.9043 114.087 81.8521 114.108 81.8277C114.387 81.5106 114.383 81.0368 114.098 80.7198L109.89 76.0269C109.727 75.8458 109.501 75.7517 109.271 75.7517C109.139 75.7517 109.007 75.7831 108.882 75.8493C106.681 77.0129 104.309 77.6052 101.834 77.6052C93.4672 77.6052 86.6621 70.7836 86.6621 62.4013C86.6621 54.019 93.4741 47.1906 101.84 47.1906Z" fill="#2374BB"/>
</g>
</g>
<defs>
<filter id="filter0_d_0_1" x="45" y="0" width="141" height="141" filterUnits="userSpaceOnUse" color-interpolation-filters="sRGB">
<feFlood flood-opacity="0" result="BackgroundImageFix"/>
<feColorMatrix in="SourceAlpha" type="matrix" values="0 0 0 0 0 0 0 0 0 0 0 0 0 0 0 0 0 0 127 0" result="hardAlpha"/>
<feOffset dy="4"/>
<feGaussianBlur stdDeviation="2"/>
<feComposite in2="hardAlpha" operator="out"/>
<feColorMatrix type="matrix" values="0 0 0 0 0.780392 0 0 0 0 0.858824 0 0 0 0 0.929412 0 0 0 1 0"/>
<feBlend mode="normal" in2="BackgroundImageFix" result="effect1_dropShadow_0_1"/>
<feBlend mode="normal" in="SourceGraphic" in2="effect1_dropShadow_0_1" result="shape"/>
</filter>
<clipPath id="clip0_0_1">
<rect width="62" height="60" fill="white" transform="translate(85 38)"/>
</clipPath>
</defs>
</svg>
