<svg width="739" height="227" viewBox="0 0 739 227" fill="none" xmlns="http://www.w3.org/2000/svg">
<rect y="38" width="739" height="189" rx="32" fill="#F3F4F5" fill-opacity="0.53"/>
<g filter="url(#filter0_d_0_1)">
<path d="M151.613 0H79.3872C62.6048 0 49 13.6048 49 30.3872V102.613C49 119.395 62.6048 133 79.3872 133H151.613C168.395 133 182 119.395 182 102.613V30.3872C182 13.6048 168.395 0 151.613 0Z" fill="white"/>
<g clip-path="url(#clip0_0_1)">
<path d="M120.483 71.1614C120.656 71.2395 120.843 71.2808 121.029 71.2808C121.328 71.2808 121.627 71.1797 121.865 70.9776L135.543 59.6147C135.837 59.3712 136 59.0174 136 58.6406C136 58.2638 135.832 57.91 135.543 57.6665L121.865 46.299C121.482 45.982 120.941 45.9085 120.483 46.1198C120.026 46.3266 119.736 46.7815 119.736 47.2731V50.8295H96.2931C95.5788 50.8295 95 51.3992 95 52.1068V65.1744C95 65.8774 95.5788 66.4471 96.2931 66.4471H119.732V70.0035C119.732 70.4997 120.021 70.95 120.479 71.1614H120.483ZM97.5908 63.897V53.3796H121.029C121.744 53.3796 122.327 52.8098 122.327 52.1068V50.0208L132.7 58.6406L122.327 67.2604V65.1744C122.327 64.4714 121.748 63.9016 121.029 63.9016H97.5908V63.897Z" fill="#FDB714"/>
<path d="M95.4621 81.3334L109.14 92.7009C109.378 92.8984 109.677 92.9995 109.975 92.9995C110.162 92.9995 110.349 92.9628 110.521 92.8801C110.979 92.6687 111.268 92.2184 111.268 91.7222V88.1704H134.707C135.421 88.1704 136 87.6007 136 86.8977V73.8255C136 73.1225 135.421 72.5527 134.707 72.5527H111.268V68.9964C111.268 68.5002 110.974 68.0499 110.521 67.8385C110.064 67.6317 109.522 67.7007 109.14 68.0177L95.4621 79.3852C95.1727 79.6287 95 79.9825 95 80.3593C95 80.7361 95.1681 81.0899 95.4621 81.3334ZM108.678 71.7395V73.8255C108.678 74.5285 109.256 75.0983 109.971 75.0983H133.409V85.6203H109.971C109.256 85.6203 108.678 86.1901 108.678 86.8977V88.9837L98.305 80.3639L108.678 71.7441V71.7395Z" fill="#FDB714"/>
</g>
</g>
<path d="M660.33 92.4C660.33 87.8133 661.037 84.2533 662.45 81.72C663.864 79.1867 666.397 77.92 670.05 77.92C673.704 77.92 676.237 79.1867 677.65 81.72C679.064 84.2533 679.77 87.8133 679.77 92.4C679.77 97.0667 679.064 100.68 677.65 103.24C676.237 105.8 673.704 107.08 670.05 107.08C666.37 107.08 663.824 105.8 662.41 103.24C661.024 100.68 660.33 97.0667 660.33 92.4ZM677.01 92.4C677.01 89.92 676.837 87.8267 676.49 86.12C676.144 84.4133 675.464 83.04 674.45 82C673.437 80.96 671.97 80.44 670.05 80.44C668.13 80.44 666.664 80.96 665.65 82C664.637 83.04 663.957 84.4133 663.61 86.12C663.264 87.8267 663.09 89.92 663.09 92.4C663.09 94.96 663.264 97.1067 663.61 98.84C663.957 100.547 664.637 101.92 665.65 102.96C666.664 104 668.13 104.52 670.05 104.52C671.97 104.52 673.437 104 674.45 102.96C675.464 101.92 676.144 100.547 676.49 98.84C676.837 97.1067 677.01 94.96 677.01 92.4ZM684.419 104.8C689.326 101.12 693.112 97.8267 695.779 94.92C698.472 91.9867 699.819 89.12 699.819 86.32C699.819 84.48 699.352 83.0133 698.419 81.92C697.512 80.8 696.019 80.24 693.939 80.24C691.912 80.24 690.339 80.88 689.219 82.16C688.126 83.4133 687.512 85.0933 687.379 87.2H684.659C684.819 84.24 685.726 81.9467 687.379 80.32C689.059 78.6667 691.246 77.84 693.939 77.84C696.526 77.84 698.619 78.5733 700.219 80.04C701.819 81.48 702.619 83.5333 702.619 86.2C702.619 89.4267 701.272 92.56 698.579 95.6C695.912 98.6133 692.619 101.56 688.699 104.44H703.499V106.8H684.419V104.8Z" fill="#F2BA44" fill-opacity="0.3"/>
<defs>
<filter id="filter0_d_0_1" x="45" y="0" width="141" height="141" filterUnits="userSpaceOnUse" color-interpolation-filters="sRGB">
<feFlood flood-opacity="0" result="BackgroundImageFix"/>
<feColorMatrix in="SourceAlpha" type="matrix" values="0 0 0 0 0 0 0 0 0 0 0 0 0 0 0 0 0 0 127 0" result="hardAlpha"/>
<feOffset dy="4"/>
<feGaussianBlur stdDeviation="2"/>
<feComposite in2="hardAlpha" operator="out"/>
<feColorMatrix type="matrix" values="0 0 0 0 0.780392 0 0 0 0 0.858824 0 0 0 0 0.929412 0 0 0 1 0"/>
<feBlend mode="normal" in2="BackgroundImageFix" result="effect1_dropShadow_0_1"/>
<feBlend mode="normal" in="SourceGraphic" in2="effect1_dropShadow_0_1" result="shape"/>
</filter>
<clipPath id="clip0_0_1">
<rect width="41" height="47" fill="white" transform="translate(95 46)"/>
</clipPath>
</defs>
</svg>
