<svg width="739" height="227" viewBox="0 0 739 227" fill="none" xmlns="http://www.w3.org/2000/svg">
<rect y="38" width="739" height="189" rx="32" fill="#F3F4F5" fill-opacity="0.53"/>
<g filter="url(#filter0_d_0_1)">
<path d="M151.613 0H79.3872C62.6048 0 49 13.6048 49 30.3872V102.613C49 119.395 62.6048 133 79.3872 133H151.613C168.395 133 182 119.395 182 102.613V30.3872C182 13.6048 168.395 0 151.613 0Z" fill="white"/>
<g clip-path="url(#clip0_0_1)">
<path d="M130.005 38.8358C130.106 38.8106 130.177 38.7896 130.164 38.7896C130.273 38.777 130.389 38.7477 130.49 38.7057C131.407 38.3237 132 37.438 132 36.4432C132 35.0958 130.907 33.9961 129.567 33.9961C129.388 33.9961 129.204 34.0171 128.975 34.0716C128.478 34.206 127.965 34.3655 127.402 34.5544L126.997 34.6929C126.571 34.844 126.154 35.0035 125.749 35.1714L125.678 35.2008C125.62 35.2218 125.566 35.2469 125.52 35.2679C125.073 35.461 124.635 35.6625 124.172 35.8976L123.855 36.0613C123.509 36.246 123.175 36.4306 122.841 36.6279L122.57 36.7874C122.178 37.0267 121.798 37.2785 121.431 37.5346L121.222 37.6899C120.922 37.904 120.634 38.1264 120.358 38.3447C120.271 38.4161 120.179 38.4874 120.087 38.563C119.762 38.8316 119.44 39.1086 119.119 39.4109L119.052 39.478C118.777 39.7383 118.518 39.9985 118.264 40.263L118.047 40.4938C117.8 40.7583 117.563 41.0311 117.346 41.2913L117.271 41.3795C117.024 41.6775 116.795 41.9713 116.574 42.2736L116.398 42.5128C116.223 42.7563 116.056 42.9997 115.885 43.2642L115.777 43.4237C115.585 43.7175 115.405 44.0113 115.213 44.3513C115.176 44.4143 115.138 44.4772 115.117 44.5192C114.984 44.7543 114.855 44.9851 114.742 45.2034L114.621 45.4343C114.479 45.7155 114.346 45.9925 114.216 46.2696L114.145 46.4291C114.045 46.6557 113.945 46.8824 113.857 47.0923L113.761 47.3273C113.661 47.5792 113.565 47.8226 113.482 48.0619C113.473 48.0829 113.465 48.1039 113.461 48.1249C113.436 48.2004 113.407 48.2718 113.386 48.3431H111.683C105.249 48.3473 100 53.6194 100 60.1045V81.2347C100 87.7198 105.249 92.9961 111.696 92.9961H118.543C124.99 92.9961 130.235 87.7156 130.235 81.2347V60.1045C130.235 53.6865 125.103 48.4565 118.748 48.3473C122.182 41.1822 128.649 39.1842 130.005 38.8358ZM127.915 81.2389C127.915 86.4396 123.709 90.6707 118.539 90.6707H111.692C106.522 90.6707 102.316 86.4354 102.312 81.2347V69.4775H127.915V81.2347V81.2389ZM115.906 49.0987C115.773 49.4555 115.818 49.8584 116.035 50.1732C116.252 50.4881 116.607 50.6769 116.987 50.6769H118.535C123.705 50.6769 127.911 54.908 127.911 60.1087V67.1521H102.316V60.1087C102.316 54.908 106.526 50.6769 111.696 50.6769H114.237C114.746 50.6769 115.193 50.3453 115.343 49.8584C115.435 49.552 115.535 49.2372 115.656 48.9014C115.656 48.8972 115.656 48.893 115.66 48.8888C115.664 48.8804 115.668 48.872 115.668 48.8678C115.743 48.6537 115.831 48.4355 115.919 48.2172L116.006 47.9989C116.086 47.8017 116.173 47.6002 116.265 47.3945L116.328 47.2518C116.44 47.0041 116.561 46.7565 116.691 46.5004L116.799 46.2948C116.903 46.0891 117.02 45.8834 117.15 45.6483L117.246 45.4804C117.396 45.2202 117.554 44.9642 117.73 44.6913L117.826 44.5444C117.972 44.3219 118.126 44.0995 118.276 43.8854L118.435 43.6713C118.631 43.4069 118.835 43.1424 119.044 42.8906L119.119 42.8024C119.315 42.5632 119.528 42.3281 119.749 42.0889L119.949 41.879C120.171 41.6439 120.404 41.4131 120.663 41.1654L120.726 41.1025C120.993 40.8506 121.276 40.6072 121.568 40.3679C121.643 40.3049 121.723 40.242 121.802 40.179C122.048 39.9817 122.299 39.7886 122.582 39.5872L122.77 39.4486C123.091 39.222 123.434 38.9995 123.78 38.7854L124.03 38.6385C124.322 38.4622 124.627 38.2943 124.982 38.1096L125.228 37.9795C125.637 37.7738 126.033 37.5892 126.45 37.4087L126.646 37.3289C127.01 37.1778 127.389 37.0351 127.769 36.8966L128.149 36.7664C128.666 36.5901 129.138 36.4474 129.58 36.3299C129.642 36.3299 129.693 36.3845 129.693 36.4474C129.693 36.4852 129.676 36.5104 129.663 36.5272C129.567 36.5482 129.48 36.5734 129.421 36.5901C127.794 37.0057 119.503 39.5704 115.919 49.1029L115.906 49.0987Z" fill="#FDB714"/>
<path d="M115.113 52.1924C113.069 52.1966 111.408 53.8756 111.404 55.9282V62.8204C111.404 64.8772 113.069 66.552 115.117 66.5562C117.162 66.5562 118.831 64.8772 118.835 62.8204V55.9282C118.835 53.8882 117.195 52.226 115.18 52.1924C115.159 52.1924 115.138 52.1924 115.113 52.1924ZM116.519 55.9324V62.8162C116.519 63.5928 115.889 64.2266 115.117 64.2266C114.346 64.2266 113.72 63.5928 113.72 62.8162V55.9282C113.72 55.1642 114.329 54.5388 115.084 54.5178C115.097 54.5178 115.109 54.5178 115.122 54.5178C115.894 54.5178 116.519 55.1516 116.524 55.9282L116.519 55.9324Z" fill="#FDB714"/>
</g>
</g>
<path d="M660.077 92.4C660.077 87.8133 660.783 84.2533 662.197 81.72C663.61 79.1867 666.143 77.92 669.797 77.92C673.45 77.92 675.983 79.1867 677.397 81.72C678.81 84.2533 679.517 87.8133 679.517 92.4C679.517 97.0667 678.81 100.68 677.397 103.24C675.983 105.8 673.45 107.08 669.797 107.08C666.117 107.08 663.57 105.8 662.157 103.24C660.77 100.68 660.077 97.0667 660.077 92.4ZM676.757 92.4C676.757 89.92 676.583 87.8267 676.237 86.12C675.89 84.4133 675.21 83.04 674.197 82C673.183 80.96 671.717 80.44 669.797 80.44C667.877 80.44 666.41 80.96 665.397 82C664.383 83.04 663.703 84.4133 663.357 86.12C663.01 87.8267 662.837 89.92 662.837 92.4C662.837 94.96 663.01 97.1067 663.357 98.84C663.703 100.547 664.383 101.92 665.397 102.96C666.41 104 667.877 104.52 669.797 104.52C671.717 104.52 673.183 104 674.197 102.96C675.21 101.92 675.89 100.547 676.237 98.84C676.583 97.1067 676.757 94.96 676.757 92.4ZM684.605 85.64C684.792 83.2133 685.725 81.3067 687.405 79.92C689.112 78.5067 691.312 77.8 694.005 77.8C695.792 77.8 697.325 78.12 698.605 78.76C699.885 79.4 700.845 80.28 701.485 81.4C702.152 82.4933 702.485 83.7333 702.485 85.12C702.485 86.8 701.992 88.2533 701.005 89.48C700.018 90.7067 698.618 91.4667 696.805 91.76V91.96C698.698 92.3333 700.205 93.16 701.325 94.44C702.445 95.6933 703.005 97.3467 703.005 99.4C703.005 101.693 702.232 103.573 700.685 105.04C699.165 106.48 696.952 107.2 694.045 107.2C691.272 107.2 688.992 106.48 687.205 105.04C685.418 103.573 684.392 101.507 684.125 98.84H686.845C687.085 100.627 687.832 102.08 689.085 103.2C690.338 104.293 691.992 104.84 694.045 104.84C696.072 104.84 697.618 104.307 698.685 103.24C699.778 102.173 700.325 100.813 700.325 99.16C700.325 95.1067 697.405 93.08 691.565 93.08H690.685V90.72H691.605C697.045 90.72 699.765 88.9467 699.765 85.4C699.765 83.8533 699.258 82.6133 698.245 81.68C697.232 80.72 695.792 80.24 693.925 80.24C692.112 80.24 690.605 80.72 689.405 81.68C688.232 82.6133 687.538 83.9333 687.325 85.64H684.605Z" fill="#F2BA44" fill-opacity="0.3"/>
<defs>
<filter id="filter0_d_0_1" x="45" y="0" width="141" height="141" filterUnits="userSpaceOnUse" color-interpolation-filters="sRGB">
<feFlood flood-opacity="0" result="BackgroundImageFix"/>
<feColorMatrix in="SourceAlpha" type="matrix" values="0 0 0 0 0 0 0 0 0 0 0 0 0 0 0 0 0 0 127 0" result="hardAlpha"/>
<feOffset dy="4"/>
<feGaussianBlur stdDeviation="2"/>
<feComposite in2="hardAlpha" operator="out"/>
<feColorMatrix type="matrix" values="0 0 0 0 0.780392 0 0 0 0 0.858824 0 0 0 0 0.929412 0 0 0 1 0"/>
<feBlend mode="normal" in2="BackgroundImageFix" result="effect1_dropShadow_0_1"/>
<feBlend mode="normal" in="SourceGraphic" in2="effect1_dropShadow_0_1" result="shape"/>
</filter>
<clipPath id="clip0_0_1">
<rect width="32" height="59" fill="white" transform="translate(100 34)"/>
</clipPath>
</defs>
</svg>
