<svg width="739" height="227" viewBox="0 0 739 227" fill="none" xmlns="http://www.w3.org/2000/svg">
<rect y="38" width="739" height="189" rx="32" fill="#F3F4F5" fill-opacity="0.53"/>
<g filter="url(#filter0_d_0_1)">
<path d="M151.613 0H79.3872C62.6048 0 49 13.6048 49 30.3872V102.613C49 119.395 62.6048 133 79.3872 133H151.613C168.395 133 182 119.395 182 102.613V30.3872C182 13.6048 168.395 0 151.613 0Z" fill="white"/>
<g clip-path="url(#clip0_0_1)">
<path d="M115.161 64.0843C115.502 63.9432 115.724 63.6114 115.724 63.2377V40.9153C115.724 40.4081 115.322 40 114.823 40C108.859 40 103.214 42.3264 98.9261 46.5522C98.7535 46.72 98.656 46.9526 98.6523 47.1929C98.6485 47.437 98.7385 47.6696 98.9073 47.8412L114.182 63.8708C114.354 64.0538 114.587 64.1492 114.827 64.1492C114.94 64.1492 115.056 64.1263 115.165 64.0805L115.161 64.0843ZM113.923 60.9799L100.835 47.2425C104.474 43.9473 109.062 42.0557 113.923 41.8497V60.9837V60.9799Z" fill="#2374BB"/>
<path d="M114.752 68.0092C114.774 67.7461 114.684 67.4791 114.504 67.2884L99.2262 51.2589C99.0611 51.0834 98.8361 50.9843 98.596 50.9805C98.3597 50.9805 98.1271 51.0682 97.9583 51.236C93.472 55.66 91 61.5867 91 67.9253C91 72.7689 92.4554 77.4141 95.2125 81.3576C95.3888 81.6093 95.6664 81.7428 95.9477 81.7428C96.1278 81.7428 96.3078 81.6894 96.4654 81.575L114.373 68.6728C114.587 68.5203 114.726 68.2762 114.748 68.0092H114.752ZM96.1765 79.546C93.9671 76.0793 92.8005 72.0824 92.8005 67.9253C92.8005 62.3876 94.8449 57.197 98.5772 53.2001L112.483 67.7956L96.1765 79.546Z" fill="#2374BB"/>
<path d="M141.794 67.1999C141.745 66.8223 141.685 66.4448 141.621 66.071C141.475 65.251 141.287 64.4501 141.07 63.6988C140.976 63.3632 140.871 63.0314 140.762 62.7034C140.526 61.994 140.248 61.2847 139.944 60.602C139.813 60.3007 139.674 60.007 139.532 59.7134C139.217 59.0765 138.868 58.4434 138.493 57.8293C138.328 57.5624 138.163 57.2954 137.99 57.0399C137.562 56.3991 137.097 55.7737 136.61 55.1825C136.415 54.9461 136.22 54.7134 136.013 54.4808C135.563 53.9774 135.083 53.4778 134.58 53.0048C134.359 52.7951 134.134 52.5891 133.905 52.3908C133.387 51.937 132.844 51.4984 132.292 51.0979C132.041 50.9149 131.79 50.7318 131.534 50.564C130.934 50.1597 130.327 49.786 129.73 49.4618C129.453 49.3092 129.167 49.1605 128.882 49.0194C128.151 48.6571 127.393 48.3291 126.628 48.0469C126.313 47.9324 125.99 47.818 125.671 47.7151C124.925 47.4786 124.152 47.2765 123.372 47.1125C123.012 47.04 122.652 46.9714 122.284 46.9142C121.433 46.7807 120.544 46.6968 119.647 46.6586C119.336 46.6472 119.024 46.6357 118.713 46.6357C117.978 46.6357 117.378 47.246 117.378 47.9935V69.6141L100.036 82.112C99.7476 82.3179 99.5488 82.6383 99.4888 82.9968C99.4325 83.3515 99.5113 83.71 99.7176 84.0036L99.8038 84.1219C100.183 84.6558 100.599 85.1897 101.083 85.7618C101.282 85.9945 101.481 86.2233 101.687 86.4483C102.137 86.9403 102.628 87.4285 103.146 87.9014C103.371 88.1073 103.6 88.3094 103.836 88.5078C104.478 89.0493 105.074 89.507 105.663 89.9151C105.877 90.0638 106.098 90.2011 106.32 90.3384L106.447 90.4185C107.051 90.7999 107.67 91.1546 108.3 91.4749C108.585 91.6199 108.874 91.761 109.163 91.8945C109.801 92.1881 110.479 92.4589 111.241 92.722C111.564 92.8327 111.886 92.9394 112.212 93.0348C113.023 93.2751 113.784 93.4619 114.542 93.603C114.91 93.6717 115.281 93.7251 115.652 93.7747C116.661 93.912 117.67 93.9844 118.631 93.9844C118.646 93.9844 118.702 93.9844 118.717 93.9844C119.137 93.9844 119.553 93.973 119.97 93.9501C121.073 93.8891 122.183 93.748 123.274 93.5268C123.822 93.4162 124.374 93.2789 124.962 93.1149C126.654 92.6343 128.286 91.9669 129.809 91.1241C131.336 90.2812 132.78 89.2515 134.104 88.0616C134.847 87.3979 135.548 86.6848 136.186 85.9449C137.356 84.5948 138.369 83.1265 139.198 81.578C140.023 80.0334 140.68 78.3782 141.156 76.6506C141.321 76.0442 141.456 75.4797 141.561 74.9305C141.775 73.8283 141.917 72.6994 141.977 71.5706C141.996 71.151 142.011 70.7277 142.011 70.3005V70.2357C142.008 69.2479 141.936 68.222 141.805 67.1847L141.794 67.1999ZM140.173 71.4905C140.117 72.5278 139.989 73.5728 139.791 74.5911C139.693 75.0945 139.569 75.617 139.416 76.1777C138.977 77.768 138.373 79.2974 137.611 80.7199C136.85 82.1463 135.912 83.504 134.832 84.7511C134.243 85.4338 133.594 86.0898 132.907 86.7038C131.684 87.8022 130.353 88.7519 128.946 89.5299C127.543 90.3041 126.039 90.9219 124.475 91.3643C123.931 91.5207 123.421 91.6465 122.914 91.7457C121.909 91.9478 120.885 92.0813 119.865 92.1347C119.482 92.1538 119.1 92.169 118.713 92.169C118.698 92.169 118.664 92.169 118.653 92.169C117.749 92.169 116.815 92.1004 115.881 91.9745C115.54 91.9288 115.195 91.8792 114.857 91.8182C114.159 91.6885 113.458 91.5131 112.708 91.2919C112.408 91.2041 112.107 91.105 111.811 91.002C111.106 90.7579 110.479 90.51 109.894 90.2392C109.624 90.1172 109.358 89.9837 109.099 89.8502C108.525 89.5566 107.947 89.2248 107.389 88.8739L107.257 88.79C107.058 88.6641 106.856 88.5383 106.665 88.4086C106.124 88.0387 105.573 87.6115 104.98 87.1119C104.767 86.9288 104.553 86.742 104.343 86.5513C103.863 86.1127 103.412 85.6627 102.996 85.2088C102.805 85.0029 102.621 84.7855 102.441 84.5757C102.077 84.1447 101.751 83.7367 101.458 83.3324L118.796 70.8383C119.036 70.6667 119.175 70.3883 119.175 70.0946V48.474C119.31 48.474 119.441 48.4854 119.576 48.4893C120.409 48.5236 121.226 48.5999 122.007 48.7219C122.344 48.7753 122.678 48.8363 123.012 48.905C123.728 49.0537 124.441 49.2406 125.131 49.4618C125.428 49.5571 125.72 49.6601 126.013 49.7669C126.718 50.0262 127.419 50.3275 128.091 50.6631C128.353 50.7928 128.616 50.9301 128.875 51.0712C129.423 51.3725 129.981 51.7119 130.54 52.0895C130.777 52.2459 131.006 52.4099 131.238 52.5815C131.748 52.9553 132.251 53.3557 132.727 53.7752C132.937 53.9621 133.147 54.149 133.354 54.3435C133.819 54.7821 134.265 55.2436 134.678 55.7088C134.865 55.9224 135.049 56.136 135.229 56.3534C135.679 56.9026 136.107 57.4785 136.505 58.0696C136.666 58.3099 136.82 58.554 136.966 58.798C137.311 59.3625 137.634 59.9498 137.923 60.5333C138.054 60.8003 138.181 61.0711 138.305 61.3495C138.587 61.9826 138.838 62.6348 139.059 63.2907C139.16 63.592 139.254 63.8971 139.344 64.2099C139.547 64.9078 139.716 65.6439 139.851 66.399C139.914 66.7422 139.967 67.0893 140.012 67.4402C140.136 68.4013 140.199 69.3471 140.203 70.2548V70.3158C140.203 70.7124 140.192 71.1015 140.173 71.4905Z" fill="#2374BB"/>
</g>
</g>
<path d="M660.33 92.4C660.33 87.8133 661.037 84.2533 662.45 81.72C663.864 79.1867 666.397 77.92 670.05 77.92C673.704 77.92 676.237 79.1867 677.65 81.72C679.064 84.2533 679.77 87.8133 679.77 92.4C679.77 97.0667 679.064 100.68 677.65 103.24C676.237 105.8 673.704 107.08 670.05 107.08C666.37 107.08 663.824 105.8 662.41 103.24C661.024 100.68 660.33 97.0667 660.33 92.4ZM677.01 92.4C677.01 89.92 676.837 87.8267 676.49 86.12C676.144 84.4133 675.464 83.04 674.45 82C673.437 80.96 671.97 80.44 670.05 80.44C668.13 80.44 666.664 80.96 665.65 82C664.637 83.04 663.957 84.4133 663.61 86.12C663.264 87.8267 663.09 89.92 663.09 92.4C663.09 94.96 663.264 97.1067 663.61 98.84C663.957 100.547 664.637 101.92 665.65 102.96C666.664 104 668.13 104.52 670.05 104.52C671.97 104.52 673.437 104 674.45 102.96C675.464 101.92 676.144 100.547 676.49 98.84C676.837 97.1067 677.01 94.96 677.01 92.4ZM684.419 104.8C689.326 101.12 693.112 97.8267 695.779 94.92C698.472 91.9867 699.819 89.12 699.819 86.32C699.819 84.48 699.352 83.0133 698.419 81.92C697.512 80.8 696.019 80.24 693.939 80.24C691.912 80.24 690.339 80.88 689.219 82.16C688.126 83.4133 687.512 85.0933 687.379 87.2H684.659C684.819 84.24 685.726 81.9467 687.379 80.32C689.059 78.6667 691.246 77.84 693.939 77.84C696.526 77.84 698.619 78.5733 700.219 80.04C701.819 81.48 702.619 83.5333 702.619 86.2C702.619 89.4267 701.272 92.56 698.579 95.6C695.912 98.6133 692.619 101.56 688.699 104.44H703.499V106.8H684.419V104.8Z" fill="#226FB7" fill-opacity="0.3"/>
<defs>
<filter id="filter0_d_0_1" x="45" y="0" width="141" height="141" filterUnits="userSpaceOnUse" color-interpolation-filters="sRGB">
<feFlood flood-opacity="0" result="BackgroundImageFix"/>
<feColorMatrix in="SourceAlpha" type="matrix" values="0 0 0 0 0 0 0 0 0 0 0 0 0 0 0 0 0 0 127 0" result="hardAlpha"/>
<feOffset dy="4"/>
<feGaussianBlur stdDeviation="2"/>
<feComposite in2="hardAlpha" operator="out"/>
<feColorMatrix type="matrix" values="0 0 0 0 0.780392 0 0 0 0 0.858824 0 0 0 0 0.929412 0 0 0 1 0"/>
<feBlend mode="normal" in2="BackgroundImageFix" result="effect1_dropShadow_0_1"/>
<feBlend mode="normal" in="SourceGraphic" in2="effect1_dropShadow_0_1" result="shape"/>
</filter>
<clipPath id="clip0_0_1">
<rect width="51" height="54" fill="white" transform="translate(91 40)"/>
</clipPath>
</defs>
</svg>
