<svg width="739" height="227" viewBox="0 0 739 227" fill="none" xmlns="http://www.w3.org/2000/svg">
<rect y="38" width="739" height="189" rx="32" fill="#F3F4F5" fill-opacity="0.53"/>
<g filter="url(#filter0_d_0_1)">
<path d="M151.613 0H79.3872C62.6048 0 49 13.6048 49 30.3872V102.613C49 119.395 62.6048 133 79.3872 133H151.613C168.395 133 182 119.395 182 102.613V30.3872C182 13.6048 168.395 0 151.613 0Z" fill="white"/>
<g clip-path="url(#clip0_0_1)">
<path d="M94.2188 86H136.781C137.455 86 138 85.456 138 84.7825V56.1208C138 55.4474 137.455 54.9034 136.781 54.9034H117.004L112.926 48.5606C112.7 48.2123 112.315 48 111.9 48H94.2188C93.5446 48 93 48.544 93 49.2175V84.7825C93 85.456 93.5446 86 94.2188 86ZM95.4376 50.4349H111.236L114.368 55.3048H95.4376V50.4349ZM95.4376 61.339V57.3814H116.34C116.45 57.3814 116.546 57.3648 116.639 57.3383H135.566V83.5651H95.4376V61.339Z" fill="#2374BB"/>
</g>
</g>
<path d="M659.51 92.4C659.51 87.8133 660.217 84.2533 661.63 81.72C663.043 79.1867 665.577 77.92 669.23 77.92C672.883 77.92 675.417 79.1867 676.83 81.72C678.243 84.2533 678.95 87.8133 678.95 92.4C678.95 97.0667 678.243 100.68 676.83 103.24C675.417 105.8 672.883 107.08 669.23 107.08C665.55 107.08 663.003 105.8 661.59 103.24C660.203 100.68 659.51 97.0667 659.51 92.4ZM676.19 92.4C676.19 89.92 676.017 87.8267 675.67 86.12C675.323 84.4133 674.643 83.04 673.63 82C672.617 80.96 671.15 80.44 669.23 80.44C667.31 80.44 665.843 80.96 664.83 82C663.817 83.04 663.137 84.4133 662.79 86.12C662.443 87.8267 662.27 89.92 662.27 92.4C662.27 94.96 662.443 97.1067 662.79 98.84C663.137 100.547 663.817 101.92 664.83 102.96C665.843 104 667.31 104.52 669.23 104.52C671.15 104.52 672.617 104 673.63 102.96C674.643 101.92 675.323 100.547 675.67 98.84C676.017 97.1067 676.19 94.96 676.19 92.4ZM682.919 100.2V98.08L697.479 78.48H700.799V97.76H705.079V100.2H700.799V107H698.039V100.2H682.919ZM698.159 81.56L686.159 97.76H698.159V81.56Z" fill="#226FB7" fill-opacity="0.3"/>
<defs>
<filter id="filter0_d_0_1" x="45" y="0" width="141" height="141" filterUnits="userSpaceOnUse" color-interpolation-filters="sRGB">
<feFlood flood-opacity="0" result="BackgroundImageFix"/>
<feColorMatrix in="SourceAlpha" type="matrix" values="0 0 0 0 0 0 0 0 0 0 0 0 0 0 0 0 0 0 127 0" result="hardAlpha"/>
<feOffset dy="4"/>
<feGaussianBlur stdDeviation="2"/>
<feComposite in2="hardAlpha" operator="out"/>
<feColorMatrix type="matrix" values="0 0 0 0 0.780392 0 0 0 0 0.858824 0 0 0 0 0.929412 0 0 0 1 0"/>
<feBlend mode="normal" in2="BackgroundImageFix" result="effect1_dropShadow_0_1"/>
<feBlend mode="normal" in="SourceGraphic" in2="effect1_dropShadow_0_1" result="shape"/>
</filter>
<clipPath id="clip0_0_1">
<rect width="45" height="38" fill="white" transform="translate(93 48)"/>
</clipPath>
</defs>
</svg>
