<svg width="195" height="36" viewBox="0 0 195 36" fill="none" xmlns="http://www.w3.org/2000/svg">
<g filter="url(#filter0_d_0_1)">
<mask id="path-1-inside-1_0_1" fill="white">
<path d="M13.0448 9.97641L17.0314 1.99818L20.9399 10.015L29.7603 11.3384L23.3426 17.5342L24.8109 26.334L16.9358 22.1458L9.02071 26.2569L10.5701 17.4742L4.21258 11.2183L13.0448 9.97641Z"/>
</mask>
<path d="M13.0448 9.97641L16.7346 36.2183L30.5252 34.2792L36.7501 21.8215L13.0448 9.97641ZM17.0314 1.99818L40.8512 -9.61501L17.3235 -57.8725L-6.67398 -9.84695L17.0314 1.99818ZM20.9399 10.015L-2.87993 21.6282L3.22693 34.1539L17.0078 36.2216L20.9399 10.015ZM29.7603 11.3384L48.1661 30.4034L86.8047 -6.89928L33.6923 -14.8683L29.7603 11.3384ZM23.3426 17.5342L4.93676 -1.53085L-5.08974 8.149L-2.79601 21.8956L23.3426 17.5342ZM24.8109 26.334L12.3677 49.731L59.7895 74.9513L50.9496 21.9726L24.8109 26.334ZM16.9358 22.1458L29.379 -1.25115L17.0816 -7.7913L4.72102 -1.37122L16.9358 22.1458ZM9.02071 26.2569L-17.0763 21.653L-26.4023 74.5171L21.2355 49.7739L9.02071 26.2569ZM10.5701 17.4742L36.6671 22.0781L39.0876 8.35761L29.1569 -1.41442L10.5701 17.4742ZM4.21258 11.2183L0.522735 -15.0236L-52.6409 -7.54826L-14.3742 30.1069L4.21258 11.2183ZM9.35493 -16.2654L8.2509 -16.1102L15.6306 36.3735L16.7346 36.2183L9.35493 -16.2654ZM6.04286 -15.7997L3.83481 -15.4893L11.2145 36.9944L13.4225 36.684L6.04286 -15.7997ZM1.62676 -15.1788L0.522735 -15.0236L7.90243 37.4602L9.00645 37.3049L1.62676 -15.1788ZM-14.3742 30.1069L-13.5795 30.8889L23.5941 -6.88836L22.7994 -7.67035L-14.3742 30.1069ZM-11.9901 32.4529L-10.4008 34.0169L26.7728 -3.76039L25.1835 -5.32437L-11.9901 32.4529ZM-8.81138 35.5809L-8.01669 36.3629L29.1569 -1.41442L28.3622 -2.19641L-8.81138 35.5809ZM-15.5269 12.8703L-15.7206 13.9681L36.4734 23.176L36.6671 22.0781L-15.5269 12.8703ZM-16.1079 16.1638L-16.4953 18.3595L35.6987 27.5673L36.0861 25.3716L-16.1079 16.1638ZM-16.8826 20.5551L-17.0763 21.653L35.1177 30.8608L35.3114 29.763L-16.8826 20.5551ZM21.2355 49.7739L22.2249 49.26L-2.20467 2.226L-3.19406 2.73989L21.2355 49.7739ZM24.2036 48.2322L26.1824 47.2045L1.75287 0.17045L-0.225903 1.19823L24.2036 48.2322ZM28.1612 46.1767L29.1506 45.6628L4.72102 -1.37122L3.73164 -0.857327L28.1612 46.1767ZM4.49259 45.5427L5.47699 46.0663L30.3634 -0.727621L29.379 -1.25115L4.49259 45.5427ZM7.44577 47.1133L9.41456 48.1604L34.301 1.3665L32.3322 0.319439L7.44577 47.1133ZM11.3833 49.2074L12.3677 49.731L37.2541 2.93709L36.2698 2.41356L11.3833 49.2074ZM50.9496 21.9726L50.766 20.8726L-1.51123 29.5955L-1.32768 30.6955L50.9496 21.9726ZM50.3989 18.6726L50.0319 16.4727L-2.24539 25.1956L-1.87831 27.3955L50.3989 18.6726ZM49.6648 14.2727L49.4812 13.1727L-2.79601 21.8956L-2.61247 22.9956L49.6648 14.2727ZM41.7485 36.5992L42.5507 35.8247L5.73897 -2.30532L4.93676 -1.53085L41.7485 36.5992ZM44.1551 34.2758L45.7595 32.7268L8.9478 -5.40321L7.34339 -3.85426L44.1551 34.2758ZM47.3639 31.1779L48.1661 30.4034L11.3544 -7.72662L10.5522 -6.95215L47.3639 31.1779ZM33.6923 -14.8683L32.5898 -15.0337L24.7257 37.3796L25.8282 37.545L33.6923 -14.8683ZM30.3847 -15.3645L28.1796 -15.6954L20.3155 36.7179L22.5206 37.0488L30.3847 -15.3645ZM25.9745 -16.0263L24.8719 -16.1917L17.0078 36.2216L18.1104 36.3871L25.9745 -16.0263ZM44.7597 -1.59822L44.2711 -2.60032L-3.36849 20.6261L-2.87993 21.6282L44.7597 -1.59822ZM43.294 -4.60452L42.3169 -6.60872L-5.32276 16.6177L-4.34563 18.6219L43.294 -4.60452ZM41.3397 -8.61291L40.8512 -9.61501L-6.78846 13.6114L-6.2999 14.6135L41.3397 -8.61291ZM-6.67398 -9.84695L-7.1723 -8.84967L40.2384 14.8406L40.7367 13.8433L-6.67398 -9.84695ZM-8.16895 -6.85512L-9.16559 -4.86056L38.2451 18.8297L39.2417 16.8351L-8.16895 -6.85512ZM-10.1622 -2.866L-10.6606 -1.86872L36.7501 21.8215L37.2484 20.8243L-10.1622 -2.866ZM13.0448 9.97641L20.4245 62.4601L48.0057 58.5819L60.4554 33.6667L13.0448 9.97641ZM17.0314 1.99818L64.671 -21.2282L17.6157 -117.743L-30.3793 -21.6921L17.0314 1.99818ZM20.9399 10.015L-26.6997 33.2414L-14.486 58.2929L13.0758 62.4283L20.9399 10.015ZM29.7603 11.3384L66.572 49.4684L143.849 -25.137L37.6244 -41.0749L29.7603 11.3384ZM23.3426 17.5342L-13.4691 -20.5959L-33.5221 -1.23616L-28.9346 26.257L23.3426 17.5342ZM24.8109 26.334L-0.0754629 73.1279L94.768 123.569L77.0882 17.6112L24.8109 26.334ZM16.9358 22.1458L41.8222 -24.6481L17.2273 -37.7284L-7.49375 -24.8882L16.9358 22.1458ZM9.02071 26.2569L-43.1733 17.0491L-61.8254 122.777L33.4503 73.2909L9.02071 26.2569ZM10.5701 17.4742L62.7641 26.6821L67.6052 -0.759002L47.7437 -20.3031L10.5701 17.4742ZM4.21258 11.2183L-3.16711 -41.2654L-109.494 -26.3148L-32.961 48.9956L4.21258 11.2183ZM5.66508 -42.5073L4.56106 -42.3521L19.3204 62.6154L20.4245 62.4601L5.66508 -42.5073ZM2.35301 -42.0416L0.144963 -41.7311L14.9043 63.2363L17.1124 62.9258L2.35301 -42.0416ZM-2.06309 -41.4206L-3.16711 -41.2654L11.5923 63.702L12.6963 63.5468L-2.06309 -41.4206ZM-32.961 48.9956L-32.1663 49.7776L42.1809 -25.777L41.3862 -26.559L-32.961 48.9956ZM-30.5769 51.3416L-28.9876 52.9055L45.3596 -22.649L43.7702 -24.213L-30.5769 51.3416ZM-27.3982 54.4695L-26.6035 55.2515L47.7437 -20.3031L46.949 -21.0851L-27.3982 54.4695ZM-41.6239 8.2664L-41.8176 9.36423L62.5705 27.7799L62.7641 26.6821L-41.6239 8.2664ZM-42.2049 11.5599L-42.5923 13.7556L61.7958 32.1712L62.1831 29.9756L-42.2049 11.5599ZM-42.9796 15.9512L-43.1733 17.0491L61.2147 35.4647L61.4084 34.3669L-42.9796 15.9512ZM33.4503 73.2909L34.4396 72.777L-14.4194 -21.291L-15.4088 -20.7771L33.4503 73.2909ZM36.4184 71.7492L38.3972 70.7215L-10.4619 -23.3466L-12.4407 -22.3188L36.4184 71.7492ZM40.376 69.6937L41.3653 69.1798L-7.49375 -24.8882L-8.48313 -24.3743L40.376 69.6937ZM-7.95061 68.9397L-6.96622 69.4632L42.8066 -24.1246L41.8222 -24.6481L-7.95061 68.9397ZM-4.99743 70.5102L-3.02864 71.5573L46.7442 -22.0304L44.7754 -23.0775L-4.99743 70.5102ZM-1.05986 72.6044L-0.0754629 73.1279L49.6973 -20.4598L48.713 -20.9834L-1.05986 72.6044ZM77.0882 17.6112L76.9047 16.5112L-27.6499 33.9569L-27.4663 35.0569L77.0882 17.6112ZM76.5376 14.3112L76.1705 12.1112L-28.384 29.557L-28.0169 31.757L76.5376 14.3112ZM75.8034 9.91127L75.6199 8.81129L-28.9346 26.257L-28.7511 27.357L75.8034 9.91127ZM60.1543 55.6642L60.9565 54.8897L-12.6669 -21.3703L-13.4691 -20.5959L60.1543 55.6642ZM62.5609 53.3408L64.1654 51.7918L-9.45805 -24.4682L-11.0625 -22.9193L62.5609 53.3408ZM65.7698 50.2429L66.572 49.4684L-7.05143 -26.7916L-7.85364 -26.0172L65.7698 50.2429ZM37.6244 -41.0749L36.5218 -41.2404L20.7936 63.5863L21.8962 63.7517L37.6244 -41.0749ZM34.3167 -41.5712L32.1116 -41.9021L16.3834 62.9246L18.5885 63.2554L34.3167 -41.5712ZM29.9065 -42.2329L28.804 -42.3983L13.0758 62.4283L14.1783 62.5937L29.9065 -42.2329ZM68.5795 -13.2114L68.091 -14.2135L-27.1883 32.2393L-26.6997 33.2414L68.5795 -13.2114ZM67.1138 -16.2177L66.1367 -18.2219L-29.1426 28.2309L-28.1654 30.2351L67.1138 -16.2177ZM65.1596 -20.2261L64.671 -21.2282L-30.6083 25.2246L-30.1197 26.2267L65.1596 -20.2261ZM-30.3793 -21.6921L-30.8776 -20.6948L63.9437 26.6857L64.442 25.6884L-30.3793 -21.6921ZM-31.8743 -18.7002L-32.8709 -16.7057L61.9504 30.6748L62.9471 28.6803L-31.8743 -18.7002ZM-33.8676 -14.7111L-34.3659 -13.7139L60.4554 33.6667L60.9538 32.6694L-33.8676 -14.7111Z" fill="#386EB0" mask="url(#path-1-inside-1_0_1)"/>
<path d="M13.0448 9.97641L16.7346 36.2183L30.5252 34.2792L36.7501 21.8215L13.0448 9.97641ZM17.0314 1.99818L40.8512 -9.61501L17.3235 -57.8725L-6.67398 -9.84695L17.0314 1.99818ZM20.9399 10.015L-2.87993 21.6282L3.22693 34.1539L17.0078 36.2216L20.9399 10.015ZM29.7603 11.3384L48.1661 30.4034L86.8047 -6.89928L33.6923 -14.8683L29.7603 11.3384ZM23.3426 17.5342L4.93676 -1.53085L-5.08974 8.149L-2.79601 21.8956L23.3426 17.5342ZM24.8109 26.334L12.3677 49.731L59.7895 74.9513L50.9496 21.9726L24.8109 26.334ZM16.9358 22.1458L29.379 -1.25115L17.0816 -7.7913L4.72102 -1.37122L16.9358 22.1458ZM9.02071 26.2569L-17.0763 21.653L-26.4023 74.5171L21.2355 49.7739L9.02071 26.2569ZM10.5701 17.4742L36.6671 22.0781L39.0876 8.35761L29.1569 -1.41442L10.5701 17.4742ZM4.21258 11.2183L0.522735 -15.0236L-52.6409 -7.54826L-14.3742 30.1069L4.21258 11.2183ZM9.35493 -16.2654L8.2509 -16.1102L15.6306 36.3735L16.7346 36.2183L9.35493 -16.2654ZM6.04286 -15.7997L3.83481 -15.4893L11.2145 36.9944L13.4225 36.684L6.04286 -15.7997ZM1.62676 -15.1788L0.522735 -15.0236L7.90243 37.4602L9.00645 37.3049L1.62676 -15.1788ZM-14.3742 30.1069L-13.5795 30.8889L23.5941 -6.88836L22.7994 -7.67035L-14.3742 30.1069ZM-11.9901 32.4529L-10.4008 34.0169L26.7728 -3.76039L25.1835 -5.32437L-11.9901 32.4529ZM-8.81138 35.5809L-8.01669 36.3629L29.1569 -1.41442L28.3622 -2.19641L-8.81138 35.5809ZM-15.5269 12.8703L-15.7206 13.9681L36.4734 23.176L36.6671 22.0781L-15.5269 12.8703ZM-16.1079 16.1638L-16.4953 18.3595L35.6987 27.5673L36.0861 25.3716L-16.1079 16.1638ZM-16.8826 20.5551L-17.0763 21.653L35.1177 30.8608L35.3114 29.763L-16.8826 20.5551ZM21.2355 49.7739L22.2249 49.26L-2.20467 2.226L-3.19406 2.73989L21.2355 49.7739ZM24.2036 48.2322L26.1824 47.2045L1.75287 0.17045L-0.225903 1.19823L24.2036 48.2322ZM28.1612 46.1767L29.1506 45.6628L4.72102 -1.37122L3.73164 -0.857327L28.1612 46.1767ZM4.49259 45.5427L5.47699 46.0663L30.3634 -0.727621L29.379 -1.25115L4.49259 45.5427ZM7.44577 47.1133L9.41456 48.1604L34.301 1.3665L32.3322 0.319439L7.44577 47.1133ZM11.3833 49.2074L12.3677 49.731L37.2541 2.93709L36.2698 2.41356L11.3833 49.2074ZM50.9496 21.9726L50.766 20.8726L-1.51123 29.5955L-1.32768 30.6955L50.9496 21.9726ZM50.3989 18.6726L50.0319 16.4727L-2.24539 25.1956L-1.87831 27.3955L50.3989 18.6726ZM49.6648 14.2727L49.4812 13.1727L-2.79601 21.8956L-2.61247 22.9956L49.6648 14.2727ZM41.7485 36.5992L42.5507 35.8247L5.73897 -2.30532L4.93676 -1.53085L41.7485 36.5992ZM44.1551 34.2758L45.7595 32.7268L8.9478 -5.40321L7.34339 -3.85426L44.1551 34.2758ZM47.3639 31.1779L48.1661 30.4034L11.3544 -7.72662L10.5522 -6.95215L47.3639 31.1779ZM33.6923 -14.8683L32.5898 -15.0337L24.7257 37.3796L25.8282 37.545L33.6923 -14.8683ZM30.3847 -15.3645L28.1796 -15.6954L20.3155 36.7179L22.5206 37.0488L30.3847 -15.3645ZM25.9745 -16.0263L24.8719 -16.1917L17.0078 36.2216L18.1104 36.3871L25.9745 -16.0263ZM44.7597 -1.59822L44.2711 -2.60032L-3.36849 20.6261L-2.87993 21.6282L44.7597 -1.59822ZM43.294 -4.60452L42.3169 -6.60872L-5.32276 16.6177L-4.34563 18.6219L43.294 -4.60452ZM41.3397 -8.61291L40.8512 -9.61501L-6.78846 13.6114L-6.2999 14.6135L41.3397 -8.61291ZM-6.67398 -9.84695L-7.1723 -8.84967L40.2384 14.8406L40.7367 13.8433L-6.67398 -9.84695ZM-8.16895 -6.85512L-9.16559 -4.86056L38.2451 18.8297L39.2417 16.8351L-8.16895 -6.85512ZM-10.1622 -2.866L-10.6606 -1.86872L36.7501 21.8215L37.2484 20.8243L-10.1622 -2.866ZM13.0448 9.97641L20.4245 62.4601L48.0057 58.5819L60.4554 33.6667L13.0448 9.97641ZM17.0314 1.99818L64.671 -21.2282L17.6157 -117.743L-30.3793 -21.6921L17.0314 1.99818ZM20.9399 10.015L-26.6997 33.2414L-14.486 58.2929L13.0758 62.4283L20.9399 10.015ZM29.7603 11.3384L66.572 49.4684L143.849 -25.137L37.6244 -41.0749L29.7603 11.3384ZM23.3426 17.5342L-13.4691 -20.5959L-33.5221 -1.23616L-28.9346 26.257L23.3426 17.5342ZM24.8109 26.334L-0.0754629 73.1279L94.768 123.569L77.0882 17.6112L24.8109 26.334ZM16.9358 22.1458L41.8222 -24.6481L17.2273 -37.7284L-7.49375 -24.8882L16.9358 22.1458ZM9.02071 26.2569L-43.1733 17.0491L-61.8254 122.777L33.4503 73.2909L9.02071 26.2569ZM10.5701 17.4742L62.7641 26.6821L67.6052 -0.759002L47.7437 -20.3031L10.5701 17.4742ZM4.21258 11.2183L-3.16711 -41.2654L-109.494 -26.3148L-32.961 48.9956L4.21258 11.2183ZM5.66508 -42.5073L4.56106 -42.3521L19.3204 62.6154L20.4245 62.4601L5.66508 -42.5073ZM2.35301 -42.0416L0.144963 -41.7311L14.9043 63.2363L17.1124 62.9258L2.35301 -42.0416ZM-2.06309 -41.4206L-3.16711 -41.2654L11.5923 63.702L12.6963 63.5468L-2.06309 -41.4206ZM-32.961 48.9956L-32.1663 49.7776L42.1809 -25.777L41.3862 -26.559L-32.961 48.9956ZM-30.5769 51.3416L-28.9876 52.9055L45.3596 -22.649L43.7702 -24.213L-30.5769 51.3416ZM-27.3982 54.4695L-26.6035 55.2515L47.7437 -20.3031L46.949 -21.0851L-27.3982 54.4695ZM-41.6239 8.2664L-41.8176 9.36423L62.5705 27.7799L62.7641 26.6821L-41.6239 8.2664ZM-42.2049 11.5599L-42.5923 13.7556L61.7958 32.1712L62.1831 29.9756L-42.2049 11.5599ZM-42.9796 15.9512L-43.1733 17.0491L61.2147 35.4647L61.4084 34.3669L-42.9796 15.9512ZM33.4503 73.2909L34.4396 72.777L-14.4194 -21.291L-15.4088 -20.7771L33.4503 73.2909ZM36.4184 71.7492L38.3972 70.7215L-10.4619 -23.3466L-12.4407 -22.3188L36.4184 71.7492ZM40.376 69.6937L41.3653 69.1798L-7.49375 -24.8882L-8.48313 -24.3743L40.376 69.6937ZM-7.95061 68.9397L-6.96622 69.4632L42.8066 -24.1246L41.8222 -24.6481L-7.95061 68.9397ZM-4.99743 70.5102L-3.02864 71.5573L46.7442 -22.0304L44.7754 -23.0775L-4.99743 70.5102ZM-1.05986 72.6044L-0.0754629 73.1279L49.6973 -20.4598L48.713 -20.9834L-1.05986 72.6044ZM77.0882 17.6112L76.9047 16.5112L-27.6499 33.9569L-27.4663 35.0569L77.0882 17.6112ZM76.5376 14.3112L76.1705 12.1112L-28.384 29.557L-28.0169 31.757L76.5376 14.3112ZM75.8034 9.91127L75.6199 8.81129L-28.9346 26.257L-28.7511 27.357L75.8034 9.91127ZM60.1543 55.6642L60.9565 54.8897L-12.6669 -21.3703L-13.4691 -20.5959L60.1543 55.6642ZM62.5609 53.3408L64.1654 51.7918L-9.45805 -24.4682L-11.0625 -22.9193L62.5609 53.3408ZM65.7698 50.2429L66.572 49.4684L-7.05143 -26.7916L-7.85364 -26.0172L65.7698 50.2429ZM37.6244 -41.0749L36.5218 -41.2404L20.7936 63.5863L21.8962 63.7517L37.6244 -41.0749ZM34.3167 -41.5712L32.1116 -41.9021L16.3834 62.9246L18.5885 63.2554L34.3167 -41.5712ZM29.9065 -42.2329L28.804 -42.3983L13.0758 62.4283L14.1783 62.5937L29.9065 -42.2329ZM68.5795 -13.2114L68.091 -14.2135L-27.1883 32.2393L-26.6997 33.2414L68.5795 -13.2114ZM67.1138 -16.2177L66.1367 -18.2219L-29.1426 28.2309L-28.1654 30.2351L67.1138 -16.2177ZM65.1596 -20.2261L64.671 -21.2282L-30.6083 25.2246L-30.1197 26.2267L65.1596 -20.2261ZM-30.3793 -21.6921L-30.8776 -20.6948L63.9437 26.6857L64.442 25.6884L-30.3793 -21.6921ZM-31.8743 -18.7002L-32.8709 -16.7057L61.9504 30.6748L62.9471 28.6803L-31.8743 -18.7002ZM-33.8676 -14.7111L-34.3659 -13.7139L60.4554 33.6667L60.9538 32.6694L-33.8676 -14.7111Z" fill="#226FB7" mask="url(#path-1-inside-1_0_1)"/>
</g>
<g filter="url(#filter1_d_0_1)">
<mask id="path-3-inside-2_0_1" fill="white">
<path d="M53.0448 9.97641L57.0314 1.99818L60.9399 10.015L69.7603 11.3384L63.3426 17.5342L64.8109 26.334L56.9358 22.1458L49.0207 26.2569L50.5701 17.4742L44.2126 11.2183L53.0448 9.97641Z"/>
</mask>
<path d="M53.0448 9.97641L56.7346 36.2183L70.5252 34.2792L76.7501 21.8215L53.0448 9.97641ZM57.0314 1.99818L80.8512 -9.61501L57.3235 -57.8725L33.326 -9.84695L57.0314 1.99818ZM60.9399 10.015L37.1201 21.6282L43.2269 34.1539L57.0078 36.2216L60.9399 10.015ZM69.7603 11.3384L88.1661 30.4034L126.805 -6.89928L73.6923 -14.8683L69.7603 11.3384ZM63.3426 17.5342L44.9368 -1.53085L34.9103 8.149L37.204 21.8956L63.3426 17.5342ZM64.8109 26.334L52.3677 49.731L99.7895 74.9513L90.9496 21.9726L64.8109 26.334ZM56.9358 22.1458L69.379 -1.25115L57.0816 -7.7913L44.721 -1.37122L56.9358 22.1458ZM49.0207 26.2569L22.9237 21.653L13.5977 74.5171L61.2355 49.7739L49.0207 26.2569ZM50.5701 17.4742L76.6671 22.0781L79.0876 8.35761L69.1569 -1.41442L50.5701 17.4742ZM44.2126 11.2183L40.5227 -15.0236L-12.6409 -7.54826L25.6258 30.1069L44.2126 11.2183ZM49.3549 -16.2654L48.2509 -16.1102L55.6306 36.3735L56.7346 36.2183L49.3549 -16.2654ZM46.0429 -15.7997L43.8348 -15.4893L51.2145 36.9944L53.4225 36.684L46.0429 -15.7997ZM41.6268 -15.1788L40.5227 -15.0236L47.9024 37.4602L49.0065 37.3049L41.6268 -15.1788ZM25.6258 30.1069L26.4205 30.8889L63.5941 -6.88836L62.7994 -7.67035L25.6258 30.1069ZM28.0099 32.4529L29.5992 34.0169L66.7728 -3.76039L65.1835 -5.32437L28.0099 32.4529ZM31.1886 35.5809L31.9833 36.3629L69.1569 -1.41442L68.3622 -2.19641L31.1886 35.5809ZM24.4731 12.8703L24.2794 13.9681L76.4734 23.176L76.6671 22.0781L24.4731 12.8703ZM23.8921 16.1638L23.5047 18.3595L75.6987 27.5673L76.0861 25.3716L23.8921 16.1638ZM23.1174 20.5551L22.9237 21.653L75.1177 30.8608L75.3114 29.763L23.1174 20.5551ZM61.2355 49.7739L62.2249 49.26L37.7953 2.226L36.8059 2.73989L61.2355 49.7739ZM64.2036 48.2322L66.1824 47.2045L41.7529 0.17045L39.7741 1.19823L64.2036 48.2322ZM68.1612 46.1767L69.1506 45.6628L44.721 -1.37122L43.7316 -0.857327L68.1612 46.1767ZM44.4926 45.5427L45.477 46.0663L70.3634 -0.727621L69.379 -1.25115L44.4926 45.5427ZM47.4458 47.1133L49.4146 48.1604L74.301 1.3665L72.3322 0.319439L47.4458 47.1133ZM51.3833 49.2074L52.3677 49.731L77.2541 2.93709L76.2698 2.41356L51.3833 49.2074ZM90.9496 21.9726L90.766 20.8726L38.4888 29.5955L38.6723 30.6955L90.9496 21.9726ZM90.3989 18.6726L90.0319 16.4727L37.7546 25.1956L38.1217 27.3955L90.3989 18.6726ZM89.6648 14.2727L89.4812 13.1727L37.204 21.8956L37.3875 22.9956L89.6648 14.2727ZM81.7485 36.5992L82.5507 35.8247L45.739 -2.30532L44.9368 -1.53085L81.7485 36.5992ZM84.1551 34.2758L85.7595 32.7268L48.9478 -5.40321L47.3434 -3.85426L84.1551 34.2758ZM87.3639 31.1779L88.1661 30.4034L51.3544 -7.72662L50.5522 -6.95215L87.3639 31.1779ZM73.6923 -14.8683L72.5898 -15.0337L64.7257 37.3796L65.8282 37.545L73.6923 -14.8683ZM70.3847 -15.3645L68.1796 -15.6954L60.3155 36.7179L62.5206 37.0488L70.3847 -15.3645ZM65.9745 -16.0263L64.8719 -16.1917L57.0078 36.2216L58.1104 36.3871L65.9745 -16.0263ZM84.7597 -1.59822L84.2711 -2.60032L36.6315 20.6261L37.1201 21.6282L84.7597 -1.59822ZM83.294 -4.60452L82.3169 -6.60872L34.6772 16.6177L35.6544 18.6219L83.294 -4.60452ZM81.3397 -8.61291L80.8512 -9.61501L33.2115 13.6114L33.7001 14.6135L81.3397 -8.61291ZM33.326 -9.84695L32.8277 -8.84967L80.2384 14.8406L80.7367 13.8433L33.326 -9.84695ZM31.8311 -6.85512L30.8344 -4.86056L78.2451 18.8297L79.2417 16.8351L31.8311 -6.85512ZM29.8378 -2.866L29.3394 -1.86872L76.7501 21.8215L77.2484 20.8243L29.8378 -2.866ZM53.0448 9.97641L60.4245 62.4601L88.0057 58.5819L100.455 33.6667L53.0448 9.97641ZM57.0314 1.99818L104.671 -21.2282L57.6157 -117.743L9.62069 -21.6921L57.0314 1.99818ZM60.9399 10.015L13.3003 33.2414L25.514 58.2929L53.0758 62.4283L60.9399 10.015ZM69.7603 11.3384L106.572 49.4684L183.849 -25.137L77.6244 -41.0749L69.7603 11.3384ZM63.3426 17.5342L26.5309 -20.5959L6.4779 -1.23616L11.0654 26.257L63.3426 17.5342ZM64.8109 26.334L39.9245 73.1279L134.768 123.569L117.088 17.6112L64.8109 26.334ZM56.9358 22.1458L81.8222 -24.6481L57.2273 -37.7284L32.5063 -24.8882L56.9358 22.1458ZM49.0207 26.2569L-3.17331 17.0491L-21.8254 122.777L73.4503 73.2909L49.0207 26.2569ZM50.5701 17.4742L102.764 26.6821L107.605 -0.759002L87.7437 -20.3031L50.5701 17.4742ZM44.2126 11.2183L36.8329 -41.2654L-69.4944 -26.3148L7.03898 48.9956L44.2126 11.2183ZM45.6651 -42.5073L44.5611 -42.3521L59.3204 62.6154L60.4245 62.4601L45.6651 -42.5073ZM42.353 -42.0416L40.145 -41.7311L54.9043 63.2363L57.1124 62.9258L42.353 -42.0416ZM37.9369 -41.4206L36.8329 -41.2654L51.5923 63.702L52.6963 63.5468L37.9369 -41.4206ZM7.03898 48.9956L7.83367 49.7776L82.1809 -25.777L81.3862 -26.559L7.03898 48.9956ZM9.42306 51.3416L11.0124 52.9055L85.3596 -22.649L83.7702 -24.213L9.42306 51.3416ZM12.6018 54.4695L13.3965 55.2515L87.7437 -20.3031L86.949 -21.0851L12.6018 54.4695ZM-1.62391 8.2664L-1.81759 9.36423L102.57 27.7799L102.764 26.6821L-1.62391 8.2664ZM-2.20494 11.5599L-2.59229 13.7556L101.796 32.1712L102.183 29.9756L-2.20494 11.5599ZM-2.97964 15.9512L-3.17331 17.0491L101.215 35.4647L101.408 34.3669L-2.97964 15.9512ZM73.4503 73.2909L74.4396 72.777L25.5806 -21.291L24.5912 -20.7771L73.4503 73.2909ZM76.4184 71.7492L78.3972 70.7215L29.5381 -23.3466L27.5593 -22.3188L76.4184 71.7492ZM80.376 69.6937L81.3653 69.1798L32.5063 -24.8882L31.5169 -24.3743L80.376 69.6937ZM32.0494 68.9397L33.0338 69.4632L82.8066 -24.1246L81.8222 -24.6481L32.0494 68.9397ZM35.0026 70.5102L36.9714 71.5573L86.7442 -22.0304L84.7754 -23.0775L35.0026 70.5102ZM38.9401 72.6044L39.9245 73.1279L89.6973 -20.4598L88.713 -20.9834L38.9401 72.6044ZM117.088 17.6112L116.905 16.5112L12.3501 33.9569L12.5337 35.0569L117.088 17.6112ZM116.538 14.3112L116.17 12.1112L11.616 29.557L11.9831 31.757L116.538 14.3112ZM115.803 9.91127L115.62 8.81129L11.0654 26.257L11.2489 27.357L115.803 9.91127ZM100.154 55.6642L100.957 54.8897L27.3331 -21.3703L26.5309 -20.5959L100.154 55.6642ZM102.561 53.3408L104.165 51.7918L30.5419 -24.4682L28.9375 -22.9193L102.561 53.3408ZM105.77 50.2429L106.572 49.4684L32.9486 -26.7916L32.1464 -26.0172L105.77 50.2429ZM77.6244 -41.0749L76.5218 -41.2404L60.7936 63.5863L61.8962 63.7517L77.6244 -41.0749ZM74.3167 -41.5712L72.1116 -41.9021L56.3834 62.9246L58.5885 63.2554L74.3167 -41.5712ZM69.9065 -42.2329L68.804 -42.3983L53.0758 62.4283L54.1783 62.5937L69.9065 -42.2329ZM108.58 -13.2114L108.091 -14.2135L12.8117 32.2393L13.3003 33.2414L108.58 -13.2114ZM107.114 -16.2177L106.137 -18.2219L10.8574 28.2309L11.8346 30.2351L107.114 -16.2177ZM105.16 -20.2261L104.671 -21.2282L9.39172 25.2246L9.88029 26.2267L105.16 -20.2261ZM9.62069 -21.6921L9.12236 -20.6948L103.944 26.6857L104.442 25.6884L9.62069 -21.6921ZM8.12572 -18.7002L7.12907 -16.7057L101.95 30.6748L102.947 28.6803L8.12572 -18.7002ZM6.13243 -14.7111L5.63411 -13.7139L100.455 33.6667L100.954 32.6694L6.13243 -14.7111Z" fill="#386EB0" mask="url(#path-3-inside-2_0_1)"/>
<path d="M53.0448 9.97641L56.7346 36.2183L70.5252 34.2792L76.7501 21.8215L53.0448 9.97641ZM57.0314 1.99818L80.8512 -9.61501L57.3235 -57.8725L33.326 -9.84695L57.0314 1.99818ZM60.9399 10.015L37.1201 21.6282L43.2269 34.1539L57.0078 36.2216L60.9399 10.015ZM69.7603 11.3384L88.1661 30.4034L126.805 -6.89928L73.6923 -14.8683L69.7603 11.3384ZM63.3426 17.5342L44.9368 -1.53085L34.9103 8.149L37.204 21.8956L63.3426 17.5342ZM64.8109 26.334L52.3677 49.731L99.7895 74.9513L90.9496 21.9726L64.8109 26.334ZM56.9358 22.1458L69.379 -1.25115L57.0816 -7.7913L44.721 -1.37122L56.9358 22.1458ZM49.0207 26.2569L22.9237 21.653L13.5977 74.5171L61.2355 49.7739L49.0207 26.2569ZM50.5701 17.4742L76.6671 22.0781L79.0876 8.35761L69.1569 -1.41442L50.5701 17.4742ZM44.2126 11.2183L40.5227 -15.0236L-12.6409 -7.54826L25.6258 30.1069L44.2126 11.2183ZM49.3549 -16.2654L48.2509 -16.1102L55.6306 36.3735L56.7346 36.2183L49.3549 -16.2654ZM46.0429 -15.7997L43.8348 -15.4893L51.2145 36.9944L53.4225 36.684L46.0429 -15.7997ZM41.6268 -15.1788L40.5227 -15.0236L47.9024 37.4602L49.0065 37.3049L41.6268 -15.1788ZM25.6258 30.1069L26.4205 30.8889L63.5941 -6.88836L62.7994 -7.67035L25.6258 30.1069ZM28.0099 32.4529L29.5992 34.0169L66.7728 -3.76039L65.1835 -5.32437L28.0099 32.4529ZM31.1886 35.5809L31.9833 36.3629L69.1569 -1.41442L68.3622 -2.19641L31.1886 35.5809ZM24.4731 12.8703L24.2794 13.9681L76.4734 23.176L76.6671 22.0781L24.4731 12.8703ZM23.8921 16.1638L23.5047 18.3595L75.6987 27.5673L76.0861 25.3716L23.8921 16.1638ZM23.1174 20.5551L22.9237 21.653L75.1177 30.8608L75.3114 29.763L23.1174 20.5551ZM61.2355 49.7739L62.2249 49.26L37.7953 2.226L36.8059 2.73989L61.2355 49.7739ZM64.2036 48.2322L66.1824 47.2045L41.7529 0.17045L39.7741 1.19823L64.2036 48.2322ZM68.1612 46.1767L69.1506 45.6628L44.721 -1.37122L43.7316 -0.857327L68.1612 46.1767ZM44.4926 45.5427L45.477 46.0663L70.3634 -0.727621L69.379 -1.25115L44.4926 45.5427ZM47.4458 47.1133L49.4146 48.1604L74.301 1.3665L72.3322 0.319439L47.4458 47.1133ZM51.3833 49.2074L52.3677 49.731L77.2541 2.93709L76.2698 2.41356L51.3833 49.2074ZM90.9496 21.9726L90.766 20.8726L38.4888 29.5955L38.6723 30.6955L90.9496 21.9726ZM90.3989 18.6726L90.0319 16.4727L37.7546 25.1956L38.1217 27.3955L90.3989 18.6726ZM89.6648 14.2727L89.4812 13.1727L37.204 21.8956L37.3875 22.9956L89.6648 14.2727ZM81.7485 36.5992L82.5507 35.8247L45.739 -2.30532L44.9368 -1.53085L81.7485 36.5992ZM84.1551 34.2758L85.7595 32.7268L48.9478 -5.40321L47.3434 -3.85426L84.1551 34.2758ZM87.3639 31.1779L88.1661 30.4034L51.3544 -7.72662L50.5522 -6.95215L87.3639 31.1779ZM73.6923 -14.8683L72.5898 -15.0337L64.7257 37.3796L65.8282 37.545L73.6923 -14.8683ZM70.3847 -15.3645L68.1796 -15.6954L60.3155 36.7179L62.5206 37.0488L70.3847 -15.3645ZM65.9745 -16.0263L64.8719 -16.1917L57.0078 36.2216L58.1104 36.3871L65.9745 -16.0263ZM84.7597 -1.59822L84.2711 -2.60032L36.6315 20.6261L37.1201 21.6282L84.7597 -1.59822ZM83.294 -4.60452L82.3169 -6.60872L34.6772 16.6177L35.6544 18.6219L83.294 -4.60452ZM81.3397 -8.61291L80.8512 -9.61501L33.2115 13.6114L33.7001 14.6135L81.3397 -8.61291ZM33.326 -9.84695L32.8277 -8.84967L80.2384 14.8406L80.7367 13.8433L33.326 -9.84695ZM31.8311 -6.85512L30.8344 -4.86056L78.2451 18.8297L79.2417 16.8351L31.8311 -6.85512ZM29.8378 -2.866L29.3394 -1.86872L76.7501 21.8215L77.2484 20.8243L29.8378 -2.866ZM53.0448 9.97641L60.4245 62.4601L88.0057 58.5819L100.455 33.6667L53.0448 9.97641ZM57.0314 1.99818L104.671 -21.2282L57.6157 -117.743L9.62069 -21.6921L57.0314 1.99818ZM60.9399 10.015L13.3003 33.2414L25.514 58.2929L53.0758 62.4283L60.9399 10.015ZM69.7603 11.3384L106.572 49.4684L183.849 -25.137L77.6244 -41.0749L69.7603 11.3384ZM63.3426 17.5342L26.5309 -20.5959L6.4779 -1.23616L11.0654 26.257L63.3426 17.5342ZM64.8109 26.334L39.9245 73.1279L134.768 123.569L117.088 17.6112L64.8109 26.334ZM56.9358 22.1458L81.8222 -24.6481L57.2273 -37.7284L32.5063 -24.8882L56.9358 22.1458ZM49.0207 26.2569L-3.17331 17.0491L-21.8254 122.777L73.4503 73.2909L49.0207 26.2569ZM50.5701 17.4742L102.764 26.6821L107.605 -0.759002L87.7437 -20.3031L50.5701 17.4742ZM44.2126 11.2183L36.8329 -41.2654L-69.4944 -26.3148L7.03898 48.9956L44.2126 11.2183ZM45.6651 -42.5073L44.5611 -42.3521L59.3204 62.6154L60.4245 62.4601L45.6651 -42.5073ZM42.353 -42.0416L40.145 -41.7311L54.9043 63.2363L57.1124 62.9258L42.353 -42.0416ZM37.9369 -41.4206L36.8329 -41.2654L51.5923 63.702L52.6963 63.5468L37.9369 -41.4206ZM7.03898 48.9956L7.83367 49.7776L82.1809 -25.777L81.3862 -26.559L7.03898 48.9956ZM9.42306 51.3416L11.0124 52.9055L85.3596 -22.649L83.7702 -24.213L9.42306 51.3416ZM12.6018 54.4695L13.3965 55.2515L87.7437 -20.3031L86.949 -21.0851L12.6018 54.4695ZM-1.62391 8.2664L-1.81759 9.36423L102.57 27.7799L102.764 26.6821L-1.62391 8.2664ZM-2.20494 11.5599L-2.59229 13.7556L101.796 32.1712L102.183 29.9756L-2.20494 11.5599ZM-2.97964 15.9512L-3.17331 17.0491L101.215 35.4647L101.408 34.3669L-2.97964 15.9512ZM73.4503 73.2909L74.4396 72.777L25.5806 -21.291L24.5912 -20.7771L73.4503 73.2909ZM76.4184 71.7492L78.3972 70.7215L29.5381 -23.3466L27.5593 -22.3188L76.4184 71.7492ZM80.376 69.6937L81.3653 69.1798L32.5063 -24.8882L31.5169 -24.3743L80.376 69.6937ZM32.0494 68.9397L33.0338 69.4632L82.8066 -24.1246L81.8222 -24.6481L32.0494 68.9397ZM35.0026 70.5102L36.9714 71.5573L86.7442 -22.0304L84.7754 -23.0775L35.0026 70.5102ZM38.9401 72.6044L39.9245 73.1279L89.6973 -20.4598L88.713 -20.9834L38.9401 72.6044ZM117.088 17.6112L116.905 16.5112L12.3501 33.9569L12.5337 35.0569L117.088 17.6112ZM116.538 14.3112L116.17 12.1112L11.616 29.557L11.9831 31.757L116.538 14.3112ZM115.803 9.91127L115.62 8.81129L11.0654 26.257L11.2489 27.357L115.803 9.91127ZM100.154 55.6642L100.957 54.8897L27.3331 -21.3703L26.5309 -20.5959L100.154 55.6642ZM102.561 53.3408L104.165 51.7918L30.5419 -24.4682L28.9375 -22.9193L102.561 53.3408ZM105.77 50.2429L106.572 49.4684L32.9486 -26.7916L32.1464 -26.0172L105.77 50.2429ZM77.6244 -41.0749L76.5218 -41.2404L60.7936 63.5863L61.8962 63.7517L77.6244 -41.0749ZM74.3167 -41.5712L72.1116 -41.9021L56.3834 62.9246L58.5885 63.2554L74.3167 -41.5712ZM69.9065 -42.2329L68.804 -42.3983L53.0758 62.4283L54.1783 62.5937L69.9065 -42.2329ZM108.58 -13.2114L108.091 -14.2135L12.8117 32.2393L13.3003 33.2414L108.58 -13.2114ZM107.114 -16.2177L106.137 -18.2219L10.8574 28.2309L11.8346 30.2351L107.114 -16.2177ZM105.16 -20.2261L104.671 -21.2282L9.39172 25.2246L9.88029 26.2267L105.16 -20.2261ZM9.62069 -21.6921L9.12236 -20.6948L103.944 26.6857L104.442 25.6884L9.62069 -21.6921ZM8.12572 -18.7002L7.12907 -16.7057L101.95 30.6748L102.947 28.6803L8.12572 -18.7002ZM6.13243 -14.7111L5.63411 -13.7139L100.455 33.6667L100.954 32.6694L6.13243 -14.7111Z" fill="#226FB7" mask="url(#path-3-inside-2_0_1)"/>
</g>
<g filter="url(#filter2_d_0_1)">
<path d="M173.045 9.97641L177.031 1.99818L180.94 10.015L189.76 11.3384L183.343 17.5342L184.811 26.334L176.936 22.1458L169.021 26.2569L170.57 17.4742L164.213 11.2183L173.045 9.97641Z" stroke="#386EB0" stroke-miterlimit="10" stroke-dasharray="2 2" shape-rendering="crispEdges"/>
</g>
<g filter="url(#filter3_d_0_1)">
<path d="M133.045 9.97641L137.031 1.99818L140.94 10.015L149.76 11.3384L143.343 17.5342L144.811 26.334L136.936 22.1458L129.021 26.2569L130.57 17.4742L124.213 11.2183L133.045 9.97641Z" stroke="#386EB0" stroke-miterlimit="10" stroke-dasharray="2 2" shape-rendering="crispEdges"/>
</g>
<g filter="url(#filter4_d_0_1)">
<path d="M93.0448 9.97641L97.0314 1.99818L100.94 10.015L109.76 11.3384L103.343 17.5342L104.811 26.334L96.9358 22.1458L89.0207 26.2569L90.5701 17.4742L84.2126 11.2183L93.0448 9.97641Z" stroke="#386EB0" stroke-miterlimit="10" stroke-dasharray="2 2" shape-rendering="crispEdges"/>
</g>
<defs>
<filter id="filter0_d_0_1" x="0.212585" y="1.99805" width="33.5477" height="32.3359" filterUnits="userSpaceOnUse" color-interpolation-filters="sRGB">
<feFlood flood-opacity="0" result="BackgroundImageFix"/>
<feColorMatrix in="SourceAlpha" type="matrix" values="0 0 0 0 0 0 0 0 0 0 0 0 0 0 0 0 0 0 127 0" result="hardAlpha"/>
<feOffset dy="4"/>
<feGaussianBlur stdDeviation="2"/>
<feComposite in2="hardAlpha" operator="out"/>
<feColorMatrix type="matrix" values="0 0 0 0 0 0 0 0 0 0 0 0 0 0 0 0 0 0 0.25 0"/>
<feBlend mode="normal" in2="BackgroundImageFix" result="effect1_dropShadow_0_1"/>
<feBlend mode="normal" in="SourceGraphic" in2="effect1_dropShadow_0_1" result="shape"/>
</filter>
<filter id="filter1_d_0_1" x="40.2126" y="1.99805" width="33.5477" height="32.3359" filterUnits="userSpaceOnUse" color-interpolation-filters="sRGB">
<feFlood flood-opacity="0" result="BackgroundImageFix"/>
<feColorMatrix in="SourceAlpha" type="matrix" values="0 0 0 0 0 0 0 0 0 0 0 0 0 0 0 0 0 0 127 0" result="hardAlpha"/>
<feOffset dy="4"/>
<feGaussianBlur stdDeviation="2"/>
<feComposite in2="hardAlpha" operator="out"/>
<feColorMatrix type="matrix" values="0 0 0 0 0 0 0 0 0 0 0 0 0 0 0 0 0 0 0.25 0"/>
<feBlend mode="normal" in2="BackgroundImageFix" result="effect1_dropShadow_0_1"/>
<feBlend mode="normal" in="SourceGraphic" in2="effect1_dropShadow_0_1" result="shape"/>
</filter>
<filter id="filter2_d_0_1" x="159.14" y="0.868652" width="35.6967" height="34.3828" filterUnits="userSpaceOnUse" color-interpolation-filters="sRGB">
<feFlood flood-opacity="0" result="BackgroundImageFix"/>
<feColorMatrix in="SourceAlpha" type="matrix" values="0 0 0 0 0 0 0 0 0 0 0 0 0 0 0 0 0 0 127 0" result="hardAlpha"/>
<feOffset dy="4"/>
<feGaussianBlur stdDeviation="2"/>
<feComposite in2="hardAlpha" operator="out"/>
<feColorMatrix type="matrix" values="0 0 0 0 0 0 0 0 0 0 0 0 0 0 0 0 0 0 0.25 0"/>
<feBlend mode="normal" in2="BackgroundImageFix" result="effect1_dropShadow_0_1"/>
<feBlend mode="normal" in="SourceGraphic" in2="effect1_dropShadow_0_1" result="shape"/>
</filter>
<filter id="filter3_d_0_1" x="119.14" y="0.868652" width="35.6967" height="34.3828" filterUnits="userSpaceOnUse" color-interpolation-filters="sRGB">
<feFlood flood-opacity="0" result="BackgroundImageFix"/>
<feColorMatrix in="SourceAlpha" type="matrix" values="0 0 0 0 0 0 0 0 0 0 0 0 0 0 0 0 0 0 127 0" result="hardAlpha"/>
<feOffset dy="4"/>
<feGaussianBlur stdDeviation="2"/>
<feComposite in2="hardAlpha" operator="out"/>
<feColorMatrix type="matrix" values="0 0 0 0 0 0 0 0 0 0 0 0 0 0 0 0 0 0 0.25 0"/>
<feBlend mode="normal" in2="BackgroundImageFix" result="effect1_dropShadow_0_1"/>
<feBlend mode="normal" in="SourceGraphic" in2="effect1_dropShadow_0_1" result="shape"/>
</filter>
<filter id="filter4_d_0_1" x="79.1399" y="0.868652" width="35.6967" height="34.3828" filterUnits="userSpaceOnUse" color-interpolation-filters="sRGB">
<feFlood flood-opacity="0" result="BackgroundImageFix"/>
<feColorMatrix in="SourceAlpha" type="matrix" values="0 0 0 0 0 0 0 0 0 0 0 0 0 0 0 0 0 0 127 0" result="hardAlpha"/>
<feOffset dy="4"/>
<feGaussianBlur stdDeviation="2"/>
<feComposite in2="hardAlpha" operator="out"/>
<feColorMatrix type="matrix" values="0 0 0 0 0 0 0 0 0 0 0 0 0 0 0 0 0 0 0.25 0"/>
<feBlend mode="normal" in2="BackgroundImageFix" result="effect1_dropShadow_0_1"/>
<feBlend mode="normal" in="SourceGraphic" in2="effect1_dropShadow_0_1" result="shape"/>
</filter>
</defs>
</svg>
