<svg width="18" height="auto" viewBox="0 0 18 371" fill="none" xmlns="http://www.w3.org/2000/svg">
<path d="M9 12C12.3138 12 15 9.31359 15 5.99989C15 2.68619 12.3138 0 9 0C5.68624 0 3 2.68619 3 5.99989C3 9.31359 5.68624 12 9 12Z" fill="#616369" fill-opacity="0.5"/>
<path d="M9 229C12.3138 229 15 226.09 15 222.5C15 218.91 12.3138 216 9 216C5.68624 216 3 218.91 3 222.5C3 226.09 5.68624 229 9 229Z" fill="#616369" fill-opacity="0.5"/>
<path d="M9 84C12.3138 84 15 81.3136 15 77.9999C15 74.6862 12.3138 72 9 72C5.68624 72 3 74.6862 3 77.9999C3 81.3136 5.68624 84 9 84Z" fill="#616369" fill-opacity="0.5"/>
<path d="M9 300C12.3138 300 15 297.314 15 294C15 290.686 12.3138 288 9 288C5.68624 288 3 290.686 3 294C3 297.314 5.68624 300 9 300Z" fill="#616369" fill-opacity="0.5"/>
<path d="M9.00011 161C13.9707 161 18 156.971 18 152C18 147.03 13.9707 143 9.00011 143C4.02955 143 0 147.03 0 152C0 156.971 4.02955 161 9.00011 161Z" fill="#226FB7"/>
<path d="M9 371C12.3138 371 15 368.314 15 365C15 361.686 12.3138 359 9 359C5.68624 359 3 361.686 3 365C3 368.314 5.68624 371 9 371Z" fill="#616369" fill-opacity="0.5"/>
</svg>
