<svg width="739" height="227" viewBox="0 0 739 227" fill="none" xmlns="http://www.w3.org/2000/svg">
<rect y="38" width="739" height="189" rx="32" fill="#F3F4F5" fill-opacity="0.53"/>
<g filter="url(#filter0_d_0_1)">
<path d="M151.613 0H79.3872C62.6048 0 49 13.6048 49 30.3872V102.613C49 119.395 62.6048 133 79.3872 133H151.613C168.395 133 182 119.395 182 102.613V30.3872C182 13.6048 168.395 0 151.613 0Z" fill="white"/>
<g clip-path="url(#clip0_0_1)">
<path d="M101.566 62.7541L88.6505 73.0759C88.3902 73.2822 88.2378 73.599 88.2378 73.9305V85.9027C88.2378 86.5105 88.736 87.0004 89.3457 87.0004H102.261C102.874 87.0004 103.369 86.5068 103.369 85.9027V63.6124C103.369 63.1887 103.124 62.802 102.737 62.6178C102.354 62.4336 101.893 62.4888 101.562 62.7541H101.566ZM101.153 84.8049H90.4573V74.4573L101.153 65.911V84.8049Z" fill="#ED1164"/>
<path d="M110.846 56.0709L107.514 58.1338C107.191 58.3364 106.99 58.6863 106.99 59.0658V85.8981C106.99 86.5059 107.488 86.9959 108.102 86.9959H121.017C121.631 86.9959 122.125 86.5022 122.125 85.8981V66.9084C122.125 66.6248 122.014 66.3522 121.816 66.1459L112.232 56.2366C111.868 55.8609 111.288 55.7909 110.842 56.0635L110.846 56.0709ZM119.906 84.8004H109.21V59.6773L111.258 58.4101L119.909 67.3542V84.804L119.906 84.8004Z" fill="#ED1164"/>
<path d="M134.531 58.4916L126.066 66.8794C125.921 67.0231 125.839 67.222 125.839 67.4246V86.2301C125.839 86.6537 126.188 87 126.616 87H135.081C135.512 87 135.858 86.6537 135.858 86.2301V59.0368C135.858 58.7273 135.669 58.4437 135.379 58.3258C135.089 58.2042 134.754 58.2705 134.531 58.4916ZM134.304 85.4602H127.393V67.7451L134.304 60.897V85.4602Z" fill="#ED1164" stroke="#E5005A"/>
<path d="M141.814 46.3796C135.706 50.8296 129.601 55.2795 123.493 59.7258C119.939 56.0421 116.385 52.3546 112.834 48.6672C112.463 48.2804 111.715 48.1478 111.254 48.4646C103.362 53.9018 95.469 59.339 87.58 64.7799C86.2118 65.7229 87.513 67.9663 88.896 67.0122C96.5099 61.7666 104.12 56.5209 111.734 51.2716C115.292 54.9664 118.853 58.6575 122.411 62.3523C122.776 62.728 123.541 62.8828 123.991 62.5549C130.371 57.906 136.747 53.2608 143.126 48.6156C144.465 47.6395 143.164 45.3961 141.81 46.3833L141.814 46.3796Z" fill="#ED1164"/>
<path d="M142.699 48.5786H130.757C130.04 48.5786 129.456 48.0003 129.456 47.2893C129.456 46.5783 130.04 46 130.757 46H142.699C143.416 46 144 46.5783 144 47.2893C144 48.0003 143.416 48.5786 142.699 48.5786Z" fill="#ED1164"/>
<path d="M139.643 60.1386C139.535 60.1386 139.42 60.1239 139.312 60.0944C138.617 59.9139 138.204 59.2067 138.386 58.5178L141.431 47.0761C141.613 46.3872 142.327 45.9784 143.022 46.1589C143.718 46.3394 144.13 47.0466 143.948 47.7355L140.903 59.1772C140.751 59.7555 140.223 60.1386 139.647 60.1386H139.643Z" fill="#ED1164"/>
</g>
</g>
<path d="M660.33 92.4C660.33 87.8133 661.037 84.2533 662.45 81.72C663.864 79.1867 666.397 77.92 670.05 77.92C673.704 77.92 676.237 79.1867 677.65 81.72C679.064 84.2533 679.77 87.8133 679.77 92.4C679.77 97.0667 679.064 100.68 677.65 103.24C676.237 105.8 673.704 107.08 670.05 107.08C666.37 107.08 663.824 105.8 662.41 103.24C661.024 100.68 660.33 97.0667 660.33 92.4ZM677.01 92.4C677.01 89.92 676.837 87.8267 676.49 86.12C676.144 84.4133 675.464 83.04 674.45 82C673.437 80.96 671.97 80.44 670.05 80.44C668.13 80.44 666.664 80.96 665.65 82C664.637 83.04 663.957 84.4133 663.61 86.12C663.264 87.8267 663.09 89.92 663.09 92.4C663.09 94.96 663.264 97.1067 663.61 98.84C663.957 100.547 664.637 101.92 665.65 102.96C666.664 104 668.13 104.52 670.05 104.52C671.97 104.52 673.437 104 674.45 102.96C675.464 101.92 676.144 100.547 676.49 98.84C676.837 97.1067 677.01 94.96 677.01 92.4ZM684.419 104.8C689.326 101.12 693.112 97.8267 695.779 94.92C698.472 91.9867 699.819 89.12 699.819 86.32C699.819 84.48 699.352 83.0133 698.419 81.92C697.512 80.8 696.019 80.24 693.939 80.24C691.912 80.24 690.339 80.88 689.219 82.16C688.126 83.4133 687.512 85.0933 687.379 87.2H684.659C684.819 84.24 685.726 81.9467 687.379 80.32C689.059 78.6667 691.246 77.84 693.939 77.84C696.526 77.84 698.619 78.5733 700.219 80.04C701.819 81.48 702.619 83.5333 702.619 86.2C702.619 89.4267 701.272 92.56 698.579 95.6C695.912 98.6133 692.619 101.56 688.699 104.44H703.499V106.8H684.419V104.8Z" fill="#E5005A" fill-opacity="0.3"/>
<defs>
<filter id="filter0_d_0_1" x="45" y="0" width="141" height="141" filterUnits="userSpaceOnUse" color-interpolation-filters="sRGB">
<feFlood flood-opacity="0" result="BackgroundImageFix"/>
<feColorMatrix in="SourceAlpha" type="matrix" values="0 0 0 0 0 0 0 0 0 0 0 0 0 0 0 0 0 0 127 0" result="hardAlpha"/>
<feOffset dy="4"/>
<feGaussianBlur stdDeviation="2"/>
<feComposite in2="hardAlpha" operator="out"/>
<feColorMatrix type="matrix" values="0 0 0 0 0.780392 0 0 0 0 0.858824 0 0 0 0 0.929412 0 0 0 1 0"/>
<feBlend mode="normal" in2="BackgroundImageFix" result="effect1_dropShadow_0_1"/>
<feBlend mode="normal" in="SourceGraphic" in2="effect1_dropShadow_0_1" result="shape"/>
</filter>
<clipPath id="clip0_0_1">
<rect width="57" height="41" fill="white" transform="translate(87 46)"/>
</clipPath>
</defs>
</svg>
