<svg width="739" height="227" viewBox="0 0 739 227" fill="none" xmlns="http://www.w3.org/2000/svg">
<rect y="38" width="739" height="189" rx="32" fill="#F3F4F5" fill-opacity="0.53"/>
<g filter="url(#filter0_d_0_1)">
<path d="M151.613 0H79.3872C62.6048 0 49 13.6048 49 30.3872V102.613C49 119.395 62.6048 133 79.3872 133H151.613C168.395 133 182 119.395 182 102.613V30.3872C182 13.6048 168.395 0 151.613 0Z" fill="white"/>
<g clip-path="url(#clip0_0_1)">
<path d="M116.456 44.0065L114.316 44C114.316 44 114.303 44.0098 114.296 44.0163C102.345 44.6499 93 54.5062 93 66.5016C93 78.4971 102.348 88.3599 114.296 88.9902L116.456 88.9967C128.545 88.4905 138 78.6277 138 66.5016C138 54.3756 128.545 44.516 116.456 44.0065ZM131.285 53.0202C129.677 54.2351 127.938 55.2573 126.101 56.0575C124.548 52.243 122.104 48.7975 118.985 46.0183C123.774 46.8282 128.101 49.2841 131.285 53.017V53.0202ZM116.371 46.1163C119.996 48.9053 122.792 52.55 124.486 56.7008C121.879 57.6349 119.151 58.1378 116.371 58.1966V46.1163ZM116.371 59.9406C119.35 59.8818 122.277 59.3429 125.083 58.3338C125.934 60.917 126.375 63.6146 126.388 66.3579L116.371 66.3645V59.9406ZM116.371 68.1052L126.332 68.0986C126.172 70.7929 125.605 73.4089 124.646 75.8877C121.983 74.9961 119.203 74.5193 116.371 74.4638V68.1019V68.1052ZM111.718 46.0738C108.727 48.7583 106.351 52.0666 104.805 55.7211C103.095 54.9079 101.473 53.902 99.979 52.7263C103.066 49.2449 107.193 46.9131 111.718 46.0771V46.0738ZM98.8795 54.0718C100.521 55.3651 102.299 56.4657 104.172 57.3475C103.167 60.2345 102.648 63.2685 102.635 66.3743H94.7423C94.7684 61.9001 96.1975 57.6577 98.8795 54.0751V54.0718ZM99.5353 79.7642C96.7652 76.4331 95.1371 72.4193 94.8043 68.1182H102.687C102.857 71.1326 103.503 74.0588 104.609 76.8184C102.808 77.6153 101.105 78.6048 99.532 79.7609L99.5353 79.7642ZM100.707 81.064C102.132 80.0255 103.679 79.1372 105.307 78.4187C106.854 81.6551 109.004 84.5127 111.712 86.9327C107.555 86.162 103.692 84.1078 100.703 81.064H100.707ZM114.629 87.0732C111.337 84.5977 108.684 81.3939 106.929 77.7655C109.395 76.8674 111.983 76.3547 114.629 76.2338V87.0732ZM114.629 74.4931C111.738 74.6172 108.912 75.179 106.224 76.1685C105.199 73.6114 104.596 70.9073 104.426 68.115L114.626 68.1084V74.4899L114.629 74.4931ZM114.629 66.371L104.374 66.3775C104.387 63.5167 104.857 60.7178 105.774 58.0464C108.599 59.16 111.575 59.7936 114.629 59.9242V66.371ZM114.629 58.1803C111.794 58.0496 109.03 57.4585 106.4 56.42C108.142 52.2985 110.978 48.6865 114.629 45.9399V58.1803ZM116.368 86.8935V76.2142C118.965 76.2665 121.517 76.7009 123.96 77.5042C122.247 81.1489 119.634 84.3788 116.368 86.8935ZM118.985 86.9882C121.817 84.4735 124.042 81.4918 125.605 78.1052C127.357 78.8171 129.021 79.7218 130.554 80.7962C127.455 84.0686 123.389 86.2404 118.981 86.9882H118.985ZM131.706 79.4768C130.026 78.2815 128.202 77.2822 126.274 76.4984C127.305 73.8302 127.908 71.0085 128.071 68.1019H136.192C135.876 72.2756 134.329 76.1979 131.706 79.4735V79.4768ZM136.258 66.3579H128.124C128.111 63.3958 127.631 60.4827 126.701 57.6969C128.708 56.8315 130.607 55.7211 132.355 54.3952C134.881 57.9059 136.228 62.0307 136.258 66.3612V66.3579Z" fill="#ED1164"/>
</g>
</g>
<path d="M660.077 92.4C660.077 87.8133 660.783 84.2533 662.197 81.72C663.61 79.1867 666.143 77.92 669.797 77.92C673.45 77.92 675.983 79.1867 677.397 81.72C678.81 84.2533 679.517 87.8133 679.517 92.4C679.517 97.0667 678.81 100.68 677.397 103.24C675.983 105.8 673.45 107.08 669.797 107.08C666.117 107.08 663.57 105.8 662.157 103.24C660.77 100.68 660.077 97.0667 660.077 92.4ZM676.757 92.4C676.757 89.92 676.583 87.8267 676.237 86.12C675.89 84.4133 675.21 83.04 674.197 82C673.183 80.96 671.717 80.44 669.797 80.44C667.877 80.44 666.41 80.96 665.397 82C664.383 83.04 663.703 84.4133 663.357 86.12C663.01 87.8267 662.837 89.92 662.837 92.4C662.837 94.96 663.01 97.1067 663.357 98.84C663.703 100.547 664.383 101.92 665.397 102.96C666.41 104 667.877 104.52 669.797 104.52C671.717 104.52 673.183 104 674.197 102.96C675.21 101.92 675.89 100.547 676.237 98.84C676.583 97.1067 676.757 94.96 676.757 92.4ZM684.605 85.64C684.792 83.2133 685.725 81.3067 687.405 79.92C689.112 78.5067 691.312 77.8 694.005 77.8C695.792 77.8 697.325 78.12 698.605 78.76C699.885 79.4 700.845 80.28 701.485 81.4C702.152 82.4933 702.485 83.7333 702.485 85.12C702.485 86.8 701.992 88.2533 701.005 89.48C700.018 90.7067 698.618 91.4667 696.805 91.76V91.96C698.698 92.3333 700.205 93.16 701.325 94.44C702.445 95.6933 703.005 97.3467 703.005 99.4C703.005 101.693 702.232 103.573 700.685 105.04C699.165 106.48 696.952 107.2 694.045 107.2C691.272 107.2 688.992 106.48 687.205 105.04C685.418 103.573 684.392 101.507 684.125 98.84H686.845C687.085 100.627 687.832 102.08 689.085 103.2C690.338 104.293 691.992 104.84 694.045 104.84C696.072 104.84 697.618 104.307 698.685 103.24C699.778 102.173 700.325 100.813 700.325 99.16C700.325 95.1067 697.405 93.08 691.565 93.08H690.685V90.72H691.605C697.045 90.72 699.765 88.9467 699.765 85.4C699.765 83.8533 699.258 82.6133 698.245 81.68C697.232 80.72 695.792 80.24 693.925 80.24C692.112 80.24 690.605 80.72 689.405 81.68C688.232 82.6133 687.538 83.9333 687.325 85.64H684.605Z" fill="#E5005A" fill-opacity="0.3"/>
<defs>
<filter id="filter0_d_0_1" x="45" y="0" width="141" height="141" filterUnits="userSpaceOnUse" color-interpolation-filters="sRGB">
<feFlood flood-opacity="0" result="BackgroundImageFix"/>
<feColorMatrix in="SourceAlpha" type="matrix" values="0 0 0 0 0 0 0 0 0 0 0 0 0 0 0 0 0 0 127 0" result="hardAlpha"/>
<feOffset dy="4"/>
<feGaussianBlur stdDeviation="2"/>
<feComposite in2="hardAlpha" operator="out"/>
<feColorMatrix type="matrix" values="0 0 0 0 0.780392 0 0 0 0 0.858824 0 0 0 0 0.929412 0 0 0 1 0"/>
<feBlend mode="normal" in2="BackgroundImageFix" result="effect1_dropShadow_0_1"/>
<feBlend mode="normal" in="SourceGraphic" in2="effect1_dropShadow_0_1" result="shape"/>
</filter>
<clipPath id="clip0_0_1">
<rect width="45" height="45" fill="white" transform="translate(93 44)"/>
</clipPath>
</defs>
</svg>
