<svg width="739" height="227" viewBox="0 0 739 227" fill="none" xmlns="http://www.w3.org/2000/svg">
<rect y="38" width="739" height="189" rx="32" fill="#F3F4F5" fill-opacity="0.53"/>
<g filter="url(#filter0_d_0_1)">
<path d="M151.613 0H79.3872C62.6048 0 49 13.6048 49 30.3872V102.613C49 119.395 62.6048 133 79.3872 133H151.613C168.395 133 182 119.395 182 102.613V30.3872C182 13.6048 168.395 0 151.613 0Z" fill="white"/>
<g clip-path="url(#clip0_0_1)">
<path d="M115.65 50.6986C114.202 50.6986 112.969 51.6305 112.5 52.9285L94.6613 55.1684C93.1311 55.3614 92.0394 56.7759 92.2307 58.3201C92.4055 59.7479 93.6159 60.7963 95.0043 60.7963C95.1198 60.7963 95.2352 60.7896 95.3539 60.773L96.0795 60.6831L90.7367 76.6484C90.7235 76.6883 90.7136 76.7283 90.7037 76.7682H87L87.0792 77.7933C87.3298 81.1314 90.1232 83.7474 93.4345 83.7474H103.108C106.422 83.7474 109.216 81.1348 109.466 77.7933L109.542 76.7682H106.086C106.079 76.7283 106.066 76.6883 106.053 76.6484L100.525 60.124L112.296 58.6463V86.2302H106.158C104.308 86.2302 102.804 87.7478 102.804 89.615C102.804 91.4821 104.308 92.9997 106.158 92.9997H125.139C126.989 92.9997 128.493 91.4821 128.493 89.615C128.493 87.7478 126.989 86.2302 125.139 86.2302H119.004V57.8043L130.412 56.3698L125.195 71.959C125.181 71.9989 125.171 72.0389 125.165 72.0788H121.458L121.534 73.1039C121.784 76.442 124.578 79.058 127.892 79.058H137.566C140.88 79.058 143.67 76.442 143.921 73.1039L144 72.0788H140.544C140.537 72.0389 140.524 71.9989 140.511 71.959L135.099 55.7807L136.335 55.6243C137.866 55.4313 138.957 54.0168 138.766 52.4725C138.575 50.9283 137.173 49.8233 135.643 50.0197L118.424 52.183C117.82 51.2877 116.801 50.6953 115.65 50.6953V50.6986ZM107.382 78.6752C106.795 80.529 105.05 81.8403 103.108 81.8403H93.4345C91.4919 81.8403 89.7473 80.529 89.1602 78.6752H107.385H107.382ZM104.334 76.7682H92.4583L97.9165 60.4535L98.84 60.337L104.334 76.7682ZM125.139 87.9209C126.062 87.9209 126.814 88.6797 126.814 89.6116C126.814 90.5435 126.062 91.3023 125.139 91.3023H106.158C105.235 91.3023 104.483 90.5435 104.483 89.6116C104.483 88.6797 105.235 87.9209 106.158 87.9209H125.139ZM141.84 73.9859C141.253 75.8396 139.508 77.1509 137.566 77.1509H127.892C125.947 77.1509 124.205 75.8396 123.615 73.9859H141.84ZM138.792 72.0788H126.913L132.246 56.1369L133.41 55.9904L138.792 72.0788ZM135.851 51.6971C135.897 51.6937 135.943 51.6871 135.989 51.6871C136.546 51.6871 137.031 52.1064 137.101 52.6789C137.137 52.9784 137.054 53.2713 136.87 53.5143C136.685 53.7539 136.421 53.907 136.124 53.9436L118.998 56.0969L118.16 56.2034L117.322 56.3099V86.2302H113.968V56.7326L113.13 56.8391L112.293 56.9456L95.1429 59.0989C94.8493 59.1355 94.5558 59.0557 94.315 58.866C94.0776 58.6796 93.9259 58.4133 93.8896 58.1171C93.8533 57.8176 93.9325 57.5214 94.1205 57.2818C94.3052 57.0421 94.569 56.889 94.8658 56.8524L112.293 54.6625L113.13 54.556L113.968 54.4495V54.0834C113.968 53.9103 114.001 53.7439 114.051 53.5875C114.173 53.1914 114.43 52.8553 114.776 52.6423C115.03 52.4859 115.327 52.3893 115.647 52.3893C115.818 52.3893 115.98 52.4226 116.135 52.4725C116.531 52.5957 116.864 52.8553 117.075 53.2081C117.22 53.451 117.309 53.7306 117.319 54.0301L118.147 53.927L118.988 53.8205L135.847 51.7004L135.851 51.6971Z" fill="#ED1164"/>
</g>
</g>
<path d="M659.51 92.4C659.51 87.8133 660.217 84.2533 661.63 81.72C663.043 79.1867 665.577 77.92 669.23 77.92C672.883 77.92 675.417 79.1867 676.83 81.72C678.243 84.2533 678.95 87.8133 678.95 92.4C678.95 97.0667 678.243 100.68 676.83 103.24C675.417 105.8 672.883 107.08 669.23 107.08C665.55 107.08 663.003 105.8 661.59 103.24C660.203 100.68 659.51 97.0667 659.51 92.4ZM676.19 92.4C676.19 89.92 676.017 87.8267 675.67 86.12C675.323 84.4133 674.643 83.04 673.63 82C672.617 80.96 671.15 80.44 669.23 80.44C667.31 80.44 665.843 80.96 664.83 82C663.817 83.04 663.137 84.4133 662.79 86.12C662.443 87.8267 662.27 89.92 662.27 92.4C662.27 94.96 662.443 97.1067 662.79 98.84C663.137 100.547 663.817 101.92 664.83 102.96C665.843 104 667.31 104.52 669.23 104.52C671.15 104.52 672.617 104 673.63 102.96C674.643 101.92 675.323 100.547 675.67 98.84C676.017 97.1067 676.19 94.96 676.19 92.4ZM682.919 100.2V98.08L697.479 78.48H700.799V97.76H705.079V100.2H700.799V107H698.039V100.2H682.919ZM698.159 81.56L686.159 97.76H698.159V81.56Z" fill="#E5005A" fill-opacity="0.3"/>
<defs>
<filter id="filter0_d_0_1" x="45" y="0" width="141" height="141" filterUnits="userSpaceOnUse" color-interpolation-filters="sRGB">
<feFlood flood-opacity="0" result="BackgroundImageFix"/>
<feColorMatrix in="SourceAlpha" type="matrix" values="0 0 0 0 0 0 0 0 0 0 0 0 0 0 0 0 0 0 127 0" result="hardAlpha"/>
<feOffset dy="4"/>
<feGaussianBlur stdDeviation="2"/>
<feComposite in2="hardAlpha" operator="out"/>
<feColorMatrix type="matrix" values="0 0 0 0 0.780392 0 0 0 0 0.858824 0 0 0 0 0.929412 0 0 0 1 0"/>
<feBlend mode="normal" in2="BackgroundImageFix" result="effect1_dropShadow_0_1"/>
<feBlend mode="normal" in="SourceGraphic" in2="effect1_dropShadow_0_1" result="shape"/>
</filter>
<clipPath id="clip0_0_1">
<rect width="57" height="43" fill="white" transform="translate(87 50)"/>
</clipPath>
</defs>
</svg>
