<svg width="739" height="227" viewBox="0 0 739 227" fill="none" xmlns="http://www.w3.org/2000/svg">
<rect y="38" width="739" height="189" rx="32" fill="#F3F4F5" fill-opacity="0.53"/>
<g filter="url(#filter0_d_0_1)">
<path d="M151.613 0H79.3872C62.6048 0 49 13.6048 49 30.3872V102.613C49 119.395 62.6048 133 79.3872 133H151.613C168.395 133 182 119.395 182 102.613V30.3872C182 13.6048 168.395 0 151.613 0Z" fill="white"/>
</g>
<g clip-path="url(#clip0_0_1)">
<path d="M123.644 58.626C128.803 58.626 132.996 54.4474 132.996 49.3109C132.996 44.1744 128.803 40 123.644 40C118.484 40 114.291 44.1786 114.291 49.3109C114.291 50.4918 114.523 51.619 114.926 52.6596L104.665 59.6954C103.155 58.6507 101.326 58.0355 99.3523 58.0355C94.193 58.0355 90 62.2141 90 67.3464C90 72.4788 94.1971 76.6574 99.3523 76.6574C101.521 76.6574 103.516 75.91 105.105 74.6754L114.635 81.2034C114.416 81.9921 114.287 82.822 114.287 83.6808C114.287 88.8173 118.484 92.9917 123.639 92.9917C128.795 92.9917 132.992 88.8132 132.992 83.6808C132.992 78.5485 128.795 74.3658 123.639 74.3658C121.379 74.3658 119.305 75.1668 117.688 76.5005L108.294 70.0675C108.56 69.2045 108.705 68.292 108.705 67.3464C108.705 66.211 108.489 65.1292 108.116 64.1217L118.443 57.0404C119.932 58.0355 121.719 58.6177 123.644 58.6177V58.626ZM123.644 42.2916C127.534 42.2916 130.698 45.442 130.698 49.3151C130.698 53.1881 127.534 56.3385 123.644 56.3385C119.753 56.3385 116.593 53.1881 116.593 49.3151C116.593 45.442 119.757 42.2916 123.644 42.2916ZM99.3523 74.374C95.4621 74.374 92.2976 71.2236 92.2976 67.3547C92.2976 63.4858 95.4621 60.3354 99.3523 60.3354C103.243 60.3354 106.407 63.4858 106.407 67.3547C106.407 71.2236 103.243 74.374 99.3523 74.374ZM123.644 76.6656C127.534 76.6656 130.698 79.8161 130.698 83.6891C130.698 87.5621 127.534 90.7084 123.644 90.7084C119.753 90.7084 116.593 87.558 116.593 83.6891C116.593 79.8202 119.757 76.6656 123.644 76.6656ZM116.104 78.2016C115.9 78.4741 115.714 78.759 115.544 79.0522L106.751 73.0321C106.959 72.7637 107.149 72.4829 107.328 72.1939L116.099 78.2016H116.104ZM107.054 62.0778C106.859 61.7971 106.648 61.5328 106.424 61.2727L116.021 54.6952C116.22 54.9718 116.431 55.2361 116.659 55.4921L107.05 62.0778H107.054Z" fill="#ED1164"/>
</g>
<path d="M665.936 92.4C665.936 87.8133 666.643 84.2533 668.056 81.72C669.469 79.1867 672.003 77.92 675.656 77.92C679.309 77.92 681.843 79.1867 683.256 81.72C684.669 84.2533 685.376 87.8133 685.376 92.4C685.376 97.0667 684.669 100.68 683.256 103.24C681.843 105.8 679.309 107.08 675.656 107.08C671.976 107.08 669.429 105.8 668.016 103.24C666.629 100.68 665.936 97.0667 665.936 92.4ZM682.616 92.4C682.616 89.92 682.443 87.8267 682.096 86.12C681.749 84.4133 681.069 83.04 680.056 82C679.043 80.96 677.576 80.44 675.656 80.44C673.736 80.44 672.269 80.96 671.256 82C670.243 83.04 669.563 84.4133 669.216 86.12C668.869 87.8267 668.696 89.92 668.696 92.4C668.696 94.96 668.869 97.1067 669.216 98.84C669.563 100.547 670.243 101.92 671.256 102.96C672.269 104 673.736 104.52 675.656 104.52C677.576 104.52 679.043 104 680.056 102.96C681.069 101.92 681.749 100.547 682.096 98.84C682.443 97.1067 682.616 94.96 682.616 92.4ZM689.224 80.84V78.32H696.024V107H693.184V80.84H689.224Z" fill="#E5005A" fill-opacity="0.3"/>
<defs>
<filter id="filter0_d_0_1" x="45" y="0" width="141" height="141" filterUnits="userSpaceOnUse" color-interpolation-filters="sRGB">
<feFlood flood-opacity="0" result="BackgroundImageFix"/>
<feColorMatrix in="SourceAlpha" type="matrix" values="0 0 0 0 0 0 0 0 0 0 0 0 0 0 0 0 0 0 127 0" result="hardAlpha"/>
<feOffset dy="4"/>
<feGaussianBlur stdDeviation="2"/>
<feComposite in2="hardAlpha" operator="out"/>
<feColorMatrix type="matrix" values="0 0 0 0 0.780392 0 0 0 0 0.858824 0 0 0 0 0.929412 0 0 0 1 0"/>
<feBlend mode="normal" in2="BackgroundImageFix" result="effect1_dropShadow_0_1"/>
<feBlend mode="normal" in="SourceGraphic" in2="effect1_dropShadow_0_1" result="shape"/>
</filter>
<clipPath id="clip0_0_1">
<rect width="43" height="53" fill="white" transform="translate(90 40)"/>
</clipPath>
</defs>
</svg>
